<svg version="1.1" viewBox="0.0 0.0 600.0 371.0" fill="none" stroke="none" stroke-linecap="square" stroke-miterlimit="10" width="600" height="371" xmlns:xlink="http://www.w3.org/1999/xlink" xmlns="http://www.w3.org/2000/svg"><path fill="#ffffff" d="M0 0L600.0 0L600.0 371.0L0 371.0L0 0Z" fill-rule="nonzero"/><path fill="#fbbc04" d="M216.525 40.917057C241.9046 26.264135 270.69415 18.55 300.0 18.55L300.0 185.5Z" fill-rule="nonzero"/><path fill="#ea4335" d="M133.05 185.5C133.05 125.85451 164.87048 70.73981 216.525 40.917057L300.0 185.5Z" fill-rule="nonzero"/><path fill="#4285f4" d="M300.0 18.55C392.20395 18.55 466.95 93.29606 466.95 185.5C466.95 277.70395 392.20395 352.45 300.0 352.45C207.79607 352.45 133.05 277.70395 133.05 185.5L300.0 185.5Z" fill-rule="nonzero"/><path fill="#1a1a1a" d="M18.89375 27.1125L19.925 26.971874Q19.95625 27.95625 20.284374 28.315624Q20.6125 28.675 21.20625 28.675Q21.628124 28.675 21.940624 28.4875Q22.253124 28.284374 22.3625 27.95625Q22.4875 27.6125 22.4875 26.878124L22.4875 20.95625L23.6125 20.95625L23.6125 26.815624Q23.6125 27.89375 23.346874 28.4875Q23.096874 29.08125 22.534374 29.39375Q21.971874 29.690624 21.20625 29.690624Q20.08125 29.690624 19.471874 29.05Q18.878124 28.39375 18.89375 27.1125ZM29.425 29.55L29.425 28.628124Q28.690624 29.690624 27.440624 29.690624Q26.89375 29.690624 26.409374 29.4875Q25.940624 29.26875 25.70625 28.95625Q25.471874 28.628124 25.378124 28.159374Q25.315624 27.8625 25.315624 27.175L25.315624 23.33125L26.378124 23.33125L26.378124 26.784374Q26.378124 27.596874 26.440624 27.89375Q26.534374 28.3 26.846874 28.55Q27.175 28.784374 27.659374 28.784374Q28.128124 28.784374 28.534374 28.55Q28.95625 28.3 29.128124 27.878124Q29.315624 27.45625 29.315624 26.659374L29.315624 23.33125L30.3625 23.33125L30.3625 29.55L29.425 29.55ZM31.925 27.690624L32.95625 27.534374Q33.05 28.159374 33.440624 28.4875Q33.846874 28.815624 34.58125 28.815624Q35.3 28.815624 35.64375 28.534374Q36.003124 28.2375 36.003124 27.83125Q36.003124 27.471874 35.690624 27.26875Q35.471874 27.128124 34.6125 26.909374Q33.45625 26.6125 33.003124 26.409374Q32.565624 26.190624 32.33125 25.815624Q32.096874 25.440624 32.096874 24.971874Q32.096874 24.565624 32.284374 24.20625Q32.471874 23.846874 32.8 23.6125Q33.05 23.440624 33.471874 23.315624Q33.89375 23.190624 34.39375 23.190624Q35.1125 23.190624 35.659374 23.409374Q36.221874 23.6125 36.4875 23.971874Q36.753124 24.33125 36.846874 24.925L35.815624 25.065624Q35.753124 24.596874 35.409374 24.33125Q35.08125 24.05 34.45625 24.05Q33.7375 24.05 33.425 24.3Q33.1125 24.534374 33.1125 24.8625Q33.1125 25.065624 33.2375 25.221874Q33.378124 25.39375 33.64375 25.503124Q33.8 25.565624 34.58125 25.76875Q35.70625 26.08125 36.14375 26.26875Q36.58125 26.45625 36.83125 26.815624Q37.08125 27.175 37.08125 27.721874Q37.08125 28.253124 36.76875 28.721874Q36.471874 29.175 35.89375 29.440624Q35.315624 29.690624 34.58125 29.690624Q33.3625 29.690624 32.721874 29.190624Q32.096874 28.675 31.925 27.690624ZM40.64375 28.6125L40.8 29.534374Q40.346874 29.628124 40.003124 29.628124Q39.425 29.628124 39.1125 29.45625Q38.8 29.26875 38.659374 28.971874Q38.534374 28.675 38.534374 27.721874L38.534374 24.14375L37.76875 24.14375L37.76875 23.33125L38.534374 23.33125L38.534374 21.784374L39.58125 21.159374L39.58125 23.33125L40.64375 23.33125L40.64375 24.14375L39.58125 24.14375L39.58125 27.784374Q39.58125 28.2375 39.628124 28.3625Q39.690624 28.4875 39.815624 28.565624Q39.940624 28.64375 40.175 28.64375Q40.3625 28.64375 40.64375 28.6125ZM41.346874 22.175L41.346874 20.95625L42.409374 20.95625L42.409374 22.175L41.346874 22.175ZM41.346874 29.55L41.346874 23.33125L42.409374 23.33125L42.409374 29.55L41.346874 29.55ZM44.346874 29.55L44.346874 23.33125L45.284374 23.33125L45.284374 24.20625Q45.971874 23.190624 47.26875 23.190624Q47.83125 23.190624 48.3 23.39375Q48.784374 23.596874 49.01875 23.925Q49.253124 24.253124 49.346874 24.690624Q49.39375 24.9875 49.39375 25.721874L49.39375 29.55L48.346874 29.55L48.346874 25.76875Q48.346874 25.1125 48.221874 24.8Q48.096874 24.4875 47.784374 24.3Q47.471874 24.096874 47.05 24.096874Q46.378124 24.096874 45.878124 24.534374Q45.39375 24.95625 45.39375 26.14375L45.39375 29.55L44.346874 29.55Z" fill-rule="nonzero"/><path fill="#9e9e9e" d="M20.675 41.89375Q20.01875 41.64375 19.690624 41.20625Q19.378124 40.753124 19.378124 40.14375Q19.378124 39.20625 20.05 38.565624Q20.7375 37.925 21.846874 37.925Q22.971874 37.925 23.659374 38.58125Q24.346874 39.2375 24.346874 40.175Q24.346874 40.76875 24.034374 41.20625Q23.721874 41.64375 23.08125 41.89375Q23.878124 42.14375 24.284374 42.721874Q24.690624 43.3 24.690624 44.096874Q24.690624 45.190624 23.909374 45.940624Q23.14375 46.690624 21.8625 46.690624Q20.596874 46.690624 19.815624 45.940624Q19.034374 45.190624 19.034374 44.065624Q19.034374 43.221874 19.45625 42.659374Q19.89375 42.096874 20.675 41.89375ZM20.45625 40.096874Q20.45625 40.70625 20.846874 41.096874Q21.253124 41.4875 21.878124 41.4875Q22.4875 41.4875 22.878124 41.1125Q23.26875 40.721874 23.26875 40.159374Q23.26875 39.58125 22.8625 39.190624Q22.45625 38.784374 21.8625 38.784374Q21.253124 38.784374 20.846874 39.175Q20.45625 39.565624 20.45625 40.096874ZM20.128124 44.065624Q20.128124 44.51875 20.33125 44.940624Q20.55 45.3625 20.971874 45.596874Q21.39375 45.83125 21.878124 45.83125Q22.628124 45.83125 23.1125 45.346874Q23.6125 44.8625 23.6125 44.1125Q23.6125 43.346874 23.1125 42.846874Q22.6125 42.346874 21.846874 42.346874Q21.096874 42.346874 20.6125 42.846874Q20.128124 43.33125 20.128124 44.065624ZM26.64375 46.55L26.64375 45.346874L27.846874 45.346874L27.846874 46.55L26.64375 46.55ZM29.05 44.284374L30.1125 44.14375Q30.284374 45.034374 30.721874 45.440624Q31.159374 45.83125 31.784374 45.83125Q32.534374 45.83125 33.05 45.315624Q33.565624 44.8 33.565624 44.034374Q33.565624 43.315624 33.08125 42.846874Q32.6125 42.3625 31.878124 42.3625Q31.58125 42.3625 31.128124 42.4875L31.253124 41.55Q31.3625 41.565624 31.425 41.565624Q32.096874 41.565624 32.628124 41.221874Q33.175 40.8625 33.175 40.128124Q33.175 39.55 32.784374 39.175Q32.39375 38.784374 31.76875 38.784374Q31.159374 38.784374 30.7375 39.175Q30.33125 39.565624 30.221874 40.33125L29.159374 40.14375Q29.346874 39.096874 30.034374 38.51875Q30.721874 37.925 31.7375 37.925Q32.440624 37.925 33.034374 38.2375Q33.628124 38.534374 33.940624 39.05Q34.253124 39.565624 34.253124 40.159374Q34.253124 40.70625 33.95625 41.175Q33.659374 41.628124 33.08125 41.89375Q33.83125 42.065624 34.253124 42.628124Q34.675 43.175 34.675 44.01875Q34.675 45.14375 33.846874 45.925Q33.034374 46.70625 31.784374 46.70625Q30.659374 46.70625 29.909374 46.034374Q29.159374 45.346874 29.05 44.284374ZM36.253124 40.01875Q36.253124 39.096874 36.70625 38.45625Q37.175 37.815624 38.05 37.815624Q38.8625 37.815624 39.39375 38.39375Q39.925 38.971874 39.925 40.08125Q39.925 41.175 39.378124 41.76875Q38.846874 42.346874 38.065624 42.346874Q37.284374 42.346874 36.76875 41.76875Q36.253124 41.190624 36.253124 40.01875ZM38.08125 38.534374Q37.690624 38.534374 37.425 38.878124Q37.175 39.221874 37.175 40.128124Q37.175 40.95625 37.425 41.3Q37.690624 41.628124 38.08125 41.628124Q38.4875 41.628124 38.7375 41.284374Q39.003124 40.940624 39.003124 40.05Q39.003124 39.20625 38.7375 38.878124Q38.471874 38.534374 38.08125 38.534374ZM38.08125 46.8625L42.784374 37.815624L43.64375 37.815624L38.95625 46.8625L38.08125 46.8625ZM41.8 44.534374Q41.8 43.6125 42.253124 42.971874Q42.721874 42.33125 43.6125 42.33125Q44.425 42.33125 44.95625 42.909374Q45.4875 43.471874 45.4875 44.596874Q45.4875 45.690624 44.940624 46.284374Q44.409374 46.8625 43.6125 46.8625Q42.846874 46.8625 42.315624 46.284374Q41.8 45.70625 41.8 44.534374ZM43.64375 43.05Q43.2375 43.05 42.971874 43.39375Q42.721874 43.7375 42.721874 44.64375Q42.721874 45.45625 42.9875 45.8Q43.253124 46.14375 43.64375 46.14375Q44.034374 46.14375 44.3 45.8Q44.565624 45.45625 44.565624 44.55Q44.565624 43.721874 44.3 43.39375Q44.034374 43.05 43.64375 43.05Z" fill-rule="nonzero"/><path stroke="#757575" stroke-width="1.0" stroke-linecap="butt" d="M18.55 34.05L127.05 34.05L258.95065 32.30175" fill-rule="nonzero"/><path fill="#9e9e9e" d="M260.95065 32.30175C260.95065 31.19718 260.05524 30.301748 258.95065 30.301748C257.84607 30.301748 256.95065 31.19718 256.95065 32.30175C256.95065 33.40632 257.84607 34.30175 258.95065 34.30175C260.05524 34.30175 260.95065 33.40632 260.95065 32.30175" fill-rule="nonzero"/><path fill="#1a1a1a" d="M18.89375 99.26125L19.925 99.12063Q19.95625 100.105 20.284374 100.46438Q20.6125 100.82375 21.20625 100.82375Q21.628124 100.82375 21.940624 100.63625Q22.253124 100.43313 22.3625 100.105Q22.4875 99.76125 22.4875 99.02688L22.4875 93.105L23.6125 93.105L23.6125 98.96438Q23.6125 100.0425 23.346874 100.63625Q23.096874 101.23 22.534374 101.5425Q21.971874 101.83938 21.20625 101.83938Q20.08125 101.83938 19.471874 101.19875Q18.878124 100.5425 18.89375 99.26125ZM29.409374 100.93313Q28.815624 101.43313 28.26875 101.63625Q27.7375 101.83938 27.1125 101.83938Q26.08125 101.83938 25.534374 101.33938Q24.9875 100.83938 24.9875 100.05813Q24.9875 99.605 25.190624 99.23Q25.39375 98.83938 25.7375 98.62063Q26.08125 98.38625 26.503124 98.27688Q26.8 98.18313 27.440624 98.105Q28.70625 97.96438 29.315624 97.74563Q29.315624 97.52688 29.315624 97.48Q29.315624 96.82375 29.01875 96.55813Q28.6125 96.21438 27.815624 96.21438Q27.08125 96.21438 26.721874 96.48Q26.3625 96.73 26.190624 97.38625L25.159374 97.24563Q25.3 96.58938 25.628124 96.18313Q25.95625 95.77688 26.565624 95.55813Q27.175 95.33938 27.971874 95.33938Q28.76875 95.33938 29.26875 95.52688Q29.76875 95.71438 30.003124 95.99563Q30.2375 96.27688 30.33125 96.71438Q30.378124 96.98 30.378124 97.68313L30.378124 99.08938Q30.378124 100.55813 30.440624 100.94875Q30.51875 101.33938 30.721874 101.69875L29.6125 101.69875Q29.45625 101.37063 29.409374 100.93313ZM29.315624 98.57375Q28.7375 98.80813 27.596874 98.98Q26.940624 99.07375 26.675 99.19875Q26.409374 99.30813 26.253124 99.52688Q26.1125 99.74563 26.1125 100.02688Q26.1125 100.44875 26.425 100.73Q26.753124 101.01125 27.3625 101.01125Q27.971874 101.01125 28.440624 100.74563Q28.925 100.48 29.14375 100.01125Q29.315624 99.65188 29.315624 98.96438L29.315624 98.57375ZM32.346874 101.69875L32.346874 93.105L33.409374 93.105L33.409374 98.01125L35.89375 95.48L37.26875 95.48L34.878124 97.77688L37.503124 101.69875L36.20625 101.69875L34.14375 98.51125L33.409374 99.23L33.409374 101.69875L32.346874 101.69875ZM42.596874 99.69875L43.690624 99.82375Q43.440624 100.77688 42.7375 101.30813Q42.034374 101.83938 40.95625 101.83938Q39.596874 101.83938 38.784374 100.99563Q37.9875 100.15188 37.9875 98.63625Q37.9875 97.07375 38.8 96.21438Q39.6125 95.33938 40.89375 95.33938Q42.14375 95.33938 42.925 96.18313Q43.721874 97.02688 43.721874 98.57375Q43.721874 98.6675 43.721874 98.855L39.08125 98.855Q39.14375 99.88625 39.659374 100.43313Q40.175 100.96438 40.95625 100.96438Q41.534374 100.96438 41.940624 100.6675Q42.3625 100.355 42.596874 99.69875ZM39.14375 97.99563L42.6125 97.99563Q42.55 97.19875 42.221874 96.80813Q41.70625 96.19875 40.909374 96.19875Q40.175 96.19875 39.675 96.68313Q39.190624 97.1675 39.14375 97.99563Z" fill-rule="nonzero"/><path fill="#9e9e9e" d="M23.01875 118.69875L21.971874 118.69875L21.971874 111.98Q21.58125 112.33938 20.95625 112.71438Q20.346874 113.07375 19.8625 113.24563L19.8625 112.23Q20.7375 111.80813 21.39375 111.23Q22.065624 110.63625 22.346874 110.07375L23.01875 110.07375L23.01875 118.69875ZM31.51875 112.21438L30.471874 112.2925Q30.33125 111.6675 30.08125 111.38625Q29.64375 110.93313 29.01875 110.93313Q28.51875 110.93313 28.128124 111.21438Q27.64375 111.58938 27.346874 112.2925Q27.065624 112.98 27.05 114.26125Q27.425 113.68313 27.971874 113.40188Q28.534374 113.12063 29.14375 113.12063Q30.190624 113.12063 30.925 113.90188Q31.675 114.68313 31.675 115.90188Q31.675 116.71438 31.315624 117.4175Q30.971874 118.105 30.3625 118.48Q29.753124 118.83938 28.9875 118.83938Q27.659374 118.83938 26.83125 117.87063Q26.003124 116.90188 26.003124 114.68313Q26.003124 112.18313 26.925 111.05813Q27.721874 110.07375 29.08125 110.07375Q30.096874 110.07375 30.7375 110.65188Q31.39375 111.21438 31.51875 112.21438ZM27.221874 115.9175Q27.221874 116.46438 27.440624 116.96438Q27.675 117.44875 28.08125 117.71438Q28.503124 117.98 28.971874 117.98Q29.628124 117.98 30.1125 117.44875Q30.596874 116.90188 30.596874 115.98Q30.596874 115.08938 30.1125 114.57375Q29.64375 114.05813 28.925 114.05813Q28.20625 114.05813 27.70625 114.57375Q27.221874 115.08938 27.221874 115.9175ZM33.64375 118.69875L33.64375 117.49563L34.846874 117.49563L34.846874 118.69875L33.64375 118.69875ZM36.1125 111.23L36.1125 110.21438L41.675 110.21438L41.675 111.0425Q40.8625 111.9175 40.05 113.37063Q39.253124 114.80813 38.815624 116.33938Q38.4875 117.4175 38.409374 118.69875L37.315624 118.69875Q37.33125 117.68313 37.70625 116.24563Q38.096874 114.80813 38.8 113.48Q39.51875 112.15188 40.33125 111.23L36.1125 111.23ZM43.253124 112.1675Q43.253124 111.24563 43.70625 110.605Q44.175 109.96438 45.05 109.96438Q45.8625 109.96438 46.39375 110.5425Q46.925 111.12063 46.925 112.23Q46.925 113.32375 46.378124 113.9175Q45.846874 114.49563 45.065624 114.49563Q44.284374 114.49563 43.76875 113.9175Q43.253124 113.33938 43.253124 112.1675ZM45.08125 110.68313Q44.690624 110.68313 44.425 111.02688Q44.175 111.37063 44.175 112.27688Q44.175 113.105 44.425 113.44875Q44.690624 113.77688 45.08125 113.77688Q45.4875 113.77688 45.7375 113.43313Q46.003124 113.08938 46.003124 112.19875Q46.003124 111.355 45.7375 111.02688Q45.471874 110.68313 45.08125 110.68313ZM45.08125 119.01125L49.784374 109.96438L50.64375 109.96438L45.95625 119.01125L45.08125 119.01125ZM48.8 116.68313Q48.8 115.76125 49.253124 115.12063Q49.721874 114.48 50.6125 114.48Q51.425 114.48 51.95625 115.05813Q52.4875 115.62063 52.4875 116.74563Q52.4875 117.83938 51.940624 118.43313Q51.409374 119.01125 50.6125 119.01125Q49.846874 119.01125 49.315624 118.43313Q48.8 117.855 48.8 116.68313ZM50.64375 115.19875Q50.2375 115.19875 49.971874 115.5425Q49.721874 115.88625 49.721874 116.7925Q49.721874 117.605 49.9875 117.94875Q50.253124 118.2925 50.64375 118.2925Q51.034374 118.2925 51.3 117.94875Q51.565624 117.605 51.565624 116.69875Q51.565624 115.87063 51.3 115.5425Q51.034374 115.19875 50.64375 115.19875Z" fill-rule="nonzero"/><path stroke="#757575" stroke-width="1.0" stroke-linecap="butt" d="M18.55 106.19875L127.05 106.19875L162.64621 106.19875" fill-rule="nonzero"/><path fill="#9e9e9e" d="M164.64621 106.19875C164.64621 105.09418 163.75078 104.19875 162.64621 104.19875C161.54164 104.19875 160.64621 105.09418 160.64621 106.19875C160.64621 107.30332 161.54164 108.19875 162.64621 108.19875C163.75078 108.19875 164.64621 107.30332 164.64621 106.19875" fill-rule="nonzero"/><path fill="#1a1a1a" d="M559.34064 293.1489L559.34064 284.55515L561.0594 284.55515L563.09064 290.63327Q563.3719 291.49265 563.4969 291.91452Q563.6375 291.44577 563.95 290.53952L566.0125 284.55515L567.54376 284.55515L567.54376 293.1489L566.45 293.1489L566.45 285.9614L563.95 293.1489L562.91876 293.1489L560.4344 285.8364L560.4344 293.1489L559.34064 293.1489ZM573.3094 292.38327Q572.71564 292.88327 572.16876 293.0864Q571.6375 293.28952 571.0125 293.28952Q569.98126 293.28952 569.4344 292.78952Q568.8875 292.28952 568.8875 291.50827Q568.8875 291.05515 569.09064 290.68015Q569.29376 290.28952 569.6375 290.07077Q569.98126 289.8364 570.40314 289.72702Q570.7 289.63327 571.34064 289.55515Q572.60626 289.41452 573.21564 289.19577Q573.21564 288.97702 573.21564 288.93015Q573.21564 288.2739 572.91876 288.00827Q572.5125 287.66452 571.71564 287.66452Q570.98126 287.66452 570.6219 287.93015Q570.2625 288.18015 570.09064 288.8364L569.0594 288.69577Q569.2 288.03952 569.52814 287.63327Q569.85626 287.22702 570.46564 287.00827Q571.075 286.78952 571.8719 286.78952Q572.66876 286.78952 573.16876 286.97702Q573.66876 287.16452 573.90314 287.44577Q574.1375 287.72702 574.23126 288.16452Q574.27814 288.43015 574.27814 289.13327L574.27814 290.53952Q574.27814 292.00827 574.34064 292.3989Q574.41876 292.78952 574.6219 293.1489L573.5125 293.1489Q573.35626 292.82077 573.3094 292.38327ZM573.21564 290.0239Q572.6375 290.25827 571.4969 290.43015Q570.84064 290.5239 570.575 290.6489Q570.3094 290.75827 570.15314 290.97702Q570.0125 291.19577 570.0125 291.47702Q570.0125 291.8989 570.325 292.18015Q570.65314 292.4614 571.2625 292.4614Q571.8719 292.4614 572.34064 292.19577Q572.825 291.93015 573.04376 291.4614Q573.21564 291.10202 573.21564 290.41452L573.21564 290.0239ZM578.54376 292.2114L578.7 293.13327Q578.2469 293.22702 577.90314 293.22702Q577.325 293.22702 577.0125 293.05515Q576.7 292.86765 576.5594 292.57077Q576.4344 292.2739 576.4344 291.32077L576.4344 287.74265L575.66876 287.74265L575.66876 286.93015L576.4344 286.93015L576.4344 285.38327L577.48126 284.75827L577.48126 286.93015L578.54376 286.93015L578.54376 287.74265L577.48126 287.74265L577.48126 291.38327Q577.48126 291.8364 577.52814 291.9614Q577.59064 292.0864 577.71564 292.16452Q577.84064 292.24265 578.075 292.24265Q578.2625 292.24265 578.54376 292.2114ZM581.54376 292.2114L581.7 293.13327Q581.2469 293.22702 580.90314 293.22702Q580.325 293.22702 580.0125 293.05515Q579.7 292.86765 579.5594 292.57077Q579.4344 292.2739 579.4344 291.32077L579.4344 287.74265L578.66876 287.74265L578.66876 286.93015L579.4344 286.93015L579.4344 285.38327L580.48126 284.75827L580.48126 286.93015L581.54376 286.93015L581.54376 287.74265L580.48126 287.74265L580.48126 291.38327Q580.48126 291.8364 580.52814 291.9614Q580.59064 292.0864 580.71564 292.16452Q580.84064 292.24265 581.075 292.24265Q581.2625 292.24265 581.54376 292.2114Z" fill-rule="nonzero"/><path fill="#9e9e9e" d="M547.0125 302.68015L547.0125 301.66452L552.575 301.66452L552.575 302.49265Q551.7625 303.36765 550.95 304.82077Q550.15314 306.25827 549.71564 307.78952Q549.3875 308.86765 549.3094 310.1489L548.21564 310.1489Q548.23126 309.13327 548.60626 307.69577Q548.9969 306.25827 549.7 304.93015Q550.41876 303.60202 551.23126 302.68015L547.0125 302.68015ZM553.95 307.8989L555.0594 307.80515Q555.1844 308.61765 555.6219 309.0239Q556.075 309.43015 556.71564 309.43015Q557.46564 309.43015 557.9969 308.85202Q558.52814 308.2739 558.52814 307.3364Q558.52814 306.43015 558.0125 305.91452Q557.5125 305.38327 556.6844 305.38327Q556.1844 305.38327 555.7625 305.61765Q555.35626 305.85202 555.1219 306.2114L554.1375 306.0864L554.96564 301.68015L559.2469 301.68015L559.2469 302.68015L555.8094 302.68015L555.35626 304.99265Q556.1219 304.44577 556.96564 304.44577Q558.09064 304.44577 558.85626 305.22702Q559.6375 306.00827 559.6375 307.24265Q559.6375 308.3989 558.96564 309.25827Q558.1375 310.28952 556.71564 310.28952Q555.54376 310.28952 554.79376 309.63327Q554.0594 308.97702 553.95 307.8989ZM561.54376 310.1489L561.54376 308.94577L562.7469 308.94577L562.7469 310.1489L561.54376 310.1489ZM563.95 305.91452Q563.95 304.38327 564.2625 303.4614Q564.575 302.5239 565.1844 302.0239Q565.8094 301.5239 566.7469 301.5239Q567.4344 301.5239 567.95 301.80515Q568.48126 302.0864 568.825 302.61765Q569.16876 303.13327 569.35626 303.88327Q569.54376 304.63327 569.54376 305.91452Q569.54376 307.43015 569.23126 308.35202Q568.9344 309.2739 568.3094 309.78952Q567.7 310.28952 566.7469 310.28952Q565.5125 310.28952 564.79376 309.3989Q563.95 308.3364 563.95 305.91452ZM565.02814 305.91452Q565.02814 308.0239 565.52814 308.72702Q566.02814 309.43015 566.7469 309.43015Q567.48126 309.43015 567.96564 308.72702Q568.46564 308.0239 568.46564 305.91452Q568.46564 303.78952 567.96564 303.10202Q567.48126 302.3989 566.73126 302.3989Q566.0125 302.3989 565.575 303.00827Q565.02814 303.78952 565.02814 305.91452ZM571.15314 303.61765Q571.15314 302.69577 571.60626 302.05515Q572.075 301.41452 572.95 301.41452Q573.7625 301.41452 574.29376 301.99265Q574.825 302.57077 574.825 303.68015Q574.825 304.7739 574.27814 305.36765Q573.7469 305.94577 572.96564 305.94577Q572.1844 305.94577 571.66876 305.36765Q571.15314 304.78952 571.15314 303.61765ZM572.98126 302.13327Q572.59064 302.13327 572.325 302.47702Q572.075 302.82077 572.075 303.72702Q572.075 304.55515 572.325 304.8989Q572.59064 305.22702 572.98126 305.22702Q573.3875 305.22702 573.6375 304.88327Q573.90314 304.53952 573.90314 303.6489Q573.90314 302.80515 573.6375 302.47702Q573.3719 302.13327 572.98126 302.13327ZM572.98126 310.4614L577.6844 301.41452L578.54376 301.41452L573.85626 310.4614L572.98126 310.4614ZM576.7 308.13327Q576.7 307.2114 577.15314 306.57077Q577.6219 305.93015 578.5125 305.93015Q579.325 305.93015 579.85626 306.50827Q580.3875 307.07077 580.3875 308.19577Q580.3875 309.28952 579.84064 309.88327Q579.3094 310.4614 578.5125 310.4614Q577.7469 310.4614 577.21564 309.88327Q576.7 309.30515 576.7 308.13327ZM578.54376 306.6489Q578.1375 306.6489 577.8719 306.99265Q577.6219 307.3364 577.6219 308.24265Q577.6219 309.05515 577.8875 309.3989Q578.15314 309.74265 578.54376 309.74265Q578.9344 309.74265 579.2 309.3989Q579.46564 309.05515 579.46564 308.1489Q579.46564 307.32077 579.2 306.99265Q578.9344 306.6489 578.54376 306.6489Z" fill-rule="nonzero"/><path stroke="#757575" stroke-width="1.0" stroke-linecap="butt" d="M581.45 297.6489L472.95 297.6489L412.1489 297.6489" fill-rule="nonzero"/><path fill="#9e9e9e" d="M414.1489 297.6489C414.1489 296.54434 413.25348 295.6489 412.1489 295.6489C411.04434 295.6489 410.1489 296.54434 410.1489 297.6489C410.1489 298.75348 411.04434 299.6489 412.1489 299.6489C413.25348 299.6489 414.1489 298.75348 414.1489 297.6489" fill-rule="nonzero"/></svg>