<svg version="1.1" viewBox="0.0 0.0 600.0 371.0" fill="none" stroke="none" stroke-linecap="square" stroke-miterlimit="10" width="600" height="371" xmlns:xlink="http://www.w3.org/1999/xlink" xmlns="http://www.w3.org/2000/svg"><path fill="#ffffff" d="M0 0L600.0 0L600.0 371.0L0 371.0L0 0Z" fill-rule="nonzero"/><path fill="#4285f4" d="M300.0 18.55C329.30585 18.55 358.0954 26.264135 383.475 40.917057L300.0 185.5Z" fill-rule="nonzero"/><path fill="#ea4335" d="M383.475 40.917057C463.32596 87.01903 490.6849 189.12405 444.58295 268.975L300.0 185.5Z" fill-rule="nonzero"/><path fill="#46bdc6" d="M216.525 40.917057C241.9046 26.264135 270.69415 18.55 300.0 18.55L300.0 185.5Z" fill-rule="nonzero"/><path fill="#ff6d01" d="M155.41705 102.025C170.06998 76.64539 191.14539 55.56998 216.525 40.917057L300.0 185.5Z" fill-rule="nonzero"/><path fill="#34a853" d="M216.525 330.08295C136.67404 283.98096 109.31509 181.87595 155.41705 102.025L300.0 185.5Z" fill-rule="nonzero"/><path fill="#fbbc04" d="M444.58295 268.975C398.48096 348.82596 296.37595 376.1849 216.525 330.08295L300.0 185.5Z" fill-rule="nonzero"/><path fill="#1a1a1a" d="M24.51875 23.065624L23.471874 23.14375Q23.33125 22.51875 23.08125 22.2375Q22.64375 21.784374 22.01875 21.784374Q21.51875 21.784374 21.128124 22.065624Q20.64375 22.440624 20.346874 23.14375Q20.065624 23.83125 20.05 25.1125Q20.425 24.534374 20.971874 24.253124Q21.534374 23.971874 22.14375 23.971874Q23.190624 23.971874 23.925 24.753124Q24.675 25.534374 24.675 26.753124Q24.675 27.565624 24.315624 28.26875Q23.971874 28.95625 23.3625 29.33125Q22.753124 29.690624 21.9875 29.690624Q20.659374 29.690624 19.83125 28.721874Q19.003124 27.753124 19.003124 25.534374Q19.003124 23.034374 19.925 21.909374Q20.721874 20.925 22.08125 20.925Q23.096874 20.925 23.7375 21.503124Q24.39375 22.065624 24.51875 23.065624ZM20.221874 26.76875Q20.221874 27.315624 20.440624 27.815624Q20.675 28.3 21.08125 28.565624Q21.503124 28.83125 21.971874 28.83125Q22.628124 28.83125 23.1125 28.3Q23.596874 27.753124 23.596874 26.83125Q23.596874 25.940624 23.1125 25.425Q22.64375 24.909374 21.925 24.909374Q21.20625 24.909374 20.70625 25.425Q20.221874 25.940624 20.221874 26.76875Z" fill-rule="nonzero"/><path fill="#9e9e9e" d="M20.675 41.89375Q20.01875 41.64375 19.690624 41.20625Q19.378124 40.753124 19.378124 40.14375Q19.378124 39.20625 20.05 38.565624Q20.7375 37.925 21.846874 37.925Q22.971874 37.925 23.659374 38.58125Q24.346874 39.2375 24.346874 40.175Q24.346874 40.76875 24.034374 41.20625Q23.721874 41.64375 23.08125 41.89375Q23.878124 42.14375 24.284374 42.721874Q24.690624 43.3 24.690624 44.096874Q24.690624 45.190624 23.909374 45.940624Q23.14375 46.690624 21.8625 46.690624Q20.596874 46.690624 19.815624 45.940624Q19.034374 45.190624 19.034374 44.065624Q19.034374 43.221874 19.45625 42.659374Q19.89375 42.096874 20.675 41.89375ZM20.45625 40.096874Q20.45625 40.70625 20.846874 41.096874Q21.253124 41.4875 21.878124 41.4875Q22.4875 41.4875 22.878124 41.1125Q23.26875 40.721874 23.26875 40.159374Q23.26875 39.58125 22.8625 39.190624Q22.45625 38.784374 21.8625 38.784374Q21.253124 38.784374 20.846874 39.175Q20.45625 39.565624 20.45625 40.096874ZM20.128124 44.065624Q20.128124 44.51875 20.33125 44.940624Q20.55 45.3625 20.971874 45.596874Q21.39375 45.83125 21.878124 45.83125Q22.628124 45.83125 23.1125 45.346874Q23.6125 44.8625 23.6125 44.1125Q23.6125 43.346874 23.1125 42.846874Q22.6125 42.346874 21.846874 42.346874Q21.096874 42.346874 20.6125 42.846874Q20.128124 43.33125 20.128124 44.065624ZM26.64375 46.55L26.64375 45.346874L27.846874 45.346874L27.846874 46.55L26.64375 46.55ZM29.05 44.284374L30.1125 44.14375Q30.284374 45.034374 30.721874 45.440624Q31.159374 45.83125 31.784374 45.83125Q32.534374 45.83125 33.05 45.315624Q33.565624 44.8 33.565624 44.034374Q33.565624 43.315624 33.08125 42.846874Q32.6125 42.3625 31.878124 42.3625Q31.58125 42.3625 31.128124 42.4875L31.253124 41.55Q31.3625 41.565624 31.425 41.565624Q32.096874 41.565624 32.628124 41.221874Q33.175 40.8625 33.175 40.128124Q33.175 39.55 32.784374 39.175Q32.39375 38.784374 31.76875 38.784374Q31.159374 38.784374 30.7375 39.175Q30.33125 39.565624 30.221874 40.33125L29.159374 40.14375Q29.346874 39.096874 30.034374 38.51875Q30.721874 37.925 31.7375 37.925Q32.440624 37.925 33.034374 38.2375Q33.628124 38.534374 33.940624 39.05Q34.253124 39.565624 34.253124 40.159374Q34.253124 40.70625 33.95625 41.175Q33.659374 41.628124 33.08125 41.89375Q33.83125 42.065624 34.253124 42.628124Q34.675 43.175 34.675 44.01875Q34.675 45.14375 33.846874 45.925Q33.034374 46.70625 31.784374 46.70625Q30.659374 46.70625 29.909374 46.034374Q29.159374 45.346874 29.05 44.284374ZM36.253124 40.01875Q36.253124 39.096874 36.70625 38.45625Q37.175 37.815624 38.05 37.815624Q38.8625 37.815624 39.39375 38.39375Q39.925 38.971874 39.925 40.08125Q39.925 41.175 39.378124 41.76875Q38.846874 42.346874 38.065624 42.346874Q37.284374 42.346874 36.76875 41.76875Q36.253124 41.190624 36.253124 40.01875ZM38.08125 38.534374Q37.690624 38.534374 37.425 38.878124Q37.175 39.221874 37.175 40.128124Q37.175 40.95625 37.425 41.3Q37.690624 41.628124 38.08125 41.628124Q38.4875 41.628124 38.7375 41.284374Q39.003124 40.940624 39.003124 40.05Q39.003124 39.20625 38.7375 38.878124Q38.471874 38.534374 38.08125 38.534374ZM38.08125 46.8625L42.784374 37.815624L43.64375 37.815624L38.95625 46.8625L38.08125 46.8625ZM41.8 44.534374Q41.8 43.6125 42.253124 42.971874Q42.721874 42.33125 43.6125 42.33125Q44.425 42.33125 44.95625 42.909374Q45.4875 43.471874 45.4875 44.596874Q45.4875 45.690624 44.940624 46.284374Q44.409374 46.8625 43.6125 46.8625Q42.846874 46.8625 42.315624 46.284374Q41.8 45.70625 41.8 44.534374ZM43.64375 43.05Q43.2375 43.05 42.971874 43.39375Q42.721874 43.7375 42.721874 44.64375Q42.721874 45.45625 42.9875 45.8Q43.253124 46.14375 43.64375 46.14375Q44.034374 46.14375 44.3 45.8Q44.565624 45.45625 44.565624 44.55Q44.565624 43.721874 44.3 43.39375Q44.034374 43.05 43.64375 43.05Z" fill-rule="nonzero"/><path stroke="#757575" stroke-width="1.0" stroke-linecap="butt" d="M18.55 34.05L127.05 34.05L258.95065 32.30175" fill-rule="nonzero"/><path fill="#9e9e9e" d="M260.95065 32.30175C260.95065 31.19718 260.05524 30.301748 258.95065 30.301748C257.84607 30.301748 256.95065 31.19718 256.95065 32.30175C256.95065 33.40632 257.84607 34.30175 258.95065 34.30175C260.05524 34.30175 260.95065 33.40632 260.95065 32.30175" fill-rule="nonzero"/><path fill="#1a1a1a" d="M19.05 66.6011L20.159374 66.50735Q20.284374 67.31985 20.721874 67.7261Q21.175 68.13235 21.815624 68.13235Q22.565624 68.13235 23.096874 67.55422Q23.628124 66.9761 23.628124 66.0386Q23.628124 65.13235 23.1125 64.61672Q22.6125 64.08547 21.784374 64.08547Q21.284374 64.08547 20.8625 64.31985Q20.45625 64.55422 20.221874 64.9136L19.2375 64.7886L20.065624 60.382347L24.346874 60.382347L24.346874 61.382347L20.909374 61.382347L20.45625 63.694847Q21.221874 63.147972 22.065624 63.147972Q23.190624 63.147972 23.95625 63.929222Q24.7375 64.71047 24.7375 65.94485Q24.7375 67.1011 24.065624 67.96047Q23.2375 68.99172 21.815624 68.99172Q20.64375 68.99172 19.89375 68.33547Q19.159374 67.67922 19.05 66.6011Z" fill-rule="nonzero"/><path fill="#9e9e9e" d="M20.675 81.19485Q20.01875 80.94485 19.690624 80.50735Q19.378124 80.05422 19.378124 79.44485Q19.378124 78.50735 20.05 77.86672Q20.7375 77.2261 21.846874 77.2261Q22.971874 77.2261 23.659374 77.88235Q24.346874 78.5386 24.346874 79.4761Q24.346874 80.06985 24.034374 80.50735Q23.721874 80.94485 23.08125 81.19485Q23.878124 81.44485 24.284374 82.02297Q24.690624 82.6011 24.690624 83.39797Q24.690624 84.49172 23.909374 85.24172Q23.14375 85.99172 21.8625 85.99172Q20.596874 85.99172 19.815624 85.24172Q19.034374 84.49172 19.034374 83.36672Q19.034374 82.52297 19.45625 81.96047Q19.89375 81.39797 20.675 81.19485ZM20.45625 79.39797Q20.45625 80.00735 20.846874 80.39797Q21.253124 80.7886 21.878124 80.7886Q22.4875 80.7886 22.878124 80.4136Q23.26875 80.02297 23.26875 79.46047Q23.26875 78.88235 22.8625 78.49172Q22.45625 78.08547 21.8625 78.08547Q21.253124 78.08547 20.846874 78.4761Q20.45625 78.86672 20.45625 79.39797ZM20.128124 83.36672Q20.128124 83.81985 20.33125 84.24172Q20.55 84.6636 20.971874 84.89797Q21.39375 85.13235 21.878124 85.13235Q22.628124 85.13235 23.1125 84.64797Q23.6125 84.1636 23.6125 83.4136Q23.6125 82.64797 23.1125 82.14797Q22.6125 81.64797 21.846874 81.64797Q21.096874 81.64797 20.6125 82.14797Q20.128124 82.63235 20.128124 83.36672ZM26.64375 85.8511L26.64375 84.64797L27.846874 84.64797L27.846874 85.8511L26.64375 85.8511ZM29.05 83.58547L30.1125 83.44485Q30.284374 84.33547 30.721874 84.74172Q31.159374 85.13235 31.784374 85.13235Q32.534374 85.13235 33.05 84.61672Q33.565624 84.1011 33.565624 83.33547Q33.565624 82.61672 33.08125 82.14797Q32.6125 81.6636 31.878124 81.6636Q31.58125 81.6636 31.128124 81.7886L31.253124 80.8511Q31.3625 80.86672 31.425 80.86672Q32.096874 80.86672 32.628124 80.52297Q33.175 80.1636 33.175 79.42922Q33.175 78.8511 32.784374 78.4761Q32.39375 78.08547 31.76875 78.08547Q31.159374 78.08547 30.7375 78.4761Q30.33125 78.86672 30.221874 79.63235L29.159374 79.44485Q29.346874 78.39797 30.034374 77.81985Q30.721874 77.2261 31.7375 77.2261Q32.440624 77.2261 33.034374 77.5386Q33.628124 77.83547 33.940624 78.3511Q34.253124 78.86672 34.253124 79.46047Q34.253124 80.00735 33.95625 80.4761Q33.659374 80.92922 33.08125 81.19485Q33.83125 81.36672 34.253124 81.92922Q34.675 82.4761 34.675 83.31985Q34.675 84.44485 33.846874 85.2261Q33.034374 86.00735 31.784374 86.00735Q30.659374 86.00735 29.909374 85.33547Q29.159374 84.64797 29.05 83.58547ZM36.253124 79.31985Q36.253124 78.39797 36.70625 77.75735Q37.175 77.11672 38.05 77.11672Q38.8625 77.11672 39.39375 77.69485Q39.925 78.27297 39.925 79.38235Q39.925 80.4761 39.378124 81.06985Q38.846874 81.64797 38.065624 81.64797Q37.284374 81.64797 36.76875 81.06985Q36.253124 80.49172 36.253124 79.31985ZM38.08125 77.83547Q37.690624 77.83547 37.425 78.17922Q37.175 78.52297 37.175 79.42922Q37.175 80.25735 37.425 80.6011Q37.690624 80.92922 38.08125 80.92922Q38.4875 80.92922 38.7375 80.58547Q39.003124 80.24172 39.003124 79.3511Q39.003124 78.50735 38.7375 78.17922Q38.471874 77.83547 38.08125 77.83547ZM38.08125 86.1636L42.784374 77.11672L43.64375 77.11672L38.95625 86.1636L38.08125 86.1636ZM41.8 83.83547Q41.8 82.9136 42.253124 82.27297Q42.721874 81.63235 43.6125 81.63235Q44.425 81.63235 44.95625 82.21047Q45.4875 82.77297 45.4875 83.89797Q45.4875 84.99172 44.940624 85.58547Q44.409374 86.1636 43.6125 86.1636Q42.846874 86.1636 42.315624 85.58547Q41.8 85.00735 41.8 83.83547ZM43.64375 82.3511Q43.2375 82.3511 42.971874 82.69485Q42.721874 83.0386 42.721874 83.94485Q42.721874 84.75735 42.9875 85.1011Q43.253124 85.44485 43.64375 85.44485Q44.034374 85.44485 44.3 85.1011Q44.565624 84.75735 44.565624 83.8511Q44.565624 83.02297 44.3 82.69485Q44.034374 82.3511 43.64375 82.3511Z" fill-rule="nonzero"/><path stroke="#757575" stroke-width="1.0" stroke-linecap="butt" d="M18.55 73.3511L127.05 73.3511L187.85109 73.3511" fill-rule="nonzero"/><path fill="#9e9e9e" d="M189.85109 73.3511C189.85109 72.24653 188.95567 71.3511 187.85109 71.3511C186.74652 71.3511 185.85109 72.24653 185.85109 73.3511C185.85109 74.455666 186.74652 75.3511 187.85109 75.3511C188.95567 75.3511 189.85109 74.455666 189.85109 73.3511" fill-rule="nonzero"/><path fill="#1a1a1a" d="M22.425 222.04935L22.425 219.98685L18.70625 219.98685L18.70625 219.0181L22.628124 213.4556L23.4875 213.4556L23.4875 219.0181L24.64375 219.0181L24.64375 219.98685L23.4875 219.98685L23.4875 222.04935L22.425 222.04935ZM22.425 219.0181L22.425 215.15872L19.7375 219.0181L22.425 219.0181Z" fill-rule="nonzero"/><path fill="#9e9e9e" d="M24.596874 238.03372L24.596874 239.04935L18.909374 239.04935Q18.909374 238.67435 19.034374 238.31497Q19.253124 237.73685 19.721874 237.17435Q20.20625 236.61185 21.1125 235.87747Q22.51875 234.72122 23.003124 234.04935Q23.503124 233.37747 23.503124 232.78372Q23.503124 232.15872 23.05 231.73685Q22.596874 231.29935 21.878124 231.29935Q21.1125 231.29935 20.659374 231.75247Q20.20625 232.2056 20.190624 233.0181L19.1125 232.90872Q19.221874 231.68997 19.940624 231.06497Q20.675 230.42435 21.909374 230.42435Q23.14375 230.42435 23.8625 231.11185Q24.58125 231.79935 24.58125 232.81497Q24.58125 233.3306 24.3625 233.8306Q24.159374 234.31497 23.659374 234.87747Q23.175 235.42435 22.05 236.37747Q21.096874 237.17435 20.815624 237.47122Q20.55 237.75247 20.378124 238.03372L24.596874 238.03372ZM26.05 236.79935L27.159374 236.7056Q27.284374 237.5181 27.721874 237.92435Q28.175 238.3306 28.815624 238.3306Q29.565624 238.3306 30.096874 237.75247Q30.628124 237.17435 30.628124 236.23685Q30.628124 235.3306 30.1125 234.81497Q29.6125 234.28372 28.784374 234.28372Q28.284374 234.28372 27.8625 234.5181Q27.45625 234.75247 27.221874 235.11185L26.2375 234.98685L27.065624 230.5806L31.346874 230.5806L31.346874 231.5806L27.909374 231.5806L27.45625 233.8931Q28.221874 233.34622 29.065624 233.34622Q30.190624 233.34622 30.95625 234.12747Q31.7375 234.90872 31.7375 236.1431Q31.7375 237.29935 31.065624 238.15872Q30.2375 239.18997 28.815624 239.18997Q27.64375 239.18997 26.89375 238.53372Q26.159374 237.87747 26.05 236.79935ZM33.64375 239.04935L33.64375 237.84622L34.846874 237.84622L34.846874 239.04935L33.64375 239.04935ZM36.05 234.81497Q36.05 233.28372 36.3625 232.36185Q36.675 231.42435 37.284374 230.92435Q37.909374 230.42435 38.846874 230.42435Q39.534374 230.42435 40.05 230.7056Q40.58125 230.98685 40.925 231.5181Q41.26875 232.03372 41.45625 232.78372Q41.64375 233.53372 41.64375 234.81497Q41.64375 236.3306 41.33125 237.25247Q41.034374 238.17435 40.409374 238.68997Q39.8 239.18997 38.846874 239.18997Q37.6125 239.18997 36.89375 238.29935Q36.05 237.23685 36.05 234.81497ZM37.128124 234.81497Q37.128124 236.92435 37.628124 237.62747Q38.128124 238.3306 38.846874 238.3306Q39.58125 238.3306 40.065624 237.62747Q40.565624 236.92435 40.565624 234.81497Q40.565624 232.68997 40.065624 232.00247Q39.58125 231.29935 38.83125 231.29935Q38.1125 231.29935 37.675 231.90872Q37.128124 232.68997 37.128124 234.81497ZM43.253124 232.5181Q43.253124 231.59622 43.70625 230.9556Q44.175 230.31497 45.05 230.31497Q45.8625 230.31497 46.39375 230.8931Q46.925 231.47122 46.925 232.5806Q46.925 233.67435 46.378124 234.2681Q45.846874 234.84622 45.065624 234.84622Q44.284374 234.84622 43.76875 234.2681Q43.253124 233.68997 43.253124 232.5181ZM45.08125 231.03372Q44.690624 231.03372 44.425 231.37747Q44.175 231.72122 44.175 232.62747Q44.175 233.4556 44.425 233.79935Q44.690624 234.12747 45.08125 234.12747Q45.4875 234.12747 45.7375 233.78372Q46.003124 233.43997 46.003124 232.54935Q46.003124 231.7056 45.7375 231.37747Q45.471874 231.03372 45.08125 231.03372ZM45.08125 239.36185L49.784374 230.31497L50.64375 230.31497L45.95625 239.36185L45.08125 239.36185ZM48.8 237.03372Q48.8 236.11185 49.253124 235.47122Q49.721874 234.8306 50.6125 234.8306Q51.425 234.8306 51.95625 235.40872Q52.4875 235.97122 52.4875 237.09622Q52.4875 238.18997 51.940624 238.78372Q51.409374 239.36185 50.6125 239.36185Q49.846874 239.36185 49.315624 238.78372Q48.8 238.2056 48.8 237.03372ZM50.64375 235.54935Q50.2375 235.54935 49.971874 235.8931Q49.721874 236.23685 49.721874 237.1431Q49.721874 237.9556 49.9875 238.29935Q50.253124 238.6431 50.64375 238.6431Q51.034374 238.6431 51.3 238.29935Q51.565624 237.9556 51.565624 237.04935Q51.565624 236.22122 51.3 235.8931Q51.034374 235.54935 50.64375 235.54935Z" fill-rule="nonzero"/><path stroke="#757575" stroke-width="1.0" stroke-linecap="butt" d="M18.55 226.54935L127.05 226.54935L146.80174 226.54935" fill-rule="nonzero"/><path fill="#9e9e9e" d="M148.80174 226.54935C148.80174 225.44478 147.90631 224.54935 146.80174 224.54935C145.69717 224.54935 144.80174 225.44478 144.80174 226.54935C144.80174 227.65392 145.69717 228.54935 146.80174 228.54935C147.90631 228.54935 148.80174 227.65392 148.80174 226.54935" fill-rule="nonzero"/><path fill="#1a1a1a" d="M578.91876 29.55L577.8719 29.55L577.8719 22.83125Q577.48126 23.190624 576.85626 23.565624Q576.2469 23.925 575.7625 24.096874L575.7625 23.08125Q576.6375 22.659374 577.29376 22.08125Q577.96564 21.4875 578.2469 20.925L578.91876 20.925L578.91876 29.55Z" fill-rule="nonzero"/><path fill="#9e9e9e" d="M555.575 41.89375Q554.91876 41.64375 554.59064 41.20625Q554.27814 40.753124 554.27814 40.14375Q554.27814 39.20625 554.95 38.565624Q555.6375 37.925 556.7469 37.925Q557.8719 37.925 558.5594 38.58125Q559.2469 39.2375 559.2469 40.175Q559.2469 40.76875 558.9344 41.20625Q558.6219 41.64375 557.98126 41.89375Q558.77814 42.14375 559.1844 42.721874Q559.59064 43.3 559.59064 44.096874Q559.59064 45.190624 558.8094 45.940624Q558.04376 46.690624 556.7625 46.690624Q555.4969 46.690624 554.71564 45.940624Q553.9344 45.190624 553.9344 44.065624Q553.9344 43.221874 554.35626 42.659374Q554.79376 42.096874 555.575 41.89375ZM555.35626 40.096874Q555.35626 40.70625 555.7469 41.096874Q556.15314 41.4875 556.77814 41.4875Q557.3875 41.4875 557.77814 41.1125Q558.16876 40.721874 558.16876 40.159374Q558.16876 39.58125 557.7625 39.190624Q557.35626 38.784374 556.7625 38.784374Q556.15314 38.784374 555.7469 39.175Q555.35626 39.565624 555.35626 40.096874ZM555.02814 44.065624Q555.02814 44.51875 555.23126 44.940624Q555.45 45.3625 555.8719 45.596874Q556.29376 45.83125 556.77814 45.83125Q557.52814 45.83125 558.0125 45.346874Q558.5125 44.8625 558.5125 44.1125Q558.5125 43.346874 558.0125 42.846874Q557.5125 42.346874 556.7469 42.346874Q555.9969 42.346874 555.5125 42.846874Q555.02814 43.33125 555.02814 44.065624ZM561.54376 46.55L561.54376 45.346874L562.7469 45.346874L562.7469 46.55L561.54376 46.55ZM563.95 44.284374L565.0125 44.14375Q565.1844 45.034374 565.6219 45.440624Q566.0594 45.83125 566.6844 45.83125Q567.4344 45.83125 567.95 45.315624Q568.46564 44.8 568.46564 44.034374Q568.46564 43.315624 567.98126 42.846874Q567.5125 42.3625 566.77814 42.3625Q566.48126 42.3625 566.02814 42.4875L566.15314 41.55Q566.2625 41.565624 566.325 41.565624Q566.9969 41.565624 567.52814 41.221874Q568.075 40.8625 568.075 40.128124Q568.075 39.55 567.6844 39.175Q567.29376 38.784374 566.66876 38.784374Q566.0594 38.784374 565.6375 39.175Q565.23126 39.565624 565.1219 40.33125L564.0594 40.14375Q564.2469 39.096874 564.9344 38.51875Q565.6219 37.925 566.6375 37.925Q567.34064 37.925 567.9344 38.2375Q568.52814 38.534374 568.84064 39.05Q569.15314 39.565624 569.15314 40.159374Q569.15314 40.70625 568.85626 41.175Q568.5594 41.628124 567.98126 41.89375Q568.73126 42.065624 569.15314 42.628124Q569.575 43.175 569.575 44.01875Q569.575 45.14375 568.7469 45.925Q567.9344 46.70625 566.6844 46.70625Q565.5594 46.70625 564.8094 46.034374Q564.0594 45.346874 563.95 44.284374ZM571.15314 40.01875Q571.15314 39.096874 571.60626 38.45625Q572.075 37.815624 572.95 37.815624Q573.7625 37.815624 574.29376 38.39375Q574.825 38.971874 574.825 40.08125Q574.825 41.175 574.27814 41.76875Q573.7469 42.346874 572.96564 42.346874Q572.1844 42.346874 571.66876 41.76875Q571.15314 41.190624 571.15314 40.01875ZM572.98126 38.534374Q572.59064 38.534374 572.325 38.878124Q572.075 39.221874 572.075 40.128124Q572.075 40.95625 572.325 41.3Q572.59064 41.628124 572.98126 41.628124Q573.3875 41.628124 573.6375 41.284374Q573.90314 40.940624 573.90314 40.05Q573.90314 39.20625 573.6375 38.878124Q573.3719 38.534374 572.98126 38.534374ZM572.98126 46.8625L577.6844 37.815624L578.54376 37.815624L573.85626 46.8625L572.98126 46.8625ZM576.7 44.534374Q576.7 43.6125 577.15314 42.971874Q577.6219 42.33125 578.5125 42.33125Q579.325 42.33125 579.85626 42.909374Q580.3875 43.471874 580.3875 44.596874Q580.3875 45.690624 579.84064 46.284374Q579.3094 46.8625 578.5125 46.8625Q577.7469 46.8625 577.21564 46.284374Q576.7 45.70625 576.7 44.534374ZM578.54376 43.05Q578.1375 43.05 577.8719 43.39375Q577.6219 43.7375 577.6219 44.64375Q577.6219 45.45625 577.8875 45.8Q578.15314 46.14375 578.54376 46.14375Q578.9344 46.14375 579.2 45.8Q579.46564 45.45625 579.46564 44.55Q579.46564 43.721874 579.2 43.39375Q578.9344 43.05 578.54376 43.05Z" fill-rule="nonzero"/><path stroke="#757575" stroke-width="1.0" stroke-linecap="butt" d="M581.45 34.05L472.95 34.05L341.04935 32.30175" fill-rule="nonzero"/><path fill="#9e9e9e" d="M343.04935 32.30175C343.04935 31.19718 342.15393 30.301748 341.04935 30.301748C339.94476 30.301748 339.04935 31.19718 339.04935 32.30175C339.04935 33.40632 339.94476 34.30175 341.04935 34.30175C342.15393 34.30175 343.04935 33.40632 343.04935 32.30175" fill-rule="nonzero"/><path fill="#1a1a1a" d="M580.4969 138.93503L580.4969 139.95065L574.8094 139.95065Q574.8094 139.57565 574.9344 139.21628Q575.15314 138.63815 575.6219 138.07565Q576.10626 137.51315 577.0125 136.77878Q578.41876 135.62253 578.90314 134.95065Q579.40314 134.27878 579.40314 133.68503Q579.40314 133.06003 578.95 132.63815Q578.4969 132.20065 577.77814 132.20065Q577.0125 132.20065 576.5594 132.65378Q576.10626 133.1069 576.09064 133.9194L575.0125 133.81003Q575.1219 132.59128 575.84064 131.96628Q576.575 131.32565 577.8094 131.32565Q579.04376 131.32565 579.7625 132.01315Q580.48126 132.70065 580.48126 133.71628Q580.48126 134.2319 580.2625 134.7319Q580.0594 135.21628 579.5594 135.77878Q579.075 136.32565 577.95 137.27878Q576.9969 138.07565 576.71564 138.37253Q576.45 138.65378 576.27814 138.93503L580.4969 138.93503Z" fill-rule="nonzero"/><path fill="#9e9e9e" d="M552.4969 155.93503L552.4969 156.95065L546.8094 156.95065Q546.8094 156.57565 546.9344 156.21628Q547.15314 155.63815 547.6219 155.07565Q548.10626 154.51315 549.0125 153.77878Q550.41876 152.62253 550.90314 151.95065Q551.40314 151.27878 551.40314 150.68503Q551.40314 150.06003 550.95 149.63815Q550.4969 149.20065 549.77814 149.20065Q549.0125 149.20065 548.5594 149.65378Q548.10626 150.1069 548.09064 150.9194L547.0125 150.81003Q547.1219 149.59128 547.84064 148.96628Q548.575 148.32565 549.8094 148.32565Q551.04376 148.32565 551.7625 149.01315Q552.48126 149.70065 552.48126 150.71628Q552.48126 151.2319 552.2625 151.7319Q552.0594 152.21628 551.5594 152.77878Q551.075 153.32565 549.95 154.27878Q548.9969 155.07565 548.71564 155.37253Q548.45 155.65378 548.27814 155.93503L552.4969 155.93503ZM553.95 154.70065L555.0594 154.6069Q555.1844 155.4194 555.6219 155.82565Q556.075 156.2319 556.71564 156.2319Q557.46564 156.2319 557.9969 155.65378Q558.52814 155.07565 558.52814 154.13815Q558.52814 153.2319 558.0125 152.71628Q557.5125 152.18503 556.6844 152.18503Q556.1844 152.18503 555.7625 152.4194Q555.35626 152.65378 555.1219 153.01315L554.1375 152.88815L554.96564 148.4819L559.2469 148.4819L559.2469 149.4819L555.8094 149.4819L555.35626 151.7944Q556.1219 151.24753 556.96564 151.24753Q558.09064 151.24753 558.85626 152.02878Q559.6375 152.81003 559.6375 154.0444Q559.6375 155.20065 558.96564 156.06003Q558.1375 157.09128 556.71564 157.09128Q555.54376 157.09128 554.79376 156.43503Q554.0594 155.77878 553.95 154.70065ZM561.54376 156.95065L561.54376 155.74753L562.7469 155.74753L562.7469 156.95065L561.54376 156.95065ZM563.95 152.71628Q563.95 151.18503 564.2625 150.26315Q564.575 149.32565 565.1844 148.82565Q565.8094 148.32565 566.7469 148.32565Q567.4344 148.32565 567.95 148.6069Q568.48126 148.88815 568.825 149.4194Q569.16876 149.93503 569.35626 150.68503Q569.54376 151.43503 569.54376 152.71628Q569.54376 154.2319 569.23126 155.15378Q568.9344 156.07565 568.3094 156.59128Q567.7 157.09128 566.7469 157.09128Q565.5125 157.09128 564.79376 156.20065Q563.95 155.13815 563.95 152.71628ZM565.02814 152.71628Q565.02814 154.82565 565.52814 155.52878Q566.02814 156.2319 566.7469 156.2319Q567.48126 156.2319 567.96564 155.52878Q568.46564 154.82565 568.46564 152.71628Q568.46564 150.59128 567.96564 149.90378Q567.48126 149.20065 566.73126 149.20065Q566.0125 149.20065 565.575 149.81003Q565.02814 150.59128 565.02814 152.71628ZM571.15314 150.4194Q571.15314 149.49753 571.60626 148.8569Q572.075 148.21628 572.95 148.21628Q573.7625 148.21628 574.29376 148.7944Q574.825 149.37253 574.825 150.4819Q574.825 151.57565 574.27814 152.1694Q573.7469 152.74753 572.96564 152.74753Q572.1844 152.74753 571.66876 152.1694Q571.15314 151.59128 571.15314 150.4194ZM572.98126 148.93503Q572.59064 148.93503 572.325 149.27878Q572.075 149.62253 572.075 150.52878Q572.075 151.3569 572.325 151.70065Q572.59064 152.02878 572.98126 152.02878Q573.3875 152.02878 573.6375 151.68503Q573.90314 151.34128 573.90314 150.45065Q573.90314 149.6069 573.6375 149.27878Q573.3719 148.93503 572.98126 148.93503ZM572.98126 157.26315L577.6844 148.21628L578.54376 148.21628L573.85626 157.26315L572.98126 157.26315ZM576.7 154.93503Q576.7 154.01315 577.15314 153.37253Q577.6219 152.7319 578.5125 152.7319Q579.325 152.7319 579.85626 153.31003Q580.3875 153.87253 580.3875 154.99753Q580.3875 156.09128 579.84064 156.68503Q579.3094 157.26315 578.5125 157.26315Q577.7469 157.26315 577.21564 156.68503Q576.7 156.1069 576.7 154.93503ZM578.54376 153.45065Q578.1375 153.45065 577.8719 153.7944Q577.6219 154.13815 577.6219 155.0444Q577.6219 155.8569 577.8875 156.20065Q578.15314 156.5444 578.54376 156.5444Q578.9344 156.5444 579.2 156.20065Q579.46564 155.8569 579.46564 154.95065Q579.46564 154.12253 579.2 153.7944Q578.9344 153.45065 578.54376 153.45065Z" fill-rule="nonzero"/><path stroke="#757575" stroke-width="1.0" stroke-linecap="butt" d="M581.45 144.45065L472.95 144.45065L453.19824 144.45065" fill-rule="nonzero"/><path fill="#9e9e9e" d="M455.19824 144.45065C455.19824 143.34608 454.30283 142.45065 453.19824 142.45065C452.0937 142.45065 451.19824 143.34608 451.19824 144.45065C451.19824 145.55522 452.0937 146.45065 453.19824 146.45065C454.30283 146.45065 455.19824 145.55522 455.19824 144.45065" fill-rule="nonzero"/><path fill="#1a1a1a" d="M574.95 330.1844L576.0125 330.04376Q576.1844 330.9344 576.6219 331.34064Q577.0594 331.73126 577.6844 331.73126Q578.4344 331.73126 578.95 331.21564Q579.46564 330.7 579.46564 329.9344Q579.46564 329.21564 578.98126 328.7469Q578.5125 328.2625 577.77814 328.2625Q577.48126 328.2625 577.02814 328.3875L577.15314 327.45Q577.2625 327.46564 577.325 327.46564Q577.9969 327.46564 578.52814 327.1219Q579.075 326.7625 579.075 326.02814Q579.075 325.45 578.6844 325.075Q578.29376 324.6844 577.66876 324.6844Q577.0594 324.6844 576.6375 325.075Q576.23126 325.46564 576.1219 326.23126L575.0594 326.04376Q575.2469 324.9969 575.9344 324.41876Q576.6219 323.825 577.6375 323.825Q578.34064 323.825 578.9344 324.1375Q579.52814 324.4344 579.84064 324.95Q580.15314 325.46564 580.15314 326.0594Q580.15314 326.60626 579.85626 327.075Q579.5594 327.52814 578.98126 327.79376Q579.73126 327.96564 580.15314 328.52814Q580.575 329.075 580.575 329.91876Q580.575 331.04376 579.7469 331.825Q578.9344 332.60626 577.6844 332.60626Q576.5594 332.60626 575.8094 331.9344Q575.0594 331.2469 574.95 330.1844Z" fill-rule="nonzero"/><path fill="#9e9e9e" d="M552.4969 348.4344L552.4969 349.45L546.8094 349.45Q546.8094 349.075 546.9344 348.71564Q547.15314 348.1375 547.6219 347.575Q548.10626 347.0125 549.0125 346.27814Q550.41876 345.1219 550.90314 344.45Q551.40314 343.77814 551.40314 343.1844Q551.40314 342.5594 550.95 342.1375Q550.4969 341.7 549.77814 341.7Q549.0125 341.7 548.5594 342.15314Q548.10626 342.60626 548.09064 343.41876L547.0125 343.3094Q547.1219 342.09064 547.84064 341.46564Q548.575 340.825 549.8094 340.825Q551.04376 340.825 551.7625 341.5125Q552.48126 342.2 552.48126 343.21564Q552.48126 343.73126 552.2625 344.23126Q552.0594 344.71564 551.5594 345.27814Q551.075 345.825 549.95 346.77814Q548.9969 347.575 548.71564 347.8719Q548.45 348.15314 548.27814 348.4344L552.4969 348.4344ZM553.95 347.2L555.0594 347.10626Q555.1844 347.91876 555.6219 348.325Q556.075 348.73126 556.71564 348.73126Q557.46564 348.73126 557.9969 348.15314Q558.52814 347.575 558.52814 346.6375Q558.52814 345.73126 558.0125 345.21564Q557.5125 344.6844 556.6844 344.6844Q556.1844 344.6844 555.7625 344.91876Q555.35626 345.15314 555.1219 345.5125L554.1375 345.3875L554.96564 340.98126L559.2469 340.98126L559.2469 341.98126L555.8094 341.98126L555.35626 344.29376Q556.1219 343.7469 556.96564 343.7469Q558.09064 343.7469 558.85626 344.52814Q559.6375 345.3094 559.6375 346.54376Q559.6375 347.7 558.96564 348.5594Q558.1375 349.59064 556.71564 349.59064Q555.54376 349.59064 554.79376 348.9344Q554.0594 348.27814 553.95 347.2ZM561.54376 349.45L561.54376 348.2469L562.7469 348.2469L562.7469 349.45L561.54376 349.45ZM563.95 345.21564Q563.95 343.6844 564.2625 342.7625Q564.575 341.825 565.1844 341.325Q565.8094 340.825 566.7469 340.825Q567.4344 340.825 567.95 341.10626Q568.48126 341.3875 568.825 341.91876Q569.16876 342.4344 569.35626 343.1844Q569.54376 343.9344 569.54376 345.21564Q569.54376 346.73126 569.23126 347.65314Q568.9344 348.575 568.3094 349.09064Q567.7 349.59064 566.7469 349.59064Q565.5125 349.59064 564.79376 348.7Q563.95 347.6375 563.95 345.21564ZM565.02814 345.21564Q565.02814 347.325 565.52814 348.02814Q566.02814 348.73126 566.7469 348.73126Q567.48126 348.73126 567.96564 348.02814Q568.46564 347.325 568.46564 345.21564Q568.46564 343.09064 567.96564 342.40314Q567.48126 341.7 566.73126 341.7Q566.0125 341.7 565.575 342.3094Q565.02814 343.09064 565.02814 345.21564ZM571.15314 342.91876Q571.15314 341.9969 571.60626 341.35626Q572.075 340.71564 572.95 340.71564Q573.7625 340.71564 574.29376 341.29376Q574.825 341.8719 574.825 342.98126Q574.825 344.075 574.27814 344.66876Q573.7469 345.2469 572.96564 345.2469Q572.1844 345.2469 571.66876 344.66876Q571.15314 344.09064 571.15314 342.91876ZM572.98126 341.4344Q572.59064 341.4344 572.325 341.77814Q572.075 342.1219 572.075 343.02814Q572.075 343.85626 572.325 344.2Q572.59064 344.52814 572.98126 344.52814Q573.3875 344.52814 573.6375 344.1844Q573.90314 343.84064 573.90314 342.95Q573.90314 342.10626 573.6375 341.77814Q573.3719 341.4344 572.98126 341.4344ZM572.98126 349.7625L577.6844 340.71564L578.54376 340.71564L573.85626 349.7625L572.98126 349.7625ZM576.7 347.4344Q576.7 346.5125 577.15314 345.8719Q577.6219 345.23126 578.5125 345.23126Q579.325 345.23126 579.85626 345.8094Q580.3875 346.3719 580.3875 347.4969Q580.3875 348.59064 579.84064 349.1844Q579.3094 349.7625 578.5125 349.7625Q577.7469 349.7625 577.21564 349.1844Q576.7 348.60626 576.7 347.4344ZM578.54376 345.95Q578.1375 345.95 577.8719 346.29376Q577.6219 346.6375 577.6219 347.54376Q577.6219 348.35626 577.8875 348.7Q578.15314 349.04376 578.54376 349.04376Q578.9344 349.04376 579.2 348.7Q579.46564 348.35626 579.46564 347.45Q579.46564 346.6219 579.2 346.29376Q578.9344 345.95 578.54376 345.95Z" fill-rule="nonzero"/><path stroke="#757575" stroke-width="1.0" stroke-linecap="butt" d="M581.45 336.95L472.95 336.95L341.04935 338.69824" fill-rule="nonzero"/><path fill="#9e9e9e" d="M343.04935 338.69824C343.04935 337.5937 342.15393 336.69824 341.04935 336.69824C339.94476 336.69824 339.04935 337.5937 339.04935 338.69824C339.04935 339.80283 339.94476 340.69824 341.04935 340.69824C342.15393 340.69824 343.04935 339.80283 343.04935 338.69824" fill-rule="nonzero"/></svg>