<svg version="1.1" viewBox="0.0 0.0 600.0 371.0" fill="none" stroke="none" stroke-linecap="square" stroke-miterlimit="10" width="600" height="371" xmlns:xlink="http://www.w3.org/1999/xlink" xmlns="http://www.w3.org/2000/svg"><path fill="#ffffff" d="M0 0L600.0 0L600.0 371.0L0 371.0L0 0Z" fill-rule="nonzero"/><path fill="#4285f4" d="M300.0 78.916664C375.53415 78.916664 436.76666 140.14919 436.76666 215.68333L300.0 215.68333Z" fill-rule="nonzero"/><path fill="#ea4335" d="M436.76666 215.68333C436.76666 291.21747 375.53415 352.45 300.0 352.45L300.0 215.68333Z" fill-rule="nonzero"/><path fill="#ff6d01" d="M163.23334 215.68333C163.23334 140.14919 224.46585 78.916664 300.0 78.916664L300.0 215.68333Z" fill-rule="nonzero"/><path fill="#34a853" d="M181.5566 284.06668C169.55281 263.2755 163.23334 239.6909 163.23334 215.68333L300.0 215.68333Z" fill-rule="nonzero"/><path fill="#fbbc04" d="M300.0 352.45C251.13797 352.45 205.98761 326.38242 181.5566 284.06668L300.0 215.68333Z" fill-rule="nonzero"/><path fill="#1a1a1a" d="M19.471874 119.31013L19.471874 110.71638L22.440624 110.71638Q23.440624 110.71638 23.971874 110.84138Q24.70625 111.01325 25.221874 111.45075Q25.909374 112.02888 26.2375 112.93513Q26.58125 113.82575 26.58125 114.96638Q26.58125 115.95075 26.346874 116.70075Q26.128124 117.45075 25.76875 117.95075Q25.409374 118.45075 24.971874 118.732Q24.55 119.01325 23.95625 119.1695Q23.3625 119.31013 22.58125 119.31013L19.471874 119.31013ZM20.6125 118.2945L22.440624 118.2945Q23.3 118.2945 23.784374 118.13825Q24.26875 117.982 24.55 117.68513Q24.95625 117.2945 25.175 116.607Q25.409374 115.9195 25.409374 114.95075Q25.409374 113.607 24.95625 112.88825Q24.51875 112.15388 23.89375 111.90388Q23.425 111.732 22.425 111.732L20.6125 111.732L20.6125 118.2945ZM28.346874 113.76325L28.08125 112.15388L28.08125 110.71638L29.284374 110.71638L29.284374 112.15388L29.003124 113.76325L28.346874 113.76325ZM29.89375 116.87263L30.925 116.732Q30.95625 117.71638 31.284374 118.07575Q31.6125 118.43513 32.20625 118.43513Q32.628124 118.43513 32.940624 118.24763Q33.253124 118.0445 33.3625 117.71638Q33.4875 117.37263 33.4875 116.63825L33.4875 110.71638L34.6125 110.71638L34.6125 116.57575Q34.6125 117.65388 34.346874 118.24763Q34.096874 118.84138 33.534374 119.15388Q32.971874 119.45075 32.20625 119.45075Q31.08125 119.45075 30.471874 118.81013Q29.878124 118.15388 29.89375 116.87263ZM40.409374 118.5445Q39.815624 119.0445 39.26875 119.24763Q38.7375 119.45075 38.1125 119.45075Q37.08125 119.45075 36.534374 118.95075Q35.9875 118.45075 35.9875 117.6695Q35.9875 117.21638 36.190624 116.84138Q36.39375 116.45075 36.7375 116.232Q37.08125 115.99763 37.503124 115.88825Q37.8 115.7945 38.440624 115.71638Q39.70625 115.57575 40.315624 115.357Q40.315624 115.13825 40.315624 115.09138Q40.315624 114.43513 40.01875 114.1695Q39.6125 113.82575 38.815624 113.82575Q38.08125 113.82575 37.721874 114.09138Q37.3625 114.34138 37.190624 114.99763L36.159374 114.857Q36.3 114.20075 36.628124 113.7945Q36.95625 113.38825 37.565624 113.1695Q38.175 112.95075 38.971874 112.95075Q39.76875 112.95075 40.26875 113.13825Q40.76875 113.32575 41.003124 113.607Q41.2375 113.88825 41.33125 114.32575Q41.378124 114.59138 41.378124 115.2945L41.378124 116.70075Q41.378124 118.1695 41.440624 118.56013Q41.51875 118.95075 41.721874 119.31013L40.6125 119.31013Q40.45625 118.982 40.409374 118.5445ZM40.315624 116.18513Q39.7375 116.4195 38.596874 116.59138Q37.940624 116.68513 37.675 116.81013Q37.409374 116.9195 37.253124 117.13825Q37.1125 117.357 37.1125 117.63825Q37.1125 118.06013 37.425 118.34138Q37.753124 118.62263 38.3625 118.62263Q38.971874 118.62263 39.440624 118.357Q39.925 118.09138 40.14375 117.62263Q40.315624 117.26325 40.315624 116.57575L40.315624 116.18513ZM43.346874 119.31013L43.346874 113.09138L44.284374 113.09138L44.284374 113.96638Q44.58125 113.49763 45.065624 113.232Q45.55 112.95075 46.175 112.95075Q46.8625 112.95075 47.3 113.232Q47.753124 113.51325 47.925 114.02888Q48.675 112.95075 49.846874 112.95075Q50.784374 112.95075 51.26875 113.46638Q51.76875 113.96638 51.76875 115.0445L51.76875 119.31013L50.721874 119.31013L50.721874 115.38825Q50.721874 114.76325 50.6125 114.482Q50.51875 114.20075 50.253124 114.02888Q49.9875 113.857 49.6125 113.857Q48.95625 113.857 48.51875 114.2945Q48.096874 114.732 48.096874 115.70075L48.096874 119.31013L47.034374 119.31013L47.034374 115.26325Q47.034374 114.56013 46.76875 114.21638Q46.51875 113.857 45.940624 113.857Q45.4875 113.857 45.1125 114.09138Q44.7375 114.32575 44.565624 114.77888Q44.39375 115.232 44.39375 116.07575L44.39375 119.31013L43.346874 119.31013ZM57.596874 117.31013L58.690624 117.43513Q58.440624 118.38825 57.7375 118.9195Q57.034374 119.45075 55.95625 119.45075Q54.596874 119.45075 53.784374 118.607Q52.9875 117.76325 52.9875 116.24763Q52.9875 114.68513 53.8 113.82575Q54.6125 112.95075 55.89375 112.95075Q57.14375 112.95075 57.925 113.7945Q58.721874 114.63825 58.721874 116.18513Q58.721874 116.27888 58.721874 116.46638L54.08125 116.46638Q54.14375 117.49763 54.659374 118.0445Q55.175 118.57575 55.95625 118.57575Q56.534374 118.57575 56.940624 118.27888Q57.3625 117.96638 57.596874 117.31013ZM54.14375 115.607L57.6125 115.607Q57.55 114.81013 57.221874 114.4195Q56.70625 113.81013 55.909374 113.81013Q55.175 113.81013 54.675 114.2945Q54.190624 114.77888 54.14375 115.607ZM59.925 117.45075L60.95625 117.2945Q61.05 117.9195 61.440624 118.24763Q61.846874 118.57575 62.58125 118.57575Q63.3 118.57575 63.64375 118.2945Q64.00313 117.99763 64.00313 117.59138Q64.00313 117.232 63.690624 117.02888Q63.471874 116.88825 62.6125 116.6695Q61.45625 116.37263 61.003124 116.1695Q60.565624 115.95075 60.33125 115.57575Q60.096874 115.20075 60.096874 114.732Q60.096874 114.32575 60.284374 113.96638Q60.471874 113.607 60.8 113.37263Q61.05 113.20075 61.471874 113.07575Q61.89375 112.95075 62.39375 112.95075Q63.1125 112.95075 63.659374 113.1695Q64.22188 113.37263 64.4875 113.732Q64.75313 114.09138 64.84688 114.68513L63.815624 114.82575Q63.753124 114.357 63.409374 114.09138Q63.08125 113.81013 62.45625 113.81013Q61.7375 113.81013 61.425 114.06013Q61.1125 114.2945 61.1125 114.62263Q61.1125 114.82575 61.2375 114.982Q61.378124 115.15388 61.64375 115.26325Q61.8 115.32575 62.58125 115.52888Q63.70625 115.84138 64.14375 116.02888Q64.58125 116.21638 64.83125 116.57575Q65.08125 116.93513 65.08125 117.482Q65.08125 118.01325 64.76875 118.482Q64.47188 118.93513 63.89375 119.20075Q63.315624 119.45075 62.58125 119.45075Q61.3625 119.45075 60.721874 118.95075Q60.096874 118.43513 59.925 117.45075Z" fill-rule="nonzero"/><path fill="#9e9e9e" d="M24.596874 135.29451L24.596874 136.31013L18.909374 136.31013Q18.909374 135.93513 19.034374 135.57576Q19.253124 134.99763 19.721874 134.43513Q20.20625 133.87263 21.1125 133.13826Q22.51875 131.98201 23.003124 131.31013Q23.503124 130.63826 23.503124 130.04451Q23.503124 129.41951 23.05 128.99763Q22.596874 128.56013 21.878124 128.56013Q21.1125 128.56013 20.659374 129.01326Q20.20625 129.46638 20.190624 130.27888L19.1125 130.16951Q19.221874 128.95076 19.940624 128.32576Q20.675 127.685135 21.909374 127.685135Q23.14375 127.685135 23.8625 128.37263Q24.58125 129.06013 24.58125 130.07576Q24.58125 130.59138 24.3625 131.09138Q24.159374 131.57576 23.659374 132.13826Q23.175 132.68513 22.05 133.63826Q21.096874 134.43513 20.815624 134.73201Q20.55 135.01326 20.378124 135.29451L24.596874 135.29451ZM26.05 134.06013L27.159374 133.96638Q27.284374 134.77888 27.721874 135.18513Q28.175 135.59138 28.815624 135.59138Q29.565624 135.59138 30.096874 135.01326Q30.628124 134.43513 30.628124 133.49763Q30.628124 132.59138 30.1125 132.07576Q29.6125 131.54451 28.784374 131.54451Q28.284374 131.54451 27.8625 131.77888Q27.45625 132.01326 27.221874 132.37263L26.2375 132.24763L27.065624 127.841385L31.346874 127.841385L31.346874 128.84138L27.909374 128.84138L27.45625 131.15388Q28.221874 130.60701 29.065624 130.60701Q30.190624 130.60701 30.95625 131.38826Q31.7375 132.16951 31.7375 133.40388Q31.7375 134.56013 31.065624 135.41951Q30.2375 136.45076 28.815624 136.45076Q27.64375 136.45076 26.89375 135.79451Q26.159374 135.13826 26.05 134.06013ZM33.64375 136.31013L33.64375 135.10701L34.846874 135.10701L34.846874 136.31013L33.64375 136.31013ZM36.05 132.07576Q36.05 130.54451 36.3625 129.62263Q36.675 128.68513 37.284374 128.18513Q37.909374 127.685135 38.846874 127.685135Q39.534374 127.685135 40.05 127.966385Q40.58125 128.24763 40.925 128.77888Q41.26875 129.29451 41.45625 130.04451Q41.64375 130.79451 41.64375 132.07576Q41.64375 133.59138 41.33125 134.51326Q41.034374 135.43513 40.409374 135.95076Q39.8 136.45076 38.846874 136.45076Q37.6125 136.45076 36.89375 135.56013Q36.05 134.49763 36.05 132.07576ZM37.128124 132.07576Q37.128124 134.18513 37.628124 134.88826Q38.128124 135.59138 38.846874 135.59138Q39.58125 135.59138 40.065624 134.88826Q40.565624 134.18513 40.565624 132.07576Q40.565624 129.95076 40.065624 129.26326Q39.58125 128.56013 38.83125 128.56013Q38.1125 128.56013 37.675 129.16951Q37.128124 129.95076 37.128124 132.07576ZM43.253124 129.77888Q43.253124 128.85701 43.70625 128.21638Q44.175 127.57576 45.05 127.57576Q45.8625 127.57576 46.39375 128.15388Q46.925 128.73201 46.925 129.84138Q46.925 130.93513 46.378124 131.52888Q45.846874 132.10701 45.065624 132.10701Q44.284374 132.10701 43.76875 131.52888Q43.253124 130.95076 43.253124 129.77888ZM45.08125 128.29451Q44.690624 128.29451 44.425 128.63826Q44.175 128.98201 44.175 129.88826Q44.175 130.71638 44.425 131.06013Q44.690624 131.38826 45.08125 131.38826Q45.4875 131.38826 45.7375 131.04451Q46.003124 130.70076 46.003124 129.81013Q46.003124 128.96638 45.7375 128.63826Q45.471874 128.29451 45.08125 128.29451ZM45.08125 136.62263L49.784374 127.57576L50.64375 127.57576L45.95625 136.62263L45.08125 136.62263ZM48.8 134.29451Q48.8 133.37263 49.253124 132.73201Q49.721874 132.09138 50.6125 132.09138Q51.425 132.09138 51.95625 132.66951Q52.4875 133.23201 52.4875 134.35701Q52.4875 135.45076 51.940624 136.04451Q51.409374 136.62263 50.6125 136.62263Q49.846874 136.62263 49.315624 136.04451Q48.8 135.46638 48.8 134.29451ZM50.64375 132.81013Q50.2375 132.81013 49.971874 133.15388Q49.721874 133.49763 49.721874 134.40388Q49.721874 135.21638 49.9875 135.56013Q50.253124 135.90388 50.64375 135.90388Q51.034374 135.90388 51.3 135.56013Q51.565624 135.21638 51.565624 134.31013Q51.565624 133.48201 51.3 133.15388Q51.034374 132.81013 50.64375 132.81013Z" fill-rule="nonzero"/><path stroke="#757575" stroke-width="1.0" stroke-linecap="butt" d="M18.55 123.81013L157.23334 123.81013L208.1268 123.81013" fill-rule="nonzero"/><path fill="#9e9e9e" d="M210.1268 123.81013C210.1268 122.70556 209.23137 121.81013 208.1268 121.81013C207.02223 121.81013 206.1268 122.70556 206.1268 123.81013C206.1268 124.914696 207.02223 125.81013 208.1268 125.81013C209.23137 125.81013 210.1268 124.914696 210.1268 123.81013" fill-rule="nonzero"/><path fill="#1a1a1a" d="M18.89375 242.37376L19.925 242.23314Q19.95625 243.21751 20.284374 243.57689Q20.6125 243.93626 21.20625 243.93626Q21.628124 243.93626 21.940624 243.74876Q22.253124 243.54564 22.3625 243.21751Q22.4875 242.87376 22.4875 242.13939L22.4875 236.21751L23.6125 236.21751L23.6125 242.07689Q23.6125 243.15501 23.346874 243.74876Q23.096874 244.34251 22.534374 244.65501Q21.971874 244.95189 21.20625 244.95189Q20.08125 244.95189 19.471874 244.31126Q18.878124 243.65501 18.89375 242.37376ZM29.425 244.81126L29.425 243.88939Q28.690624 244.95189 27.440624 244.95189Q26.89375 244.95189 26.409374 244.74876Q25.940624 244.53001 25.70625 244.21751Q25.471874 243.88939 25.378124 243.42064Q25.315624 243.12376 25.315624 242.43626L25.315624 238.59251L26.378124 238.59251L26.378124 242.04564Q26.378124 242.85814 26.440624 243.15501Q26.534374 243.56126 26.846874 243.81126Q27.175 244.04564 27.659374 244.04564Q28.128124 244.04564 28.534374 243.81126Q28.95625 243.56126 29.128124 243.13939Q29.315624 242.71751 29.315624 241.92064L29.315624 238.59251L30.3625 238.59251L30.3625 244.81126L29.425 244.81126ZM31.925 242.95189L32.95625 242.79564Q33.05 243.42064 33.440624 243.74876Q33.846874 244.07689 34.58125 244.07689Q35.3 244.07689 35.64375 243.79564Q36.003124 243.49876 36.003124 243.09251Q36.003124 242.73314 35.690624 242.53001Q35.471874 242.38939 34.6125 242.17064Q33.45625 241.87376 33.003124 241.67064Q32.565624 241.45189 32.33125 241.07689Q32.096874 240.70189 32.096874 240.23314Q32.096874 239.82689 32.284374 239.46751Q32.471874 239.10814 32.8 238.87376Q33.05 238.70189 33.471874 238.57689Q33.89375 238.45189 34.39375 238.45189Q35.1125 238.45189 35.659374 238.67064Q36.221874 238.87376 36.4875 239.23314Q36.753124 239.59251 36.846874 240.18626L35.815624 240.32689Q35.753124 239.85814 35.409374 239.59251Q35.08125 239.31126 34.45625 239.31126Q33.7375 239.31126 33.425 239.56126Q33.1125 239.79564 33.1125 240.12376Q33.1125 240.32689 33.2375 240.48314Q33.378124 240.65501 33.64375 240.76439Q33.8 240.82689 34.58125 241.03001Q35.70625 241.34251 36.14375 241.53001Q36.58125 241.71751 36.83125 242.07689Q37.08125 242.43626 37.08125 242.98314Q37.08125 243.51439 36.76875 243.98314Q36.471874 244.43626 35.89375 244.70189Q35.315624 244.95189 34.58125 244.95189Q33.3625 244.95189 32.721874 244.45189Q32.096874 243.93626 31.925 242.95189ZM40.64375 243.87376L40.8 244.79564Q40.346874 244.88939 40.003124 244.88939Q39.425 244.88939 39.1125 244.71751Q38.8 244.53001 38.659374 244.23314Q38.534374 243.93626 38.534374 242.98314L38.534374 239.40501L37.76875 239.40501L37.76875 238.59251L38.534374 238.59251L38.534374 237.04564L39.58125 236.42064L39.58125 238.59251L40.64375 238.59251L40.64375 239.40501L39.58125 239.40501L39.58125 243.04564Q39.58125 243.49876 39.628124 243.62376Q39.690624 243.74876 39.815624 243.82689Q39.940624 243.90501 40.175 243.90501Q40.3625 243.90501 40.64375 243.87376ZM41.346874 237.43626L41.346874 236.21751L42.409374 236.21751L42.409374 237.43626L41.346874 237.43626ZM41.346874 244.81126L41.346874 238.59251L42.409374 238.59251L42.409374 244.81126L41.346874 244.81126ZM44.346874 244.81126L44.346874 238.59251L45.284374 238.59251L45.284374 239.46751Q45.971874 238.45189 47.26875 238.45189Q47.83125 238.45189 48.3 238.65501Q48.784374 238.85814 49.01875 239.18626Q49.253124 239.51439 49.346874 239.95189Q49.39375 240.24876 49.39375 240.98314L49.39375 244.81126L48.346874 244.81126L48.346874 241.03001Q48.346874 240.37376 48.221874 240.06126Q48.096874 239.74876 47.784374 239.56126Q47.471874 239.35814 47.05 239.35814Q46.378124 239.35814 45.878124 239.79564Q45.39375 240.21751 45.39375 241.40501L45.39375 244.81126L44.346874 244.81126Z" fill-rule="nonzero"/><path fill="#9e9e9e" d="M20.675 257.155Q20.01875 256.905 19.690624 256.4675Q19.378124 256.01437 19.378124 255.405Q19.378124 254.4675 20.05 253.82687Q20.7375 253.18625 21.846874 253.18625Q22.971874 253.18625 23.659374 253.8425Q24.346874 254.49875 24.346874 255.43625Q24.346874 256.03 24.034374 256.4675Q23.721874 256.905 23.08125 257.155Q23.878124 257.405 24.284374 257.98312Q24.690624 258.56125 24.690624 259.35812Q24.690624 260.45187 23.909374 261.20187Q23.14375 261.95187 21.8625 261.95187Q20.596874 261.95187 19.815624 261.20187Q19.034374 260.45187 19.034374 259.32687Q19.034374 258.48312 19.45625 257.92062Q19.89375 257.35812 20.675 257.155ZM20.45625 255.35812Q20.45625 255.9675 20.846874 256.35812Q21.253124 256.74875 21.878124 256.74875Q22.4875 256.74875 22.878124 256.37375Q23.26875 255.98312 23.26875 255.42062Q23.26875 254.8425 22.8625 254.45187Q22.45625 254.04562 21.8625 254.04562Q21.253124 254.04562 20.846874 254.43625Q20.45625 254.82687 20.45625 255.35812ZM20.128124 259.32687Q20.128124 259.78 20.33125 260.20187Q20.55 260.62375 20.971874 260.85812Q21.39375 261.0925 21.878124 261.0925Q22.628124 261.0925 23.1125 260.60812Q23.6125 260.12375 23.6125 259.37375Q23.6125 258.60812 23.1125 258.10812Q22.6125 257.60812 21.846874 257.60812Q21.096874 257.60812 20.6125 258.10812Q20.128124 258.5925 20.128124 259.32687ZM26.64375 261.81125L26.64375 260.60812L27.846874 260.60812L27.846874 261.81125L26.64375 261.81125ZM29.05 259.54562L30.1125 259.405Q30.284374 260.29562 30.721874 260.70187Q31.159374 261.0925 31.784374 261.0925Q32.534374 261.0925 33.05 260.57687Q33.565624 260.06125 33.565624 259.29562Q33.565624 258.57687 33.08125 258.10812Q32.6125 257.62375 31.878124 257.62375Q31.58125 257.62375 31.128124 257.74875L31.253124 256.81125Q31.3625 256.82687 31.425 256.82687Q32.096874 256.82687 32.628124 256.48312Q33.175 256.12375 33.175 255.38937Q33.175 254.81125 32.784374 254.43625Q32.39375 254.04562 31.76875 254.04562Q31.159374 254.04562 30.7375 254.43625Q30.33125 254.82687 30.221874 255.5925L29.159374 255.405Q29.346874 254.35812 30.034374 253.78Q30.721874 253.18625 31.7375 253.18625Q32.440624 253.18625 33.034374 253.49875Q33.628124 253.79562 33.940624 254.31125Q34.253124 254.82687 34.253124 255.42062Q34.253124 255.9675 33.95625 256.43625Q33.659374 256.88937 33.08125 257.155Q33.83125 257.32687 34.253124 257.88937Q34.675 258.43625 34.675 259.28Q34.675 260.405 33.846874 261.18625Q33.034374 261.9675 31.784374 261.9675Q30.659374 261.9675 29.909374 261.29562Q29.159374 260.60812 29.05 259.54562ZM36.253124 255.28Q36.253124 254.35812 36.70625 253.7175Q37.175 253.07687 38.05 253.07687Q38.8625 253.07687 39.39375 253.655Q39.925 254.23312 39.925 255.3425Q39.925 256.43625 39.378124 257.03Q38.846874 257.60812 38.065624 257.60812Q37.284374 257.60812 36.76875 257.03Q36.253124 256.45187 36.253124 255.28ZM38.08125 253.79562Q37.690624 253.79562 37.425 254.13937Q37.175 254.48312 37.175 255.38937Q37.175 256.2175 37.425 256.56125Q37.690624 256.88937 38.08125 256.88937Q38.4875 256.88937 38.7375 256.54562Q39.003124 256.20187 39.003124 255.31125Q39.003124 254.4675 38.7375 254.13937Q38.471874 253.79562 38.08125 253.79562ZM38.08125 262.12375L42.784374 253.07687L43.64375 253.07687L38.95625 262.12375L38.08125 262.12375ZM41.8 259.79562Q41.8 258.87375 42.253124 258.23312Q42.721874 257.5925 43.6125 257.5925Q44.425 257.5925 44.95625 258.17062Q45.4875 258.73312 45.4875 259.85812Q45.4875 260.95187 44.940624 261.54562Q44.409374 262.12375 43.6125 262.12375Q42.846874 262.12375 42.315624 261.54562Q41.8 260.9675 41.8 259.79562ZM43.64375 258.31125Q43.2375 258.31125 42.971874 258.655Q42.721874 258.99875 42.721874 259.905Q42.721874 260.7175 42.9875 261.06125Q43.253124 261.405 43.64375 261.405Q44.034374 261.405 44.3 261.06125Q44.565624 260.7175 44.565624 259.81125Q44.565624 258.98312 44.3 258.655Q44.034374 258.31125 43.64375 258.31125Z" fill-rule="nonzero"/><path stroke="#757575" stroke-width="1.0" stroke-linecap="butt" d="M18.55 249.31126L157.23334 249.31126L174.49887 249.31126" fill-rule="nonzero"/><path fill="#9e9e9e" d="M176.49887 249.31126C176.49887 248.2067 175.60344 247.31126 174.49887 247.31126C173.3943 247.31126 172.49887 248.2067 172.49887 249.31126C172.49887 250.41583 173.3943 251.31126 174.49887 251.31126C175.60344 251.31126 176.49887 250.41583 176.49887 249.31126" fill-rule="nonzero"/><path fill="#1a1a1a" d="M21.925 323.70456L18.596874 315.1108L19.83125 315.1108L22.065624 321.3608Q22.33125 322.1108 22.51875 322.76706Q22.721874 322.06393 22.9875 321.3608L25.3 315.1108L26.45625 315.1108L23.096874 323.70456L21.925 323.70456ZM27.346874 316.32956L27.346874 315.1108L28.409374 315.1108L28.409374 316.32956L27.346874 316.32956ZM27.346874 323.70456L27.346874 317.4858L28.409374 317.4858L28.409374 323.70456L27.346874 323.70456ZM34.409374 321.4233L35.440624 321.56393Q35.26875 322.62643 34.565624 323.2358Q33.8625 323.84518 32.846874 323.84518Q31.565624 323.84518 30.784374 323.01706Q30.01875 322.1733 30.01875 320.6108Q30.01875 319.6108 30.346874 318.8608Q30.690624 318.09518 31.3625 317.72018Q32.05 317.34518 32.8625 317.34518Q33.8625 317.34518 34.503124 317.8608Q35.159374 318.3608 35.346874 319.31393L34.315624 319.47018Q34.175 318.84518 33.8 318.53268Q33.425 318.20456 32.89375 318.20456Q32.096874 318.20456 31.596874 318.78268Q31.096874 319.34518 31.096874 320.57956Q31.096874 321.84518 31.58125 322.40768Q32.065624 322.97018 32.83125 322.97018Q33.45625 322.97018 33.8625 322.59518Q34.284374 322.22018 34.409374 321.4233ZM38.64375 322.76706L38.8 323.68893Q38.346874 323.78268 38.003124 323.78268Q37.425 323.78268 37.1125 323.6108Q36.8 323.4233 36.659374 323.12643Q36.534374 322.82956 36.534374 321.87643L36.534374 318.2983L35.76875 318.2983L35.76875 317.4858L36.534374 317.4858L36.534374 315.93893L37.58125 315.31393L37.58125 317.4858L38.64375 317.4858L38.64375 318.2983L37.58125 318.2983L37.58125 321.93893Q37.58125 322.39206 37.628124 322.51706Q37.690624 322.64206 37.815624 322.72018Q37.940624 322.7983 38.175 322.7983Q38.3625 322.7983 38.64375 322.76706ZM38.95625 320.59518Q38.95625 318.8608 39.909374 318.03268Q40.70625 317.34518 41.8625 317.34518Q43.14375 317.34518 43.95625 318.18893Q44.784374 319.01706 44.784374 320.50143Q44.784374 321.70456 44.425 322.39206Q44.065624 323.07956 43.3625 323.47018Q42.675 323.84518 41.8625 323.84518Q40.565624 323.84518 39.753124 323.01706Q38.95625 322.1733 38.95625 320.59518ZM40.034374 320.59518Q40.034374 321.78268 40.55 322.37643Q41.08125 322.97018 41.8625 322.97018Q42.659374 322.97018 43.175 322.37643Q43.690624 321.78268 43.690624 320.56393Q43.690624 319.40768 43.159374 318.81393Q42.64375 318.22018 41.8625 318.22018Q41.08125 318.22018 40.55 318.81393Q40.034374 319.39206 40.034374 320.59518ZM46.33125 323.70456L46.33125 317.4858L47.284374 317.4858L47.284374 318.4233Q47.64375 317.76706 47.940624 317.56393Q48.253124 317.34518 48.628124 317.34518Q49.159374 317.34518 49.70625 317.6733L49.346874 318.65768Q48.95625 318.4233 48.58125 318.4233Q48.221874 318.4233 47.940624 318.64206Q47.675 318.84518 47.565624 319.22018Q47.378124 319.78268 47.378124 320.43893L47.378124 323.70456L46.33125 323.70456Z" fill-rule="nonzero"/><path fill="#9e9e9e" d="M23.01875 340.70456L21.971874 340.70456L21.971874 333.9858Q21.58125 334.34518 20.95625 334.72018Q20.346874 335.07956 19.8625 335.25143L19.8625 334.2358Q20.7375 333.81393 21.39375 333.2358Q22.065624 332.64206 22.346874 332.07956L23.01875 332.07956L23.01875 340.70456ZM31.51875 334.22018L30.471874 334.2983Q30.33125 333.6733 30.08125 333.39206Q29.64375 332.93893 29.01875 332.93893Q28.51875 332.93893 28.128124 333.22018Q27.64375 333.59518 27.346874 334.2983Q27.065624 334.9858 27.05 336.26706Q27.425 335.68893 27.971874 335.40768Q28.534374 335.12643 29.14375 335.12643Q30.190624 335.12643 30.925 335.90768Q31.675 336.68893 31.675 337.90768Q31.675 338.72018 31.315624 339.4233Q30.971874 340.1108 30.3625 340.4858Q29.753124 340.84518 28.9875 340.84518Q27.659374 340.84518 26.83125 339.87643Q26.003124 338.90768 26.003124 336.68893Q26.003124 334.18893 26.925 333.06393Q27.721874 332.07956 29.08125 332.07956Q30.096874 332.07956 30.7375 332.65768Q31.39375 333.22018 31.51875 334.22018ZM27.221874 337.9233Q27.221874 338.47018 27.440624 338.97018Q27.675 339.45456 28.08125 339.72018Q28.503124 339.9858 28.971874 339.9858Q29.628124 339.9858 30.1125 339.45456Q30.596874 338.90768 30.596874 337.9858Q30.596874 337.09518 30.1125 336.57956Q29.64375 336.06393 28.925 336.06393Q28.20625 336.06393 27.70625 336.57956Q27.221874 337.09518 27.221874 337.9233ZM33.64375 340.70456L33.64375 339.50143L34.846874 339.50143L34.846874 340.70456L33.64375 340.70456ZM36.1125 333.2358L36.1125 332.22018L41.675 332.22018L41.675 333.0483Q40.8625 333.9233 40.05 335.37643Q39.253124 336.81393 38.815624 338.34518Q38.4875 339.4233 38.409374 340.70456L37.315624 340.70456Q37.33125 339.68893 37.70625 338.25143Q38.096874 336.81393 38.8 335.4858Q39.51875 334.15768 40.33125 333.2358L36.1125 333.2358ZM43.253124 334.1733Q43.253124 333.25143 43.70625 332.6108Q44.175 331.97018 45.05 331.97018Q45.8625 331.97018 46.39375 332.5483Q46.925 333.12643 46.925 334.2358Q46.925 335.32956 46.378124 335.9233Q45.846874 336.50143 45.065624 336.50143Q44.284374 336.50143 43.76875 335.9233Q43.253124 335.34518 43.253124 334.1733ZM45.08125 332.68893Q44.690624 332.68893 44.425 333.03268Q44.175 333.37643 44.175 334.28268Q44.175 335.1108 44.425 335.45456Q44.690624 335.78268 45.08125 335.78268Q45.4875 335.78268 45.7375 335.43893Q46.003124 335.09518 46.003124 334.20456Q46.003124 333.3608 45.7375 333.03268Q45.471874 332.68893 45.08125 332.68893ZM45.08125 341.01706L49.784374 331.97018L50.64375 331.97018L45.95625 341.01706L45.08125 341.01706ZM48.8 338.68893Q48.8 337.76706 49.253124 337.12643Q49.721874 336.4858 50.6125 336.4858Q51.425 336.4858 51.95625 337.06393Q52.4875 337.62643 52.4875 338.75143Q52.4875 339.84518 51.940624 340.43893Q51.409374 341.01706 50.6125 341.01706Q49.846874 341.01706 49.315624 340.43893Q48.8 339.8608 48.8 338.68893ZM50.64375 337.20456Q50.2375 337.20456 49.971874 337.5483Q49.721874 337.89206 49.721874 338.7983Q49.721874 339.6108 49.9875 339.95456Q50.253124 340.2983 50.64375 340.2983Q51.034374 340.2983 51.3 339.95456Q51.565624 339.6108 51.565624 338.70456Q51.565624 337.87643 51.3 337.5483Q51.034374 337.20456 50.64375 337.20456Z" fill-rule="nonzero"/><path stroke="#757575" stroke-width="1.0" stroke-linecap="butt" d="M18.55 328.20456L157.23334 328.20456L235.03583 328.20456" fill-rule="nonzero"/><path fill="#9e9e9e" d="M237.03583 328.20456C237.03583 327.1 236.1404 326.20456 235.03583 326.20456C233.93126 326.20456 233.03583 327.1 233.03583 328.20456C233.03583 329.30914 233.93126 330.20456 235.03583 330.20456C236.1404 330.20456 237.03583 329.30914 237.03583 328.20456" fill-rule="nonzero"/><path fill="#1a1a1a" d="M545.79376 116.87263L546.825 116.732Q546.85626 117.71638 547.1844 118.07575Q547.5125 118.43513 548.10626 118.43513Q548.52814 118.43513 548.84064 118.24763Q549.15314 118.0445 549.2625 117.71638Q549.3875 117.37263 549.3875 116.63825L549.3875 110.71638L550.5125 110.71638L550.5125 116.57575Q550.5125 117.65388 550.2469 118.24763Q549.9969 118.84138 549.4344 119.15388Q548.8719 119.45075 548.10626 119.45075Q546.98126 119.45075 546.3719 118.81013Q545.77814 118.15388 545.79376 116.87263ZM556.3094 118.5445Q555.71564 119.0445 555.16876 119.24763Q554.6375 119.45075 554.0125 119.45075Q552.98126 119.45075 552.4344 118.95075Q551.8875 118.45075 551.8875 117.6695Q551.8875 117.21638 552.09064 116.84138Q552.29376 116.45075 552.6375 116.232Q552.98126 115.99763 553.40314 115.88825Q553.7 115.7945 554.34064 115.71638Q555.60626 115.57575 556.21564 115.357Q556.21564 115.13825 556.21564 115.09138Q556.21564 114.43513 555.91876 114.1695Q555.5125 113.82575 554.71564 113.82575Q553.98126 113.82575 553.6219 114.09138Q553.2625 114.34138 553.09064 114.99763L552.0594 114.857Q552.2 114.20075 552.52814 113.7945Q552.85626 113.38825 553.46564 113.1695Q554.075 112.95075 554.8719 112.95075Q555.66876 112.95075 556.16876 113.13825Q556.66876 113.32575 556.90314 113.607Q557.1375 113.88825 557.23126 114.32575Q557.27814 114.59138 557.27814 115.2945L557.27814 116.70075Q557.27814 118.1695 557.34064 118.56013Q557.41876 118.95075 557.6219 119.31013L556.5125 119.31013Q556.35626 118.982 556.3094 118.5445ZM556.21564 116.18513Q555.6375 116.4195 554.4969 116.59138Q553.84064 116.68513 553.575 116.81013Q553.3094 116.9195 553.15314 117.13825Q553.0125 117.357 553.0125 117.63825Q553.0125 118.06013 553.325 118.34138Q553.65314 118.62263 554.2625 118.62263Q554.8719 118.62263 555.34064 118.357Q555.825 118.09138 556.04376 117.62263Q556.21564 117.26325 556.21564 116.57575L556.21564 116.18513ZM559.2469 119.31013L559.2469 113.09138L560.1844 113.09138L560.1844 113.96638Q560.48126 113.49763 560.96564 113.232Q561.45 112.95075 562.075 112.95075Q562.7625 112.95075 563.2 113.232Q563.65314 113.51325 563.825 114.02888Q564.575 112.95075 565.7469 112.95075Q566.6844 112.95075 567.16876 113.46638Q567.66876 113.96638 567.66876 115.0445L567.66876 119.31013L566.6219 119.31013L566.6219 115.38825Q566.6219 114.76325 566.5125 114.482Q566.41876 114.20075 566.15314 114.02888Q565.8875 113.857 565.5125 113.857Q564.85626 113.857 564.41876 114.2945Q563.9969 114.732 563.9969 115.70075L563.9969 119.31013L562.9344 119.31013L562.9344 115.26325Q562.9344 114.56013 562.66876 114.21638Q562.41876 113.857 561.84064 113.857Q561.3875 113.857 561.0125 114.09138Q560.6375 114.32575 560.46564 114.77888Q560.29376 115.232 560.29376 116.07575L560.29376 119.31013L559.2469 119.31013ZM573.4969 117.31013L574.59064 117.43513Q574.34064 118.38825 573.6375 118.9195Q572.9344 119.45075 571.85626 119.45075Q570.4969 119.45075 569.6844 118.607Q568.8875 117.76325 568.8875 116.24763Q568.8875 114.68513 569.7 113.82575Q570.5125 112.95075 571.79376 112.95075Q573.04376 112.95075 573.825 113.7945Q574.6219 114.63825 574.6219 116.18513Q574.6219 116.27888 574.6219 116.46638L569.98126 116.46638Q570.04376 117.49763 570.5594 118.0445Q571.075 118.57575 571.85626 118.57575Q572.4344 118.57575 572.84064 118.27888Q573.2625 117.96638 573.4969 117.31013ZM570.04376 115.607L573.5125 115.607Q573.45 114.81013 573.1219 114.4195Q572.60626 113.81013 571.8094 113.81013Q571.075 113.81013 570.575 114.2945Q570.09064 114.77888 570.04376 115.607ZM575.825 117.45075L576.85626 117.2945Q576.95 117.9195 577.34064 118.24763Q577.7469 118.57575 578.48126 118.57575Q579.2 118.57575 579.54376 118.2945Q579.90314 117.99763 579.90314 117.59138Q579.90314 117.232 579.59064 117.02888Q579.3719 116.88825 578.5125 116.6695Q577.35626 116.37263 576.90314 116.1695Q576.46564 115.95075 576.23126 115.57575Q575.9969 115.20075 575.9969 114.732Q575.9969 114.32575 576.1844 113.96638Q576.3719 113.607 576.7 113.37263Q576.95 113.20075 577.3719 113.07575Q577.79376 112.95075 578.29376 112.95075Q579.0125 112.95075 579.5594 113.1695Q580.1219 113.37263 580.3875 113.732Q580.65314 114.09138 580.7469 114.68513L579.71564 114.82575Q579.65314 114.357 579.3094 114.09138Q578.98126 113.81013 578.35626 113.81013Q577.6375 113.81013 577.325 114.06013Q577.0125 114.2945 577.0125 114.62263Q577.0125 114.82575 577.1375 114.982Q577.27814 115.15388 577.54376 115.26325Q577.7 115.32575 578.48126 115.52888Q579.60626 115.84138 580.04376 116.02888Q580.48126 116.21638 580.73126 116.57575Q580.98126 116.93513 580.98126 117.482Q580.98126 118.01325 580.66876 118.482Q580.3719 118.93513 579.79376 119.20075Q579.21564 119.45075 578.48126 119.45075Q577.2625 119.45075 576.6219 118.95075Q575.9969 118.43513 575.825 117.45075Z" fill-rule="nonzero"/><path fill="#9e9e9e" d="M552.4969 135.29451L552.4969 136.31013L546.8094 136.31013Q546.8094 135.93513 546.9344 135.57576Q547.15314 134.99763 547.6219 134.43513Q548.10626 133.87263 549.0125 133.13826Q550.41876 131.98201 550.90314 131.31013Q551.40314 130.63826 551.40314 130.04451Q551.40314 129.41951 550.95 128.99763Q550.4969 128.56013 549.77814 128.56013Q549.0125 128.56013 548.5594 129.01326Q548.10626 129.46638 548.09064 130.27888L547.0125 130.16951Q547.1219 128.95076 547.84064 128.32576Q548.575 127.685135 549.8094 127.685135Q551.04376 127.685135 551.7625 128.37263Q552.48126 129.06013 552.48126 130.07576Q552.48126 130.59138 552.2625 131.09138Q552.0594 131.57576 551.5594 132.13826Q551.075 132.68513 549.95 133.63826Q548.9969 134.43513 548.71564 134.73201Q548.45 135.01326 548.27814 135.29451L552.4969 135.29451ZM553.95 134.06013L555.0594 133.96638Q555.1844 134.77888 555.6219 135.18513Q556.075 135.59138 556.71564 135.59138Q557.46564 135.59138 557.9969 135.01326Q558.52814 134.43513 558.52814 133.49763Q558.52814 132.59138 558.0125 132.07576Q557.5125 131.54451 556.6844 131.54451Q556.1844 131.54451 555.7625 131.77888Q555.35626 132.01326 555.1219 132.37263L554.1375 132.24763L554.96564 127.841385L559.2469 127.841385L559.2469 128.84138L555.8094 128.84138L555.35626 131.15388Q556.1219 130.60701 556.96564 130.60701Q558.09064 130.60701 558.85626 131.38826Q559.6375 132.16951 559.6375 133.40388Q559.6375 134.56013 558.96564 135.41951Q558.1375 136.45076 556.71564 136.45076Q555.54376 136.45076 554.79376 135.79451Q554.0594 135.13826 553.95 134.06013ZM561.54376 136.31013L561.54376 135.10701L562.7469 135.10701L562.7469 136.31013L561.54376 136.31013ZM563.95 132.07576Q563.95 130.54451 564.2625 129.62263Q564.575 128.68513 565.1844 128.18513Q565.8094 127.685135 566.7469 127.685135Q567.4344 127.685135 567.95 127.966385Q568.48126 128.24763 568.825 128.77888Q569.16876 129.29451 569.35626 130.04451Q569.54376 130.79451 569.54376 132.07576Q569.54376 133.59138 569.23126 134.51326Q568.9344 135.43513 568.3094 135.95076Q567.7 136.45076 566.7469 136.45076Q565.5125 136.45076 564.79376 135.56013Q563.95 134.49763 563.95 132.07576ZM565.02814 132.07576Q565.02814 134.18513 565.52814 134.88826Q566.02814 135.59138 566.7469 135.59138Q567.48126 135.59138 567.96564 134.88826Q568.46564 134.18513 568.46564 132.07576Q568.46564 129.95076 567.96564 129.26326Q567.48126 128.56013 566.73126 128.56013Q566.0125 128.56013 565.575 129.16951Q565.02814 129.95076 565.02814 132.07576ZM571.15314 129.77888Q571.15314 128.85701 571.60626 128.21638Q572.075 127.57576 572.95 127.57576Q573.7625 127.57576 574.29376 128.15388Q574.825 128.73201 574.825 129.84138Q574.825 130.93513 574.27814 131.52888Q573.7469 132.10701 572.96564 132.10701Q572.1844 132.10701 571.66876 131.52888Q571.15314 130.95076 571.15314 129.77888ZM572.98126 128.29451Q572.59064 128.29451 572.325 128.63826Q572.075 128.98201 572.075 129.88826Q572.075 130.71638 572.325 131.06013Q572.59064 131.38826 572.98126 131.38826Q573.3875 131.38826 573.6375 131.04451Q573.90314 130.70076 573.90314 129.81013Q573.90314 128.96638 573.6375 128.63826Q573.3719 128.29451 572.98126 128.29451ZM572.98126 136.62263L577.6844 127.57576L578.54376 127.57576L573.85626 136.62263L572.98126 136.62263ZM576.7 134.29451Q576.7 133.37263 577.15314 132.73201Q577.6219 132.09138 578.5125 132.09138Q579.325 132.09138 579.85626 132.66951Q580.3875 133.23201 580.3875 134.35701Q580.3875 135.45076 579.84064 136.04451Q579.3094 136.62263 578.5125 136.62263Q577.7469 136.62263 577.21564 136.04451Q576.7 135.46638 576.7 134.29451ZM578.54376 132.81013Q578.1375 132.81013 577.8719 133.15388Q577.6219 133.49763 577.6219 134.40388Q577.6219 135.21638 577.8875 135.56013Q578.15314 135.90388 578.54376 135.90388Q578.9344 135.90388 579.2 135.56013Q579.46564 135.21638 579.46564 134.31013Q579.46564 133.48201 579.2 133.15388Q578.9344 132.81013 578.54376 132.81013Z" fill-rule="nonzero"/><path stroke="#757575" stroke-width="1.0" stroke-linecap="butt" d="M581.45 123.81013L442.76666 123.81013L391.8732 123.81013" fill-rule="nonzero"/><path fill="#9e9e9e" d="M393.8732 123.81013C393.8732 122.70556 392.97778 121.81013 391.8732 121.81013C390.76865 121.81013 389.8732 122.70556 389.8732 123.81013C389.8732 124.914696 390.76865 125.81013 391.8732 125.81013C392.97778 125.81013 393.8732 124.914696 393.8732 123.81013" fill-rule="nonzero"/><path fill="#1a1a1a" d="M561.79376 300.61905L562.825 300.47842Q562.85626 301.4628 563.1844 301.82217Q563.5125 302.18155 564.10626 302.18155Q564.52814 302.18155 564.84064 301.99405Q565.15314 301.79092 565.2625 301.4628Q565.3875 301.11905 565.3875 300.38467L565.3875 294.4628L566.5125 294.4628L566.5125 300.32217Q566.5125 301.4003 566.2469 301.99405Q565.9969 302.5878 565.4344 302.9003Q564.8719 303.19717 564.10626 303.19717Q562.98126 303.19717 562.3719 302.55655Q561.77814 301.9003 561.79376 300.61905ZM567.85626 299.94717Q567.85626 298.2128 568.8094 297.38467Q569.60626 296.69717 570.7625 296.69717Q572.04376 296.69717 572.85626 297.54092Q573.6844 298.36905 573.6844 299.85342Q573.6844 301.05655 573.325 301.74405Q572.96564 302.43155 572.2625 302.82217Q571.575 303.19717 570.7625 303.19717Q569.46564 303.19717 568.65314 302.36905Q567.85626 301.5253 567.85626 299.94717ZM568.9344 299.94717Q568.9344 301.13467 569.45 301.72842Q569.98126 302.32217 570.7625 302.32217Q571.5594 302.32217 572.075 301.72842Q572.59064 301.13467 572.59064 299.91592Q572.59064 298.75967 572.0594 298.16592Q571.54376 297.57217 570.7625 297.57217Q569.98126 297.57217 569.45 298.16592Q568.9344 298.74405 568.9344 299.94717ZM579.4969 301.05655L580.59064 301.18155Q580.34064 302.13467 579.6375 302.66592Q578.9344 303.19717 577.85626 303.19717Q576.4969 303.19717 575.6844 302.35342Q574.8875 301.50967 574.8875 299.99405Q574.8875 298.43155 575.7 297.57217Q576.5125 296.69717 577.79376 296.69717Q579.04376 296.69717 579.825 297.54092Q580.6219 298.38467 580.6219 299.93155Q580.6219 300.0253 580.6219 300.2128L575.98126 300.2128Q576.04376 301.24405 576.5594 301.79092Q577.075 302.32217 577.85626 302.32217Q578.4344 302.32217 578.84064 302.0253Q579.2625 301.7128 579.4969 301.05655ZM576.04376 299.35342L579.5125 299.35342Q579.45 298.55655 579.1219 298.16592Q578.60626 297.55655 577.8094 297.55655Q577.075 297.55655 576.575 298.04092Q576.09064 298.5253 576.04376 299.35342Z" fill-rule="nonzero"/><path fill="#9e9e9e" d="M552.4969 319.04092L552.4969 320.05655L546.8094 320.05655Q546.8094 319.68155 546.9344 319.32217Q547.15314 318.74405 547.6219 318.18155Q548.10626 317.61905 549.0125 316.88467Q550.41876 315.72842 550.90314 315.05655Q551.40314 314.38467 551.40314 313.79092Q551.40314 313.16592 550.95 312.74405Q550.4969 312.30655 549.77814 312.30655Q549.0125 312.30655 548.5594 312.75967Q548.10626 313.2128 548.09064 314.0253L547.0125 313.91592Q547.1219 312.69717 547.84064 312.07217Q548.575 311.43155 549.8094 311.43155Q551.04376 311.43155 551.7625 312.11905Q552.48126 312.80655 552.48126 313.82217Q552.48126 314.3378 552.2625 314.8378Q552.0594 315.32217 551.5594 315.88467Q551.075 316.43155 549.95 317.38467Q548.9969 318.18155 548.71564 318.47842Q548.45 318.75967 548.27814 319.04092L552.4969 319.04092ZM553.95 317.80655L555.0594 317.7128Q555.1844 318.5253 555.6219 318.93155Q556.075 319.3378 556.71564 319.3378Q557.46564 319.3378 557.9969 318.75967Q558.52814 318.18155 558.52814 317.24405Q558.52814 316.3378 558.0125 315.82217Q557.5125 315.29092 556.6844 315.29092Q556.1844 315.29092 555.7625 315.5253Q555.35626 315.75967 555.1219 316.11905L554.1375 315.99405L554.96564 311.5878L559.2469 311.5878L559.2469 312.5878L555.8094 312.5878L555.35626 314.9003Q556.1219 314.35342 556.96564 314.35342Q558.09064 314.35342 558.85626 315.13467Q559.6375 315.91592 559.6375 317.1503Q559.6375 318.30655 558.96564 319.16592Q558.1375 320.19717 556.71564 320.19717Q555.54376 320.19717 554.79376 319.54092Q554.0594 318.88467 553.95 317.80655ZM561.54376 320.05655L561.54376 318.85342L562.7469 318.85342L562.7469 320.05655L561.54376 320.05655ZM563.95 315.82217Q563.95 314.29092 564.2625 313.36905Q564.575 312.43155 565.1844 311.93155Q565.8094 311.43155 566.7469 311.43155Q567.4344 311.43155 567.95 311.7128Q568.48126 311.99405 568.825 312.5253Q569.16876 313.04092 569.35626 313.79092Q569.54376 314.54092 569.54376 315.82217Q569.54376 317.3378 569.23126 318.25967Q568.9344 319.18155 568.3094 319.69717Q567.7 320.19717 566.7469 320.19717Q565.5125 320.19717 564.79376 319.30655Q563.95 318.24405 563.95 315.82217ZM565.02814 315.82217Q565.02814 317.93155 565.52814 318.63467Q566.02814 319.3378 566.7469 319.3378Q567.48126 319.3378 567.96564 318.63467Q568.46564 317.93155 568.46564 315.82217Q568.46564 313.69717 567.96564 313.00967Q567.48126 312.30655 566.73126 312.30655Q566.0125 312.30655 565.575 312.91592Q565.02814 313.69717 565.02814 315.82217ZM571.15314 313.5253Q571.15314 312.60342 571.60626 311.9628Q572.075 311.32217 572.95 311.32217Q573.7625 311.32217 574.29376 311.9003Q574.825 312.47842 574.825 313.5878Q574.825 314.68155 574.27814 315.2753Q573.7469 315.85342 572.96564 315.85342Q572.1844 315.85342 571.66876 315.2753Q571.15314 314.69717 571.15314 313.5253ZM572.98126 312.04092Q572.59064 312.04092 572.325 312.38467Q572.075 312.72842 572.075 313.63467Q572.075 314.4628 572.325 314.80655Q572.59064 315.13467 572.98126 315.13467Q573.3875 315.13467 573.6375 314.79092Q573.90314 314.44717 573.90314 313.55655Q573.90314 312.7128 573.6375 312.38467Q573.3719 312.04092 572.98126 312.04092ZM572.98126 320.36905L577.6844 311.32217L578.54376 311.32217L573.85626 320.36905L572.98126 320.36905ZM576.7 318.04092Q576.7 317.11905 577.15314 316.47842Q577.6219 315.8378 578.5125 315.8378Q579.325 315.8378 579.85626 316.41592Q580.3875 316.97842 580.3875 318.10342Q580.3875 319.19717 579.84064 319.79092Q579.3094 320.36905 578.5125 320.36905Q577.7469 320.36905 577.21564 319.79092Q576.7 319.2128 576.7 318.04092ZM578.54376 316.55655Q578.1375 316.55655 577.8719 316.9003Q577.6219 317.24405 577.6219 318.1503Q577.6219 318.9628 577.8875 319.30655Q578.15314 319.6503 578.54376 319.6503Q578.9344 319.6503 579.2 319.30655Q579.46564 318.9628 579.46564 318.05655Q579.46564 317.22842 579.2 316.9003Q578.9344 316.55655 578.54376 316.55655Z" fill-rule="nonzero"/><path stroke="#757575" stroke-width="1.0" stroke-linecap="butt" d="M581.45 307.55655L442.76666 307.55655L391.8732 307.55655" fill-rule="nonzero"/><path fill="#9e9e9e" d="M393.8732 307.55655C393.8732 306.45197 392.97778 305.55655 391.8732 305.55655C390.76865 305.55655 389.8732 306.45197 389.8732 307.55655C389.8732 308.6611 390.76865 309.55655 391.8732 309.55655C392.97778 309.55655 393.8732 308.6611 393.8732 307.55655" fill-rule="nonzero"/><path fill="#757575" d="M30.315624 32.534374L32.20625 33.003124Q31.6125 35.346874 30.065624 36.58125Q28.51875 37.8 26.26875 37.8Q23.95625 37.8 22.503124 36.8625Q21.065624 35.909374 20.3 34.128124Q19.55 32.33125 19.55 30.284374Q19.55 28.05 20.39375 26.39375Q21.253124 24.721874 22.83125 23.8625Q24.409374 22.9875 26.3 22.9875Q28.45625 22.9875 29.909374 24.08125Q31.378124 25.175 31.95625 27.159374L30.096874 27.596874Q29.596874 26.034374 28.64375 25.33125Q27.70625 24.6125 26.26875 24.6125Q24.6125 24.6125 23.503124 25.409374Q22.39375 26.190624 21.940624 27.534374Q21.503124 28.8625 21.503124 30.26875Q21.503124 32.096874 22.034374 33.471874Q22.565624 34.83125 23.690624 35.503124Q24.815624 36.175 26.1125 36.175Q27.70625 36.175 28.815624 35.253124Q29.925 34.33125 30.315624 32.534374ZM33.221874 32.3625Q33.221874 29.4875 34.815624 28.096874Q36.159374 26.940624 38.08125 26.940624Q40.221874 26.940624 41.565624 28.346874Q42.925 29.753124 42.925 32.221874Q42.925 34.221874 42.33125 35.378124Q41.7375 36.51875 40.58125 37.159374Q39.440624 37.784374 38.08125 37.784374Q35.89375 37.784374 34.55 36.39375Q33.221874 34.9875 33.221874 32.3625ZM35.01875 32.3625Q35.01875 34.3625 35.878124 35.346874Q36.753124 36.33125 38.08125 36.33125Q39.39375 36.33125 40.253124 35.346874Q41.128124 34.346874 41.128124 32.3Q41.128124 30.378124 40.253124 29.39375Q39.378124 28.39375 38.08125 28.39375Q36.753124 28.39375 35.878124 29.39375Q35.01875 30.378124 35.01875 32.3625ZM51.659374 37.55L51.659374 36.01875Q50.45625 37.784374 48.378124 37.784374Q47.45625 37.784374 46.659374 37.440624Q45.8625 37.08125 45.471874 36.55Q45.096874 36.01875 44.940624 35.2375Q44.83125 34.721874 44.83125 33.596874L44.83125 27.175L46.58125 27.175L46.58125 32.925Q46.58125 34.3 46.690624 34.784374Q46.8625 35.471874 47.39375 35.878124Q47.940624 36.26875 48.721874 36.26875Q49.51875 36.26875 50.20625 35.8625Q50.909374 35.45625 51.190624 34.76875Q51.4875 34.065624 51.4875 32.7375L51.4875 27.175L53.2375 27.175L53.2375 37.55L51.659374 37.55ZM55.8625 37.55L55.8625 27.175L57.45625 27.175L57.45625 28.659374Q58.596874 26.940624 60.753124 26.940624Q61.690624 26.940624 62.471874 27.284374Q63.26875 27.6125 63.659374 28.159374Q64.05 28.70625 64.20625 29.45625Q64.3 29.95625 64.3 31.175L64.3 37.55L62.534374 37.55L62.534374 31.2375Q62.534374 30.159374 62.33125 29.628124Q62.128124 29.096874 61.596874 28.784374Q61.08125 28.471874 60.378124 28.471874Q59.253124 28.471874 58.440624 29.190624Q57.628124 29.89375 57.628124 31.878124L57.628124 37.55L55.8625 37.55ZM70.70625 35.971874L70.95625 37.534374Q70.22188 37.690624 69.62813 37.690624Q68.675 37.690624 68.14375 37.39375Q67.62813 37.08125 67.40938 36.596874Q67.19063 36.096874 67.19063 34.51875L67.19063 28.55L65.90938 28.55L65.90938 27.175L67.19063 27.175L67.19063 24.6125L68.94063 23.55L68.94063 27.175L70.70625 27.175L70.70625 28.55L68.94063 28.55L68.94063 34.6125Q68.94063 35.3625 69.03438 35.58125Q69.12813 35.784374 69.33125 35.925Q69.55 36.05 69.94063 36.05Q70.22188 36.05 70.70625 35.971874ZM78.22188 32.3625Q78.22188 29.4875 79.81563 28.096874Q81.15938 26.940624 83.08125 26.940624Q85.22188 26.940624 86.56563 28.346874Q87.925 29.753124 87.925 32.221874Q87.925 34.221874 87.33125 35.378124Q86.7375 36.51875 85.58125 37.159374Q84.44063 37.784374 83.08125 37.784374Q80.89375 37.784374 79.55 36.39375Q78.22188 34.9875 78.22188 32.3625ZM80.01875 32.3625Q80.01875 34.3625 80.87813 35.346874Q81.75313 36.33125 83.08125 36.33125Q84.39375 36.33125 85.25313 35.346874Q86.12813 34.346874 86.12813 32.3Q86.12813 30.378124 85.25313 29.39375Q84.37813 28.39375 83.08125 28.39375Q81.75313 28.39375 80.87813 29.39375Q80.01875 30.378124 80.01875 32.3625ZM90.28438 37.55L90.28438 28.55L88.7375 28.55L88.7375 27.175L90.28438 27.175L90.28438 26.08125Q90.28438 25.034374 90.47188 24.51875Q90.72188 23.83125 91.3625 23.409374Q92.00313 22.9875 93.15938 22.9875Q93.90938 22.9875 94.8 23.159374L94.53438 24.690624Q93.9875 24.596874 93.50313 24.596874Q92.70625 24.596874 92.3625 24.940624Q92.03438 25.284374 92.03438 26.221874L92.03438 27.175L94.06563 27.175L94.06563 28.55L92.03438 28.55L92.03438 37.55L90.28438 37.55ZM104.59688 37.55L100.8 23.2375L102.7375 23.2375L104.90938 32.6125Q105.26875 34.096874 105.51875 35.55Q106.06563 33.253124 106.15938 32.89375L108.89375 23.2375L111.175 23.2375L113.22188 30.471874Q114.00313 33.175 114.34688 35.55Q114.6125 34.190624 115.05 32.425L117.3 23.2375L119.20625 23.2375L115.28438 37.55L113.45625 37.55L110.44063 26.64375Q110.05 25.26875 109.9875 24.95625Q109.75313 25.940624 109.56563 26.64375L106.53438 37.55L104.59688 37.55ZM120.8625 37.55L120.8625 23.2375L122.62813 23.2375L122.62813 28.3625Q123.8625 26.940624 125.7375 26.940624Q126.87813 26.940624 127.72188 27.39375Q128.58125 27.846874 128.94063 28.659374Q129.31563 29.45625 129.31563 30.971874L129.31563 37.55L127.56563 37.55L127.56563 30.971874Q127.56563 29.659374 126.9875 29.065624Q126.40938 28.45625 125.37813 28.45625Q124.59688 28.45625 123.89375 28.8625Q123.20625 29.26875 122.90938 29.971874Q122.62813 30.659374 122.62813 31.878124L122.62813 37.55L120.8625 37.55ZM131.87813 25.253124L131.87813 23.2375L133.64375 23.2375L133.64375 25.253124L131.87813 25.253124ZM131.87813 37.55L131.87813 27.175L133.64375 27.175L133.64375 37.55L131.87813 37.55ZM142.64375 33.753124L144.3625 33.971874Q144.08125 35.76875 142.90938 36.784374Q141.75313 37.784374 140.05 37.784374Q137.925 37.784374 136.62813 36.39375Q135.33125 35.003124 135.33125 32.409374Q135.33125 30.721874 135.87813 29.471874Q136.44063 28.20625 137.58125 27.58125Q138.72188 26.940624 140.06563 26.940624Q141.75313 26.940624 142.81563 27.8Q143.89375 28.659374 144.20625 30.221874L142.4875 30.4875Q142.25313 29.440624 141.62813 28.925Q141.00313 28.39375 140.12813 28.39375Q138.8 28.39375 137.97188 29.346874Q137.14375 30.3 137.14375 32.346874Q137.14375 34.440624 137.94063 35.39375Q138.7375 36.33125 140.03438 36.33125Q141.06563 36.33125 141.75313 35.70625Q142.45625 35.065624 142.64375 33.753124ZM145.8625 37.55L145.8625 23.2375L147.62813 23.2375L147.62813 28.3625Q148.8625 26.940624 150.7375 26.940624Q151.87813 26.940624 152.72188 27.39375Q153.58125 27.846874 153.94063 28.659374Q154.31563 29.45625 154.31563 30.971874L154.31563 37.55L152.56563 37.55L152.56563 30.971874Q152.56563 29.659374 151.9875 29.065624Q151.40938 28.45625 150.37813 28.45625Q149.59688 28.45625 148.89375 28.8625Q148.20625 29.26875 147.90938 29.971874Q147.62813 30.659374 147.62813 31.878124L147.62813 37.55L145.8625 37.55ZM162.22188 32.3625Q162.22188 29.4875 163.81563 28.096874Q165.15938 26.940624 167.08125 26.940624Q169.22188 26.940624 170.56563 28.346874Q171.925 29.753124 171.925 32.221874Q171.925 34.221874 171.33125 35.378124Q170.7375 36.51875 169.58125 37.159374Q168.44063 37.784374 167.08125 37.784374Q164.89375 37.784374 163.55 36.39375Q162.22188 34.9875 162.22188 32.3625ZM164.01875 32.3625Q164.01875 34.3625 164.87813 35.346874Q165.75313 36.33125 167.08125 36.33125Q168.39375 36.33125 169.25313 35.346874Q170.12813 34.346874 170.12813 32.3Q170.12813 30.378124 169.25313 29.39375Q168.37813 28.39375 167.08125 28.39375Q165.75313 28.39375 164.87813 29.39375Q164.01875 30.378124 164.01875 32.3625ZM175.78438 37.55L172.6125 27.175L174.425 27.175L176.08125 33.159374L176.69063 35.39375Q176.7375 35.221874 177.22188 33.253124L178.87813 27.175L180.69063 27.175L182.2375 33.190624L182.75313 35.175L183.34688 33.175L185.12813 27.175L186.83125 27.175L183.59688 37.55L181.76875 37.55L180.1125 31.33125L179.72188 29.565624L177.6125 37.55L175.78438 37.55ZM187.8625 37.55L187.8625 27.175L189.45625 27.175L189.45625 28.659374Q190.59688 26.940624 192.75313 26.940624Q193.69063 26.940624 194.47188 27.284374Q195.26875 27.6125 195.65938 28.159374Q196.05 28.70625 196.20625 29.45625Q196.3 29.95625 196.3 31.175L196.3 37.55L194.53438 37.55L194.53438 31.2375Q194.53438 30.159374 194.33125 29.628124Q194.12813 29.096874 193.59688 28.784374Q193.08125 28.471874 192.37813 28.471874Q191.25313 28.471874 190.44063 29.190624Q189.62813 29.89375 189.62813 31.878124L189.62813 37.55L187.8625 37.55ZM205.97188 34.20625L207.78438 34.440624Q207.3625 36.01875 206.19063 36.909374Q205.03438 37.784374 203.22188 37.784374Q200.95625 37.784374 199.6125 36.39375Q198.28438 34.9875 198.28438 32.45625Q198.28438 29.83125 199.62813 28.39375Q200.97188 26.940624 203.12813 26.940624Q205.20625 26.940624 206.51875 28.3625Q207.84688 29.76875 207.84688 32.346874Q207.84688 32.503124 207.83125 32.815624L200.09688 32.815624Q200.19063 34.51875 201.06563 35.425Q201.94063 36.33125 203.2375 36.33125Q204.20625 36.33125 204.87813 35.83125Q205.56563 35.315624 205.97188 34.20625ZM200.19063 31.3625L205.9875 31.3625Q205.87813 30.065624 205.33125 29.409374Q204.4875 28.39375 203.14375 28.39375Q201.94063 28.39375 201.1125 29.20625Q200.28438 30.003124 200.19063 31.3625ZM209.84688 37.55L209.84688 27.175L211.425 27.175L211.425 28.753124Q212.03438 27.64375 212.55 27.3Q213.06563 26.940624 213.675 26.940624Q214.56563 26.940624 215.4875 27.503124L214.87813 29.14375Q214.2375 28.753124 213.59688 28.753124Q213.01875 28.753124 212.55 29.1125Q212.09688 29.45625 211.89375 30.065624Q211.6125 31.003124 211.6125 32.1125L211.6125 37.55L209.84688 37.55ZM224.78438 37.55L221.6125 27.175L223.425 27.175L225.08125 33.159374L225.69063 35.39375Q225.7375 35.221874 226.22188 33.253124L227.87813 27.175L229.69063 27.175L231.2375 33.190624L231.75313 35.175L232.34688 33.175L234.12813 27.175L235.83125 27.175L232.59688 37.55L230.76875 37.55L229.1125 31.33125L228.72188 29.565624L226.6125 37.55L224.78438 37.55ZM236.87813 25.253124L236.87813 23.2375L238.64375 23.2375L238.64375 25.253124L236.87813 25.253124ZM236.87813 37.55L236.87813 27.175L238.64375 27.175L238.64375 37.55L236.87813 37.55ZM240.83125 37.55L240.83125 23.2375L242.58125 23.2375L242.58125 37.55L240.83125 37.55ZM244.83125 37.55L244.83125 23.2375L246.58125 23.2375L246.58125 37.55L244.83125 37.55ZM254.8625 37.55L254.8625 23.2375L256.6281 23.2375L256.6281 28.3625Q257.8625 26.940624 259.7375 26.940624Q260.8781 26.940624 261.72186 27.39375Q262.58124 27.846874 262.9406 28.659374Q263.3156 29.45625 263.3156 30.971874L263.3156 37.55L261.5656 37.55L261.5656 30.971874Q261.5656 29.659374 260.9875 29.065624Q260.40936 28.45625 259.3781 28.45625Q258.59686 28.45625 257.89374 28.8625Q257.20624 29.26875 256.90936 29.971874Q256.6281 30.659374 256.6281 31.878124L256.6281 37.55L254.8625 37.55ZM272.64374 36.26875Q271.65936 37.096874 270.7531 37.440624Q269.84686 37.784374 268.8156 37.784374Q267.1125 37.784374 266.1906 36.95625Q265.26874 36.1125 265.26874 34.815624Q265.26874 34.05 265.6125 33.425Q265.97186 32.8 266.53436 32.425Q267.09686 32.034374 267.8 31.83125Q268.3156 31.70625 269.3625 31.565624Q271.4875 31.315624 272.4875 30.971874Q272.5031 30.6125 272.5031 30.503124Q272.5031 29.440624 272.0031 28.9875Q271.33124 28.39375 270.0031 28.39375Q268.7531 28.39375 268.15936 28.83125Q267.58124 29.26875 267.3 30.378124L265.58124 30.14375Q265.8156 29.034374 266.34686 28.3625Q266.8781 27.675 267.89374 27.315624Q268.90936 26.940624 270.2531 26.940624Q271.58124 26.940624 272.40936 27.253124Q273.2375 27.565624 273.6281 28.05Q274.01874 28.51875 274.175 29.2375Q274.26874 29.690624 274.26874 30.8625L274.26874 33.20625Q274.26874 35.659374 274.3781 36.315624Q274.4875 36.95625 274.83124 37.55L272.9875 37.55Q272.72186 37.003124 272.64374 36.26875ZM272.4875 32.346874Q271.53436 32.7375 269.6125 33.003124Q268.53436 33.159374 268.08124 33.3625Q267.64374 33.55 267.39374 33.925Q267.14374 34.3 267.14374 34.76875Q267.14374 35.471874 267.675 35.940624Q268.20624 36.409374 269.2375 36.409374Q270.2531 36.409374 271.03436 35.971874Q271.83124 35.51875 272.20624 34.753124Q272.4875 34.14375 272.4875 32.9875L272.4875 32.346874ZM279.7531 37.55L275.8 27.175L277.65936 27.175L279.89374 33.39375Q280.2531 34.39375 280.55 35.471874Q280.78436 34.659374 281.20624 33.503124L283.5031 27.175L285.3156 27.175L281.39374 37.55L279.7531 37.55ZM293.97186 34.20625L295.78436 34.440624Q295.3625 36.01875 294.1906 36.909374Q293.03436 37.784374 291.22186 37.784374Q288.95624 37.784374 287.6125 36.39375Q286.28436 34.9875 286.28436 32.45625Q286.28436 29.83125 287.6281 28.39375Q288.97186 26.940624 291.1281 26.940624Q293.20624 26.940624 294.51874 28.3625Q295.84686 29.76875 295.84686 32.346874Q295.84686 32.503124 295.83124 32.815624L288.09686 32.815624Q288.1906 34.51875 289.0656 35.425Q289.9406 36.33125 291.2375 36.33125Q292.20624 36.33125 292.8781 35.83125Q293.5656 35.315624 293.97186 34.20625ZM288.1906 31.3625L293.9875 31.3625Q293.8781 30.065624 293.33124 29.409374Q292.4875 28.39375 291.14374 28.39375Q289.9406 28.39375 289.1125 29.20625Q288.28436 30.003124 288.1906 31.3625ZM307.70624 35.971874L307.95624 37.534374Q307.22186 37.690624 306.6281 37.690624Q305.675 37.690624 305.14374 37.39375Q304.6281 37.08125 304.40936 36.596874Q304.1906 36.096874 304.1906 34.51875L304.1906 28.55L302.90936 28.55L302.90936 27.175L304.1906 27.175L304.1906 24.6125L305.9406 23.55L305.9406 27.175L307.70624 27.175L307.70624 28.55L305.9406 28.55L305.9406 34.6125Q305.9406 35.3625 306.03436 35.58125Q306.1281 35.784374 306.33124 35.925Q306.55 36.05 306.9406 36.05Q307.22186 36.05 307.70624 35.971874ZM309.8625 37.55L309.8625 23.2375L311.6281 23.2375L311.6281 28.3625Q312.8625 26.940624 314.7375 26.940624Q315.8781 26.940624 316.72186 27.39375Q317.58124 27.846874 317.9406 28.659374Q318.3156 29.45625 318.3156 30.971874L318.3156 37.55L316.5656 37.55L316.5656 30.971874Q316.5656 29.659374 315.9875 29.065624Q315.40936 28.45625 314.3781 28.45625Q313.59686 28.45625 312.89374 28.8625Q312.20624 29.26875 311.90936 29.971874Q311.6281 30.659374 311.6281 31.878124L311.6281 37.55L309.8625 37.55ZM327.97186 34.20625L329.78436 34.440624Q329.3625 36.01875 328.1906 36.909374Q327.03436 37.784374 325.22186 37.784374Q322.95624 37.784374 321.6125 36.39375Q320.28436 34.9875 320.28436 32.45625Q320.28436 29.83125 321.6281 28.39375Q322.97186 26.940624 325.1281 26.940624Q327.20624 26.940624 328.51874 28.3625Q329.84686 29.76875 329.84686 32.346874Q329.84686 32.503124 329.83124 32.815624L322.09686 32.815624Q322.1906 34.51875 323.0656 35.425Q323.9406 36.33125 325.2375 36.33125Q326.20624 36.33125 326.8781 35.83125Q327.5656 35.315624 327.97186 34.20625ZM322.1906 31.3625L327.9875 31.3625Q327.8781 30.065624 327.33124 29.409374Q326.4875 28.39375 325.14374 28.39375Q323.9406 28.39375 323.1125 29.20625Q322.28436 30.003124 322.1906 31.3625ZM337.8625 37.55L337.8625 27.175L339.4406 27.175L339.4406 28.628124Q339.925 27.878124 340.7375 27.409374Q341.55 26.940624 342.58124 26.940624Q343.7375 26.940624 344.47186 27.425Q345.20624 27.89375 345.51874 28.753124Q346.7531 26.940624 348.72186 26.940624Q350.26874 26.940624 351.09686 27.8Q351.925 28.659374 351.925 30.425L351.925 37.55L350.175 37.55L350.175 31.01875Q350.175 29.95625 350.0031 29.503124Q349.83124 29.034374 349.3781 28.753124Q348.9406 28.471874 348.33124 28.471874Q347.2375 28.471874 346.5031 29.20625Q345.78436 29.925 345.78436 31.51875L345.78436 37.55L344.03436 37.55L344.03436 30.815624Q344.03436 29.64375 343.59686 29.065624Q343.175 28.471874 342.1906 28.471874Q341.45624 28.471874 340.8156 28.8625Q340.1906 29.253124 339.90936 30.003124Q339.6281 30.753124 339.6281 32.175L339.6281 37.55L337.8625 37.55ZM354.22186 32.3625Q354.22186 29.4875 355.8156 28.096874Q357.15936 26.940624 359.08124 26.940624Q361.22186 26.940624 362.5656 28.346874Q363.925 29.753124 363.925 32.221874Q363.925 34.221874 363.33124 35.378124Q362.7375 36.51875 361.58124 37.159374Q360.4406 37.784374 359.08124 37.784374Q356.89374 37.784374 355.55 36.39375Q354.22186 34.9875 354.22186 32.3625ZM356.01874 32.3625Q356.01874 34.3625 356.8781 35.346874Q357.7531 36.33125 359.08124 36.33125Q360.39374 36.33125 361.2531 35.346874Q362.1281 34.346874 362.1281 32.3Q362.1281 30.378124 361.2531 29.39375Q360.3781 28.39375 359.08124 28.39375Q357.7531 28.39375 356.8781 29.39375Q356.01874 30.378124 356.01874 32.3625ZM365.15936 34.45625L366.90936 34.175Q367.05 35.221874 367.72186 35.784374Q368.39374 36.33125 369.59686 36.33125Q370.8 36.33125 371.3781 35.846874Q371.97186 35.346874 371.97186 34.690624Q371.97186 34.096874 371.45624 33.753124Q371.09686 33.51875 369.65936 33.159374Q367.72186 32.659374 366.97186 32.315624Q366.2375 31.95625 365.84686 31.33125Q365.45624 30.690624 365.45624 29.925Q365.45624 29.2375 365.76874 28.64375Q366.09686 28.05 366.64374 27.659374Q367.05 27.3625 367.7531 27.159374Q368.47186 26.940624 369.28436 26.940624Q370.5031 26.940624 371.425 27.3Q372.34686 27.64375 372.78436 28.253124Q373.22186 28.846874 373.39374 29.846874L371.675 30.08125Q371.55 29.284374 370.9875 28.846874Q370.425 28.39375 369.40936 28.39375Q368.1906 28.39375 367.675 28.8Q367.15936 29.190624 367.15936 29.721874Q367.15936 30.065624 367.3781 30.346874Q367.58124 30.628124 368.05 30.815624Q368.3156 30.909374 369.59686 31.253124Q371.47186 31.753124 372.20624 32.08125Q372.9406 32.39375 373.3625 33.003124Q373.78436 33.596874 373.78436 34.503124Q373.78436 35.378124 373.26874 36.159374Q372.7531 36.940624 371.78436 37.3625Q370.8156 37.784374 369.59686 37.784374Q367.58124 37.784374 366.51874 36.940624Q365.45624 36.096874 365.15936 34.45625ZM379.70624 35.971874L379.95624 37.534374Q379.22186 37.690624 378.6281 37.690624Q377.675 37.690624 377.14374 37.39375Q376.6281 37.08125 376.40936 36.596874Q376.1906 36.096874 376.1906 34.51875L376.1906 28.55L374.90936 28.55L374.90936 27.175L376.1906 27.175L376.1906 24.6125L377.9406 23.55L377.9406 27.175L379.70624 27.175L379.70624 28.55L377.9406 28.55L377.9406 34.6125Q377.9406 35.3625 378.03436 35.58125Q378.1281 35.784374 378.33124 35.925Q378.55 36.05 378.9406 36.05Q379.22186 36.05 379.70624 35.971874ZM387.15936 34.45625L388.90936 34.175Q389.05 35.221874 389.72186 35.784374Q390.39374 36.33125 391.59686 36.33125Q392.8 36.33125 393.3781 35.846874Q393.97186 35.346874 393.97186 34.690624Q393.97186 34.096874 393.45624 33.753124Q393.09686 33.51875 391.65936 33.159374Q389.72186 32.659374 388.97186 32.315624Q388.2375 31.95625 387.84686 31.33125Q387.45624 30.690624 387.45624 29.925Q387.45624 29.2375 387.76874 28.64375Q388.09686 28.05 388.64374 27.659374Q389.05 27.3625 389.7531 27.159374Q390.47186 26.940624 391.28436 26.940624Q392.5031 26.940624 393.425 27.3Q394.34686 27.64375 394.78436 28.253124Q395.22186 28.846874 395.39374 29.846874L393.675 30.08125Q393.55 29.284374 392.9875 28.846874Q392.425 28.39375 391.40936 28.39375Q390.1906 28.39375 389.675 28.8Q389.15936 29.190624 389.15936 29.721874Q389.15936 30.065624 389.3781 30.346874Q389.58124 30.628124 390.05 30.815624Q390.3156 30.909374 391.59686 31.253124Q393.47186 31.753124 394.20624 32.08125Q394.9406 32.39375 395.3625 33.003124Q395.78436 33.596874 395.78436 34.503124Q395.78436 35.378124 395.26874 36.159374Q394.7531 36.940624 393.78436 37.3625Q392.8156 37.784374 391.59686 37.784374Q389.58124 37.784374 388.51874 36.940624Q387.45624 36.096874 387.15936 34.45625ZM397.8781 25.253124L397.8781 23.2375L399.64374 23.2375L399.64374 25.253124L397.8781 25.253124ZM397.8781 37.55L397.8781 27.175L399.64374 27.175L399.64374 37.55L397.8781 37.55ZM408.59686 37.55L408.59686 36.2375Q407.6125 37.784374 405.6906 37.784374Q404.45624 37.784374 403.40936 37.096874Q402.3781 36.409374 401.8 35.190624Q401.2375 33.971874 401.2375 32.378124Q401.2375 30.815624 401.7531 29.55Q402.26874 28.284374 403.3 27.6125Q404.34686 26.940624 405.6125 26.940624Q406.55 26.940624 407.28436 27.346874Q408.01874 27.7375 408.4875 28.3625L408.4875 23.2375L410.22186 23.2375L410.22186 37.55L408.59686 37.55ZM403.03436 32.378124Q403.03436 34.3625 403.8781 35.346874Q404.72186 36.33125 405.8625 36.33125Q407.01874 36.33125 407.8156 35.39375Q408.6281 34.45625 408.6281 32.51875Q408.6281 30.39375 407.8 29.39375Q406.9875 28.39375 405.78436 28.39375Q404.6125 28.39375 403.8156 29.3625Q403.03436 30.315624 403.03436 32.378124ZM419.97186 34.20625L421.78436 34.440624Q421.3625 36.01875 420.1906 36.909374Q419.03436 37.784374 417.22186 37.784374Q414.95624 37.784374 413.6125 36.39375Q412.28436 34.9875 412.28436 32.45625Q412.28436 29.83125 413.6281 28.39375Q414.97186 26.940624 417.1281 26.940624Q419.20624 26.940624 420.51874 28.3625Q421.84686 29.76875 421.84686 32.346874Q421.84686 32.503124 421.83124 32.815624L414.09686 32.815624Q414.1906 34.51875 415.0656 35.425Q415.9406 36.33125 417.2375 36.33125Q418.20624 36.33125 418.8781 35.83125Q419.5656 35.315624 419.97186 34.20625ZM414.1906 31.3625L419.9875 31.3625Q419.8781 30.065624 419.33124 29.409374Q418.4875 28.39375 417.14374 28.39375Q415.9406 28.39375 415.1125 29.20625Q414.28436 30.003124 414.1906 31.3625ZM431.4875 37.55L429.8625 37.55L429.8625 23.2375L431.6125 23.2375L431.6125 28.346874Q432.7375 26.940624 434.45624 26.940624Q435.40936 26.940624 436.26874 27.33125Q437.1281 27.721874 437.675 28.425Q438.22186 29.1125 438.53436 30.096874Q438.84686 31.08125 438.84686 32.20625Q438.84686 34.878124 437.53436 36.33125Q436.22186 37.784374 434.3781 37.784374Q432.53436 37.784374 431.4875 36.253124L431.4875 37.55ZM431.47186 32.284374Q431.47186 34.14375 431.97186 34.9875Q432.8156 36.33125 434.22186 36.33125Q435.3781 36.33125 436.20624 35.33125Q437.05 34.33125 437.05 32.346874Q437.05 30.315624 436.2375 29.3625Q435.4406 28.39375 434.3 28.39375Q433.14374 28.39375 432.3 29.39375Q431.47186 30.39375 431.47186 32.284374ZM447.97186 34.20625L449.78436 34.440624Q449.3625 36.01875 448.1906 36.909374Q447.03436 37.784374 445.22186 37.784374Q442.95624 37.784374 441.6125 36.39375Q440.28436 34.9875 440.28436 32.45625Q440.28436 29.83125 441.6281 28.39375Q442.97186 26.940624 445.1281 26.940624Q447.20624 26.940624 448.51874 28.3625Q449.84686 29.76875 449.84686 32.346874Q449.84686 32.503124 449.83124 32.815624L442.09686 32.815624Q442.1906 34.51875 443.0656 35.425Q443.9406 36.33125 445.2375 36.33125Q446.20624 36.33125 446.8781 35.83125Q447.5656 35.315624 447.97186 34.20625ZM442.1906 31.3625L447.9875 31.3625Q447.8781 30.065624 447.33124 29.409374Q446.4875 28.39375 445.14374 28.39375Q443.9406 28.39375 443.1125 29.20625Q442.28436 30.003124 442.1906 31.3625ZM455.70624 35.971874L455.95624 37.534374Q455.22186 37.690624 454.6281 37.690624Q453.675 37.690624 453.14374 37.39375Q452.6281 37.08125 452.40936 36.596874Q452.1906 36.096874 452.1906 34.51875L452.1906 28.55L450.90936 28.55L450.90936 27.175L452.1906 27.175L452.1906 24.6125L453.9406 23.55L453.9406 27.175L455.70624 27.175L455.70624 28.55L453.9406 28.55L453.9406 34.6125Q453.9406 35.3625 454.03436 35.58125Q454.1281 35.784374 454.33124 35.925Q454.55 36.05 454.9406 36.05Q455.22186 36.05 455.70624 35.971874ZM457.15936 34.45625L458.90936 34.175Q459.05 35.221874 459.72186 35.784374Q460.39374 36.33125 461.59686 36.33125Q462.8 36.33125 463.3781 35.846874Q463.97186 35.346874 463.97186 34.690624Q463.97186 34.096874 463.45624 33.753124Q463.09686 33.51875 461.65936 33.159374Q459.72186 32.659374 458.97186 32.315624Q458.2375 31.95625 457.84686 31.33125Q457.45624 30.690624 457.45624 29.925Q457.45624 29.2375 457.76874 28.64375Q458.09686 28.05 458.64374 27.659374Q459.05 27.3625 459.7531 27.159374Q460.47186 26.940624 461.28436 26.940624Q462.5031 26.940624 463.425 27.3Q464.34686 27.64375 464.78436 28.253124Q465.22186 28.846874 465.39374 29.846874L463.675 30.08125Q463.55 29.284374 462.9875 28.846874Q462.425 28.39375 461.40936 28.39375Q460.1906 28.39375 459.675 28.8Q459.15936 29.190624 459.15936 29.721874Q459.15936 30.065624 459.3781 30.346874Q459.58124 30.628124 460.05 30.815624Q460.3156 30.909374 461.59686 31.253124Q463.47186 31.753124 464.20624 32.08125Q464.9406 32.39375 465.3625 33.003124Q465.78436 33.596874 465.78436 34.503124Q465.78436 35.378124 465.26874 36.159374Q464.7531 36.940624 463.78436 37.3625Q462.8156 37.784374 461.59686 37.784374Q459.58124 37.784374 458.51874 36.940624Q457.45624 36.096874 457.15936 34.45625ZM474.28436 37.55L474.28436 28.55L472.7375 28.55L472.7375 27.175L474.28436 27.175L474.28436 26.08125Q474.28436 25.034374 474.47186 24.51875Q474.72186 23.83125 475.3625 23.409374Q476.0031 22.9875 477.15936 22.9875Q477.90936 22.9875 478.8 23.159374L478.53436 24.690624Q477.9875 24.596874 477.5031 24.596874Q476.70624 24.596874 476.3625 24.940624Q476.03436 25.284374 476.03436 26.221874L476.03436 27.175L478.0656 27.175L478.0656 28.55L476.03436 28.55L476.03436 37.55L474.28436 37.55ZM479.22186 32.3625Q479.22186 29.4875 480.8156 28.096874Q482.15936 26.940624 484.08124 26.940624Q486.22186 26.940624 487.5656 28.346874Q488.925 29.753124 488.925 32.221874Q488.925 34.221874 488.33124 35.378124Q487.7375 36.51875 486.58124 37.159374Q485.4406 37.784374 484.08124 37.784374Q481.89374 37.784374 480.55 36.39375Q479.22186 34.9875 479.22186 32.3625ZM481.01874 32.3625Q481.01874 34.3625 481.8781 35.346874Q482.7531 36.33125 484.08124 36.33125Q485.39374 36.33125 486.2531 35.346874Q487.1281 34.346874 487.1281 32.3Q487.1281 30.378124 486.2531 29.39375Q485.3781 28.39375 484.08124 28.39375Q482.7531 28.39375 481.8781 29.39375Q481.01874 30.378124 481.01874 32.3625ZM490.84686 37.55L490.84686 27.175L492.425 27.175L492.425 28.753124Q493.03436 27.64375 493.55 27.3Q494.0656 26.940624 494.675 26.940624Q495.5656 26.940624 496.4875 27.503124L495.8781 29.14375Q495.2375 28.753124 494.59686 28.753124Q494.01874 28.753124 493.55 29.1125Q493.09686 29.45625 492.89374 30.065624Q492.6125 31.003124 492.6125 32.1125L492.6125 37.55L490.84686 37.55ZM507.70624 35.971874L507.95624 37.534374Q507.22186 37.690624 506.6281 37.690624Q505.675 37.690624 505.14374 37.39375Q504.6281 37.08125 504.40936 36.596874Q504.1906 36.096874 504.1906 34.51875L504.1906 28.55L502.90936 28.55L502.90936 27.175L504.1906 27.175L504.1906 24.6125L505.9406 23.55L505.9406 27.175L507.70624 27.175L507.70624 28.55L505.9406 28.55L505.9406 34.6125Q505.9406 35.3625 506.03436 35.58125Q506.1281 35.784374 506.33124 35.925Q506.55 36.05 506.9406 36.05Q507.22186 36.05 507.70624 35.971874ZM509.8625 37.55L509.8625 23.2375L511.6281 23.2375L511.6281 28.3625Q512.8625 26.940624 514.7375 26.940624Q515.8781 26.940624 516.72186 27.39375Q517.58124 27.846874 517.9406 28.659374Q518.3156 29.45625 518.3156 30.971874L518.3156 37.55L516.5656 37.55L516.5656 30.971874Q516.5656 29.659374 515.9875 29.065624Q515.40936 28.45625 514.3781 28.45625Q513.59686 28.45625 512.89374 28.8625Q512.20624 29.26875 511.90936 29.971874Q511.6281 30.659374 511.6281 31.878124L511.6281 37.55L509.8625 37.55ZM527.97186 34.20625L529.78436 34.440624Q529.3625 36.01875 528.1906 36.909374Q527.03436 37.784374 525.22186 37.784374Q522.95624 37.784374 521.6125 36.39375Q520.28436 34.9875 520.28436 32.45625Q520.28436 29.83125 521.6281 28.39375Q522.97186 26.940624 525.1281 26.940624Q527.20624 26.940624 528.51874 28.3625Q529.84686 29.76875 529.84686 32.346874Q529.84686 32.503124 529.83124 32.815624L522.09686 32.815624Q522.1906 34.51875 523.0656 35.425Q523.9406 36.33125 525.2375 36.33125Q526.20624 36.33125 526.8781 35.83125Q527.5656 35.315624 527.97186 34.20625ZM522.1906 31.3625L527.9875 31.3625Q527.8781 30.065624 527.33124 29.409374Q526.4875 28.39375 525.14374 28.39375Q523.9406 28.39375 523.1125 29.20625Q522.28436 30.003124 522.1906 31.3625ZM546.6125 35.8625L546.6125 37.55L537.15936 37.55Q537.14374 36.909374 537.3625 36.33125Q537.72186 35.3625 538.51874 34.425Q539.3156 33.4875 540.8156 32.253124Q543.15936 30.346874 543.97186 29.2375Q544.8 28.1125 544.8 27.1125Q544.8 26.065624 544.05 25.346874Q543.3 24.628124 542.09686 24.628124Q540.83124 24.628124 540.0656 25.39375Q539.3 26.159374 539.3 27.503124L537.4875 27.315624Q537.675 25.3 538.8781 24.2375Q540.09686 23.175 542.14374 23.175Q544.1906 23.175 545.39374 24.315624Q546.59686 25.45625 546.59686 27.14375Q546.59686 28.003124 546.2375 28.846874Q545.89374 29.675 545.08124 30.596874Q544.26874 31.503124 542.3781 33.1125Q540.78436 34.440624 540.33124 34.909374Q539.89374 35.378124 539.59686 35.8625L546.6125 35.8625ZM548.3781 30.4875Q548.3781 27.95625 548.89374 26.409374Q549.425 24.846874 550.45624 24.01875Q551.4875 23.175 553.05 23.175Q554.20624 23.175 555.0656 23.64375Q555.9406 24.096874 556.5031 24.971874Q557.0656 25.846874 557.39374 27.1125Q557.72186 28.3625 557.72186 30.4875Q557.72186 33.003124 557.1906 34.55Q556.675 36.096874 555.64374 36.95625Q554.6281 37.8 553.05 37.8Q550.97186 37.8 549.8 36.315624Q548.3781 34.51875 548.3781 30.4875ZM550.1906 30.4875Q550.1906 34.01875 551.0031 35.190624Q551.83124 36.346874 553.05 36.346874Q554.2531 36.346874 555.08124 35.175Q555.90936 34.003124 555.90936 30.4875Q555.90936 26.95625 555.08124 25.8Q554.2531 24.628124 553.03436 24.628124Q551.8156 24.628124 551.09686 25.659374Q550.1906 26.95625 550.1906 30.4875ZM566.0031 37.55L564.2375 37.55L564.2375 26.346874Q563.6125 26.95625 562.58124 27.565624Q561.55 28.159374 560.72186 28.471874L560.72186 26.76875Q562.20624 26.08125 563.3 25.096874Q564.40936 24.096874 564.8625 23.175L566.0031 23.175L566.0031 37.55ZM570.64374 34.2375L572.33124 34.08125Q572.55 35.26875 573.14374 35.815624Q573.7531 36.346874 574.70624 36.346874Q575.51874 36.346874 576.1281 35.9875Q576.7375 35.6125 577.1281 34.9875Q577.51874 34.3625 577.78436 33.315624Q578.05 32.253124 578.05 31.159374Q578.05 31.05 578.03436 30.815624Q577.5031 31.64375 576.59686 32.175Q575.6906 32.690624 574.6125 32.690624Q572.84686 32.690624 571.6125 31.409374Q570.3781 30.1125 570.3781 28.003124Q570.3781 25.83125 571.65936 24.503124Q572.95624 23.175 574.8781 23.175Q576.28436 23.175 577.4406 23.925Q578.59686 24.675 579.1906 26.065624Q579.8 27.45625 579.8 30.096874Q579.8 32.846874 579.1906 34.471874Q578.59686 36.096874 577.425 36.95625Q576.2531 37.8 574.675 37.8Q572.9875 37.8 571.925 36.8625Q570.8625 35.925 570.64374 34.2375ZM577.84686 27.925Q577.84686 26.409374 577.03436 25.51875Q576.2375 24.628124 575.09686 24.628124Q573.925 24.628124 573.05 25.596874Q572.1906 26.55 572.1906 28.065624Q572.1906 29.440624 573.0031 30.3Q573.83124 31.14375 575.05 31.14375Q576.26874 31.14375 577.05 30.3Q577.84686 29.440624 577.84686 27.925Z" fill-rule="nonzero"/><path fill="#757575" d="M20.284374 61.55L20.284374 52.55L18.7375 52.55L18.7375 51.175L20.284374 51.175L20.284374 50.08125Q20.284374 49.034374 20.471874 48.51875Q20.721874 47.83125 21.3625 47.409374Q22.003124 46.9875 23.159374 46.9875Q23.909374 46.9875 24.8 47.159374L24.534374 48.690624Q23.9875 48.596874 23.503124 48.596874Q22.70625 48.596874 22.3625 48.940624Q22.034374 49.284374 22.034374 50.221874L22.034374 51.175L24.065624 51.175L24.065624 52.55L22.034374 52.55L22.034374 61.55L20.284374 61.55ZM32.64375 60.26875Q31.659374 61.096874 30.753124 61.440624Q29.846874 61.784374 28.815624 61.784374Q27.1125 61.784374 26.190624 60.95625Q25.26875 60.1125 25.26875 58.815624Q25.26875 58.05 25.6125 57.425Q25.971874 56.8 26.534374 56.425Q27.096874 56.034374 27.8 55.83125Q28.315624 55.70625 29.3625 55.565624Q31.4875 55.315624 32.4875 54.971874Q32.503124 54.6125 32.503124 54.503124Q32.503124 53.440624 32.003124 52.9875Q31.33125 52.39375 30.003124 52.39375Q28.753124 52.39375 28.159374 52.83125Q27.58125 53.26875 27.3 54.378124L25.58125 54.14375Q25.815624 53.034374 26.346874 52.3625Q26.878124 51.675 27.89375 51.315624Q28.909374 50.940624 30.253124 50.940624Q31.58125 50.940624 32.409374 51.253124Q33.2375 51.565624 33.628124 52.05Q34.01875 52.51875 34.175 53.2375Q34.26875 53.690624 34.26875 54.8625L34.26875 57.20625Q34.26875 59.659374 34.378124 60.315624Q34.4875 60.95625 34.83125 61.55L32.9875 61.55Q32.721874 61.003124 32.64375 60.26875ZM32.4875 56.346874Q31.534374 56.7375 29.6125 57.003124Q28.534374 57.159374 28.08125 57.3625Q27.64375 57.55 27.39375 57.925Q27.14375 58.3 27.14375 58.76875Q27.14375 59.471874 27.675 59.940624Q28.20625 60.409374 29.2375 60.409374Q30.253124 60.409374 31.034374 59.971874Q31.83125 59.51875 32.20625 58.753124Q32.4875 58.14375 32.4875 56.9875L32.4875 56.346874ZM36.8625 61.55L36.8625 51.175L38.45625 51.175L38.45625 52.659374Q39.596874 50.940624 41.753124 50.940624Q42.690624 50.940624 43.471874 51.284374Q44.26875 51.6125 44.659374 52.159374Q45.05 52.70625 45.20625 53.45625Q45.3 53.95625 45.3 55.175L45.3 61.55L43.534374 61.55L43.534374 55.2375Q43.534374 54.159374 43.33125 53.628124Q43.128124 53.096874 42.596874 52.784374Q42.08125 52.471874 41.378124 52.471874Q40.253124 52.471874 39.440624 53.190624Q38.628124 53.89375 38.628124 55.878124L38.628124 61.55L36.8625 61.55ZM51.70625 59.971874L51.95625 61.534374Q51.221874 61.690624 50.628124 61.690624Q49.675 61.690624 49.14375 61.39375Q48.628124 61.08125 48.409374 60.596874Q48.190624 60.096874 48.190624 58.51875L48.190624 52.55L46.909374 52.55L46.909374 51.175L48.190624 51.175L48.190624 48.6125L49.940624 47.55L49.940624 51.175L51.70625 51.175L51.70625 52.55L49.940624 52.55L49.940624 58.6125Q49.940624 59.3625 50.034374 59.58125Q50.128124 59.784374 50.33125 59.925Q50.55 60.05 50.940624 60.05Q51.221874 60.05 51.70625 59.971874ZM60.64375 60.26875Q59.659374 61.096874 58.753124 61.440624Q57.846874 61.784374 56.815624 61.784374Q55.1125 61.784374 54.190624 60.95625Q53.26875 60.1125 53.26875 58.815624Q53.26875 58.05 53.6125 57.425Q53.971874 56.8 54.534374 56.425Q55.096874 56.034374 55.8 55.83125Q56.315624 55.70625 57.3625 55.565624Q59.4875 55.315624 60.4875 54.971874Q60.503124 54.6125 60.503124 54.503124Q60.503124 53.440624 60.003124 52.9875Q59.33125 52.39375 58.003124 52.39375Q56.753124 52.39375 56.159374 52.83125Q55.58125 53.26875 55.3 54.378124L53.58125 54.14375Q53.815624 53.034374 54.346874 52.3625Q54.878124 51.675 55.89375 51.315624Q56.909374 50.940624 58.253124 50.940624Q59.58125 50.940624 60.409374 51.253124Q61.2375 51.565624 61.628124 52.05Q62.01875 52.51875 62.175 53.2375Q62.26875 53.690624 62.26875 54.8625L62.26875 57.20625Q62.26875 59.659374 62.378124 60.315624Q62.4875 60.95625 62.83125 61.55L60.9875 61.55Q60.721874 61.003124 60.64375 60.26875ZM60.4875 56.346874Q59.534374 56.7375 57.6125 57.003124Q56.534374 57.159374 56.08125 57.3625Q55.64375 57.55 55.39375 57.925Q55.14375 58.3 55.14375 58.76875Q55.14375 59.471874 55.675 59.940624Q56.20625 60.409374 57.2375 60.409374Q58.253124 60.409374 59.034374 59.971874Q59.83125 59.51875 60.20625 58.753124Q60.4875 58.14375 60.4875 56.9875L60.4875 56.346874ZM64.15938 58.45625L65.90938 58.175Q66.05 59.221874 66.72188 59.784374Q67.39375 60.33125 68.59688 60.33125Q69.8 60.33125 70.37813 59.846874Q70.97188 59.346874 70.97188 58.690624Q70.97188 58.096874 70.45625 57.753124Q70.09688 57.51875 68.65938 57.159374Q66.72188 56.659374 65.97188 56.315624Q65.2375 55.95625 64.84688 55.33125Q64.45625 54.690624 64.45625 53.925Q64.45625 53.2375 64.76875 52.64375Q65.09688 52.05 65.64375 51.659374Q66.05 51.3625 66.75313 51.159374Q67.47188 50.940624 68.28438 50.940624Q69.50313 50.940624 70.425 51.3Q71.34688 51.64375 71.78438 52.253124Q72.22188 52.846874 72.39375 53.846874L70.675 54.08125Q70.55 53.284374 69.9875 52.846874Q69.425 52.39375 68.40938 52.39375Q67.19063 52.39375 66.675 52.8Q66.15938 53.190624 66.15938 53.721874Q66.15938 54.065624 66.37813 54.346874Q66.58125 54.628124 67.05 54.815624Q67.31563 54.909374 68.59688 55.253124Q70.47188 55.753124 71.20625 56.08125Q71.94063 56.39375 72.3625 57.003124Q72.78438 57.596874 72.78438 58.503124Q72.78438 59.378124 72.26875 60.159374Q71.75313 60.940624 70.78438 61.3625Q69.81563 61.784374 68.59688 61.784374Q66.58125 61.784374 65.51875 60.940624Q64.45625 60.096874 64.15938 58.45625ZM74.78438 65.55L74.59688 63.89375Q75.175 64.05 75.59688 64.05Q76.19063 64.05 76.53438 63.846874Q76.89375 63.659374 77.1125 63.315624Q77.28438 63.05 77.65938 62.003124Q77.70625 61.846874 77.81563 61.565624L73.87813 51.175L75.76875 51.175L77.925 57.190624Q78.34688 58.33125 78.675 59.58125Q78.9875 58.378124 79.39375 57.221874L81.6125 51.175L83.37813 51.175L79.425 61.721874Q78.8 63.440624 78.44063 64.08125Q77.97188 64.95625 77.3625 65.34688Q76.76875 65.75313 75.925 65.75313Q75.40938 65.75313 74.78438 65.55ZM90.15938 58.45625L91.90938 58.175Q92.05 59.221874 92.72188 59.784374Q93.39375 60.33125 94.59688 60.33125Q95.8 60.33125 96.37813 59.846874Q96.97188 59.346874 96.97188 58.690624Q96.97188 58.096874 96.45625 57.753124Q96.09688 57.51875 94.65938 57.159374Q92.72188 56.659374 91.97188 56.315624Q91.2375 55.95625 90.84688 55.33125Q90.45625 54.690624 90.45625 53.925Q90.45625 53.2375 90.76875 52.64375Q91.09688 52.05 91.64375 51.659374Q92.05 51.3625 92.75313 51.159374Q93.47188 50.940624 94.28438 50.940624Q95.50313 50.940624 96.425 51.3Q97.34688 51.64375 97.78438 52.253124Q98.22188 52.846874 98.39375 53.846874L96.675 54.08125Q96.55 53.284374 95.9875 52.846874Q95.425 52.39375 94.40938 52.39375Q93.19063 52.39375 92.675 52.8Q92.15938 53.190624 92.15938 53.721874Q92.15938 54.065624 92.37813 54.346874Q92.58125 54.628124 93.05 54.815624Q93.31563 54.909374 94.59688 55.253124Q96.47188 55.753124 97.20625 56.08125Q97.94063 56.39375 98.3625 57.003124Q98.78438 57.596874 98.78438 58.503124Q98.78438 59.378124 98.26875 60.159374Q97.75313 60.940624 96.78438 61.3625Q95.81563 61.784374 94.59688 61.784374Q92.58125 61.784374 91.51875 60.940624Q90.45625 60.096874 90.15938 58.45625ZM107.97188 58.20625L109.78438 58.440624Q109.3625 60.01875 108.19063 60.909374Q107.03438 61.784374 105.22188 61.784374Q102.95625 61.784374 101.6125 60.39375Q100.28438 58.9875 100.28438 56.45625Q100.28438 53.83125 101.62813 52.39375Q102.97188 50.940624 105.12813 50.940624Q107.20625 50.940624 108.51875 52.3625Q109.84688 53.76875 109.84688 56.346874Q109.84688 56.503124 109.83125 56.815624L102.09688 56.815624Q102.19063 58.51875 103.06563 59.425Q103.94063 60.33125 105.2375 60.33125Q106.20625 60.33125 106.87813 59.83125Q107.56563 59.315624 107.97188 58.20625ZM102.19063 55.3625L107.9875 55.3625Q107.87813 54.065624 107.33125 53.409374Q106.4875 52.39375 105.14375 52.39375Q103.94063 52.39375 103.1125 53.20625Q102.28438 54.003124 102.19063 55.3625ZM118.64375 60.26875Q117.65938 61.096874 116.75313 61.440624Q115.84688 61.784374 114.81563 61.784374Q113.1125 61.784374 112.19063 60.95625Q111.26875 60.1125 111.26875 58.815624Q111.26875 58.05 111.6125 57.425Q111.97188 56.8 112.53438 56.425Q113.09688 56.034374 113.8 55.83125Q114.31563 55.70625 115.3625 55.565624Q117.4875 55.315624 118.4875 54.971874Q118.50313 54.6125 118.50313 54.503124Q118.50313 53.440624 118.00313 52.9875Q117.33125 52.39375 116.00313 52.39375Q114.75313 52.39375 114.15938 52.83125Q113.58125 53.26875 113.3 54.378124L111.58125 54.14375Q111.81563 53.034374 112.34688 52.3625Q112.87813 51.675 113.89375 51.315624Q114.90938 50.940624 116.25313 50.940624Q117.58125 50.940624 118.40938 51.253124Q119.2375 51.565624 119.62813 52.05Q120.01875 52.51875 120.175 53.2375Q120.26875 53.690624 120.26875 54.8625L120.26875 57.20625Q120.26875 59.659374 120.37813 60.315624Q120.4875 60.95625 120.83125 61.55L118.9875 61.55Q118.72188 61.003124 118.64375 60.26875ZM118.4875 56.346874Q117.53438 56.7375 115.6125 57.003124Q114.53438 57.159374 114.08125 57.3625Q113.64375 57.55 113.39375 57.925Q113.14375 58.3 113.14375 58.76875Q113.14375 59.471874 113.675 59.940624Q114.20625 60.409374 115.2375 60.409374Q116.25313 60.409374 117.03438 59.971874Q117.83125 59.51875 118.20625 58.753124Q118.4875 58.14375 118.4875 56.9875L118.4875 56.346874ZM122.15938 58.45625L123.90938 58.175Q124.05 59.221874 124.72188 59.784374Q125.39375 60.33125 126.59688 60.33125Q127.8 60.33125 128.37813 59.846874Q128.97188 59.346874 128.97188 58.690624Q128.97188 58.096874 128.45625 57.753124Q128.09688 57.51875 126.65938 57.159374Q124.72188 56.659374 123.97188 56.315624Q123.2375 55.95625 122.84688 55.33125Q122.45625 54.690624 122.45625 53.925Q122.45625 53.2375 122.76875 52.64375Q123.09688 52.05 123.64375 51.659374Q124.05 51.3625 124.75313 51.159374Q125.47188 50.940624 126.28438 50.940624Q127.50313 50.940624 128.425 51.3Q129.34688 51.64375 129.78438 52.253124Q130.22188 52.846874 130.39375 53.846874L128.675 54.08125Q128.55 53.284374 127.9875 52.846874Q127.425 52.39375 126.40938 52.39375Q125.19063 52.39375 124.675 52.8Q124.15938 53.190624 124.15938 53.721874Q124.15938 54.065624 124.37813 54.346874Q124.58125 54.628124 125.05 54.815624Q125.31563 54.909374 126.59688 55.253124Q128.47188 55.753124 129.20625 56.08125Q129.94063 56.39375 130.3625 57.003124Q130.78438 57.596874 130.78438 58.503124Q130.78438 59.378124 130.26875 60.159374Q129.75313 60.940624 128.78438 61.3625Q127.81563 61.784374 126.59688 61.784374Q124.58125 61.784374 123.51875 60.940624Q122.45625 60.096874 122.15938 58.45625ZM132.22188 56.3625Q132.22188 53.4875 133.81563 52.096874Q135.15938 50.940624 137.08125 50.940624Q139.22188 50.940624 140.56563 52.346874Q141.925 53.753124 141.925 56.221874Q141.925 58.221874 141.33125 59.378124Q140.7375 60.51875 139.58125 61.159374Q138.44063 61.784374 137.08125 61.784374Q134.89375 61.784374 133.55 60.39375Q132.22188 58.9875 132.22188 56.3625ZM134.01875 56.3625Q134.01875 58.3625 134.87813 59.346874Q135.75313 60.33125 137.08125 60.33125Q138.39375 60.33125 139.25313 59.346874Q140.12813 58.346874 140.12813 56.3Q140.12813 54.378124 139.25313 53.39375Q138.37813 52.39375 137.08125 52.39375Q135.75313 52.39375 134.87813 53.39375Q134.01875 54.378124 134.01875 56.3625ZM143.8625 61.55L143.8625 51.175L145.45625 51.175L145.45625 52.659374Q146.59688 50.940624 148.75313 50.940624Q149.69063 50.940624 150.47188 51.284374Q151.26875 51.6125 151.65938 52.159374Q152.05 52.70625 152.20625 53.45625Q152.3 53.95625 152.3 55.175L152.3 61.55L150.53438 61.55L150.53438 55.2375Q150.53438 54.159374 150.33125 53.628124Q150.12813 53.096874 149.59688 52.784374Q149.08125 52.471874 148.37813 52.471874Q147.25313 52.471874 146.44063 53.190624Q145.62813 53.89375 145.62813 55.878124L145.62813 61.55L143.8625 61.55ZM158.15938 58.01875Q158.14375 57.675 158.14375 57.503124Q158.14375 56.45625 158.44063 55.70625Q158.65938 55.14375 159.14375 54.565624Q159.4875 54.14375 160.39375 53.346874Q161.31563 52.534374 161.58125 52.065624Q161.8625 51.58125 161.8625 51.01875Q161.8625 49.9875 161.05 49.221874Q160.25313 48.440624 159.09688 48.440624Q157.97188 48.440624 157.22188 49.14375Q156.47188 49.846874 156.2375 51.33125L154.425 51.1125Q154.675 49.1125 155.87813 48.05Q157.08125 46.9875 159.06563 46.9875Q161.175 46.9875 162.425 48.128124Q163.675 49.26875 163.675 50.89375Q163.675 51.83125 163.22188 52.628124Q162.78438 53.409374 161.50313 54.55Q160.64375 55.315624 160.37813 55.675Q160.12813 56.034374 159.9875 56.503124Q159.8625 56.971874 159.84688 58.01875L158.15938 58.01875ZM158.05 61.55L158.05 59.55L160.05 59.55L160.05 61.55L158.05 61.55Z" fill-rule="nonzero"/></svg>