<svg version="1.1" viewBox="0.0 0.0 600.0 371.0" fill="none" stroke="none" stroke-linecap="square" stroke-miterlimit="10" width="600" height="371" xmlns:xlink="http://www.w3.org/1999/xlink" xmlns="http://www.w3.org/2000/svg"><path fill="#ffffff" d="M0 0L600.0 0L600.0 371.0L0 371.0L0 0Z" fill-rule="nonzero"/><path fill="#4285f4" d="M300.0 18.55C359.64548 18.55 414.7602 50.37049 444.58295 102.025C474.4057 153.6795 474.4057 217.3205 444.58295 268.975L300.0 185.5Z" fill-rule="nonzero"/><path fill="#ea4335" d="M444.58295 268.975C429.93002 294.3546 408.8546 315.43002 383.475 330.08295L300.0 185.5Z" fill-rule="nonzero"/><path fill="#fbbc04" d="M383.475 330.08295C358.0954 344.73587 329.30585 352.45 300.0 352.45L300.0 185.5Z" fill-rule="nonzero"/><path fill="#7baaf7" d="M216.525 40.917057C241.9046 26.264135 270.69415 18.55 300.0 18.55L300.0 185.5Z" fill-rule="nonzero"/><path fill="#46bdc6" d="M133.05 185.5C133.05 125.85451 164.87048 70.73981 216.525 40.917057L300.0 185.5Z" fill-rule="nonzero"/><path fill="#ff6d01" d="M216.525 330.08295C164.87048 300.2602 133.05 245.1455 133.05 185.5L300.0 185.5Z" fill-rule="nonzero"/><path fill="#34a853" d="M300.0 352.45C270.69415 352.45 241.9046 344.73587 216.525 330.08295L300.0 185.5Z" fill-rule="nonzero"/><path fill="#1a1a1a" d="M19.471874 29.55L19.471874 20.95625L22.440624 20.95625Q23.440624 20.95625 23.971874 21.08125Q24.70625 21.253124 25.221874 21.690624Q25.909374 22.26875 26.2375 23.175Q26.58125 24.065624 26.58125 25.20625Q26.58125 26.190624 26.346874 26.940624Q26.128124 27.690624 25.76875 28.190624Q25.409374 28.690624 24.971874 28.971874Q24.55 29.253124 23.95625 29.409374Q23.3625 29.55 22.58125 29.55L19.471874 29.55ZM20.6125 28.534374L22.440624 28.534374Q23.3 28.534374 23.784374 28.378124Q24.26875 28.221874 24.55 27.925Q24.95625 27.534374 25.175 26.846874Q25.409374 26.159374 25.409374 25.190624Q25.409374 23.846874 24.95625 23.128124Q24.51875 22.39375 23.89375 22.14375Q23.425 21.971874 22.425 21.971874L20.6125 21.971874L20.6125 28.534374ZM28.33125 29.55L28.33125 23.33125L29.284374 23.33125L29.284374 24.26875Q29.64375 23.6125 29.940624 23.409374Q30.253124 23.190624 30.628124 23.190624Q31.159374 23.190624 31.70625 23.51875L31.346874 24.503124Q30.95625 24.26875 30.58125 24.26875Q30.221874 24.26875 29.940624 24.4875Q29.675 24.690624 29.565624 25.065624Q29.378124 25.628124 29.378124 26.284374L29.378124 29.55L28.33125 29.55ZM36.596874 27.55L37.690624 27.675Q37.440624 28.628124 36.7375 29.159374Q36.034374 29.690624 34.95625 29.690624Q33.596874 29.690624 32.784374 28.846874Q31.9875 28.003124 31.9875 26.4875Q31.9875 24.925 32.8 24.065624Q33.6125 23.190624 34.89375 23.190624Q36.14375 23.190624 36.925 24.034374Q37.721874 24.878124 37.721874 26.425Q37.721874 26.51875 37.721874 26.70625L33.08125 26.70625Q33.14375 27.7375 33.659374 28.284374Q34.175 28.815624 34.95625 28.815624Q35.534374 28.815624 35.940624 28.51875Q36.3625 28.20625 36.596874 27.55ZM33.14375 25.846874L36.6125 25.846874Q36.55 25.05 36.221874 24.659374Q35.70625 24.05 34.909374 24.05Q34.175 24.05 33.675 24.534374Q33.190624 25.01875 33.14375 25.846874ZM40.4875 29.55L38.58125 23.33125L39.675 23.33125L40.659374 26.925L41.034374 28.253124Q41.065624 28.159374 41.3625 26.971874L42.346874 23.33125L43.425 23.33125L44.3625 26.940624L44.675 28.128124L45.034374 26.925L46.096874 23.33125L47.128124 23.33125L45.175 29.55L44.08125 29.55L43.096874 25.815624L42.846874 24.76875L41.596874 29.55L40.4875 29.55Z" fill-rule="nonzero"/><path fill="#9e9e9e" d="M20.675 41.89375Q20.01875 41.64375 19.690624 41.20625Q19.378124 40.753124 19.378124 40.14375Q19.378124 39.20625 20.05 38.565624Q20.7375 37.925 21.846874 37.925Q22.971874 37.925 23.659374 38.58125Q24.346874 39.2375 24.346874 40.175Q24.346874 40.76875 24.034374 41.20625Q23.721874 41.64375 23.08125 41.89375Q23.878124 42.14375 24.284374 42.721874Q24.690624 43.3 24.690624 44.096874Q24.690624 45.190624 23.909374 45.940624Q23.14375 46.690624 21.8625 46.690624Q20.596874 46.690624 19.815624 45.940624Q19.034374 45.190624 19.034374 44.065624Q19.034374 43.221874 19.45625 42.659374Q19.89375 42.096874 20.675 41.89375ZM20.45625 40.096874Q20.45625 40.70625 20.846874 41.096874Q21.253124 41.4875 21.878124 41.4875Q22.4875 41.4875 22.878124 41.1125Q23.26875 40.721874 23.26875 40.159374Q23.26875 39.58125 22.8625 39.190624Q22.45625 38.784374 21.8625 38.784374Q21.253124 38.784374 20.846874 39.175Q20.45625 39.565624 20.45625 40.096874ZM20.128124 44.065624Q20.128124 44.51875 20.33125 44.940624Q20.55 45.3625 20.971874 45.596874Q21.39375 45.83125 21.878124 45.83125Q22.628124 45.83125 23.1125 45.346874Q23.6125 44.8625 23.6125 44.1125Q23.6125 43.346874 23.1125 42.846874Q22.6125 42.346874 21.846874 42.346874Q21.096874 42.346874 20.6125 42.846874Q20.128124 43.33125 20.128124 44.065624ZM26.64375 46.55L26.64375 45.346874L27.846874 45.346874L27.846874 46.55L26.64375 46.55ZM29.05 44.284374L30.1125 44.14375Q30.284374 45.034374 30.721874 45.440624Q31.159374 45.83125 31.784374 45.83125Q32.534374 45.83125 33.05 45.315624Q33.565624 44.8 33.565624 44.034374Q33.565624 43.315624 33.08125 42.846874Q32.6125 42.3625 31.878124 42.3625Q31.58125 42.3625 31.128124 42.4875L31.253124 41.55Q31.3625 41.565624 31.425 41.565624Q32.096874 41.565624 32.628124 41.221874Q33.175 40.8625 33.175 40.128124Q33.175 39.55 32.784374 39.175Q32.39375 38.784374 31.76875 38.784374Q31.159374 38.784374 30.7375 39.175Q30.33125 39.565624 30.221874 40.33125L29.159374 40.14375Q29.346874 39.096874 30.034374 38.51875Q30.721874 37.925 31.7375 37.925Q32.440624 37.925 33.034374 38.2375Q33.628124 38.534374 33.940624 39.05Q34.253124 39.565624 34.253124 40.159374Q34.253124 40.70625 33.95625 41.175Q33.659374 41.628124 33.08125 41.89375Q33.83125 42.065624 34.253124 42.628124Q34.675 43.175 34.675 44.01875Q34.675 45.14375 33.846874 45.925Q33.034374 46.70625 31.784374 46.70625Q30.659374 46.70625 29.909374 46.034374Q29.159374 45.346874 29.05 44.284374ZM36.253124 40.01875Q36.253124 39.096874 36.70625 38.45625Q37.175 37.815624 38.05 37.815624Q38.8625 37.815624 39.39375 38.39375Q39.925 38.971874 39.925 40.08125Q39.925 41.175 39.378124 41.76875Q38.846874 42.346874 38.065624 42.346874Q37.284374 42.346874 36.76875 41.76875Q36.253124 41.190624 36.253124 40.01875ZM38.08125 38.534374Q37.690624 38.534374 37.425 38.878124Q37.175 39.221874 37.175 40.128124Q37.175 40.95625 37.425 41.3Q37.690624 41.628124 38.08125 41.628124Q38.4875 41.628124 38.7375 41.284374Q39.003124 40.940624 39.003124 40.05Q39.003124 39.20625 38.7375 38.878124Q38.471874 38.534374 38.08125 38.534374ZM38.08125 46.8625L42.784374 37.815624L43.64375 37.815624L38.95625 46.8625L38.08125 46.8625ZM41.8 44.534374Q41.8 43.6125 42.253124 42.971874Q42.721874 42.33125 43.6125 42.33125Q44.425 42.33125 44.95625 42.909374Q45.4875 43.471874 45.4875 44.596874Q45.4875 45.690624 44.940624 46.284374Q44.409374 46.8625 43.6125 46.8625Q42.846874 46.8625 42.315624 46.284374Q41.8 45.70625 41.8 44.534374ZM43.64375 43.05Q43.2375 43.05 42.971874 43.39375Q42.721874 43.7375 42.721874 44.64375Q42.721874 45.45625 42.9875 45.8Q43.253124 46.14375 43.64375 46.14375Q44.034374 46.14375 44.3 45.8Q44.565624 45.45625 44.565624 44.55Q44.565624 43.721874 44.3 43.39375Q44.034374 43.05 43.64375 43.05Z" fill-rule="nonzero"/><path stroke="#757575" stroke-width="1.0" stroke-linecap="butt" d="M18.55 34.05L127.05 34.05L258.95065 32.30175" fill-rule="nonzero"/><path fill="#9e9e9e" d="M260.95065 32.30175C260.95065 31.19718 260.05524 30.301748 258.95065 30.301748C257.84607 30.301748 256.95065 31.19718 256.95065 32.30175C256.95065 33.40632 257.84607 34.30175 258.95065 34.30175C260.05524 34.30175 260.95065 33.40632 260.95065 32.30175" fill-rule="nonzero"/><path fill="#1a1a1a" d="M18.89375 99.26125L19.925 99.12063Q19.95625 100.105 20.284374 100.46438Q20.6125 100.82375 21.20625 100.82375Q21.628124 100.82375 21.940624 100.63625Q22.253124 100.43313 22.3625 100.105Q22.4875 99.76125 22.4875 99.02688L22.4875 93.105L23.6125 93.105L23.6125 98.96438Q23.6125 100.0425 23.346874 100.63625Q23.096874 101.23 22.534374 101.5425Q21.971874 101.83938 21.20625 101.83938Q20.08125 101.83938 19.471874 101.19875Q18.878124 100.5425 18.89375 99.26125ZM24.95625 98.58938Q24.95625 96.855 25.909374 96.02688Q26.70625 95.33938 27.8625 95.33938Q29.14375 95.33938 29.95625 96.18313Q30.784374 97.01125 30.784374 98.49563Q30.784374 99.69875 30.425 100.38625Q30.065624 101.07375 29.3625 101.46438Q28.675 101.83938 27.8625 101.83938Q26.565624 101.83938 25.753124 101.01125Q24.95625 100.1675 24.95625 98.58938ZM26.034374 98.58938Q26.034374 99.77688 26.55 100.37063Q27.08125 100.96438 27.8625 100.96438Q28.659374 100.96438 29.175 100.37063Q29.690624 99.77688 29.690624 98.55813Q29.690624 97.40188 29.159374 96.80813Q28.64375 96.21438 27.8625 96.21438Q27.08125 96.21438 26.55 96.80813Q26.034374 97.38625 26.034374 98.58938ZM36.596874 99.69875L37.690624 99.82375Q37.440624 100.77688 36.7375 101.30813Q36.034374 101.83938 34.95625 101.83938Q33.596874 101.83938 32.784374 100.99563Q31.9875 100.15188 31.9875 98.63625Q31.9875 97.07375 32.8 96.21438Q33.6125 95.33938 34.89375 95.33938Q36.14375 95.33938 36.925 96.18313Q37.721874 97.02688 37.721874 98.57375Q37.721874 98.6675 37.721874 98.855L33.08125 98.855Q33.14375 99.88625 33.659374 100.43313Q34.175 100.96438 34.95625 100.96438Q35.534374 100.96438 35.940624 100.6675Q36.3625 100.355 36.596874 99.69875ZM33.14375 97.99563L36.6125 97.99563Q36.55 97.19875 36.221874 96.80813Q35.70625 96.19875 34.909374 96.19875Q34.175 96.19875 33.675 96.68313Q33.190624 97.1675 33.14375 97.99563Z" fill-rule="nonzero"/><path fill="#9e9e9e" d="M23.01875 118.69875L21.971874 118.69875L21.971874 111.98Q21.58125 112.33938 20.95625 112.71438Q20.346874 113.07375 19.8625 113.24563L19.8625 112.23Q20.7375 111.80813 21.39375 111.23Q22.065624 110.63625 22.346874 110.07375L23.01875 110.07375L23.01875 118.69875ZM31.51875 112.21438L30.471874 112.2925Q30.33125 111.6675 30.08125 111.38625Q29.64375 110.93313 29.01875 110.93313Q28.51875 110.93313 28.128124 111.21438Q27.64375 111.58938 27.346874 112.2925Q27.065624 112.98 27.05 114.26125Q27.425 113.68313 27.971874 113.40188Q28.534374 113.12063 29.14375 113.12063Q30.190624 113.12063 30.925 113.90188Q31.675 114.68313 31.675 115.90188Q31.675 116.71438 31.315624 117.4175Q30.971874 118.105 30.3625 118.48Q29.753124 118.83938 28.9875 118.83938Q27.659374 118.83938 26.83125 117.87063Q26.003124 116.90188 26.003124 114.68313Q26.003124 112.18313 26.925 111.05813Q27.721874 110.07375 29.08125 110.07375Q30.096874 110.07375 30.7375 110.65188Q31.39375 111.21438 31.51875 112.21438ZM27.221874 115.9175Q27.221874 116.46438 27.440624 116.96438Q27.675 117.44875 28.08125 117.71438Q28.503124 117.98 28.971874 117.98Q29.628124 117.98 30.1125 117.44875Q30.596874 116.90188 30.596874 115.98Q30.596874 115.08938 30.1125 114.57375Q29.64375 114.05813 28.925 114.05813Q28.20625 114.05813 27.70625 114.57375Q27.221874 115.08938 27.221874 115.9175ZM33.64375 118.69875L33.64375 117.49563L34.846874 117.49563L34.846874 118.69875L33.64375 118.69875ZM36.1125 111.23L36.1125 110.21438L41.675 110.21438L41.675 111.0425Q40.8625 111.9175 40.05 113.37063Q39.253124 114.80813 38.815624 116.33938Q38.4875 117.4175 38.409374 118.69875L37.315624 118.69875Q37.33125 117.68313 37.70625 116.24563Q38.096874 114.80813 38.8 113.48Q39.51875 112.15188 40.33125 111.23L36.1125 111.23ZM43.253124 112.1675Q43.253124 111.24563 43.70625 110.605Q44.175 109.96438 45.05 109.96438Q45.8625 109.96438 46.39375 110.5425Q46.925 111.12063 46.925 112.23Q46.925 113.32375 46.378124 113.9175Q45.846874 114.49563 45.065624 114.49563Q44.284374 114.49563 43.76875 113.9175Q43.253124 113.33938 43.253124 112.1675ZM45.08125 110.68313Q44.690624 110.68313 44.425 111.02688Q44.175 111.37063 44.175 112.27688Q44.175 113.105 44.425 113.44875Q44.690624 113.77688 45.08125 113.77688Q45.4875 113.77688 45.7375 113.43313Q46.003124 113.08938 46.003124 112.19875Q46.003124 111.355 45.7375 111.02688Q45.471874 110.68313 45.08125 110.68313ZM45.08125 119.01125L49.784374 109.96438L50.64375 109.96438L45.95625 119.01125L45.08125 119.01125ZM48.8 116.68313Q48.8 115.76125 49.253124 115.12063Q49.721874 114.48 50.6125 114.48Q51.425 114.48 51.95625 115.05813Q52.4875 115.62063 52.4875 116.74563Q52.4875 117.83938 51.940624 118.43313Q51.409374 119.01125 50.6125 119.01125Q49.846874 119.01125 49.315624 118.43313Q48.8 117.855 48.8 116.68313ZM50.64375 115.19875Q50.2375 115.19875 49.971874 115.5425Q49.721874 115.88625 49.721874 116.7925Q49.721874 117.605 49.9875 117.94875Q50.253124 118.2925 50.64375 118.2925Q51.034374 118.2925 51.3 117.94875Q51.565624 117.605 51.565624 116.69875Q51.565624 115.87063 51.3 115.5425Q51.034374 115.19875 50.64375 115.19875Z" fill-rule="nonzero"/><path stroke="#757575" stroke-width="1.0" stroke-linecap="butt" d="M18.55 106.19875L127.05 106.19875L162.64621 106.19875" fill-rule="nonzero"/><path fill="#9e9e9e" d="M164.64621 106.19875C164.64621 105.09418 163.75078 104.19875 162.64621 104.19875C161.54164 104.19875 160.64621 105.09418 160.64621 106.19875C160.64621 107.30332 161.54164 108.19875 162.64621 108.19875C163.75078 108.19875 164.64621 107.30332 164.64621 106.19875" fill-rule="nonzero"/><path fill="#1a1a1a" d="M18.89375 257.86374L19.925 257.7231Q19.95625 258.7075 20.284374 259.06686Q20.6125 259.42624 21.20625 259.42624Q21.628124 259.42624 21.940624 259.23874Q22.253124 259.0356 22.3625 258.7075Q22.4875 258.36374 22.4875 257.62936L22.4875 251.70749L23.6125 251.70749L23.6125 257.56686Q23.6125 258.645 23.346874 259.23874Q23.096874 259.8325 22.534374 260.145Q21.971874 260.44186 21.20625 260.44186Q20.08125 260.44186 19.471874 259.80124Q18.878124 259.145 18.89375 257.86374ZM24.95625 257.19186Q24.95625 255.45749 25.909374 254.62936Q26.70625 253.94186 27.8625 253.94186Q29.14375 253.94186 29.95625 254.78561Q30.784374 255.61374 30.784374 257.0981Q30.784374 258.30124 30.425 258.98874Q30.065624 259.67624 29.3625 260.06686Q28.675 260.44186 27.8625 260.44186Q26.565624 260.44186 25.753124 259.61374Q24.95625 258.77 24.95625 257.19186ZM26.034374 257.19186Q26.034374 258.37936 26.55 258.9731Q27.08125 259.56686 27.8625 259.56686Q28.659374 259.56686 29.175 258.9731Q29.690624 258.37936 29.690624 257.1606Q29.690624 256.00436 29.159374 255.41061Q28.64375 254.81686 27.8625 254.81686Q27.08125 254.81686 26.55 255.41061Q26.034374 255.98874 26.034374 257.19186ZM36.596874 258.30124L37.690624 258.42624Q37.440624 259.37936 36.7375 259.9106Q36.034374 260.44186 34.95625 260.44186Q33.596874 260.44186 32.784374 259.5981Q31.9875 258.75436 31.9875 257.23874Q31.9875 255.67624 32.8 254.81686Q33.6125 253.94186 34.89375 253.94186Q36.14375 253.94186 36.925 254.78561Q37.721874 255.62936 37.721874 257.17624Q37.721874 257.27 37.721874 257.4575L33.08125 257.4575Q33.14375 258.48874 33.659374 259.0356Q34.175 259.56686 34.95625 259.56686Q35.534374 259.56686 35.940624 259.27Q36.3625 258.9575 36.596874 258.30124ZM33.14375 256.5981L36.6125 256.5981Q36.55 255.80124 36.221874 255.41061Q35.70625 254.80124 34.909374 254.80124Q34.175 254.80124 33.675 255.28561Q33.190624 255.76999 33.14375 256.5981ZM39.3 262.69186L39.175 261.7075Q39.51875 261.80124 39.784374 261.80124Q40.128124 261.80124 40.33125 261.67624Q40.55 261.56686 40.690624 261.36374Q40.784374 261.19186 41.01875 260.56686Q41.034374 260.48874 41.1125 260.31686L38.7375 254.08249L39.878124 254.08249L41.175 257.67624Q41.425 258.36374 41.628124 259.12936Q41.815624 258.395 42.065624 257.7075L43.39375 254.08249L44.440624 254.08249L42.08125 260.4106Q41.690624 261.42624 41.4875 261.81686Q41.20625 262.3481 40.83125 262.5825Q40.471874 262.8325 39.971874 262.8325Q39.675 262.8325 39.3 262.69186Z" fill-rule="nonzero"/><path fill="#9e9e9e" d="M23.01875 277.30124L21.971874 277.30124L21.971874 270.5825Q21.58125 270.94186 20.95625 271.31686Q20.346874 271.67624 19.8625 271.8481L19.8625 270.8325Q20.7375 270.4106 21.39375 269.8325Q22.065624 269.23874 22.346874 268.67624L23.01875 268.67624L23.01875 277.30124ZM31.51875 270.81686L30.471874 270.895Q30.33125 270.27 30.08125 269.98874Q29.64375 269.5356 29.01875 269.5356Q28.51875 269.5356 28.128124 269.81686Q27.64375 270.19186 27.346874 270.895Q27.065624 271.5825 27.05 272.86374Q27.425 272.2856 27.971874 272.00436Q28.534374 271.7231 29.14375 271.7231Q30.190624 271.7231 30.925 272.50436Q31.675 273.2856 31.675 274.50436Q31.675 275.31686 31.315624 276.02Q30.971874 276.7075 30.3625 277.0825Q29.753124 277.44186 28.9875 277.44186Q27.659374 277.44186 26.83125 276.4731Q26.003124 275.50436 26.003124 273.2856Q26.003124 270.7856 26.925 269.6606Q27.721874 268.67624 29.08125 268.67624Q30.096874 268.67624 30.7375 269.25436Q31.39375 269.81686 31.51875 270.81686ZM27.221874 274.52Q27.221874 275.06686 27.440624 275.56686Q27.675 276.05124 28.08125 276.31686Q28.503124 276.5825 28.971874 276.5825Q29.628124 276.5825 30.1125 276.05124Q30.596874 275.50436 30.596874 274.5825Q30.596874 273.69186 30.1125 273.17624Q29.64375 272.6606 28.925 272.6606Q28.20625 272.6606 27.70625 273.17624Q27.221874 273.69186 27.221874 274.52ZM33.64375 277.30124L33.64375 276.0981L34.846874 276.0981L34.846874 277.30124L33.64375 277.30124ZM36.1125 269.8325L36.1125 268.81686L41.675 268.81686L41.675 269.645Q40.8625 270.52 40.05 271.9731Q39.253124 273.4106 38.815624 274.94186Q38.4875 276.02 38.409374 277.30124L37.315624 277.30124Q37.33125 276.2856 37.70625 274.8481Q38.096874 273.4106 38.8 272.0825Q39.51875 270.75436 40.33125 269.8325L36.1125 269.8325ZM43.253124 270.77Q43.253124 269.8481 43.70625 269.2075Q44.175 268.56686 45.05 268.56686Q45.8625 268.56686 46.39375 269.145Q46.925 269.7231 46.925 270.8325Q46.925 271.92624 46.378124 272.52Q45.846874 273.0981 45.065624 273.0981Q44.284374 273.0981 43.76875 272.52Q43.253124 271.94186 43.253124 270.77ZM45.08125 269.2856Q44.690624 269.2856 44.425 269.62936Q44.175 269.9731 44.175 270.87936Q44.175 271.7075 44.425 272.05124Q44.690624 272.37936 45.08125 272.37936Q45.4875 272.37936 45.7375 272.0356Q46.003124 271.69186 46.003124 270.80124Q46.003124 269.9575 45.7375 269.62936Q45.471874 269.2856 45.08125 269.2856ZM45.08125 277.61374L49.784374 268.56686L50.64375 268.56686L45.95625 277.61374L45.08125 277.61374ZM48.8 275.2856Q48.8 274.36374 49.253124 273.7231Q49.721874 273.0825 50.6125 273.0825Q51.425 273.0825 51.95625 273.6606Q52.4875 274.2231 52.4875 275.3481Q52.4875 276.44186 51.940624 277.0356Q51.409374 277.61374 50.6125 277.61374Q49.846874 277.61374 49.315624 277.0356Q48.8 276.4575 48.8 275.2856ZM50.64375 273.80124Q50.2375 273.80124 49.971874 274.145Q49.721874 274.48874 49.721874 275.395Q49.721874 276.2075 49.9875 276.55124Q50.253124 276.895 50.64375 276.895Q51.034374 276.895 51.3 276.55124Q51.565624 276.2075 51.565624 275.30124Q51.565624 274.4731 51.3 274.145Q51.034374 273.80124 50.64375 273.80124Z" fill-rule="nonzero"/><path stroke="#757575" stroke-width="1.0" stroke-linecap="butt" d="M18.55 264.80124L127.05 264.80124L162.64621 264.80124" fill-rule="nonzero"/><path fill="#9e9e9e" d="M164.64621 264.80124C164.64621 263.6967 163.75078 262.80124 162.64621 262.80124C161.54164 262.80124 160.64621 263.6967 160.64621 264.80124C160.64621 265.90582 161.54164 266.80124 162.64621 266.80124C163.75078 266.80124 164.64621 265.90582 164.64621 264.80124" fill-rule="nonzero"/><path fill="#1a1a1a" d="M21.925 332.45L18.596874 323.85626L19.83125 323.85626L22.065624 330.10626Q22.33125 330.85626 22.51875 331.5125Q22.721874 330.8094 22.9875 330.10626L25.3 323.85626L26.45625 323.85626L23.096874 332.45L21.925 332.45ZM27.346874 325.075L27.346874 323.85626L28.409374 323.85626L28.409374 325.075L27.346874 325.075ZM27.346874 332.45L27.346874 326.23126L28.409374 326.23126L28.409374 332.45L27.346874 332.45ZM34.409374 330.16876L35.440624 330.3094Q35.26875 331.3719 34.565624 331.98126Q33.8625 332.59064 32.846874 332.59064Q31.565624 332.59064 30.784374 331.7625Q30.01875 330.91876 30.01875 329.35626Q30.01875 328.35626 30.346874 327.60626Q30.690624 326.84064 31.3625 326.46564Q32.05 326.09064 32.8625 326.09064Q33.8625 326.09064 34.503124 326.60626Q35.159374 327.10626 35.346874 328.0594L34.315624 328.21564Q34.175 327.59064 33.8 327.27814Q33.425 326.95 32.89375 326.95Q32.096874 326.95 31.596874 327.52814Q31.096874 328.09064 31.096874 329.325Q31.096874 330.59064 31.58125 331.15314Q32.065624 331.71564 32.83125 331.71564Q33.45625 331.71564 33.8625 331.34064Q34.284374 330.96564 34.409374 330.16876ZM38.64375 331.5125L38.8 332.4344Q38.346874 332.52814 38.003124 332.52814Q37.425 332.52814 37.1125 332.35626Q36.8 332.16876 36.659374 331.8719Q36.534374 331.575 36.534374 330.6219L36.534374 327.04376L35.76875 327.04376L35.76875 326.23126L36.534374 326.23126L36.534374 324.6844L37.58125 324.0594L37.58125 326.23126L38.64375 326.23126L38.64375 327.04376L37.58125 327.04376L37.58125 330.6844Q37.58125 331.1375 37.628124 331.2625Q37.690624 331.3875 37.815624 331.46564Q37.940624 331.54376 38.175 331.54376Q38.3625 331.54376 38.64375 331.5125ZM38.95625 329.34064Q38.95625 327.60626 39.909374 326.77814Q40.70625 326.09064 41.8625 326.09064Q43.14375 326.09064 43.95625 326.9344Q44.784374 327.7625 44.784374 329.2469Q44.784374 330.45 44.425 331.1375Q44.065624 331.825 43.3625 332.21564Q42.675 332.59064 41.8625 332.59064Q40.565624 332.59064 39.753124 331.7625Q38.95625 330.91876 38.95625 329.34064ZM40.034374 329.34064Q40.034374 330.52814 40.55 331.1219Q41.08125 331.71564 41.8625 331.71564Q42.659374 331.71564 43.175 331.1219Q43.690624 330.52814 43.690624 329.3094Q43.690624 328.15314 43.159374 327.5594Q42.64375 326.96564 41.8625 326.96564Q41.08125 326.96564 40.55 327.5594Q40.034374 328.1375 40.034374 329.34064ZM46.33125 332.45L46.33125 326.23126L47.284374 326.23126L47.284374 327.16876Q47.64375 326.5125 47.940624 326.3094Q48.253124 326.09064 48.628124 326.09064Q49.159374 326.09064 49.70625 326.41876L49.346874 327.40314Q48.95625 327.16876 48.58125 327.16876Q48.221874 327.16876 47.940624 327.3875Q47.675 327.59064 47.565624 327.96564Q47.378124 328.52814 47.378124 329.1844L47.378124 332.45L46.33125 332.45Z" fill-rule="nonzero"/><path fill="#9e9e9e" d="M20.675 344.79376Q20.01875 344.54376 19.690624 344.10626Q19.378124 343.65314 19.378124 343.04376Q19.378124 342.10626 20.05 341.46564Q20.7375 340.825 21.846874 340.825Q22.971874 340.825 23.659374 341.48126Q24.346874 342.1375 24.346874 343.075Q24.346874 343.66876 24.034374 344.10626Q23.721874 344.54376 23.08125 344.79376Q23.878124 345.04376 24.284374 345.6219Q24.690624 346.2 24.690624 346.9969Q24.690624 348.09064 23.909374 348.84064Q23.14375 349.59064 21.8625 349.59064Q20.596874 349.59064 19.815624 348.84064Q19.034374 348.09064 19.034374 346.96564Q19.034374 346.1219 19.45625 345.5594Q19.89375 344.9969 20.675 344.79376ZM20.45625 342.9969Q20.45625 343.60626 20.846874 343.9969Q21.253124 344.3875 21.878124 344.3875Q22.4875 344.3875 22.878124 344.0125Q23.26875 343.6219 23.26875 343.0594Q23.26875 342.48126 22.8625 342.09064Q22.45625 341.6844 21.8625 341.6844Q21.253124 341.6844 20.846874 342.075Q20.45625 342.46564 20.45625 342.9969ZM20.128124 346.96564Q20.128124 347.41876 20.33125 347.84064Q20.55 348.2625 20.971874 348.4969Q21.39375 348.73126 21.878124 348.73126Q22.628124 348.73126 23.1125 348.2469Q23.6125 347.7625 23.6125 347.0125Q23.6125 346.2469 23.1125 345.7469Q22.6125 345.2469 21.846874 345.2469Q21.096874 345.2469 20.6125 345.7469Q20.128124 346.23126 20.128124 346.96564ZM26.64375 349.45L26.64375 348.2469L27.846874 348.2469L27.846874 349.45L26.64375 349.45ZM29.05 347.1844L30.1125 347.04376Q30.284374 347.9344 30.721874 348.34064Q31.159374 348.73126 31.784374 348.73126Q32.534374 348.73126 33.05 348.21564Q33.565624 347.7 33.565624 346.9344Q33.565624 346.21564 33.08125 345.7469Q32.6125 345.2625 31.878124 345.2625Q31.58125 345.2625 31.128124 345.3875L31.253124 344.45Q31.3625 344.46564 31.425 344.46564Q32.096874 344.46564 32.628124 344.1219Q33.175 343.7625 33.175 343.02814Q33.175 342.45 32.784374 342.075Q32.39375 341.6844 31.76875 341.6844Q31.159374 341.6844 30.7375 342.075Q30.33125 342.46564 30.221874 343.23126L29.159374 343.04376Q29.346874 341.9969 30.034374 341.41876Q30.721874 340.825 31.7375 340.825Q32.440624 340.825 33.034374 341.1375Q33.628124 341.4344 33.940624 341.95Q34.253124 342.46564 34.253124 343.0594Q34.253124 343.60626 33.95625 344.075Q33.659374 344.52814 33.08125 344.79376Q33.83125 344.96564 34.253124 345.52814Q34.675 346.075 34.675 346.91876Q34.675 348.04376 33.846874 348.825Q33.034374 349.60626 31.784374 349.60626Q30.659374 349.60626 29.909374 348.9344Q29.159374 348.2469 29.05 347.1844ZM36.253124 342.91876Q36.253124 341.9969 36.70625 341.35626Q37.175 340.71564 38.05 340.71564Q38.8625 340.71564 39.39375 341.29376Q39.925 341.8719 39.925 342.98126Q39.925 344.075 39.378124 344.66876Q38.846874 345.2469 38.065624 345.2469Q37.284374 345.2469 36.76875 344.66876Q36.253124 344.09064 36.253124 342.91876ZM38.08125 341.4344Q37.690624 341.4344 37.425 341.77814Q37.175 342.1219 37.175 343.02814Q37.175 343.85626 37.425 344.2Q37.690624 344.52814 38.08125 344.52814Q38.4875 344.52814 38.7375 344.1844Q39.003124 343.84064 39.003124 342.95Q39.003124 342.10626 38.7375 341.77814Q38.471874 341.4344 38.08125 341.4344ZM38.08125 349.7625L42.784374 340.71564L43.64375 340.71564L38.95625 349.7625L38.08125 349.7625ZM41.8 347.4344Q41.8 346.5125 42.253124 345.8719Q42.721874 345.23126 43.6125 345.23126Q44.425 345.23126 44.95625 345.8094Q45.4875 346.3719 45.4875 347.4969Q45.4875 348.59064 44.940624 349.1844Q44.409374 349.7625 43.6125 349.7625Q42.846874 349.7625 42.315624 349.1844Q41.8 348.60626 41.8 347.4344ZM43.64375 345.95Q43.2375 345.95 42.971874 346.29376Q42.721874 346.6375 42.721874 347.54376Q42.721874 348.35626 42.9875 348.7Q43.253124 349.04376 43.64375 349.04376Q44.034374 349.04376 44.3 348.7Q44.565624 348.35626 44.565624 347.45Q44.565624 346.6219 44.3 346.29376Q44.034374 345.95 43.64375 345.95Z" fill-rule="nonzero"/><path stroke="#757575" stroke-width="1.0" stroke-linecap="butt" d="M18.55 336.95L127.05 336.95L258.95065 338.69824" fill-rule="nonzero"/><path fill="#9e9e9e" d="M260.95065 338.69824C260.95065 337.5937 260.05524 336.69824 258.95065 336.69824C257.84607 336.69824 256.95065 337.5937 256.95065 338.69824C256.95065 339.80283 257.84607 340.69824 258.95065 340.69824C260.05524 340.69824 260.95065 339.80283 260.95065 338.69824" fill-rule="nonzero"/><path fill="#1a1a1a" d="M555.79376 99.26125L556.825 99.12063Q556.85626 100.105 557.1844 100.46438Q557.5125 100.82375 558.10626 100.82375Q558.52814 100.82375 558.84064 100.63625Q559.15314 100.43313 559.2625 100.105Q559.3875 99.76125 559.3875 99.02688L559.3875 93.105L560.5125 93.105L560.5125 98.96438Q560.5125 100.0425 560.2469 100.63625Q559.9969 101.23 559.4344 101.5425Q558.8719 101.83938 558.10626 101.83938Q556.98126 101.83938 556.3719 101.19875Q555.77814 100.5425 555.79376 99.26125ZM566.3094 100.93313Q565.71564 101.43313 565.16876 101.63625Q564.6375 101.83938 564.0125 101.83938Q562.98126 101.83938 562.4344 101.33938Q561.8875 100.83938 561.8875 100.05813Q561.8875 99.605 562.09064 99.23Q562.29376 98.83938 562.6375 98.62063Q562.98126 98.38625 563.40314 98.27688Q563.7 98.18313 564.34064 98.105Q565.60626 97.96438 566.21564 97.74563Q566.21564 97.52688 566.21564 97.48Q566.21564 96.82375 565.91876 96.55813Q565.5125 96.21438 564.71564 96.21438Q563.98126 96.21438 563.6219 96.48Q563.2625 96.73 563.09064 97.38625L562.0594 97.24563Q562.2 96.58938 562.52814 96.18313Q562.85626 95.77688 563.46564 95.55813Q564.075 95.33938 564.8719 95.33938Q565.66876 95.33938 566.16876 95.52688Q566.66876 95.71438 566.90314 95.99563Q567.1375 96.27688 567.23126 96.71438Q567.27814 96.98 567.27814 97.68313L567.27814 99.08938Q567.27814 100.55813 567.34064 100.94875Q567.41876 101.33938 567.6219 101.69875L566.5125 101.69875Q566.35626 101.37063 566.3094 100.93313ZM566.21564 98.57375Q565.6375 98.80813 564.4969 98.98Q563.84064 99.07375 563.575 99.19875Q563.3094 99.30813 563.15314 99.52688Q563.0125 99.74563 563.0125 100.02688Q563.0125 100.44875 563.325 100.73Q563.65314 101.01125 564.2625 101.01125Q564.8719 101.01125 565.34064 100.74563Q565.825 100.48 566.04376 100.01125Q566.21564 99.65188 566.21564 98.96438L566.21564 98.57375ZM569.2469 101.69875L569.2469 93.105L570.3094 93.105L570.3094 98.01125L572.79376 95.48L574.16876 95.48L571.77814 97.77688L574.40314 101.69875L573.10626 101.69875L571.04376 98.51125L570.3094 99.23L570.3094 101.69875L569.2469 101.69875ZM579.4969 99.69875L580.59064 99.82375Q580.34064 100.77688 579.6375 101.30813Q578.9344 101.83938 577.85626 101.83938Q576.4969 101.83938 575.6844 100.99563Q574.8875 100.15188 574.8875 98.63625Q574.8875 97.07375 575.7 96.21438Q576.5125 95.33938 577.79376 95.33938Q579.04376 95.33938 579.825 96.18313Q580.6219 97.02688 580.6219 98.57375Q580.6219 98.6675 580.6219 98.855L575.98126 98.855Q576.04376 99.88625 576.5594 100.43313Q577.075 100.96438 577.85626 100.96438Q578.4344 100.96438 578.84064 100.6675Q579.2625 100.355 579.4969 99.69875ZM576.04376 97.99563L579.5125 97.99563Q579.45 97.19875 579.1219 96.80813Q578.60626 96.19875 577.8094 96.19875Q577.075 96.19875 576.575 96.68313Q576.09064 97.1675 576.04376 97.99563Z" fill-rule="nonzero"/><path fill="#9e9e9e" d="M546.95 116.43313L548.0125 116.2925Q548.1844 117.18313 548.6219 117.58938Q549.0594 117.98 549.6844 117.98Q550.4344 117.98 550.95 117.46438Q551.46564 116.94875 551.46564 116.18313Q551.46564 115.46438 550.98126 114.99563Q550.5125 114.51125 549.77814 114.51125Q549.48126 114.51125 549.02814 114.63625L549.15314 113.69875Q549.2625 113.71438 549.325 113.71438Q549.9969 113.71438 550.52814 113.37063Q551.075 113.01125 551.075 112.27688Q551.075 111.69875 550.6844 111.32375Q550.29376 110.93313 549.66876 110.93313Q549.0594 110.93313 548.6375 111.32375Q548.23126 111.71438 548.1219 112.48L547.0594 112.2925Q547.2469 111.24563 547.9344 110.6675Q548.6219 110.07375 549.6375 110.07375Q550.34064 110.07375 550.9344 110.38625Q551.52814 110.68313 551.84064 111.19875Q552.15314 111.71438 552.15314 112.30813Q552.15314 112.855 551.85626 113.32375Q551.5594 113.77688 550.98126 114.0425Q551.73126 114.21438 552.15314 114.77688Q552.575 115.32375 552.575 116.1675Q552.575 117.2925 551.7469 118.07375Q550.9344 118.855 549.6844 118.855Q548.5594 118.855 547.8094 118.18313Q547.0594 117.49563 546.95 116.43313ZM553.95 116.43313L555.0125 116.2925Q555.1844 117.18313 555.6219 117.58938Q556.0594 117.98 556.6844 117.98Q557.4344 117.98 557.95 117.46438Q558.46564 116.94875 558.46564 116.18313Q558.46564 115.46438 557.98126 114.99563Q557.5125 114.51125 556.77814 114.51125Q556.48126 114.51125 556.02814 114.63625L556.15314 113.69875Q556.2625 113.71438 556.325 113.71438Q556.9969 113.71438 557.52814 113.37063Q558.075 113.01125 558.075 112.27688Q558.075 111.69875 557.6844 111.32375Q557.29376 110.93313 556.66876 110.93313Q556.0594 110.93313 555.6375 111.32375Q555.23126 111.71438 555.1219 112.48L554.0594 112.2925Q554.2469 111.24563 554.9344 110.6675Q555.6219 110.07375 556.6375 110.07375Q557.34064 110.07375 557.9344 110.38625Q558.52814 110.68313 558.84064 111.19875Q559.15314 111.71438 559.15314 112.30813Q559.15314 112.855 558.85626 113.32375Q558.5594 113.77688 557.98126 114.0425Q558.73126 114.21438 559.15314 114.77688Q559.575 115.32375 559.575 116.1675Q559.575 117.2925 558.7469 118.07375Q557.9344 118.855 556.6844 118.855Q555.5594 118.855 554.8094 118.18313Q554.0594 117.49563 553.95 116.43313ZM561.54376 118.69875L561.54376 117.49563L562.7469 117.49563L562.7469 118.69875L561.54376 118.69875ZM563.95 116.43313L565.0125 116.2925Q565.1844 117.18313 565.6219 117.58938Q566.0594 117.98 566.6844 117.98Q567.4344 117.98 567.95 117.46438Q568.46564 116.94875 568.46564 116.18313Q568.46564 115.46438 567.98126 114.99563Q567.5125 114.51125 566.77814 114.51125Q566.48126 114.51125 566.02814 114.63625L566.15314 113.69875Q566.2625 113.71438 566.325 113.71438Q566.9969 113.71438 567.52814 113.37063Q568.075 113.01125 568.075 112.27688Q568.075 111.69875 567.6844 111.32375Q567.29376 110.93313 566.66876 110.93313Q566.0594 110.93313 565.6375 111.32375Q565.23126 111.71438 565.1219 112.48L564.0594 112.2925Q564.2469 111.24563 564.9344 110.6675Q565.6219 110.07375 566.6375 110.07375Q567.34064 110.07375 567.9344 110.38625Q568.52814 110.68313 568.84064 111.19875Q569.15314 111.71438 569.15314 112.30813Q569.15314 112.855 568.85626 113.32375Q568.5594 113.77688 567.98126 114.0425Q568.73126 114.21438 569.15314 114.77688Q569.575 115.32375 569.575 116.1675Q569.575 117.2925 568.7469 118.07375Q567.9344 118.855 566.6844 118.855Q565.5594 118.855 564.8094 118.18313Q564.0594 117.49563 563.95 116.43313ZM571.15314 112.1675Q571.15314 111.24563 571.60626 110.605Q572.075 109.96438 572.95 109.96438Q573.7625 109.96438 574.29376 110.5425Q574.825 111.12063 574.825 112.23Q574.825 113.32375 574.27814 113.9175Q573.7469 114.49563 572.96564 114.49563Q572.1844 114.49563 571.66876 113.9175Q571.15314 113.33938 571.15314 112.1675ZM572.98126 110.68313Q572.59064 110.68313 572.325 111.02688Q572.075 111.37063 572.075 112.27688Q572.075 113.105 572.325 113.44875Q572.59064 113.77688 572.98126 113.77688Q573.3875 113.77688 573.6375 113.43313Q573.90314 113.08938 573.90314 112.19875Q573.90314 111.355 573.6375 111.02688Q573.3719 110.68313 572.98126 110.68313ZM572.98126 119.01125L577.6844 109.96438L578.54376 109.96438L573.85626 119.01125L572.98126 119.01125ZM576.7 116.68313Q576.7 115.76125 577.15314 115.12063Q577.6219 114.48 578.5125 114.48Q579.325 114.48 579.85626 115.05813Q580.3875 115.62063 580.3875 116.74563Q580.3875 117.83938 579.84064 118.43313Q579.3094 119.01125 578.5125 119.01125Q577.7469 119.01125 577.21564 118.43313Q576.7 117.855 576.7 116.68313ZM578.54376 115.19875Q578.1375 115.19875 577.8719 115.5425Q577.6219 115.88625 577.6219 116.7925Q577.6219 117.605 577.8875 117.94875Q578.15314 118.2925 578.54376 118.2925Q578.9344 118.2925 579.2 117.94875Q579.46564 117.605 579.46564 116.69875Q579.46564 115.87063 579.2 115.5425Q578.9344 115.19875 578.54376 115.19875Z" fill-rule="nonzero"/><path stroke="#757575" stroke-width="1.0" stroke-linecap="butt" d="M581.45 106.19875L472.95 106.19875L437.3538 106.19875" fill-rule="nonzero"/><path fill="#9e9e9e" d="M439.3538 106.19875C439.3538 105.09418 438.45837 104.19875 437.3538 104.19875C436.24924 104.19875 435.3538 105.09418 435.3538 106.19875C435.3538 107.30332 436.24924 108.19875 437.3538 108.19875C438.45837 108.19875 439.3538 107.30332 439.3538 106.19875" fill-rule="nonzero"/><path fill="#1a1a1a" d="M555.325 293.1489L555.325 284.55515L556.46564 284.55515L556.46564 292.13327L560.7 292.13327L560.7 293.1489L555.325 293.1489ZM566.325 293.1489L566.325 292.22702Q565.59064 293.28952 564.34064 293.28952Q563.79376 293.28952 563.3094 293.0864Q562.84064 292.86765 562.60626 292.55515Q562.3719 292.22702 562.27814 291.75827Q562.21564 291.4614 562.21564 290.7739L562.21564 286.93015L563.27814 286.93015L563.27814 290.38327Q563.27814 291.19577 563.34064 291.49265Q563.4344 291.8989 563.7469 292.1489Q564.075 292.38327 564.5594 292.38327Q565.02814 292.38327 565.4344 292.1489Q565.85626 291.8989 566.02814 291.47702Q566.21564 291.05515 566.21564 290.25827L566.21564 286.93015L567.2625 286.93015L567.2625 293.1489L566.325 293.1489ZM569.2469 293.1489L569.2469 284.55515L570.3094 284.55515L570.3094 289.4614L572.79376 286.93015L574.16876 286.93015L571.77814 289.22702L574.40314 293.1489L573.10626 293.1489L571.04376 289.9614L570.3094 290.68015L570.3094 293.1489L569.2469 293.1489ZM579.4969 291.1489L580.59064 291.2739Q580.34064 292.22702 579.6375 292.75827Q578.9344 293.28952 577.85626 293.28952Q576.4969 293.28952 575.6844 292.44577Q574.8875 291.60202 574.8875 290.0864Q574.8875 288.5239 575.7 287.66452Q576.5125 286.78952 577.79376 286.78952Q579.04376 286.78952 579.825 287.63327Q580.6219 288.47702 580.6219 290.0239Q580.6219 290.11765 580.6219 290.30515L575.98126 290.30515Q576.04376 291.3364 576.5594 291.88327Q577.075 292.41452 577.85626 292.41452Q578.4344 292.41452 578.84064 292.11765Q579.2625 291.80515 579.4969 291.1489ZM576.04376 289.44577L579.5125 289.44577Q579.45 288.6489 579.1219 288.25827Q578.60626 287.6489 577.8094 287.6489Q577.075 287.6489 576.575 288.13327Q576.09064 288.61765 576.04376 289.44577Z" fill-rule="nonzero"/><path fill="#9e9e9e" d="M555.575 305.49265Q554.91876 305.24265 554.59064 304.80515Q554.27814 304.35202 554.27814 303.74265Q554.27814 302.80515 554.95 302.16452Q555.6375 301.5239 556.7469 301.5239Q557.8719 301.5239 558.5594 302.18015Q559.2469 302.8364 559.2469 303.7739Q559.2469 304.36765 558.9344 304.80515Q558.6219 305.24265 557.98126 305.49265Q558.77814 305.74265 559.1844 306.32077Q559.59064 306.8989 559.59064 307.69577Q559.59064 308.78952 558.8094 309.53952Q558.04376 310.28952 556.7625 310.28952Q555.4969 310.28952 554.71564 309.53952Q553.9344 308.78952 553.9344 307.66452Q553.9344 306.82077 554.35626 306.25827Q554.79376 305.69577 555.575 305.49265ZM555.35626 303.69577Q555.35626 304.30515 555.7469 304.69577Q556.15314 305.0864 556.77814 305.0864Q557.3875 305.0864 557.77814 304.7114Q558.16876 304.32077 558.16876 303.75827Q558.16876 303.18015 557.7625 302.78952Q557.35626 302.38327 556.7625 302.38327Q556.15314 302.38327 555.7469 302.7739Q555.35626 303.16452 555.35626 303.69577ZM555.02814 307.66452Q555.02814 308.11765 555.23126 308.53952Q555.45 308.9614 555.8719 309.19577Q556.29376 309.43015 556.77814 309.43015Q557.52814 309.43015 558.0125 308.94577Q558.5125 308.4614 558.5125 307.7114Q558.5125 306.94577 558.0125 306.44577Q557.5125 305.94577 556.7469 305.94577Q555.9969 305.94577 555.5125 306.44577Q555.02814 306.93015 555.02814 307.66452ZM561.54376 310.1489L561.54376 308.94577L562.7469 308.94577L562.7469 310.1489L561.54376 310.1489ZM563.95 307.88327L565.0125 307.74265Q565.1844 308.63327 565.6219 309.03952Q566.0594 309.43015 566.6844 309.43015Q567.4344 309.43015 567.95 308.91452Q568.46564 308.3989 568.46564 307.63327Q568.46564 306.91452 567.98126 306.44577Q567.5125 305.9614 566.77814 305.9614Q566.48126 305.9614 566.02814 306.0864L566.15314 305.1489Q566.2625 305.16452 566.325 305.16452Q566.9969 305.16452 567.52814 304.82077Q568.075 304.4614 568.075 303.72702Q568.075 303.1489 567.6844 302.7739Q567.29376 302.38327 566.66876 302.38327Q566.0594 302.38327 565.6375 302.7739Q565.23126 303.16452 565.1219 303.93015L564.0594 303.74265Q564.2469 302.69577 564.9344 302.11765Q565.6219 301.5239 566.6375 301.5239Q567.34064 301.5239 567.9344 301.8364Q568.52814 302.13327 568.84064 302.6489Q569.15314 303.16452 569.15314 303.75827Q569.15314 304.30515 568.85626 304.7739Q568.5594 305.22702 567.98126 305.49265Q568.73126 305.66452 569.15314 306.22702Q569.575 306.7739 569.575 307.61765Q569.575 308.74265 568.7469 309.5239Q567.9344 310.30515 566.6844 310.30515Q565.5594 310.30515 564.8094 309.63327Q564.0594 308.94577 563.95 307.88327ZM571.15314 303.61765Q571.15314 302.69577 571.60626 302.05515Q572.075 301.41452 572.95 301.41452Q573.7625 301.41452 574.29376 301.99265Q574.825 302.57077 574.825 303.68015Q574.825 304.7739 574.27814 305.36765Q573.7469 305.94577 572.96564 305.94577Q572.1844 305.94577 571.66876 305.36765Q571.15314 304.78952 571.15314 303.61765ZM572.98126 302.13327Q572.59064 302.13327 572.325 302.47702Q572.075 302.82077 572.075 303.72702Q572.075 304.55515 572.325 304.8989Q572.59064 305.22702 572.98126 305.22702Q573.3875 305.22702 573.6375 304.88327Q573.90314 304.53952 573.90314 303.6489Q573.90314 302.80515 573.6375 302.47702Q573.3719 302.13327 572.98126 302.13327ZM572.98126 310.4614L577.6844 301.41452L578.54376 301.41452L573.85626 310.4614L572.98126 310.4614ZM576.7 308.13327Q576.7 307.2114 577.15314 306.57077Q577.6219 305.93015 578.5125 305.93015Q579.325 305.93015 579.85626 306.50827Q580.3875 307.07077 580.3875 308.19577Q580.3875 309.28952 579.84064 309.88327Q579.3094 310.4614 578.5125 310.4614Q577.7469 310.4614 577.21564 309.88327Q576.7 309.30515 576.7 308.13327ZM578.54376 306.6489Q578.1375 306.6489 577.8719 306.99265Q577.6219 307.3364 577.6219 308.24265Q577.6219 309.05515 577.8875 309.3989Q578.15314 309.74265 578.54376 309.74265Q578.9344 309.74265 579.2 309.3989Q579.46564 309.05515 579.46564 308.1489Q579.46564 307.32077 579.2 306.99265Q578.9344 306.6489 578.54376 306.6489Z" fill-rule="nonzero"/><path stroke="#757575" stroke-width="1.0" stroke-linecap="butt" d="M581.45 297.6489L472.95 297.6489L412.1489 297.6489" fill-rule="nonzero"/><path fill="#9e9e9e" d="M414.1489 297.6489C414.1489 296.54434 413.25348 295.6489 412.1489 295.6489C411.04434 295.6489 410.1489 296.54434 410.1489 297.6489C410.1489 298.75348 411.04434 299.6489 412.1489 299.6489C413.25348 299.6489 414.1489 298.75348 414.1489 297.6489" fill-rule="nonzero"/><path fill="#1a1a1a" d="M545.79376 330.0125L546.825 329.8719Q546.85626 330.85626 547.1844 331.21564Q547.5125 331.575 548.10626 331.575Q548.52814 331.575 548.84064 331.3875Q549.15314 331.1844 549.2625 330.85626Q549.3875 330.5125 549.3875 329.77814L549.3875 323.85626L550.5125 323.85626L550.5125 329.71564Q550.5125 330.79376 550.2469 331.3875Q549.9969 331.98126 549.4344 332.29376Q548.8719 332.59064 548.10626 332.59064Q546.98126 332.59064 546.3719 331.95Q545.77814 331.29376 545.79376 330.0125ZM556.3094 331.6844Q555.71564 332.1844 555.16876 332.3875Q554.6375 332.59064 554.0125 332.59064Q552.98126 332.59064 552.4344 332.09064Q551.8875 331.59064 551.8875 330.8094Q551.8875 330.35626 552.09064 329.98126Q552.29376 329.59064 552.6375 329.3719Q552.98126 329.1375 553.40314 329.02814Q553.7 328.9344 554.34064 328.85626Q555.60626 328.71564 556.21564 328.4969Q556.21564 328.27814 556.21564 328.23126Q556.21564 327.575 555.91876 327.3094Q555.5125 326.96564 554.71564 326.96564Q553.98126 326.96564 553.6219 327.23126Q553.2625 327.48126 553.09064 328.1375L552.0594 327.9969Q552.2 327.34064 552.52814 326.9344Q552.85626 326.52814 553.46564 326.3094Q554.075 326.09064 554.8719 326.09064Q555.66876 326.09064 556.16876 326.27814Q556.66876 326.46564 556.90314 326.7469Q557.1375 327.02814 557.23126 327.46564Q557.27814 327.73126 557.27814 328.4344L557.27814 329.84064Q557.27814 331.3094 557.34064 331.7Q557.41876 332.09064 557.6219 332.45L556.5125 332.45Q556.35626 332.1219 556.3094 331.6844ZM556.21564 329.325Q555.6375 329.5594 554.4969 329.73126Q553.84064 329.825 553.575 329.95Q553.3094 330.0594 553.15314 330.27814Q553.0125 330.4969 553.0125 330.77814Q553.0125 331.2 553.325 331.48126Q553.65314 331.7625 554.2625 331.7625Q554.8719 331.7625 555.34064 331.4969Q555.825 331.23126 556.04376 330.7625Q556.21564 330.40314 556.21564 329.71564L556.21564 329.325ZM559.2469 332.45L559.2469 326.23126L560.1844 326.23126L560.1844 327.10626Q560.48126 326.6375 560.96564 326.3719Q561.45 326.09064 562.075 326.09064Q562.7625 326.09064 563.2 326.3719Q563.65314 326.65314 563.825 327.16876Q564.575 326.09064 565.7469 326.09064Q566.6844 326.09064 567.16876 326.60626Q567.66876 327.10626 567.66876 328.1844L567.66876 332.45L566.6219 332.45L566.6219 328.52814Q566.6219 327.90314 566.5125 327.6219Q566.41876 327.34064 566.15314 327.16876Q565.8875 326.9969 565.5125 326.9969Q564.85626 326.9969 564.41876 327.4344Q563.9969 327.8719 563.9969 328.84064L563.9969 332.45L562.9344 332.45L562.9344 328.40314Q562.9344 327.7 562.66876 327.35626Q562.41876 326.9969 561.84064 326.9969Q561.3875 326.9969 561.0125 327.23126Q560.6375 327.46564 560.46564 327.91876Q560.29376 328.3719 560.29376 329.21564L560.29376 332.45L559.2469 332.45ZM573.4969 330.45L574.59064 330.575Q574.34064 331.52814 573.6375 332.0594Q572.9344 332.59064 571.85626 332.59064Q570.4969 332.59064 569.6844 331.7469Q568.8875 330.90314 568.8875 329.3875Q568.8875 327.825 569.7 326.96564Q570.5125 326.09064 571.79376 326.09064Q573.04376 326.09064 573.825 326.9344Q574.6219 327.77814 574.6219 329.325Q574.6219 329.41876 574.6219 329.60626L569.98126 329.60626Q570.04376 330.6375 570.5594 331.1844Q571.075 331.71564 571.85626 331.71564Q572.4344 331.71564 572.84064 331.41876Q573.2625 331.10626 573.4969 330.45ZM570.04376 328.7469L573.5125 328.7469Q573.45 327.95 573.1219 327.5594Q572.60626 326.95 571.8094 326.95Q571.075 326.95 570.575 327.4344Q570.09064 327.91876 570.04376 328.7469ZM575.825 330.59064L576.85626 330.4344Q576.95 331.0594 577.34064 331.3875Q577.7469 331.71564 578.48126 331.71564Q579.2 331.71564 579.54376 331.4344Q579.90314 331.1375 579.90314 330.73126Q579.90314 330.3719 579.59064 330.16876Q579.3719 330.02814 578.5125 329.8094Q577.35626 329.5125 576.90314 329.3094Q576.46564 329.09064 576.23126 328.71564Q575.9969 328.34064 575.9969 327.8719Q575.9969 327.46564 576.1844 327.10626Q576.3719 326.7469 576.7 326.5125Q576.95 326.34064 577.3719 326.21564Q577.79376 326.09064 578.29376 326.09064Q579.0125 326.09064 579.5594 326.3094Q580.1219 326.5125 580.3875 326.8719Q580.65314 327.23126 580.7469 327.825L579.71564 327.96564Q579.65314 327.4969 579.3094 327.23126Q578.98126 326.95 578.35626 326.95Q577.6375 326.95 577.325 327.2Q577.0125 327.4344 577.0125 327.7625Q577.0125 327.96564 577.1375 328.1219Q577.27814 328.29376 577.54376 328.40314Q577.7 328.46564 578.48126 328.66876Q579.60626 328.98126 580.04376 329.16876Q580.48126 329.35626 580.73126 329.71564Q580.98126 330.075 580.98126 330.6219Q580.98126 331.15314 580.66876 331.6219Q580.3719 332.075 579.79376 332.34064Q579.21564 332.59064 578.48126 332.59064Q577.2625 332.59064 576.6219 332.09064Q575.9969 331.575 575.825 330.59064Z" fill-rule="nonzero"/><path fill="#9e9e9e" d="M555.575 344.79376Q554.91876 344.54376 554.59064 344.10626Q554.27814 343.65314 554.27814 343.04376Q554.27814 342.10626 554.95 341.46564Q555.6375 340.825 556.7469 340.825Q557.8719 340.825 558.5594 341.48126Q559.2469 342.1375 559.2469 343.075Q559.2469 343.66876 558.9344 344.10626Q558.6219 344.54376 557.98126 344.79376Q558.77814 345.04376 559.1844 345.6219Q559.59064 346.2 559.59064 346.9969Q559.59064 348.09064 558.8094 348.84064Q558.04376 349.59064 556.7625 349.59064Q555.4969 349.59064 554.71564 348.84064Q553.9344 348.09064 553.9344 346.96564Q553.9344 346.1219 554.35626 345.5594Q554.79376 344.9969 555.575 344.79376ZM555.35626 342.9969Q555.35626 343.60626 555.7469 343.9969Q556.15314 344.3875 556.77814 344.3875Q557.3875 344.3875 557.77814 344.0125Q558.16876 343.6219 558.16876 343.0594Q558.16876 342.48126 557.7625 342.09064Q557.35626 341.6844 556.7625 341.6844Q556.15314 341.6844 555.7469 342.075Q555.35626 342.46564 555.35626 342.9969ZM555.02814 346.96564Q555.02814 347.41876 555.23126 347.84064Q555.45 348.2625 555.8719 348.4969Q556.29376 348.73126 556.77814 348.73126Q557.52814 348.73126 558.0125 348.2469Q558.5125 347.7625 558.5125 347.0125Q558.5125 346.2469 558.0125 345.7469Q557.5125 345.2469 556.7469 345.2469Q555.9969 345.2469 555.5125 345.7469Q555.02814 346.23126 555.02814 346.96564ZM561.54376 349.45L561.54376 348.2469L562.7469 348.2469L562.7469 349.45L561.54376 349.45ZM563.95 347.1844L565.0125 347.04376Q565.1844 347.9344 565.6219 348.34064Q566.0594 348.73126 566.6844 348.73126Q567.4344 348.73126 567.95 348.21564Q568.46564 347.7 568.46564 346.9344Q568.46564 346.21564 567.98126 345.7469Q567.5125 345.2625 566.77814 345.2625Q566.48126 345.2625 566.02814 345.3875L566.15314 344.45Q566.2625 344.46564 566.325 344.46564Q566.9969 344.46564 567.52814 344.1219Q568.075 343.7625 568.075 343.02814Q568.075 342.45 567.6844 342.075Q567.29376 341.6844 566.66876 341.6844Q566.0594 341.6844 565.6375 342.075Q565.23126 342.46564 565.1219 343.23126L564.0594 343.04376Q564.2469 341.9969 564.9344 341.41876Q565.6219 340.825 566.6375 340.825Q567.34064 340.825 567.9344 341.1375Q568.52814 341.4344 568.84064 341.95Q569.15314 342.46564 569.15314 343.0594Q569.15314 343.60626 568.85626 344.075Q568.5594 344.52814 567.98126 344.79376Q568.73126 344.96564 569.15314 345.52814Q569.575 346.075 569.575 346.91876Q569.575 348.04376 568.7469 348.825Q567.9344 349.60626 566.6844 349.60626Q565.5594 349.60626 564.8094 348.9344Q564.0594 348.2469 563.95 347.1844ZM571.15314 342.91876Q571.15314 341.9969 571.60626 341.35626Q572.075 340.71564 572.95 340.71564Q573.7625 340.71564 574.29376 341.29376Q574.825 341.8719 574.825 342.98126Q574.825 344.075 574.27814 344.66876Q573.7469 345.2469 572.96564 345.2469Q572.1844 345.2469 571.66876 344.66876Q571.15314 344.09064 571.15314 342.91876ZM572.98126 341.4344Q572.59064 341.4344 572.325 341.77814Q572.075 342.1219 572.075 343.02814Q572.075 343.85626 572.325 344.2Q572.59064 344.52814 572.98126 344.52814Q573.3875 344.52814 573.6375 344.1844Q573.90314 343.84064 573.90314 342.95Q573.90314 342.10626 573.6375 341.77814Q573.3719 341.4344 572.98126 341.4344ZM572.98126 349.7625L577.6844 340.71564L578.54376 340.71564L573.85626 349.7625L572.98126 349.7625ZM576.7 347.4344Q576.7 346.5125 577.15314 345.8719Q577.6219 345.23126 578.5125 345.23126Q579.325 345.23126 579.85626 345.8094Q580.3875 346.3719 580.3875 347.4969Q580.3875 348.59064 579.84064 349.1844Q579.3094 349.7625 578.5125 349.7625Q577.7469 349.7625 577.21564 349.1844Q576.7 348.60626 576.7 347.4344ZM578.54376 345.95Q578.1375 345.95 577.8719 346.29376Q577.6219 346.6375 577.6219 347.54376Q577.6219 348.35626 577.8875 348.7Q578.15314 349.04376 578.54376 349.04376Q578.9344 349.04376 579.2 348.7Q579.46564 348.35626 579.46564 347.45Q579.46564 346.6219 579.2 346.29376Q578.9344 345.95 578.54376 345.95Z" fill-rule="nonzero"/><path stroke="#757575" stroke-width="1.0" stroke-linecap="butt" d="M581.45 336.95L472.95 336.95L341.04935 338.69824" fill-rule="nonzero"/><path fill="#9e9e9e" d="M343.04935 338.69824C343.04935 337.5937 342.15393 336.69824 341.04935 336.69824C339.94476 336.69824 339.04935 337.5937 339.04935 338.69824C339.04935 339.80283 339.94476 340.69824 341.04935 340.69824C342.15393 340.69824 343.04935 339.80283 343.04935 338.69824" fill-rule="nonzero"/></svg>