<svg version="1.1" viewBox="0.0 0.0 600.0 371.0" fill="none" stroke="none" stroke-linecap="square" stroke-miterlimit="10" width="600" height="371" xmlns:xlink="http://www.w3.org/1999/xlink" xmlns="http://www.w3.org/2000/svg"><path fill="#ffffff" d="M0 0L600.0 0L600.0 371.0L0 371.0L0 0Z" fill-rule="nonzero"/><path fill="#4285f4" d="M300.0 18.55C329.30585 18.55 358.0954 26.264135 383.475 40.917057L300.0 185.5Z" fill-rule="nonzero"/><path fill="#ea4335" d="M383.475 40.917057C435.12952 70.73981 466.95 125.85451 466.95 185.5L300.0 185.5Z" fill-rule="nonzero"/><path fill="#fbbc04" d="M466.95 185.5C466.95 245.1455 435.12952 300.2602 383.475 330.08295L300.0 185.5Z" fill-rule="nonzero"/><path fill="#7baaf7" d="M216.525 40.917057C241.9046 26.264135 270.69415 18.55 300.0 18.55L300.0 185.5Z" fill-rule="nonzero"/><path fill="#46bdc6" d="M133.05 185.5C133.05 125.85451 164.87048 70.73981 216.525 40.917057L300.0 185.5Z" fill-rule="nonzero"/><path fill="#ff6d01" d="M216.525 330.08295C164.87048 300.2602 133.05 245.1455 133.05 185.5L300.0 185.5Z" fill-rule="nonzero"/><path fill="#34a853" d="M383.475 330.08295C331.8205 359.9057 268.1795 359.9057 216.525 330.08295L300.0 185.5Z" fill-rule="nonzero"/><path fill="#1a1a1a" d="M18.534374 29.55L21.83125 20.95625L23.05 20.95625L26.565624 29.55L25.284374 29.55L24.26875 26.940624L20.690624 26.940624L19.7375 29.55L18.534374 29.55ZM21.01875 26.01875L23.925 26.01875L23.034374 23.64375Q22.6125 22.565624 22.425 21.8625Q22.253124 22.690624 21.95625 23.503124L21.01875 26.01875ZM27.346874 29.55L27.346874 23.33125L28.284374 23.33125L28.284374 24.20625Q28.971874 23.190624 30.26875 23.190624Q30.83125 23.190624 31.3 23.39375Q31.784374 23.596874 32.01875 23.925Q32.253124 24.253124 32.346874 24.690624Q32.39375 24.9875 32.39375 25.721874L32.39375 29.55L31.346874 29.55L31.346874 25.76875Q31.346874 25.1125 31.221874 24.8Q31.096874 24.4875 30.784374 24.3Q30.471874 24.096874 30.05 24.096874Q29.378124 24.096874 28.878124 24.534374Q28.39375 24.95625 28.39375 26.14375L28.39375 29.55L27.346874 29.55ZM38.378124 29.55L38.378124 28.76875Q37.784374 29.690624 36.64375 29.690624Q35.89375 29.690624 35.26875 29.284374Q34.64375 28.8625 34.3 28.128124Q33.95625 27.39375 33.95625 26.440624Q33.95625 25.51875 34.26875 24.753124Q34.58125 23.9875 35.20625 23.596874Q35.83125 23.190624 36.596874 23.190624Q37.159374 23.190624 37.596874 23.425Q38.034374 23.659374 38.315624 24.034374L38.315624 20.95625L39.3625 20.95625L39.3625 29.55L38.378124 29.55ZM35.05 26.440624Q35.05 27.64375 35.55 28.2375Q36.05 28.815624 36.7375 28.815624Q37.425 28.815624 37.909374 28.253124Q38.39375 27.690624 38.39375 26.534374Q38.39375 25.253124 37.89375 24.659374Q37.409374 24.065624 36.690624 24.065624Q35.9875 24.065624 35.51875 24.64375Q35.05 25.20625 35.05 26.440624ZM41.3 31.940624L41.175 30.95625Q41.51875 31.05 41.784374 31.05Q42.128124 31.05 42.33125 30.925Q42.55 30.815624 42.690624 30.6125Q42.784374 30.440624 43.01875 29.815624Q43.034374 29.7375 43.1125 29.565624L40.7375 23.33125L41.878124 23.33125L43.175 26.925Q43.425 27.6125 43.628124 28.378124Q43.815624 27.64375 44.065624 26.95625L45.39375 23.33125L46.440624 23.33125L44.08125 29.659374Q43.690624 30.675 43.4875 31.065624Q43.20625 31.596874 42.83125 31.83125Q42.471874 32.08125 41.971874 32.08125Q41.675 32.08125 41.3 31.940624Z" fill-rule="nonzero"/><path fill="#9e9e9e" d="M20.675 41.89375Q20.01875 41.64375 19.690624 41.20625Q19.378124 40.753124 19.378124 40.14375Q19.378124 39.20625 20.05 38.565624Q20.7375 37.925 21.846874 37.925Q22.971874 37.925 23.659374 38.58125Q24.346874 39.2375 24.346874 40.175Q24.346874 40.76875 24.034374 41.20625Q23.721874 41.64375 23.08125 41.89375Q23.878124 42.14375 24.284374 42.721874Q24.690624 43.3 24.690624 44.096874Q24.690624 45.190624 23.909374 45.940624Q23.14375 46.690624 21.8625 46.690624Q20.596874 46.690624 19.815624 45.940624Q19.034374 45.190624 19.034374 44.065624Q19.034374 43.221874 19.45625 42.659374Q19.89375 42.096874 20.675 41.89375ZM20.45625 40.096874Q20.45625 40.70625 20.846874 41.096874Q21.253124 41.4875 21.878124 41.4875Q22.4875 41.4875 22.878124 41.1125Q23.26875 40.721874 23.26875 40.159374Q23.26875 39.58125 22.8625 39.190624Q22.45625 38.784374 21.8625 38.784374Q21.253124 38.784374 20.846874 39.175Q20.45625 39.565624 20.45625 40.096874ZM20.128124 44.065624Q20.128124 44.51875 20.33125 44.940624Q20.55 45.3625 20.971874 45.596874Q21.39375 45.83125 21.878124 45.83125Q22.628124 45.83125 23.1125 45.346874Q23.6125 44.8625 23.6125 44.1125Q23.6125 43.346874 23.1125 42.846874Q22.6125 42.346874 21.846874 42.346874Q21.096874 42.346874 20.6125 42.846874Q20.128124 43.33125 20.128124 44.065624ZM26.64375 46.55L26.64375 45.346874L27.846874 45.346874L27.846874 46.55L26.64375 46.55ZM29.05 44.284374L30.1125 44.14375Q30.284374 45.034374 30.721874 45.440624Q31.159374 45.83125 31.784374 45.83125Q32.534374 45.83125 33.05 45.315624Q33.565624 44.8 33.565624 44.034374Q33.565624 43.315624 33.08125 42.846874Q32.6125 42.3625 31.878124 42.3625Q31.58125 42.3625 31.128124 42.4875L31.253124 41.55Q31.3625 41.565624 31.425 41.565624Q32.096874 41.565624 32.628124 41.221874Q33.175 40.8625 33.175 40.128124Q33.175 39.55 32.784374 39.175Q32.39375 38.784374 31.76875 38.784374Q31.159374 38.784374 30.7375 39.175Q30.33125 39.565624 30.221874 40.33125L29.159374 40.14375Q29.346874 39.096874 30.034374 38.51875Q30.721874 37.925 31.7375 37.925Q32.440624 37.925 33.034374 38.2375Q33.628124 38.534374 33.940624 39.05Q34.253124 39.565624 34.253124 40.159374Q34.253124 40.70625 33.95625 41.175Q33.659374 41.628124 33.08125 41.89375Q33.83125 42.065624 34.253124 42.628124Q34.675 43.175 34.675 44.01875Q34.675 45.14375 33.846874 45.925Q33.034374 46.70625 31.784374 46.70625Q30.659374 46.70625 29.909374 46.034374Q29.159374 45.346874 29.05 44.284374ZM36.253124 40.01875Q36.253124 39.096874 36.70625 38.45625Q37.175 37.815624 38.05 37.815624Q38.8625 37.815624 39.39375 38.39375Q39.925 38.971874 39.925 40.08125Q39.925 41.175 39.378124 41.76875Q38.846874 42.346874 38.065624 42.346874Q37.284374 42.346874 36.76875 41.76875Q36.253124 41.190624 36.253124 40.01875ZM38.08125 38.534374Q37.690624 38.534374 37.425 38.878124Q37.175 39.221874 37.175 40.128124Q37.175 40.95625 37.425 41.3Q37.690624 41.628124 38.08125 41.628124Q38.4875 41.628124 38.7375 41.284374Q39.003124 40.940624 39.003124 40.05Q39.003124 39.20625 38.7375 38.878124Q38.471874 38.534374 38.08125 38.534374ZM38.08125 46.8625L42.784374 37.815624L43.64375 37.815624L38.95625 46.8625L38.08125 46.8625ZM41.8 44.534374Q41.8 43.6125 42.253124 42.971874Q42.721874 42.33125 43.6125 42.33125Q44.425 42.33125 44.95625 42.909374Q45.4875 43.471874 45.4875 44.596874Q45.4875 45.690624 44.940624 46.284374Q44.409374 46.8625 43.6125 46.8625Q42.846874 46.8625 42.315624 46.284374Q41.8 45.70625 41.8 44.534374ZM43.64375 43.05Q43.2375 43.05 42.971874 43.39375Q42.721874 43.7375 42.721874 44.64375Q42.721874 45.45625 42.9875 45.8Q43.253124 46.14375 43.64375 46.14375Q44.034374 46.14375 44.3 45.8Q44.565624 45.45625 44.565624 44.55Q44.565624 43.721874 44.3 43.39375Q44.034374 43.05 43.64375 43.05Z" fill-rule="nonzero"/><path stroke="#757575" stroke-width="1.0" stroke-linecap="butt" d="M18.55 34.05L127.05 34.05L258.95065 32.30175" fill-rule="nonzero"/><path fill="#9e9e9e" d="M260.95065 32.30175C260.95065 31.19718 260.05524 30.301748 258.95065 30.301748C257.84607 30.301748 256.95065 31.19718 256.95065 32.30175C256.95065 33.40632 257.84607 34.30175 258.95065 34.30175C260.05524 34.30175 260.95065 33.40632 260.95065 32.30175" fill-rule="nonzero"/><path fill="#1a1a1a" d="M21.925 101.69875L18.596874 93.105L19.83125 93.105L22.065624 99.355Q22.33125 100.105 22.51875 100.76125Q22.721874 100.05813 22.9875 99.355L25.3 93.105L26.45625 93.105L23.096874 101.69875L21.925 101.69875ZM27.346874 94.32375L27.346874 93.105L28.409374 93.105L28.409374 94.32375L27.346874 94.32375ZM27.346874 101.69875L27.346874 95.48L28.409374 95.48L28.409374 101.69875L27.346874 101.69875ZM34.409374 99.4175L35.440624 99.55813Q35.26875 100.62063 34.565624 101.23Q33.8625 101.83938 32.846874 101.83938Q31.565624 101.83938 30.784374 101.01125Q30.01875 100.1675 30.01875 98.605Q30.01875 97.605 30.346874 96.855Q30.690624 96.08938 31.3625 95.71438Q32.05 95.33938 32.8625 95.33938Q33.8625 95.33938 34.503124 95.855Q35.159374 96.355 35.346874 97.30813L34.315624 97.46438Q34.175 96.83938 33.8 96.52688Q33.425 96.19875 32.89375 96.19875Q32.096874 96.19875 31.596874 96.77688Q31.096874 97.33938 31.096874 98.57375Q31.096874 99.83938 31.58125 100.40188Q32.065624 100.96438 32.83125 100.96438Q33.45625 100.96438 33.8625 100.58938Q34.284374 100.21438 34.409374 99.4175ZM38.64375 100.76125L38.8 101.68313Q38.346874 101.77688 38.003124 101.77688Q37.425 101.77688 37.1125 101.605Q36.8 101.4175 36.659374 101.12063Q36.534374 100.82375 36.534374 99.87063L36.534374 96.2925L35.76875 96.2925L35.76875 95.48L36.534374 95.48L36.534374 93.93313L37.58125 93.30813L37.58125 95.48L38.64375 95.48L38.64375 96.2925L37.58125 96.2925L37.58125 99.93313Q37.58125 100.38625 37.628124 100.51125Q37.690624 100.63625 37.815624 100.71438Q37.940624 100.7925 38.175 100.7925Q38.3625 100.7925 38.64375 100.76125ZM38.95625 98.58938Q38.95625 96.855 39.909374 96.02688Q40.70625 95.33938 41.8625 95.33938Q43.14375 95.33938 43.95625 96.18313Q44.784374 97.01125 44.784374 98.49563Q44.784374 99.69875 44.425 100.38625Q44.065624 101.07375 43.3625 101.46438Q42.675 101.83938 41.8625 101.83938Q40.565624 101.83938 39.753124 101.01125Q38.95625 100.1675 38.95625 98.58938ZM40.034374 98.58938Q40.034374 99.77688 40.55 100.37063Q41.08125 100.96438 41.8625 100.96438Q42.659374 100.96438 43.175 100.37063Q43.690624 99.77688 43.690624 98.55813Q43.690624 97.40188 43.159374 96.80813Q42.64375 96.21438 41.8625 96.21438Q41.08125 96.21438 40.55 96.80813Q40.034374 97.38625 40.034374 98.58938ZM46.33125 101.69875L46.33125 95.48L47.284374 95.48L47.284374 96.4175Q47.64375 95.76125 47.940624 95.55813Q48.253124 95.33938 48.628124 95.33938Q49.159374 95.33938 49.70625 95.6675L49.346874 96.65188Q48.95625 96.4175 48.58125 96.4175Q48.221874 96.4175 47.940624 96.63625Q47.675 96.83938 47.565624 97.21438Q47.378124 97.77688 47.378124 98.43313L47.378124 101.69875L46.33125 101.69875Z" fill-rule="nonzero"/><path fill="#9e9e9e" d="M23.01875 118.69875L21.971874 118.69875L21.971874 111.98Q21.58125 112.33938 20.95625 112.71438Q20.346874 113.07375 19.8625 113.24563L19.8625 112.23Q20.7375 111.80813 21.39375 111.23Q22.065624 110.63625 22.346874 110.07375L23.01875 110.07375L23.01875 118.69875ZM31.51875 112.21438L30.471874 112.2925Q30.33125 111.6675 30.08125 111.38625Q29.64375 110.93313 29.01875 110.93313Q28.51875 110.93313 28.128124 111.21438Q27.64375 111.58938 27.346874 112.2925Q27.065624 112.98 27.05 114.26125Q27.425 113.68313 27.971874 113.40188Q28.534374 113.12063 29.14375 113.12063Q30.190624 113.12063 30.925 113.90188Q31.675 114.68313 31.675 115.90188Q31.675 116.71438 31.315624 117.4175Q30.971874 118.105 30.3625 118.48Q29.753124 118.83938 28.9875 118.83938Q27.659374 118.83938 26.83125 117.87063Q26.003124 116.90188 26.003124 114.68313Q26.003124 112.18313 26.925 111.05813Q27.721874 110.07375 29.08125 110.07375Q30.096874 110.07375 30.7375 110.65188Q31.39375 111.21438 31.51875 112.21438ZM27.221874 115.9175Q27.221874 116.46438 27.440624 116.96438Q27.675 117.44875 28.08125 117.71438Q28.503124 117.98 28.971874 117.98Q29.628124 117.98 30.1125 117.44875Q30.596874 116.90188 30.596874 115.98Q30.596874 115.08938 30.1125 114.57375Q29.64375 114.05813 28.925 114.05813Q28.20625 114.05813 27.70625 114.57375Q27.221874 115.08938 27.221874 115.9175ZM33.64375 118.69875L33.64375 117.49563L34.846874 117.49563L34.846874 118.69875L33.64375 118.69875ZM36.1125 111.23L36.1125 110.21438L41.675 110.21438L41.675 111.0425Q40.8625 111.9175 40.05 113.37063Q39.253124 114.80813 38.815624 116.33938Q38.4875 117.4175 38.409374 118.69875L37.315624 118.69875Q37.33125 117.68313 37.70625 116.24563Q38.096874 114.80813 38.8 113.48Q39.51875 112.15188 40.33125 111.23L36.1125 111.23ZM43.253124 112.1675Q43.253124 111.24563 43.70625 110.605Q44.175 109.96438 45.05 109.96438Q45.8625 109.96438 46.39375 110.5425Q46.925 111.12063 46.925 112.23Q46.925 113.32375 46.378124 113.9175Q45.846874 114.49563 45.065624 114.49563Q44.284374 114.49563 43.76875 113.9175Q43.253124 113.33938 43.253124 112.1675ZM45.08125 110.68313Q44.690624 110.68313 44.425 111.02688Q44.175 111.37063 44.175 112.27688Q44.175 113.105 44.425 113.44875Q44.690624 113.77688 45.08125 113.77688Q45.4875 113.77688 45.7375 113.43313Q46.003124 113.08938 46.003124 112.19875Q46.003124 111.355 45.7375 111.02688Q45.471874 110.68313 45.08125 110.68313ZM45.08125 119.01125L49.784374 109.96438L50.64375 109.96438L45.95625 119.01125L45.08125 119.01125ZM48.8 116.68313Q48.8 115.76125 49.253124 115.12063Q49.721874 114.48 50.6125 114.48Q51.425 114.48 51.95625 115.05813Q52.4875 115.62063 52.4875 116.74563Q52.4875 117.83938 51.940624 118.43313Q51.409374 119.01125 50.6125 119.01125Q49.846874 119.01125 49.315624 118.43313Q48.8 117.855 48.8 116.68313ZM50.64375 115.19875Q50.2375 115.19875 49.971874 115.5425Q49.721874 115.88625 49.721874 116.7925Q49.721874 117.605 49.9875 117.94875Q50.253124 118.2925 50.64375 118.2925Q51.034374 118.2925 51.3 117.94875Q51.565624 117.605 51.565624 116.69875Q51.565624 115.87063 51.3 115.5425Q51.034374 115.19875 50.64375 115.19875Z" fill-rule="nonzero"/><path stroke="#757575" stroke-width="1.0" stroke-linecap="butt" d="M18.55 106.19875L127.05 106.19875L162.64621 106.19875" fill-rule="nonzero"/><path fill="#9e9e9e" d="M164.64621 106.19875C164.64621 105.09418 163.75078 104.19875 162.64621 104.19875C161.54164 104.19875 160.64621 105.09418 160.64621 106.19875C160.64621 107.30332 161.54164 108.19875 162.64621 108.19875C163.75078 108.19875 164.64621 107.30332 164.64621 106.19875" fill-rule="nonzero"/><path fill="#1a1a1a" d="M18.89375 257.86374L19.925 257.7231Q19.95625 258.7075 20.284374 259.06686Q20.6125 259.42624 21.20625 259.42624Q21.628124 259.42624 21.940624 259.23874Q22.253124 259.0356 22.3625 258.7075Q22.4875 258.36374 22.4875 257.62936L22.4875 251.70749L23.6125 251.70749L23.6125 257.56686Q23.6125 258.645 23.346874 259.23874Q23.096874 259.8325 22.534374 260.145Q21.971874 260.44186 21.20625 260.44186Q20.08125 260.44186 19.471874 259.80124Q18.878124 259.145 18.89375 257.86374ZM24.95625 257.19186Q24.95625 255.45749 25.909374 254.62936Q26.70625 253.94186 27.8625 253.94186Q29.14375 253.94186 29.95625 254.78561Q30.784374 255.61374 30.784374 257.0981Q30.784374 258.30124 30.425 258.98874Q30.065624 259.67624 29.3625 260.06686Q28.675 260.44186 27.8625 260.44186Q26.565624 260.44186 25.753124 259.61374Q24.95625 258.77 24.95625 257.19186ZM26.034374 257.19186Q26.034374 258.37936 26.55 258.9731Q27.08125 259.56686 27.8625 259.56686Q28.659374 259.56686 29.175 258.9731Q29.690624 258.37936 29.690624 257.1606Q29.690624 256.00436 29.159374 255.41061Q28.64375 254.81686 27.8625 254.81686Q27.08125 254.81686 26.55 255.41061Q26.034374 255.98874 26.034374 257.19186ZM36.596874 258.30124L37.690624 258.42624Q37.440624 259.37936 36.7375 259.9106Q36.034374 260.44186 34.95625 260.44186Q33.596874 260.44186 32.784374 259.5981Q31.9875 258.75436 31.9875 257.23874Q31.9875 255.67624 32.8 254.81686Q33.6125 253.94186 34.89375 253.94186Q36.14375 253.94186 36.925 254.78561Q37.721874 255.62936 37.721874 257.17624Q37.721874 257.27 37.721874 257.4575L33.08125 257.4575Q33.14375 258.48874 33.659374 259.0356Q34.175 259.56686 34.95625 259.56686Q35.534374 259.56686 35.940624 259.27Q36.3625 258.9575 36.596874 258.30124ZM33.14375 256.5981L36.6125 256.5981Q36.55 255.80124 36.221874 255.41061Q35.70625 254.80124 34.909374 254.80124Q34.175 254.80124 33.675 255.28561Q33.190624 255.76999 33.14375 256.5981ZM39.3 262.69186L39.175 261.7075Q39.51875 261.80124 39.784374 261.80124Q40.128124 261.80124 40.33125 261.67624Q40.55 261.56686 40.690624 261.36374Q40.784374 261.19186 41.01875 260.56686Q41.034374 260.48874 41.1125 260.31686L38.7375 254.08249L39.878124 254.08249L41.175 257.67624Q41.425 258.36374 41.628124 259.12936Q41.815624 258.395 42.065624 257.7075L43.39375 254.08249L44.440624 254.08249L42.08125 260.4106Q41.690624 261.42624 41.4875 261.81686Q41.20625 262.3481 40.83125 262.5825Q40.471874 262.8325 39.971874 262.8325Q39.675 262.8325 39.3 262.69186Z" fill-rule="nonzero"/><path fill="#9e9e9e" d="M23.01875 277.30124L21.971874 277.30124L21.971874 270.5825Q21.58125 270.94186 20.95625 271.31686Q20.346874 271.67624 19.8625 271.8481L19.8625 270.8325Q20.7375 270.4106 21.39375 269.8325Q22.065624 269.23874 22.346874 268.67624L23.01875 268.67624L23.01875 277.30124ZM31.51875 270.81686L30.471874 270.895Q30.33125 270.27 30.08125 269.98874Q29.64375 269.5356 29.01875 269.5356Q28.51875 269.5356 28.128124 269.81686Q27.64375 270.19186 27.346874 270.895Q27.065624 271.5825 27.05 272.86374Q27.425 272.2856 27.971874 272.00436Q28.534374 271.7231 29.14375 271.7231Q30.190624 271.7231 30.925 272.50436Q31.675 273.2856 31.675 274.50436Q31.675 275.31686 31.315624 276.02Q30.971874 276.7075 30.3625 277.0825Q29.753124 277.44186 28.9875 277.44186Q27.659374 277.44186 26.83125 276.4731Q26.003124 275.50436 26.003124 273.2856Q26.003124 270.7856 26.925 269.6606Q27.721874 268.67624 29.08125 268.67624Q30.096874 268.67624 30.7375 269.25436Q31.39375 269.81686 31.51875 270.81686ZM27.221874 274.52Q27.221874 275.06686 27.440624 275.56686Q27.675 276.05124 28.08125 276.31686Q28.503124 276.5825 28.971874 276.5825Q29.628124 276.5825 30.1125 276.05124Q30.596874 275.50436 30.596874 274.5825Q30.596874 273.69186 30.1125 273.17624Q29.64375 272.6606 28.925 272.6606Q28.20625 272.6606 27.70625 273.17624Q27.221874 273.69186 27.221874 274.52ZM33.64375 277.30124L33.64375 276.0981L34.846874 276.0981L34.846874 277.30124L33.64375 277.30124ZM36.1125 269.8325L36.1125 268.81686L41.675 268.81686L41.675 269.645Q40.8625 270.52 40.05 271.9731Q39.253124 273.4106 38.815624 274.94186Q38.4875 276.02 38.409374 277.30124L37.315624 277.30124Q37.33125 276.2856 37.70625 274.8481Q38.096874 273.4106 38.8 272.0825Q39.51875 270.75436 40.33125 269.8325L36.1125 269.8325ZM43.253124 270.77Q43.253124 269.8481 43.70625 269.2075Q44.175 268.56686 45.05 268.56686Q45.8625 268.56686 46.39375 269.145Q46.925 269.7231 46.925 270.8325Q46.925 271.92624 46.378124 272.52Q45.846874 273.0981 45.065624 273.0981Q44.284374 273.0981 43.76875 272.52Q43.253124 271.94186 43.253124 270.77ZM45.08125 269.2856Q44.690624 269.2856 44.425 269.62936Q44.175 269.9731 44.175 270.87936Q44.175 271.7075 44.425 272.05124Q44.690624 272.37936 45.08125 272.37936Q45.4875 272.37936 45.7375 272.0356Q46.003124 271.69186 46.003124 270.80124Q46.003124 269.9575 45.7375 269.62936Q45.471874 269.2856 45.08125 269.2856ZM45.08125 277.61374L49.784374 268.56686L50.64375 268.56686L45.95625 277.61374L45.08125 277.61374ZM48.8 275.2856Q48.8 274.36374 49.253124 273.7231Q49.721874 273.0825 50.6125 273.0825Q51.425 273.0825 51.95625 273.6606Q52.4875 274.2231 52.4875 275.3481Q52.4875 276.44186 51.940624 277.0356Q51.409374 277.61374 50.6125 277.61374Q49.846874 277.61374 49.315624 277.0356Q48.8 276.4575 48.8 275.2856ZM50.64375 273.80124Q50.2375 273.80124 49.971874 274.145Q49.721874 274.48874 49.721874 275.395Q49.721874 276.2075 49.9875 276.55124Q50.253124 276.895 50.64375 276.895Q51.034374 276.895 51.3 276.55124Q51.565624 276.2075 51.565624 275.30124Q51.565624 274.4731 51.3 274.145Q51.034374 273.80124 50.64375 273.80124Z" fill-rule="nonzero"/><path stroke="#757575" stroke-width="1.0" stroke-linecap="butt" d="M18.55 264.80124L127.05 264.80124L162.64621 264.80124" fill-rule="nonzero"/><path fill="#9e9e9e" d="M164.64621 264.80124C164.64621 263.6967 163.75078 262.80124 162.64621 262.80124C161.54164 262.80124 160.64621 263.6967 160.64621 264.80124C160.64621 265.90582 161.54164 266.80124 162.64621 266.80124C163.75078 266.80124 164.64621 265.90582 164.64621 264.80124" fill-rule="nonzero"/><path fill="#1a1a1a" d="M559.34064 29.55L559.34064 20.95625L561.0594 20.95625L563.09064 27.034374Q563.3719 27.89375 563.4969 28.315624Q563.6375 27.846874 563.95 26.940624L566.0125 20.95625L567.54376 20.95625L567.54376 29.55L566.45 29.55L566.45 22.3625L563.95 29.55L562.91876 29.55L560.4344 22.2375L560.4344 29.55L559.34064 29.55ZM573.3094 28.784374Q572.71564 29.284374 572.16876 29.4875Q571.6375 29.690624 571.0125 29.690624Q569.98126 29.690624 569.4344 29.190624Q568.8875 28.690624 568.8875 27.909374Q568.8875 27.45625 569.09064 27.08125Q569.29376 26.690624 569.6375 26.471874Q569.98126 26.2375 570.40314 26.128124Q570.7 26.034374 571.34064 25.95625Q572.60626 25.815624 573.21564 25.596874Q573.21564 25.378124 573.21564 25.33125Q573.21564 24.675 572.91876 24.409374Q572.5125 24.065624 571.71564 24.065624Q570.98126 24.065624 570.6219 24.33125Q570.2625 24.58125 570.09064 25.2375L569.0594 25.096874Q569.2 24.440624 569.52814 24.034374Q569.85626 23.628124 570.46564 23.409374Q571.075 23.190624 571.8719 23.190624Q572.66876 23.190624 573.16876 23.378124Q573.66876 23.565624 573.90314 23.846874Q574.1375 24.128124 574.23126 24.565624Q574.27814 24.83125 574.27814 25.534374L574.27814 26.940624Q574.27814 28.409374 574.34064 28.8Q574.41876 29.190624 574.6219 29.55L573.5125 29.55Q573.35626 29.221874 573.3094 28.784374ZM573.21564 26.425Q572.6375 26.659374 571.4969 26.83125Q570.84064 26.925 570.575 27.05Q570.3094 27.159374 570.15314 27.378124Q570.0125 27.596874 570.0125 27.878124Q570.0125 28.3 570.325 28.58125Q570.65314 28.8625 571.2625 28.8625Q571.8719 28.8625 572.34064 28.596874Q572.825 28.33125 573.04376 27.8625Q573.21564 27.503124 573.21564 26.815624L573.21564 26.425ZM578.54376 28.6125L578.7 29.534374Q578.2469 29.628124 577.90314 29.628124Q577.325 29.628124 577.0125 29.45625Q576.7 29.26875 576.5594 28.971874Q576.4344 28.675 576.4344 27.721874L576.4344 24.14375L575.66876 24.14375L575.66876 23.33125L576.4344 23.33125L576.4344 21.784374L577.48126 21.159374L577.48126 23.33125L578.54376 23.33125L578.54376 24.14375L577.48126 24.14375L577.48126 27.784374Q577.48126 28.2375 577.52814 28.3625Q577.59064 28.4875 577.71564 28.565624Q577.84064 28.64375 578.075 28.64375Q578.2625 28.64375 578.54376 28.6125ZM581.54376 28.6125L581.7 29.534374Q581.2469 29.628124 580.90314 29.628124Q580.325 29.628124 580.0125 29.45625Q579.7 29.26875 579.5594 28.971874Q579.4344 28.675 579.4344 27.721874L579.4344 24.14375L578.66876 24.14375L578.66876 23.33125L579.4344 23.33125L579.4344 21.784374L580.48126 21.159374L580.48126 23.33125L581.54376 23.33125L581.54376 24.14375L580.48126 24.14375L580.48126 27.784374Q580.48126 28.2375 580.52814 28.3625Q580.59064 28.4875 580.71564 28.565624Q580.84064 28.64375 581.075 28.64375Q581.2625 28.64375 581.54376 28.6125Z" fill-rule="nonzero"/><path fill="#9e9e9e" d="M555.575 41.89375Q554.91876 41.64375 554.59064 41.20625Q554.27814 40.753124 554.27814 40.14375Q554.27814 39.20625 554.95 38.565624Q555.6375 37.925 556.7469 37.925Q557.8719 37.925 558.5594 38.58125Q559.2469 39.2375 559.2469 40.175Q559.2469 40.76875 558.9344 41.20625Q558.6219 41.64375 557.98126 41.89375Q558.77814 42.14375 559.1844 42.721874Q559.59064 43.3 559.59064 44.096874Q559.59064 45.190624 558.8094 45.940624Q558.04376 46.690624 556.7625 46.690624Q555.4969 46.690624 554.71564 45.940624Q553.9344 45.190624 553.9344 44.065624Q553.9344 43.221874 554.35626 42.659374Q554.79376 42.096874 555.575 41.89375ZM555.35626 40.096874Q555.35626 40.70625 555.7469 41.096874Q556.15314 41.4875 556.77814 41.4875Q557.3875 41.4875 557.77814 41.1125Q558.16876 40.721874 558.16876 40.159374Q558.16876 39.58125 557.7625 39.190624Q557.35626 38.784374 556.7625 38.784374Q556.15314 38.784374 555.7469 39.175Q555.35626 39.565624 555.35626 40.096874ZM555.02814 44.065624Q555.02814 44.51875 555.23126 44.940624Q555.45 45.3625 555.8719 45.596874Q556.29376 45.83125 556.77814 45.83125Q557.52814 45.83125 558.0125 45.346874Q558.5125 44.8625 558.5125 44.1125Q558.5125 43.346874 558.0125 42.846874Q557.5125 42.346874 556.7469 42.346874Q555.9969 42.346874 555.5125 42.846874Q555.02814 43.33125 555.02814 44.065624ZM561.54376 46.55L561.54376 45.346874L562.7469 45.346874L562.7469 46.55L561.54376 46.55ZM563.95 44.284374L565.0125 44.14375Q565.1844 45.034374 565.6219 45.440624Q566.0594 45.83125 566.6844 45.83125Q567.4344 45.83125 567.95 45.315624Q568.46564 44.8 568.46564 44.034374Q568.46564 43.315624 567.98126 42.846874Q567.5125 42.3625 566.77814 42.3625Q566.48126 42.3625 566.02814 42.4875L566.15314 41.55Q566.2625 41.565624 566.325 41.565624Q566.9969 41.565624 567.52814 41.221874Q568.075 40.8625 568.075 40.128124Q568.075 39.55 567.6844 39.175Q567.29376 38.784374 566.66876 38.784374Q566.0594 38.784374 565.6375 39.175Q565.23126 39.565624 565.1219 40.33125L564.0594 40.14375Q564.2469 39.096874 564.9344 38.51875Q565.6219 37.925 566.6375 37.925Q567.34064 37.925 567.9344 38.2375Q568.52814 38.534374 568.84064 39.05Q569.15314 39.565624 569.15314 40.159374Q569.15314 40.70625 568.85626 41.175Q568.5594 41.628124 567.98126 41.89375Q568.73126 42.065624 569.15314 42.628124Q569.575 43.175 569.575 44.01875Q569.575 45.14375 568.7469 45.925Q567.9344 46.70625 566.6844 46.70625Q565.5594 46.70625 564.8094 46.034374Q564.0594 45.346874 563.95 44.284374ZM571.15314 40.01875Q571.15314 39.096874 571.60626 38.45625Q572.075 37.815624 572.95 37.815624Q573.7625 37.815624 574.29376 38.39375Q574.825 38.971874 574.825 40.08125Q574.825 41.175 574.27814 41.76875Q573.7469 42.346874 572.96564 42.346874Q572.1844 42.346874 571.66876 41.76875Q571.15314 41.190624 571.15314 40.01875ZM572.98126 38.534374Q572.59064 38.534374 572.325 38.878124Q572.075 39.221874 572.075 40.128124Q572.075 40.95625 572.325 41.3Q572.59064 41.628124 572.98126 41.628124Q573.3875 41.628124 573.6375 41.284374Q573.90314 40.940624 573.90314 40.05Q573.90314 39.20625 573.6375 38.878124Q573.3719 38.534374 572.98126 38.534374ZM572.98126 46.8625L577.6844 37.815624L578.54376 37.815624L573.85626 46.8625L572.98126 46.8625ZM576.7 44.534374Q576.7 43.6125 577.15314 42.971874Q577.6219 42.33125 578.5125 42.33125Q579.325 42.33125 579.85626 42.909374Q580.3875 43.471874 580.3875 44.596874Q580.3875 45.690624 579.84064 46.284374Q579.3094 46.8625 578.5125 46.8625Q577.7469 46.8625 577.21564 46.284374Q576.7 45.70625 576.7 44.534374ZM578.54376 43.05Q578.1375 43.05 577.8719 43.39375Q577.6219 43.7375 577.6219 44.64375Q577.6219 45.45625 577.8875 45.8Q578.15314 46.14375 578.54376 46.14375Q578.9344 46.14375 579.2 45.8Q579.46564 45.45625 579.46564 44.55Q579.46564 43.721874 579.2 43.39375Q578.9344 43.05 578.54376 43.05Z" fill-rule="nonzero"/><path stroke="#757575" stroke-width="1.0" stroke-linecap="butt" d="M581.45 34.05L472.95 34.05L341.04935 32.30175" fill-rule="nonzero"/><path fill="#9e9e9e" d="M343.04935 32.30175C343.04935 31.19718 342.15393 30.301748 341.04935 30.301748C339.94476 30.301748 339.04935 31.19718 339.04935 32.30175C339.04935 33.40632 339.94476 34.30175 341.04935 34.30175C342.15393 34.30175 343.04935 33.40632 343.04935 32.30175" fill-rule="nonzero"/><path fill="#1a1a1a" d="M556.9969 98.93313L558.0594 98.83938Q558.1375 99.49563 558.41876 99.90188Q558.7 100.30813 559.27814 100.57375Q559.8719 100.82375 560.60626 100.82375Q561.2469 100.82375 561.7469 100.63625Q562.2469 100.43313 562.48126 100.105Q562.73126 99.76125 562.73126 99.37063Q562.73126 98.96438 562.4969 98.6675Q562.2625 98.355 561.73126 98.15188Q561.3719 98.01125 560.1844 97.73Q559.0125 97.44875 558.54376 97.19875Q557.91876 96.87063 557.6219 96.40188Q557.325 95.9175 557.325 95.32375Q557.325 94.68313 557.6844 94.12063Q558.0594 93.5425 558.7625 93.26125Q559.48126 92.96438 560.34064 92.96438Q561.29376 92.96438 562.02814 93.27688Q562.7625 93.57375 563.15314 94.18313Q563.54376 94.77688 563.575 95.52688L562.48126 95.605Q562.3875 94.7925 561.8719 94.38625Q561.3719 93.96438 560.3875 93.96438Q559.35626 93.96438 558.8875 94.33938Q558.41876 94.71438 558.41876 95.24563Q558.41876 95.71438 558.7469 96.01125Q559.075 96.30813 560.45 96.62063Q561.84064 96.93313 562.35626 97.1675Q563.10626 97.52688 563.46564 98.05813Q563.825 98.57375 563.825 99.27688Q563.825 99.96438 563.4344 100.57375Q563.04376 101.1675 562.3094 101.51125Q561.575 101.83938 560.65314 101.83938Q559.48126 101.83938 558.6844 101.51125Q557.90314 101.1675 557.45 100.48Q557.0125 99.7925 556.9969 98.93313ZM569.3094 100.93313Q568.71564 101.43313 568.16876 101.63625Q567.6375 101.83938 567.0125 101.83938Q565.98126 101.83938 565.4344 101.33938Q564.8875 100.83938 564.8875 100.05813Q564.8875 99.605 565.09064 99.23Q565.29376 98.83938 565.6375 98.62063Q565.98126 98.38625 566.40314 98.27688Q566.7 98.18313 567.34064 98.105Q568.60626 97.96438 569.21564 97.74563Q569.21564 97.52688 569.21564 97.48Q569.21564 96.82375 568.91876 96.55813Q568.5125 96.21438 567.71564 96.21438Q566.98126 96.21438 566.6219 96.48Q566.2625 96.73 566.09064 97.38625L565.0594 97.24563Q565.2 96.58938 565.52814 96.18313Q565.85626 95.77688 566.46564 95.55813Q567.075 95.33938 567.8719 95.33938Q568.66876 95.33938 569.16876 95.52688Q569.66876 95.71438 569.90314 95.99563Q570.1375 96.27688 570.23126 96.71438Q570.27814 96.98 570.27814 97.68313L570.27814 99.08938Q570.27814 100.55813 570.34064 100.94875Q570.41876 101.33938 570.6219 101.69875L569.5125 101.69875Q569.35626 101.37063 569.3094 100.93313ZM569.21564 98.57375Q568.6375 98.80813 567.4969 98.98Q566.84064 99.07375 566.575 99.19875Q566.3094 99.30813 566.15314 99.52688Q566.0125 99.74563 566.0125 100.02688Q566.0125 100.44875 566.325 100.73Q566.65314 101.01125 567.2625 101.01125Q567.8719 101.01125 568.34064 100.74563Q568.825 100.48 569.04376 100.01125Q569.21564 99.65188 569.21564 98.96438L569.21564 98.57375ZM572.2469 101.69875L572.2469 95.48L573.1844 95.48L573.1844 96.355Q573.48126 95.88625 573.96564 95.62063Q574.45 95.33938 575.075 95.33938Q575.7625 95.33938 576.2 95.62063Q576.65314 95.90188 576.825 96.4175Q577.575 95.33938 578.7469 95.33938Q579.6844 95.33938 580.16876 95.855Q580.66876 96.355 580.66876 97.43313L580.66876 101.69875L579.6219 101.69875L579.6219 97.77688Q579.6219 97.15188 579.5125 96.87063Q579.41876 96.58938 579.15314 96.4175Q578.8875 96.24563 578.5125 96.24563Q577.85626 96.24563 577.41876 96.68313Q576.9969 97.12063 576.9969 98.08938L576.9969 101.69875L575.9344 101.69875L575.9344 97.65188Q575.9344 96.94875 575.66876 96.605Q575.41876 96.24563 574.84064 96.24563Q574.3875 96.24563 574.0125 96.48Q573.6375 96.71438 573.46564 97.1675Q573.29376 97.62063 573.29376 98.46438L573.29376 101.69875L572.2469 101.69875Z" fill-rule="nonzero"/><path fill="#9e9e9e" d="M550.91876 118.69875L549.8719 118.69875L549.8719 111.98Q549.48126 112.33938 548.85626 112.71438Q548.2469 113.07375 547.7625 113.24563L547.7625 112.23Q548.6375 111.80813 549.29376 111.23Q549.96564 110.63625 550.2469 110.07375L550.91876 110.07375L550.91876 118.69875ZM559.41876 112.21438L558.3719 112.2925Q558.23126 111.6675 557.98126 111.38625Q557.54376 110.93313 556.91876 110.93313Q556.41876 110.93313 556.02814 111.21438Q555.54376 111.58938 555.2469 112.2925Q554.96564 112.98 554.95 114.26125Q555.325 113.68313 555.8719 113.40188Q556.4344 113.12063 557.04376 113.12063Q558.09064 113.12063 558.825 113.90188Q559.575 114.68313 559.575 115.90188Q559.575 116.71438 559.21564 117.4175Q558.8719 118.105 558.2625 118.48Q557.65314 118.83938 556.8875 118.83938Q555.5594 118.83938 554.73126 117.87063Q553.90314 116.90188 553.90314 114.68313Q553.90314 112.18313 554.825 111.05813Q555.6219 110.07375 556.98126 110.07375Q557.9969 110.07375 558.6375 110.65188Q559.29376 111.21438 559.41876 112.21438ZM555.1219 115.9175Q555.1219 116.46438 555.34064 116.96438Q555.575 117.44875 555.98126 117.71438Q556.40314 117.98 556.8719 117.98Q557.52814 117.98 558.0125 117.44875Q558.4969 116.90188 558.4969 115.98Q558.4969 115.08938 558.0125 114.57375Q557.54376 114.05813 556.825 114.05813Q556.10626 114.05813 555.60626 114.57375Q555.1219 115.08938 555.1219 115.9175ZM561.54376 118.69875L561.54376 117.49563L562.7469 117.49563L562.7469 118.69875L561.54376 118.69875ZM564.0125 111.23L564.0125 110.21438L569.575 110.21438L569.575 111.0425Q568.7625 111.9175 567.95 113.37063Q567.15314 114.80813 566.71564 116.33938Q566.3875 117.4175 566.3094 118.69875L565.21564 118.69875Q565.23126 117.68313 565.60626 116.24563Q565.9969 114.80813 566.7 113.48Q567.41876 112.15188 568.23126 111.23L564.0125 111.23ZM571.15314 112.1675Q571.15314 111.24563 571.60626 110.605Q572.075 109.96438 572.95 109.96438Q573.7625 109.96438 574.29376 110.5425Q574.825 111.12063 574.825 112.23Q574.825 113.32375 574.27814 113.9175Q573.7469 114.49563 572.96564 114.49563Q572.1844 114.49563 571.66876 113.9175Q571.15314 113.33938 571.15314 112.1675ZM572.98126 110.68313Q572.59064 110.68313 572.325 111.02688Q572.075 111.37063 572.075 112.27688Q572.075 113.105 572.325 113.44875Q572.59064 113.77688 572.98126 113.77688Q573.3875 113.77688 573.6375 113.43313Q573.90314 113.08938 573.90314 112.19875Q573.90314 111.355 573.6375 111.02688Q573.3719 110.68313 572.98126 110.68313ZM572.98126 119.01125L577.6844 109.96438L578.54376 109.96438L573.85626 119.01125L572.98126 119.01125ZM576.7 116.68313Q576.7 115.76125 577.15314 115.12063Q577.6219 114.48 578.5125 114.48Q579.325 114.48 579.85626 115.05813Q580.3875 115.62063 580.3875 116.74563Q580.3875 117.83938 579.84064 118.43313Q579.3094 119.01125 578.5125 119.01125Q577.7469 119.01125 577.21564 118.43313Q576.7 117.855 576.7 116.68313ZM578.54376 115.19875Q578.1375 115.19875 577.8719 115.5425Q577.6219 115.88625 577.6219 116.7925Q577.6219 117.605 577.8875 117.94875Q578.15314 118.2925 578.54376 118.2925Q578.9344 118.2925 579.2 117.94875Q579.46564 117.605 579.46564 116.69875Q579.46564 115.87063 579.2 115.5425Q578.9344 115.19875 578.54376 115.19875Z" fill-rule="nonzero"/><path stroke="#757575" stroke-width="1.0" stroke-linecap="butt" d="M581.45 106.19875L472.95 106.19875L437.3538 106.19875" fill-rule="nonzero"/><path fill="#9e9e9e" d="M439.3538 106.19875C439.3538 105.09418 438.45837 104.19875 437.3538 104.19875C436.24924 104.19875 435.3538 105.09418 435.3538 106.19875C435.3538 107.30332 436.24924 108.19875 437.3538 108.19875C438.45837 108.19875 439.3538 107.30332 439.3538 106.19875" fill-rule="nonzero"/><path fill="#1a1a1a" d="M561.79376 257.86374L562.825 257.7231Q562.85626 258.7075 563.1844 259.06686Q563.5125 259.42624 564.10626 259.42624Q564.52814 259.42624 564.84064 259.23874Q565.15314 259.0356 565.2625 258.7075Q565.3875 258.36374 565.3875 257.62936L565.3875 251.70749L566.5125 251.70749L566.5125 257.56686Q566.5125 258.645 566.2469 259.23874Q565.9969 259.8325 565.4344 260.145Q564.8719 260.44186 564.10626 260.44186Q562.98126 260.44186 562.3719 259.80124Q561.77814 259.145 561.79376 257.86374ZM567.85626 257.19186Q567.85626 255.45749 568.8094 254.62936Q569.60626 253.94186 570.7625 253.94186Q572.04376 253.94186 572.85626 254.78561Q573.6844 255.61374 573.6844 257.0981Q573.6844 258.30124 573.325 258.98874Q572.96564 259.67624 572.2625 260.06686Q571.575 260.44186 570.7625 260.44186Q569.46564 260.44186 568.65314 259.61374Q567.85626 258.77 567.85626 257.19186ZM568.9344 257.19186Q568.9344 258.37936 569.45 258.9731Q569.98126 259.56686 570.7625 259.56686Q571.5594 259.56686 572.075 258.9731Q572.59064 258.37936 572.59064 257.1606Q572.59064 256.00436 572.0594 255.41061Q571.54376 254.81686 570.7625 254.81686Q569.98126 254.81686 569.45 255.41061Q568.9344 255.98874 568.9344 257.19186ZM579.4969 258.30124L580.59064 258.42624Q580.34064 259.37936 579.6375 259.9106Q578.9344 260.44186 577.85626 260.44186Q576.4969 260.44186 575.6844 259.5981Q574.8875 258.75436 574.8875 257.23874Q574.8875 255.67624 575.7 254.81686Q576.5125 253.94186 577.79376 253.94186Q579.04376 253.94186 579.825 254.78561Q580.6219 255.62936 580.6219 257.17624Q580.6219 257.27 580.6219 257.4575L575.98126 257.4575Q576.04376 258.48874 576.5594 259.0356Q577.075 259.56686 577.85626 259.56686Q578.4344 259.56686 578.84064 259.27Q579.2625 258.9575 579.4969 258.30124ZM576.04376 256.5981L579.5125 256.5981Q579.45 255.80124 579.1219 255.41061Q578.60626 254.80124 577.8094 254.80124Q577.075 254.80124 576.575 255.28561Q576.09064 255.76999 576.04376 256.5981Z" fill-rule="nonzero"/><path fill="#9e9e9e" d="M550.91876 277.30124L549.8719 277.30124L549.8719 270.5825Q549.48126 270.94186 548.85626 271.31686Q548.2469 271.67624 547.7625 271.8481L547.7625 270.8325Q548.6375 270.4106 549.29376 269.8325Q549.96564 269.23874 550.2469 268.67624L550.91876 268.67624L550.91876 277.30124ZM559.41876 270.81686L558.3719 270.895Q558.23126 270.27 557.98126 269.98874Q557.54376 269.5356 556.91876 269.5356Q556.41876 269.5356 556.02814 269.81686Q555.54376 270.19186 555.2469 270.895Q554.96564 271.5825 554.95 272.86374Q555.325 272.2856 555.8719 272.00436Q556.4344 271.7231 557.04376 271.7231Q558.09064 271.7231 558.825 272.50436Q559.575 273.2856 559.575 274.50436Q559.575 275.31686 559.21564 276.02Q558.8719 276.7075 558.2625 277.0825Q557.65314 277.44186 556.8875 277.44186Q555.5594 277.44186 554.73126 276.4731Q553.90314 275.50436 553.90314 273.2856Q553.90314 270.7856 554.825 269.6606Q555.6219 268.67624 556.98126 268.67624Q557.9969 268.67624 558.6375 269.25436Q559.29376 269.81686 559.41876 270.81686ZM555.1219 274.52Q555.1219 275.06686 555.34064 275.56686Q555.575 276.05124 555.98126 276.31686Q556.40314 276.5825 556.8719 276.5825Q557.52814 276.5825 558.0125 276.05124Q558.4969 275.50436 558.4969 274.5825Q558.4969 273.69186 558.0125 273.17624Q557.54376 272.6606 556.825 272.6606Q556.10626 272.6606 555.60626 273.17624Q555.1219 273.69186 555.1219 274.52ZM561.54376 277.30124L561.54376 276.0981L562.7469 276.0981L562.7469 277.30124L561.54376 277.30124ZM564.0125 269.8325L564.0125 268.81686L569.575 268.81686L569.575 269.645Q568.7625 270.52 567.95 271.9731Q567.15314 273.4106 566.71564 274.94186Q566.3875 276.02 566.3094 277.30124L565.21564 277.30124Q565.23126 276.2856 565.60626 274.8481Q565.9969 273.4106 566.7 272.0825Q567.41876 270.75436 568.23126 269.8325L564.0125 269.8325ZM571.15314 270.77Q571.15314 269.8481 571.60626 269.2075Q572.075 268.56686 572.95 268.56686Q573.7625 268.56686 574.29376 269.145Q574.825 269.7231 574.825 270.8325Q574.825 271.92624 574.27814 272.52Q573.7469 273.0981 572.96564 273.0981Q572.1844 273.0981 571.66876 272.52Q571.15314 271.94186 571.15314 270.77ZM572.98126 269.2856Q572.59064 269.2856 572.325 269.62936Q572.075 269.9731 572.075 270.87936Q572.075 271.7075 572.325 272.05124Q572.59064 272.37936 572.98126 272.37936Q573.3875 272.37936 573.6375 272.0356Q573.90314 271.69186 573.90314 270.80124Q573.90314 269.9575 573.6375 269.62936Q573.3719 269.2856 572.98126 269.2856ZM572.98126 277.61374L577.6844 268.56686L578.54376 268.56686L573.85626 277.61374L572.98126 277.61374ZM576.7 275.2856Q576.7 274.36374 577.15314 273.7231Q577.6219 273.0825 578.5125 273.0825Q579.325 273.0825 579.85626 273.6606Q580.3875 274.2231 580.3875 275.3481Q580.3875 276.44186 579.84064 277.0356Q579.3094 277.61374 578.5125 277.61374Q577.7469 277.61374 577.21564 277.0356Q576.7 276.4575 576.7 275.2856ZM578.54376 273.80124Q578.1375 273.80124 577.8719 274.145Q577.6219 274.48874 577.6219 275.395Q577.6219 276.2075 577.8875 276.55124Q578.15314 276.895 578.54376 276.895Q578.9344 276.895 579.2 276.55124Q579.46564 276.2075 579.46564 275.30124Q579.46564 274.4731 579.2 274.145Q578.9344 273.80124 578.54376 273.80124Z" fill-rule="nonzero"/><path stroke="#757575" stroke-width="1.0" stroke-linecap="butt" d="M581.45 264.80124L472.95 264.80124L437.3538 264.80124" fill-rule="nonzero"/><path fill="#9e9e9e" d="M439.3538 264.80124C439.3538 263.6967 438.45837 262.80124 437.3538 262.80124C436.24924 262.80124 435.3538 263.6967 435.3538 264.80124C435.3538 265.90582 436.24924 266.80124 437.3538 266.80124C438.45837 266.80124 439.3538 265.90582 439.3538 264.80124" fill-rule="nonzero"/><path fill="#1a1a1a" d="M549.79376 330.0125L550.825 329.8719Q550.85626 330.85626 551.1844 331.21564Q551.5125 331.575 552.10626 331.575Q552.52814 331.575 552.84064 331.3875Q553.15314 331.1844 553.2625 330.85626Q553.3875 330.5125 553.3875 329.77814L553.3875 323.85626L554.5125 323.85626L554.5125 329.71564Q554.5125 330.79376 554.2469 331.3875Q553.9969 331.98126 553.4344 332.29376Q552.8719 332.59064 552.10626 332.59064Q550.98126 332.59064 550.3719 331.95Q549.77814 331.29376 549.79376 330.0125ZM560.325 332.45L560.325 331.52814Q559.59064 332.59064 558.34064 332.59064Q557.79376 332.59064 557.3094 332.3875Q556.84064 332.16876 556.60626 331.85626Q556.3719 331.52814 556.27814 331.0594Q556.21564 330.7625 556.21564 330.075L556.21564 326.23126L557.27814 326.23126L557.27814 329.6844Q557.27814 330.4969 557.34064 330.79376Q557.4344 331.2 557.7469 331.45Q558.075 331.6844 558.5594 331.6844Q559.02814 331.6844 559.4344 331.45Q559.85626 331.2 560.02814 330.77814Q560.21564 330.35626 560.21564 329.5594L560.21564 326.23126L561.2625 326.23126L561.2625 332.45L560.325 332.45ZM562.825 330.59064L563.85626 330.4344Q563.95 331.0594 564.34064 331.3875Q564.7469 331.71564 565.48126 331.71564Q566.2 331.71564 566.54376 331.4344Q566.90314 331.1375 566.90314 330.73126Q566.90314 330.3719 566.59064 330.16876Q566.3719 330.02814 565.5125 329.8094Q564.35626 329.5125 563.90314 329.3094Q563.46564 329.09064 563.23126 328.71564Q562.9969 328.34064 562.9969 327.8719Q562.9969 327.46564 563.1844 327.10626Q563.3719 326.7469 563.7 326.5125Q563.95 326.34064 564.3719 326.21564Q564.79376 326.09064 565.29376 326.09064Q566.0125 326.09064 566.5594 326.3094Q567.1219 326.5125 567.3875 326.8719Q567.65314 327.23126 567.7469 327.825L566.71564 327.96564Q566.65314 327.4969 566.3094 327.23126Q565.98126 326.95 565.35626 326.95Q564.6375 326.95 564.325 327.2Q564.0125 327.4344 564.0125 327.7625Q564.0125 327.96564 564.1375 328.1219Q564.27814 328.29376 564.54376 328.40314Q564.7 328.46564 565.48126 328.66876Q566.60626 328.98126 567.04376 329.16876Q567.48126 329.35626 567.73126 329.71564Q567.98126 330.075 567.98126 330.6219Q567.98126 331.15314 567.66876 331.6219Q567.3719 332.075 566.79376 332.34064Q566.21564 332.59064 565.48126 332.59064Q564.2625 332.59064 563.6219 332.09064Q562.9969 331.575 562.825 330.59064ZM571.54376 331.5125L571.7 332.4344Q571.2469 332.52814 570.90314 332.52814Q570.325 332.52814 570.0125 332.35626Q569.7 332.16876 569.5594 331.8719Q569.4344 331.575 569.4344 330.6219L569.4344 327.04376L568.66876 327.04376L568.66876 326.23126L569.4344 326.23126L569.4344 324.6844L570.48126 324.0594L570.48126 326.23126L571.54376 326.23126L571.54376 327.04376L570.48126 327.04376L570.48126 330.6844Q570.48126 331.1375 570.52814 331.2625Q570.59064 331.3875 570.71564 331.46564Q570.84064 331.54376 571.075 331.54376Q571.2625 331.54376 571.54376 331.5125ZM572.2469 325.075L572.2469 323.85626L573.3094 323.85626L573.3094 325.075L572.2469 325.075ZM572.2469 332.45L572.2469 326.23126L573.3094 326.23126L573.3094 332.45L572.2469 332.45ZM575.2469 332.45L575.2469 326.23126L576.1844 326.23126L576.1844 327.10626Q576.8719 326.09064 578.16876 326.09064Q578.73126 326.09064 579.2 326.29376Q579.6844 326.4969 579.91876 326.825Q580.15314 327.15314 580.2469 327.59064Q580.29376 327.8875 580.29376 328.6219L580.29376 332.45L579.2469 332.45L579.2469 328.66876Q579.2469 328.0125 579.1219 327.7Q578.9969 327.3875 578.6844 327.2Q578.3719 326.9969 577.95 326.9969Q577.27814 326.9969 576.77814 327.4344Q576.29376 327.85626 576.29376 329.04376L576.29376 332.45L575.2469 332.45Z" fill-rule="nonzero"/><path fill="#9e9e9e" d="M550.91876 349.45L549.8719 349.45L549.8719 342.73126Q549.48126 343.09064 548.85626 343.46564Q548.2469 343.825 547.7625 343.9969L547.7625 342.98126Q548.6375 342.5594 549.29376 341.98126Q549.96564 341.3875 550.2469 340.825L550.91876 340.825L550.91876 349.45ZM559.41876 342.96564L558.3719 343.04376Q558.23126 342.41876 557.98126 342.1375Q557.54376 341.6844 556.91876 341.6844Q556.41876 341.6844 556.02814 341.96564Q555.54376 342.34064 555.2469 343.04376Q554.96564 343.73126 554.95 345.0125Q555.325 344.4344 555.8719 344.15314Q556.4344 343.8719 557.04376 343.8719Q558.09064 343.8719 558.825 344.65314Q559.575 345.4344 559.575 346.65314Q559.575 347.46564 559.21564 348.16876Q558.8719 348.85626 558.2625 349.23126Q557.65314 349.59064 556.8875 349.59064Q555.5594 349.59064 554.73126 348.6219Q553.90314 347.65314 553.90314 345.4344Q553.90314 342.9344 554.825 341.8094Q555.6219 340.825 556.98126 340.825Q557.9969 340.825 558.6375 341.40314Q559.29376 341.96564 559.41876 342.96564ZM555.1219 346.66876Q555.1219 347.21564 555.34064 347.71564Q555.575 348.2 555.98126 348.46564Q556.40314 348.73126 556.8719 348.73126Q557.52814 348.73126 558.0125 348.2Q558.4969 347.65314 558.4969 346.73126Q558.4969 345.84064 558.0125 345.325Q557.54376 344.8094 556.825 344.8094Q556.10626 344.8094 555.60626 345.325Q555.1219 345.84064 555.1219 346.66876ZM561.54376 349.45L561.54376 348.2469L562.7469 348.2469L562.7469 349.45L561.54376 349.45ZM564.0125 341.98126L564.0125 340.96564L569.575 340.96564L569.575 341.79376Q568.7625 342.66876 567.95 344.1219Q567.15314 345.5594 566.71564 347.09064Q566.3875 348.16876 566.3094 349.45L565.21564 349.45Q565.23126 348.4344 565.60626 346.9969Q565.9969 345.5594 566.7 344.23126Q567.41876 342.90314 568.23126 341.98126L564.0125 341.98126ZM571.15314 342.91876Q571.15314 341.9969 571.60626 341.35626Q572.075 340.71564 572.95 340.71564Q573.7625 340.71564 574.29376 341.29376Q574.825 341.8719 574.825 342.98126Q574.825 344.075 574.27814 344.66876Q573.7469 345.2469 572.96564 345.2469Q572.1844 345.2469 571.66876 344.66876Q571.15314 344.09064 571.15314 342.91876ZM572.98126 341.4344Q572.59064 341.4344 572.325 341.77814Q572.075 342.1219 572.075 343.02814Q572.075 343.85626 572.325 344.2Q572.59064 344.52814 572.98126 344.52814Q573.3875 344.52814 573.6375 344.1844Q573.90314 343.84064 573.90314 342.95Q573.90314 342.10626 573.6375 341.77814Q573.3719 341.4344 572.98126 341.4344ZM572.98126 349.7625L577.6844 340.71564L578.54376 340.71564L573.85626 349.7625L572.98126 349.7625ZM576.7 347.4344Q576.7 346.5125 577.15314 345.8719Q577.6219 345.23126 578.5125 345.23126Q579.325 345.23126 579.85626 345.8094Q580.3875 346.3719 580.3875 347.4969Q580.3875 348.59064 579.84064 349.1844Q579.3094 349.7625 578.5125 349.7625Q577.7469 349.7625 577.21564 349.1844Q576.7 348.60626 576.7 347.4344ZM578.54376 345.95Q578.1375 345.95 577.8719 346.29376Q577.6219 346.6375 577.6219 347.54376Q577.6219 348.35626 577.8875 348.7Q578.15314 349.04376 578.54376 349.04376Q578.9344 349.04376 579.2 348.7Q579.46564 348.35626 579.46564 347.45Q579.46564 346.6219 579.2 346.29376Q578.9344 345.95 578.54376 345.95Z" fill-rule="nonzero"/><path stroke="#757575" stroke-width="1.0" stroke-linecap="butt" d="M581.45 336.95L472.95 336.95L300.0 344.1025" fill-rule="nonzero"/><path fill="#9e9e9e" d="M302.0 344.1025C302.0 342.99792 301.10458 342.1025 300.0 342.1025C298.89542 342.1025 298.0 342.99792 298.0 344.1025C298.0 345.20706 298.89542 346.1025 300.0 346.1025C301.10458 346.1025 302.0 345.20706 302.0 344.1025" fill-rule="nonzero"/></svg>