<svg version="1.1" viewBox="0.0 0.0 600.0 371.0" fill="none" stroke="none" stroke-linecap="square" stroke-miterlimit="10" width="600" height="371" xmlns:xlink="http://www.w3.org/1999/xlink" xmlns="http://www.w3.org/2000/svg"><path fill="#ffffff" d="M0 0L600.0 0L600.0 371.0L0 371.0L0 0Z" fill-rule="nonzero"/><path stroke="#333333" stroke-width="1.0" stroke-linecap="butt" d="M137.5 18.5L137.5 300.5" fill-rule="nonzero"/><path stroke="#cccccc" stroke-width="1.0" stroke-linecap="butt" d="M225.5 18.5L225.5 300.5" fill-rule="nonzero"/><path stroke="#cccccc" stroke-width="1.0" stroke-linecap="butt" d="M314.5 18.5L314.5 300.5" fill-rule="nonzero"/><path stroke="#cccccc" stroke-width="1.0" stroke-linecap="butt" d="M403.5 18.5L403.5 300.5" fill-rule="nonzero"/><path stroke="#cccccc" stroke-width="1.0" stroke-linecap="butt" d="M492.5 18.5L492.5 300.5" fill-rule="nonzero"/><path stroke="#cccccc" stroke-width="1.0" stroke-linecap="butt" d="M581.5 18.5L581.5 300.5" fill-rule="nonzero"/><clipPath id="id_0"><path d="M137.13 18.55L581.45 18.55L581.45 300.45L137.13 300.45L137.13 18.55Z" clip-rule="nonzero"/></clipPath><path stroke="#000000" stroke-width="0.0" stroke-linecap="butt" stroke-opacity="0.0" clip-path="url(#id_0)" d="M137.0 64.0L137.0 35.0L357.0 35.0C358.10458 35.0 359.0 35.89543 359.0 37.0L359.0 62.0C359.0 63.10457 358.10458 64.0 357.0 64.0Z" fill-rule="nonzero"/><path fill="#4285f4" clip-path="url(#id_0)" d="M137.0 64.0L137.0 35.0L357.0 35.0C358.10458 35.0 359.0 35.89543 359.0 37.0L359.0 62.0C359.0 63.10457 358.10458 64.0 357.0 64.0Z" fill-rule="nonzero"/><path stroke="#000000" stroke-width="0.0" stroke-linecap="butt" stroke-opacity="0.0" clip-path="url(#id_0)" d="M137.0 108.0L137.0 79.0L446.0 79.0C447.10458 79.0 448.0 79.89543 448.0 81.0L448.0 106.0C448.0 107.10457 447.10458 108.0 446.0 108.0Z" fill-rule="nonzero"/><path fill="#4285f4" clip-path="url(#id_0)" d="M137.0 108.0L137.0 79.0L446.0 79.0C447.10458 79.0 448.0 79.89543 448.0 81.0L448.0 106.0C448.0 107.10457 447.10458 108.0 446.0 108.0Z" fill-rule="nonzero"/><path stroke="#000000" stroke-width="0.0" stroke-linecap="butt" stroke-opacity="0.0" clip-path="url(#id_0)" d="M137.0 152.0L137.0 123.0L535.0 123.0C536.10455 123.0 537.0 123.89543 537.0 125.0L537.0 150.0C537.0 151.10457 536.10455 152.0 535.0 152.0Z" fill-rule="nonzero"/><path fill="#4285f4" clip-path="url(#id_0)" d="M137.0 152.0L137.0 123.0L535.0 123.0C536.10455 123.0 537.0 123.89543 537.0 125.0L537.0 150.0C537.0 151.10457 536.10455 152.0 535.0 152.0Z" fill-rule="nonzero"/><path stroke="#000000" stroke-width="0.0" stroke-linecap="butt" stroke-opacity="0.0" clip-path="url(#id_0)" d="M137.0 197.0L137.0 168.0L268.0 168.0C269.10458 168.0 270.0 168.89543 270.0 170.0L270.0 195.0C270.0 196.10457 269.10458 197.0 268.0 197.0Z" fill-rule="nonzero"/><path fill="#4285f4" clip-path="url(#id_0)" d="M137.0 197.0L137.0 168.0L268.0 168.0C269.10458 168.0 270.0 168.89543 270.0 170.0L270.0 195.0C270.0 196.10457 269.10458 197.0 268.0 197.0Z" fill-rule="nonzero"/><path stroke="#000000" stroke-width="0.0" stroke-linecap="butt" stroke-opacity="0.0" clip-path="url(#id_0)" d="M137.0 241.0L137.0 212.0L180.0 212.0C181.10457 212.0 182.0 212.89543 182.0 214.0L182.0 239.0C182.0 240.10457 181.10457 241.0 180.0 241.0Z" fill-rule="nonzero"/><path fill="#4285f4" clip-path="url(#id_0)" d="M137.0 241.0L137.0 212.0L180.0 212.0C181.10457 212.0 182.0 212.89543 182.0 214.0L182.0 239.0C182.0 240.10457 181.10457 241.0 180.0 241.0Z" fill-rule="nonzero"/><path stroke="#000000" stroke-width="0.0" stroke-linecap="butt" stroke-opacity="0.0" clip-path="url(#id_0)" d="M137.0 285.0L137.0 256.0L224.0 256.0C225.10457 256.0 226.0 256.89542 226.0 258.0L226.0 283.0C226.0 284.10458 225.10457 285.0 224.0 285.0Z" fill-rule="nonzero"/><path fill="#4285f4" clip-path="url(#id_0)" d="M137.0 285.0L137.0 256.0L224.0 256.0C225.10457 256.0 226.0 256.89542 226.0 258.0L226.0 283.0C226.0 284.10458 225.10457 285.0 224.0 285.0Z" fill-rule="nonzero"/><path fill="#000000" d="M349.8525 346.4344L350.9775 346.73126Q350.61813 348.1219 349.69626 348.85626Q348.77438 349.59064 347.43063 349.59064Q346.04 349.59064 345.165 349.02814Q344.29 348.46564 343.83688 347.40314Q343.38376 346.325 343.38376 345.09064Q343.38376 343.7469 343.89938 342.7469Q344.415 341.7469 345.3525 341.23126Q346.30563 340.71564 347.44626 340.71564Q348.7275 340.71564 349.6025 341.3719Q350.49313 342.02814 350.83688 343.21564L349.71188 343.48126Q349.415 342.54376 348.83688 342.1219Q348.27438 341.6844 347.415 341.6844Q346.43063 341.6844 345.75876 342.16876Q345.1025 342.6375 344.82126 343.4344Q344.55563 344.23126 344.55563 345.09064Q344.55563 346.1844 344.86813 346.9969Q345.19626 347.8094 345.86813 348.21564Q346.54 348.6219 347.33688 348.6219Q348.29 348.6219 348.94626 348.075Q349.61813 347.52814 349.8525 346.4344ZM352.19626 346.34064Q352.19626 344.60626 353.14938 343.77814Q353.94626 343.09064 355.1025 343.09064Q356.38376 343.09064 357.19626 343.9344Q358.02438 344.7625 358.02438 346.2469Q358.02438 347.45 357.665 348.1375Q357.30563 348.825 356.6025 349.21564Q355.915 349.59064 355.1025 349.59064Q353.80563 349.59064 352.99313 348.7625Q352.19626 347.91876 352.19626 346.34064ZM353.27438 346.34064Q353.27438 347.52814 353.79 348.1219Q354.32126 348.71564 355.1025 348.71564Q355.89938 348.71564 356.415 348.1219Q356.93063 347.52814 356.93063 346.3094Q356.93063 345.15314 356.39938 344.5594Q355.88376 343.96564 355.1025 343.96564Q354.32126 343.96564 353.79 344.5594Q353.27438 345.1375 353.27438 346.34064ZM363.665 349.45L363.665 348.52814Q362.93063 349.59064 361.68063 349.59064Q361.13376 349.59064 360.64938 349.3875Q360.18063 349.16876 359.94626 348.85626Q359.71188 348.52814 359.61813 348.0594Q359.55563 347.7625 359.55563 347.075L359.55563 343.23126L360.61813 343.23126L360.61813 346.6844Q360.61813 347.4969 360.68063 347.79376Q360.77438 348.2 361.08688 348.45Q361.415 348.6844 361.89938 348.6844Q362.36813 348.6844 362.77438 348.45Q363.19626 348.2 363.36813 347.77814Q363.55563 347.35626 363.55563 346.5594L363.55563 343.23126L364.6025 343.23126L364.6025 349.45L363.665 349.45ZM366.58688 349.45L366.58688 343.23126L367.52438 343.23126L367.52438 344.10626Q368.21188 343.09064 369.50876 343.09064Q370.07126 343.09064 370.54 343.29376Q371.02438 343.4969 371.25876 343.825Q371.49313 344.15314 371.58688 344.59064Q371.63376 344.8875 371.63376 345.6219L371.63376 349.45L370.58688 349.45L370.58688 345.66876Q370.58688 345.0125 370.46188 344.7Q370.33688 344.3875 370.02438 344.2Q369.71188 343.9969 369.29 343.9969Q368.61813 343.9969 368.11813 344.4344Q367.63376 344.85626 367.63376 346.04376L367.63376 349.45L366.58688 349.45ZM375.88376 348.5125L376.04 349.4344Q375.58688 349.52814 375.24313 349.52814Q374.665 349.52814 374.3525 349.35626Q374.04 349.16876 373.89938 348.8719Q373.77438 348.575 373.77438 347.6219L373.77438 344.04376L373.00876 344.04376L373.00876 343.23126L373.77438 343.23126L373.77438 341.6844L374.82126 341.0594L374.82126 343.23126L375.88376 343.23126L375.88376 344.04376L374.82126 344.04376L374.82126 347.6844Q374.82126 348.1375 374.86813 348.2625Q374.93063 348.3875 375.05563 348.46564Q375.18063 348.54376 375.415 348.54376Q375.6025 348.54376 375.88376 348.5125Z" fill-rule="nonzero"/><path fill="#000000" d="M117.08312 49.140747L117.08312 48.140747L120.70812 48.125122L120.70812 51.312622Q119.88 51.984497 118.98937 52.328247Q118.09875 52.656372 117.16125 52.656372Q115.89562 52.656372 114.84875 52.125122Q113.8175 51.578247 113.28625 50.562622Q112.77062 49.531372 112.77062 48.265747Q112.77062 47.000122 113.28625 45.921997Q113.8175 44.828247 114.80187 44.312622Q115.78625 43.781372 117.0675 43.781372Q118.005 43.781372 118.755 44.078247Q119.505 44.375122 119.92687 44.921997Q120.36437 45.453247 120.58312 46.328247L119.5675 46.609497Q119.36437 45.953247 119.0675 45.578247Q118.78625 45.203247 118.255 44.984497Q117.72375 44.750122 117.08312 44.750122Q116.30187 44.750122 115.72375 44.984497Q115.16125 45.218872 114.80187 45.609497Q114.45812 46.000122 114.27062 46.468872Q113.9425 47.265747 113.9425 48.187622Q113.9425 49.343872 114.33312 50.125122Q114.73937 50.890747 115.48937 51.265747Q116.23937 51.640747 117.09875 51.640747Q117.83312 51.640747 118.53625 51.359497Q119.23937 51.062622 119.59875 50.750122L119.59875 49.140747L117.08312 49.140747ZM121.91125 52.515747L121.91125 46.296997L122.86437 46.296997L122.86437 47.234497Q123.22375 46.578247 123.52062 46.375122Q123.83312 46.156372 124.20812 46.156372Q124.73937 46.156372 125.28625 46.484497L124.92687 47.468872Q124.53625 47.234497 124.16125 47.234497Q123.80187 47.234497 123.52062 47.453247Q123.255 47.656372 123.14562 48.031372Q122.95812 48.593872 122.95812 49.250122L122.95812 52.515747L121.91125 52.515747ZM125.92687 45.140747L125.92687 43.921997L126.98937 43.921997L126.98937 45.140747L125.92687 45.140747ZM125.92687 52.515747L125.92687 46.296997L126.98937 46.296997L126.98937 52.515747L125.92687 52.515747ZM131.22375 51.578247L131.38 52.500122Q130.92688 52.593872 130.58313 52.593872Q130.005 52.593872 129.6925 52.421997Q129.38 52.234497 129.23938 51.937622Q129.11438 51.640747 129.11438 50.687622L129.11438 47.109497L128.34875 47.109497L128.34875 46.296997L129.11438 46.296997L129.11438 44.750122L130.16125 44.125122L130.16125 46.296997L131.22375 46.296997L131.22375 47.109497L130.16125 47.109497L130.16125 50.750122Q130.16125 51.203247 130.20813 51.328247Q130.27063 51.453247 130.39563 51.531372Q130.52063 51.609497 130.755 51.609497Q130.9425 51.609497 131.22375 51.578247Z" fill-rule="nonzero"/><path fill="#000000" d="M53.239376 89.90945L53.239376 82.33132L50.41125 82.33132L50.41125 81.3157L57.22375 81.3157L57.22375 82.33132L54.38 82.33132L54.38 89.90945L53.239376 89.90945ZM57.53625 86.80007Q57.53625 85.0657 58.489376 84.23757Q59.28625 83.55007 60.4425 83.55007Q61.72375 83.55007 62.53625 84.39382Q63.364376 85.22195 63.364376 86.70632Q63.364376 87.90945 63.005 88.59695Q62.645626 89.28445 61.9425 89.67507Q61.255 90.05007 60.4425 90.05007Q59.145626 90.05007 58.333126 89.22195Q57.53625 88.3782 57.53625 86.80007ZM58.614376 86.80007Q58.614376 87.98757 59.13 88.58132Q59.66125 89.17507 60.4425 89.17507Q61.239376 89.17507 61.755 88.58132Q62.270626 87.98757 62.270626 86.76882Q62.270626 85.61257 61.739376 85.01882Q61.22375 84.42507 60.4425 84.42507Q59.66125 84.42507 59.13 85.01882Q58.614376 85.59695 58.614376 86.80007ZM64.92688 92.30007L64.92688 83.6907L65.880005 83.6907L65.880005 84.48757Q66.223755 84.01882 66.64563 83.78445Q67.08313 83.55007 67.692505 83.55007Q68.48938 83.55007 69.098755 83.95632Q69.70813 84.36257 70.005005 85.11257Q70.317505 85.86257 70.317505 86.7532Q70.317505 87.70632 69.973755 88.47195Q69.64563 89.23757 68.98938 89.64382Q68.33313 90.05007 67.61438 90.05007Q67.08313 90.05007 66.661255 89.83132Q66.23938 89.59695 65.973755 89.26882L65.973755 92.30007L64.92688 92.30007ZM65.880005 86.83132Q65.880005 88.03445 66.36438 88.61257Q66.848755 89.17507 67.536255 89.17507Q68.23938 89.17507 68.73938 88.58132Q69.23938 87.98757 69.23938 86.73757Q69.23938 85.55007 68.755005 84.97195Q68.27063 84.3782 67.58313 84.3782Q66.911255 84.3782 66.39563 85.0032Q65.880005 85.6282 65.880005 86.83132ZM74.92688 89.90945L74.92688 83.6907L75.86438 83.6907L75.86438 84.5657Q76.55188 83.55007 77.848755 83.55007Q78.411255 83.55007 78.880005 83.7532Q79.36438 83.95632 79.598755 84.28445Q79.83313 84.61257 79.92688 85.05007Q79.973755 85.34695 79.973755 86.08132L79.973755 89.90945L78.92688 89.90945L78.92688 86.1282Q78.92688 85.47195 78.80188 85.15945Q78.67688 84.84695 78.36438 84.65945Q78.05188 84.45632 77.630005 84.45632Q76.95813 84.45632 76.45813 84.89382Q75.973755 85.3157 75.973755 86.5032L75.973755 89.90945L74.92688 89.90945ZM81.536255 86.80007Q81.536255 85.0657 82.48938 84.23757Q83.286255 83.55007 84.442505 83.55007Q85.723755 83.55007 86.536255 84.39382Q87.36438 85.22195 87.36438 86.70632Q87.36438 87.90945 87.005005 88.59695Q86.64563 89.28445 85.942505 89.67507Q85.255005 90.05007 84.442505 90.05007Q83.14563 90.05007 82.33313 89.22195Q81.536255 88.3782 81.536255 86.80007ZM82.61438 86.80007Q82.61438 87.98757 83.130005 88.58132Q83.661255 89.17507 84.442505 89.17507Q85.23938 89.17507 85.755005 88.58132Q86.27063 87.98757 86.27063 86.76882Q86.27063 85.61257 85.73938 85.01882Q85.223755 84.42507 84.442505 84.42507Q83.661255 84.42507 83.130005 85.01882Q82.61438 85.59695 82.61438 86.80007ZM91.223755 88.97195L91.380005 89.89382Q90.92688 89.98757 90.58313 89.98757Q90.005005 89.98757 89.692505 89.8157Q89.380005 89.6282 89.23938 89.33132Q89.11438 89.03445 89.11438 88.08132L89.11438 84.5032L88.348755 84.5032L88.348755 83.6907L89.11438 83.6907L89.11438 82.14382L90.161255 81.51882L90.161255 83.6907L91.223755 83.6907L91.223755 84.5032L90.161255 84.5032L90.161255 88.14382Q90.161255 88.59695 90.20813 88.72195Q90.27063 88.84695 90.39563 88.92507Q90.52063 89.0032 90.755005 89.0032Q90.942505 89.0032 91.223755 88.97195ZM95.98938 87.6282L97.02063 87.76882Q96.848755 88.83132 96.14563 89.4407Q95.442505 90.05007 94.42688 90.05007Q93.14563 90.05007 92.36438 89.22195Q91.598755 88.3782 91.598755 86.8157Q91.598755 85.8157 91.92688 85.0657Q92.27063 84.30007 92.942505 83.92507Q93.630005 83.55007 94.442505 83.55007Q95.442505 83.55007 96.08313 84.0657Q96.73938 84.5657 96.92688 85.51882L95.89563 85.67507Q95.755005 85.05007 95.380005 84.73757Q95.005005 84.40945 94.473755 84.40945Q93.67688 84.40945 93.17688 84.98757Q92.67688 85.55007 92.67688 86.78445Q92.67688 88.05007 93.161255 88.61257Q93.64563 89.17507 94.411255 89.17507Q95.036255 89.17507 95.442505 88.80007Q95.86438 88.42507 95.98938 87.6282ZM97.92688 89.90945L97.92688 81.3157L98.973755 81.3157L98.973755 84.39382Q99.70813 83.55007 100.83313 83.55007Q101.536255 83.55007 102.036255 83.83132Q102.55188 84.09695 102.77063 84.58132Q102.98938 85.05007 102.98938 85.97195L102.98938 89.90945L101.942505 89.90945L101.942505 85.97195Q101.942505 85.17507 101.598755 84.8157Q101.255005 84.45632 100.630005 84.45632Q100.161255 84.45632 99.73938 84.70632Q99.33313 84.9407 99.14563 85.36257Q98.973755 85.76882 98.973755 86.5032L98.973755 89.90945L97.92688 89.90945ZM107.92688 89.90945L107.92688 83.6907L108.86438 83.6907L108.86438 84.5657Q109.161255 84.09695 109.64563 83.83132Q110.130005 83.55007 110.755005 83.55007Q111.442505 83.55007 111.880005 83.83132Q112.33313 84.11257 112.505005 84.6282Q113.255005 83.55007 114.42688 83.55007Q115.36438 83.55007 115.848755 84.0657Q116.348755 84.5657 116.348755 85.64382L116.348755 89.90945L115.30188 89.90945L115.30188 85.98757Q115.30188 85.36257 115.192505 85.08132Q115.098755 84.80007 114.83313 84.6282Q114.567505 84.45632 114.192505 84.45632Q113.536255 84.45632 113.098755 84.89382Q112.67688 85.33132 112.67688 86.30007L112.67688 89.90945L111.61438 89.90945L111.61438 85.86257Q111.61438 85.15945 111.348755 84.8157Q111.098755 84.45632 110.52063 84.45632Q110.067505 84.45632 109.692505 84.6907Q109.317505 84.92507 109.14563 85.3782Q108.973755 85.83132 108.973755 86.67507L108.973755 89.90945L107.92688 89.90945ZM117.92688 82.53445L117.92688 81.3157L118.98938 81.3157L118.98938 82.53445L117.92688 82.53445ZM117.92688 89.90945L117.92688 83.6907L118.98938 83.6907L118.98938 89.90945L117.92688 89.90945ZM124.95813 89.90945L124.95813 89.1282Q124.36438 90.05007 123.223755 90.05007Q122.473755 90.05007 121.848755 89.64382Q121.223755 89.22195 120.880005 88.48757Q120.536255 87.7532 120.536255 86.80007Q120.536255 85.8782 120.848755 85.11257Q121.161255 84.34695 121.786255 83.95632Q122.411255 83.55007 123.17688 83.55007Q123.73938 83.55007 124.17688 83.78445Q124.61438 84.01882 124.89563 84.39382L124.89563 81.3157L125.942505 81.3157L125.942505 89.90945L124.95813 89.90945ZM121.630005 86.80007Q121.630005 88.0032 122.130005 88.59695Q122.630005 89.17507 123.317505 89.17507Q124.005005 89.17507 124.48938 88.61257Q124.973755 88.05007 124.973755 86.89382Q124.973755 85.61257 124.473755 85.01882Q123.98938 84.42507 123.27063 84.42507Q122.567505 84.42507 122.098755 85.0032Q121.630005 85.5657 121.630005 86.80007ZM127.505005 87.33132L127.505005 86.26882L130.755 86.26882L130.755 87.33132L127.505005 87.33132Z" fill-rule="nonzero"/><path fill="#000000" d="M46.505 102.05007L47.53625 101.89382Q47.63 102.51882 48.020626 102.84695Q48.426876 103.17507 49.16125 103.17507Q49.88 103.17507 50.22375 102.89382Q50.583126 102.59695 50.583126 102.1907Q50.583126 101.83132 50.270626 101.6282Q50.051876 101.48757 49.1925 101.26882Q48.03625 100.97195 47.583126 100.76882Q47.145626 100.55007 46.91125 100.17507Q46.676876 99.80007 46.676876 99.33132Q46.676876 98.92507 46.864376 98.5657Q47.051876 98.20632 47.38 97.97195Q47.63 97.80007 48.051876 97.67507Q48.47375 97.55007 48.97375 97.55007Q49.6925 97.55007 50.239376 97.76882Q50.801876 97.97195 51.0675 98.33132Q51.333126 98.6907 51.426876 99.28445L50.395626 99.42507Q50.333126 98.95632 49.989376 98.6907Q49.66125 98.40945 49.03625 98.40945Q48.3175 98.40945 48.005 98.65945Q47.6925 98.89382 47.6925 99.22195Q47.6925 99.42507 47.8175 99.58132Q47.958126 99.7532 48.22375 99.86257Q48.38 99.92507 49.16125 100.1282Q50.28625 100.4407 50.72375 100.6282Q51.16125 100.8157 51.41125 101.17507Q51.66125 101.53445 51.66125 102.08132Q51.66125 102.61257 51.34875 103.08132Q51.051876 103.53445 50.47375 103.80007Q49.895626 104.05007 49.16125 104.05007Q47.9425 104.05007 47.301876 103.55007Q46.676876 103.03445 46.505 102.05007ZM57.176876 101.90945L58.270626 102.03445Q58.020626 102.98757 57.3175 103.51882Q56.614376 104.05007 55.53625 104.05007Q54.176876 104.05007 53.364376 103.20632Q52.5675 102.36257 52.5675 100.84695Q52.5675 99.28445 53.38 98.42507Q54.1925 97.55007 55.47375 97.55007Q56.72375 97.55007 57.505 98.39382Q58.301876 99.23757 58.301876 100.78445Q58.301876 100.8782 58.301876 101.0657L53.66125 101.0657Q53.72375 102.09695 54.239376 102.64382Q54.755 103.17507 55.53625 103.17507Q56.114376 103.17507 56.520626 102.8782Q56.9425 102.5657 57.176876 101.90945ZM53.72375 100.20632L57.1925 100.20632Q57.13 99.40945 56.801876 99.01882Q56.28625 98.40945 55.489376 98.40945Q54.755 98.40945 54.255 98.89382Q53.770626 99.3782 53.72375 100.20632ZM63.989376 103.14382Q63.395626 103.64382 62.84875 103.84695Q62.3175 104.05007 61.6925 104.05007Q60.66125 104.05007 60.114376 103.55007Q59.5675 103.05007 59.5675 102.26882Q59.5675 101.8157 59.770626 101.4407Q59.97375 101.05007 60.3175 100.83132Q60.66125 100.59695 61.083126 100.48757Q61.38 100.39382 62.020626 100.3157Q63.28625 100.17507 63.895626 99.95632Q63.895626 99.73757 63.895626 99.6907Q63.895626 99.03445 63.59875 98.76882Q63.1925 98.42507 62.395626 98.42507Q61.66125 98.42507 61.301876 98.6907Q60.9425 98.9407 60.770626 99.59695L59.739376 99.45632Q59.88 98.80007 60.208126 98.39382Q60.53625 97.98757 61.145626 97.76882Q61.755 97.55007 62.551876 97.55007Q63.34875 97.55007 63.84875 97.73757Q64.348755 97.92507 64.58313 98.20632Q64.817505 98.48757 64.911255 98.92507Q64.95813 99.1907 64.95813 99.89382L64.95813 101.30007Q64.95813 102.76882 65.02063 103.15945Q65.098755 103.55007 65.30188 103.90945L64.192505 103.90945Q64.036255 103.58132 63.989376 103.14382ZM63.895626 100.78445Q63.3175 101.01882 62.176876 101.1907Q61.520626 101.28445 61.255 101.40945Q60.989376 101.51882 60.833126 101.73757Q60.6925 101.95632 60.6925 102.23757Q60.6925 102.65945 61.005 102.9407Q61.333126 103.22195 61.9425 103.22195Q62.551876 103.22195 63.020626 102.95632Q63.505 102.6907 63.72375 102.22195Q63.895626 101.86257 63.895626 101.17507L63.895626 100.78445ZM66.505005 102.05007L67.536255 101.89382Q67.630005 102.51882 68.02063 102.84695Q68.42688 103.17507 69.161255 103.17507Q69.880005 103.17507 70.223755 102.89382Q70.58313 102.59695 70.58313 102.1907Q70.58313 101.83132 70.27063 101.6282Q70.05188 101.48757 69.192505 101.26882Q68.036255 100.97195 67.58313 100.76882Q67.14563 100.55007 66.911255 100.17507Q66.67688 99.80007 66.67688 99.33132Q66.67688 98.92507 66.86438 98.5657Q67.05188 98.20632 67.380005 97.97195Q67.630005 97.80007 68.05188 97.67507Q68.473755 97.55007 68.973755 97.55007Q69.692505 97.55007 70.23938 97.76882Q70.80188 97.97195 71.067505 98.33132Q71.33313 98.6907 71.42688 99.28445L70.39563 99.42507Q70.33313 98.95632 69.98938 98.6907Q69.661255 98.40945 69.036255 98.40945Q68.317505 98.40945 68.005005 98.65945Q67.692505 98.89382 67.692505 99.22195Q67.692505 99.42507 67.817505 99.58132Q67.95813 99.7532 68.223755 99.86257Q68.380005 99.92507 69.161255 100.1282Q70.286255 100.4407 70.723755 100.6282Q71.161255 100.8157 71.411255 101.17507Q71.661255 101.53445 71.661255 102.08132Q71.661255 102.61257 71.348755 103.08132Q71.05188 103.53445 70.473755 103.80007Q69.89563 104.05007 69.161255 104.05007Q67.942505 104.05007 67.30188 103.55007Q66.67688 103.03445 66.505005 102.05007ZM72.536255 100.80007Q72.536255 99.0657 73.48938 98.23757Q74.286255 97.55007 75.442505 97.55007Q76.723755 97.55007 77.536255 98.39382Q78.36438 99.22195 78.36438 100.70632Q78.36438 101.90945 78.005005 102.59695Q77.64563 103.28445 76.942505 103.67507Q76.255005 104.05007 75.442505 104.05007Q74.14563 104.05007 73.33313 103.22195Q72.536255 102.3782 72.536255 100.80007ZM73.61438 100.80007Q73.61438 101.98757 74.130005 102.58132Q74.661255 103.17507 75.442505 103.17507Q76.23938 103.17507 76.755005 102.58132Q77.27063 101.98757 77.27063 100.76882Q77.27063 99.61257 76.73938 99.01882Q76.223755 98.42507 75.442505 98.42507Q74.661255 98.42507 74.130005 99.01882Q73.61438 99.59695 73.61438 100.80007ZM79.92688 103.90945L79.92688 97.6907L80.86438 97.6907L80.86438 98.5657Q81.55188 97.55007 82.848755 97.55007Q83.411255 97.55007 83.880005 97.7532Q84.36438 97.95632 84.598755 98.28445Q84.83313 98.61257 84.92688 99.05007Q84.973755 99.34695 84.973755 100.08132L84.973755 103.90945L83.92688 103.90945L83.92688 100.1282Q83.92688 99.47195 83.80188 99.15945Q83.67688 98.84695 83.36438 98.65945Q83.05188 98.45632 82.630005 98.45632Q81.95813 98.45632 81.45813 98.89382Q80.973755 99.3157 80.973755 100.5032L80.973755 103.90945L79.92688 103.90945ZM89.92688 106.30007L89.92688 97.6907L90.880005 97.6907L90.880005 98.48757Q91.223755 98.01882 91.64563 97.78445Q92.08313 97.55007 92.692505 97.55007Q93.48938 97.55007 94.098755 97.95632Q94.70813 98.36257 95.005005 99.11257Q95.317505 99.86257 95.317505 100.7532Q95.317505 101.70632 94.973755 102.47195Q94.64563 103.23757 93.98938 103.64382Q93.33313 104.05007 92.61438 104.05007Q92.08313 104.05007 91.661255 103.83132Q91.23938 103.59695 90.973755 103.26882L90.973755 106.30007L89.92688 106.30007ZM90.880005 100.83132Q90.880005 102.03445 91.36438 102.61257Q91.848755 103.17507 92.536255 103.17507Q93.23938 103.17507 93.73938 102.58132Q94.23938 101.98757 94.23938 100.73757Q94.23938 99.55007 93.755005 98.97195Q93.27063 98.3782 92.58313 98.3782Q91.911255 98.3782 91.39563 99.0032Q90.880005 99.6282 90.880005 100.83132ZM96.92688 96.53445L96.92688 95.3157L97.98938 95.3157L97.98938 96.53445L96.92688 96.53445ZM96.92688 103.90945L96.92688 97.6907L97.98938 97.6907L97.98938 103.90945L96.92688 103.90945ZM103.98938 101.6282L105.02063 101.76882Q104.848755 102.83132 104.14563 103.4407Q103.442505 104.05007 102.42688 104.05007Q101.14563 104.05007 100.36438 103.22195Q99.598755 102.3782 99.598755 100.8157Q99.598755 99.8157 99.92688 99.0657Q100.27063 98.30007 100.942505 97.92507Q101.630005 97.55007 102.442505 97.55007Q103.442505 97.55007 104.08313 98.0657Q104.73938 98.5657 104.92688 99.51882L103.89563 99.67507Q103.755005 99.05007 103.380005 98.73757Q103.005005 98.40945 102.473755 98.40945Q101.67688 98.40945 101.17688 98.98757Q100.67688 99.55007 100.67688 100.78445Q100.67688 102.05007 101.161255 102.61257Q101.64563 103.17507 102.411255 103.17507Q103.036255 103.17507 103.442505 102.80007Q103.86438 102.42507 103.98938 101.6282ZM105.92688 103.90945L105.92688 95.3157L106.98938 95.3157L106.98938 100.22195L109.473755 97.6907L110.848755 97.6907L108.45813 99.98757L111.08313 103.90945L109.786255 103.90945L107.723755 100.72195L106.98938 101.4407L106.98938 103.90945L105.92688 103.90945ZM116.005005 103.90945L116.005005 102.98757Q115.27063 104.05007 114.02063 104.05007Q113.473755 104.05007 112.98938 103.84695Q112.52063 103.6282 112.286255 103.3157Q112.05188 102.98757 111.95813 102.51882Q111.89563 102.22195 111.89563 101.53445L111.89563 97.6907L112.95813 97.6907L112.95813 101.14382Q112.95813 101.95632 113.02063 102.2532Q113.11438 102.65945 113.42688 102.90945Q113.755005 103.14382 114.23938 103.14382Q114.70813 103.14382 115.11438 102.90945Q115.536255 102.65945 115.70813 102.23757Q115.89563 101.8157 115.89563 101.01882L115.89563 97.6907L116.942505 97.6907L116.942505 103.90945L116.005005 103.90945ZM118.92688 106.30007L118.92688 97.6907L119.880005 97.6907L119.880005 98.48757Q120.223755 98.01882 120.64563 97.78445Q121.08313 97.55007 121.692505 97.55007Q122.48938 97.55007 123.098755 97.95632Q123.70813 98.36257 124.005005 99.11257Q124.317505 99.86257 124.317505 100.7532Q124.317505 101.70632 123.973755 102.47195Q123.64563 103.23757 122.98938 103.64382Q122.33313 104.05007 121.61438 104.05007Q121.08313 104.05007 120.661255 103.83132Q120.23938 103.59695 119.973755 103.26882L119.973755 106.30007L118.92688 106.30007ZM119.880005 100.83132Q119.880005 102.03445 120.36438 102.61257Q120.848755 103.17507 121.536255 103.17507Q122.23938 103.17507 122.73938 102.58132Q123.23938 101.98757 123.23938 100.73757Q123.23938 99.55007 122.755005 98.97195Q122.27063 98.3782 121.58313 98.3782Q120.911255 98.3782 120.39563 99.0032Q119.880005 99.6282 119.880005 100.83132ZM125.505005 102.05007L126.536255 101.89382Q126.630005 102.51882 127.02063 102.84695Q127.42688 103.17507 128.16125 103.17507Q128.88 103.17507 129.22375 102.89382Q129.58313 102.59695 129.58313 102.1907Q129.58313 101.83132 129.27063 101.6282Q129.05188 101.48757 128.1925 101.26882Q127.036255 100.97195 126.58313 100.76882Q126.14563 100.55007 125.911255 100.17507Q125.67688 99.80007 125.67688 99.33132Q125.67688 98.92507 125.86438 98.5657Q126.05188 98.20632 126.380005 97.97195Q126.630005 97.80007 127.05188 97.67507Q127.473755 97.55007 127.973755 97.55007Q128.6925 97.55007 129.23938 97.76882Q129.80188 97.97195 130.0675 98.33132Q130.33313 98.6907 130.42688 99.28445L129.39563 99.42507Q129.33313 98.95632 128.98938 98.6907Q128.66125 98.40945 128.03625 98.40945Q127.317505 98.40945 127.005005 98.65945Q126.692505 98.89382 126.692505 99.22195Q126.692505 99.42507 126.817505 99.58132Q126.95813 99.7532 127.223755 99.86257Q127.380005 99.92507 128.16125 100.1282Q129.28625 100.4407 129.72375 100.6282Q130.16125 100.8157 130.41125 101.17507Q130.66125 101.53445 130.66125 102.08132Q130.66125 102.61257 130.34875 103.08132Q130.05188 103.53445 129.47375 103.80007Q128.89563 104.05007 128.16125 104.05007Q126.942505 104.05007 126.30188 103.55007Q125.67688 103.03445 125.505005 102.05007Z" fill-rule="nonzero"/><path fill="#000000" d="M106.005 141.30315L106.005 132.7094L107.14562 132.7094L107.14562 140.28752L111.38 140.28752L111.38 141.30315L106.005 141.30315ZM117.005 141.30315L117.005 140.38127Q116.27062 141.44377 115.02062 141.44377Q114.47375 141.44377 113.98937 141.24065Q113.52062 141.0219 113.28625 140.7094Q113.05187 140.38127 112.95812 139.91252Q112.89562 139.61565 112.89562 138.92815L112.89562 135.0844L113.95812 135.0844L113.95812 138.53752Q113.95812 139.35002 114.02062 139.6469Q114.11437 140.05315 114.42687 140.30315Q114.755 140.53752 115.23937 140.53752Q115.70812 140.53752 116.11437 140.30315Q116.53625 140.05315 116.70812 139.63127Q116.89562 139.2094 116.89562 138.41252L116.89562 135.0844L117.9425 135.0844L117.9425 141.30315L117.005 141.30315ZM123.98937 139.0219L125.02062 139.16252Q124.84875 140.22502 124.14562 140.8344Q123.4425 141.44377 122.42687 141.44377Q121.14562 141.44377 120.36437 140.61565Q119.59875 139.7719 119.59875 138.2094Q119.59875 137.2094 119.92687 136.4594Q120.27062 135.69377 120.9425 135.31877Q121.63 134.94377 122.4425 134.94377Q123.4425 134.94377 124.08312 135.4594Q124.73937 135.9594 124.92687 136.91252L123.89562 137.06877Q123.755 136.44377 123.38 136.13127Q123.005 135.80315 122.47375 135.80315Q121.67687 135.80315 121.17687 136.38127Q120.67687 136.94377 120.67687 138.17815Q120.67687 139.44377 121.16125 140.00627Q121.64562 140.56877 122.41125 140.56877Q123.03625 140.56877 123.4425 140.19377Q123.86437 139.81877 123.98937 139.0219ZM125.92687 141.30315L125.92687 132.7094L126.98937 132.7094L126.98937 137.61565L129.47375 135.0844L130.84875 135.0844L128.45813 137.38127L131.08313 141.30315L129.78625 141.30315L127.72375 138.11565L126.98937 138.8344L126.98937 141.30315L125.92687 141.30315Z" fill-rule="nonzero"/><path fill="#000000" d="M39.051876 171.69685L39.051876 163.1031L42.020626 163.1031Q43.020626 163.1031 43.551876 163.2281Q44.28625 163.39998 44.801876 163.83748Q45.489376 164.4156 45.8175 165.32185Q46.16125 166.21248 46.16125 167.3531Q46.16125 168.33748 45.926876 169.08748Q45.708126 169.83748 45.34875 170.33748Q44.989376 170.83748 44.551876 171.11873Q44.13 171.39998 43.53625 171.55623Q42.9425 171.69685 42.16125 171.69685L39.051876 171.69685ZM40.1925 170.68123L42.020626 170.68123Q42.88 170.68123 43.364376 170.52498Q43.84875 170.36873 44.13 170.07185Q44.53625 169.68123 44.755 168.99373Q44.989376 168.30623 44.989376 167.33748Q44.989376 165.99373 44.53625 165.27498Q44.09875 164.5406 43.47375 164.2906Q43.005 164.11873 42.005 164.11873L40.1925 164.11873L40.1925 170.68123ZM47.53625 168.58748Q47.53625 166.8531 48.489376 166.02498Q49.28625 165.33748 50.4425 165.33748Q51.72375 165.33748 52.53625 166.18123Q53.364376 167.00935 53.364376 168.49373Q53.364376 169.69685 53.005 170.38435Q52.645626 171.07185 51.9425 171.46248Q51.255 171.83748 50.4425 171.83748Q49.145626 171.83748 48.333126 171.00935Q47.53625 170.1656 47.53625 168.58748ZM48.614376 168.58748Q48.614376 169.77498 49.13 170.36873Q49.66125 170.96248 50.4425 170.96248Q51.239376 170.96248 51.755 170.36873Q52.270626 169.77498 52.270626 168.55623Q52.270626 167.39998 51.739376 166.80623Q51.22375 166.21248 50.4425 166.21248Q49.66125 166.21248 49.13 166.80623Q48.614376 167.38435 48.614376 168.58748ZM54.926876 164.32185L54.926876 163.1031L55.989376 163.1031L55.989376 164.32185L54.926876 164.32185ZM54.926876 171.69685L54.926876 165.4781L55.989376 165.4781L55.989376 171.69685L54.926876 171.69685ZM57.926876 171.69685L57.926876 165.4781L58.864376 165.4781L58.864376 166.3531Q59.551876 165.33748 60.84875 165.33748Q61.41125 165.33748 61.88 165.5406Q62.364376 165.74373 62.59875 166.07185Q62.833126 166.39998 62.926876 166.83748Q62.97375 167.13435 62.97375 167.86873L62.97375 171.69685L61.926876 171.69685L61.926876 167.9156Q61.926876 167.25935 61.801876 166.94685Q61.676876 166.63435 61.364376 166.44685Q61.051876 166.24373 60.63 166.24373Q59.958126 166.24373 59.458126 166.68123Q58.97375 167.1031 58.97375 168.2906L58.97375 171.69685L57.926876 171.69685ZM64.723755 172.21248L65.755005 172.36873Q65.817505 172.83748 66.11438 173.05623Q66.505005 173.3531 67.17688 173.3531Q67.911255 173.3531 68.30188 173.05623Q68.70813 172.75935 68.848755 172.24373Q68.942505 171.9156 68.92688 170.88435Q68.23938 171.69685 67.20813 171.69685Q65.92688 171.69685 65.223755 170.77498Q64.52063 169.83748 64.52063 168.55623Q64.52063 167.6656 64.83313 166.9156Q65.161255 166.14998 65.77063 165.74373Q66.380005 165.33748 67.20813 165.33748Q68.317505 165.33748 69.036255 166.2281L69.036255 165.4781L70.005005 165.4781L70.005005 170.8531Q70.005005 172.30623 69.70813 172.9156Q69.411255 173.52498 68.77063 173.86873Q68.130005 174.2281 67.192505 174.2281Q66.08313 174.2281 65.39563 173.7281Q64.70813 173.2281 64.723755 172.21248ZM65.598755 168.4781Q65.598755 169.69685 66.08313 170.25935Q66.567505 170.82185 67.30188 170.82185Q68.036255 170.82185 68.52063 170.25935Q69.02063 169.69685 69.02063 168.50935Q69.02063 167.36873 68.505005 166.7906Q68.005005 166.21248 67.286255 166.21248Q66.58313 166.21248 66.08313 166.7906Q65.598755 167.3531 65.598755 168.4781ZM79.17688 169.69685L80.27063 169.82185Q80.02063 170.77498 79.317505 171.30623Q78.61438 171.83748 77.536255 171.83748Q76.17688 171.83748 75.36438 170.99373Q74.567505 170.14998 74.567505 168.63435Q74.567505 167.07185 75.380005 166.21248Q76.192505 165.33748 77.473755 165.33748Q78.723755 165.33748 79.505005 166.18123Q80.30188 167.02498 80.30188 168.57185Q80.30188 168.6656 80.30188 168.8531L75.661255 168.8531Q75.723755 169.88435 76.23938 170.43123Q76.755005 170.96248 77.536255 170.96248Q78.11438 170.96248 78.52063 170.6656Q78.942505 170.3531 79.17688 169.69685ZM75.723755 167.99373L79.192505 167.99373Q79.130005 167.19685 78.80188 166.80623Q78.286255 166.19685 77.48938 166.19685Q76.755005 166.19685 76.255005 166.68123Q75.77063 167.1656 75.723755 167.99373ZM83.64563 171.69685L81.286255 165.4781L82.39563 165.4781L83.73938 169.19685Q83.942505 169.80623 84.130005 170.44685Q84.27063 169.96248 84.52063 169.27498L85.911255 165.4781L86.98938 165.4781L84.630005 171.69685L83.64563 171.69685ZM92.17688 169.69685L93.27063 169.82185Q93.02063 170.77498 92.317505 171.30623Q91.61438 171.83748 90.536255 171.83748Q89.17688 171.83748 88.36438 170.99373Q87.567505 170.14998 87.567505 168.63435Q87.567505 167.07185 88.380005 166.21248Q89.192505 165.33748 90.473755 165.33748Q91.723755 165.33748 92.505005 166.18123Q93.30188 167.02498 93.30188 168.57185Q93.30188 168.6656 93.30188 168.8531L88.661255 168.8531Q88.723755 169.88435 89.23938 170.43123Q89.755005 170.96248 90.536255 170.96248Q91.11438 170.96248 91.52063 170.6656Q91.942505 170.3531 92.17688 169.69685ZM88.723755 167.99373L92.192505 167.99373Q92.130005 167.19685 91.80188 166.80623Q91.286255 166.19685 90.48938 166.19685Q89.755005 166.19685 89.255005 166.68123Q88.77063 167.1656 88.723755 167.99373ZM94.911255 171.69685L94.911255 165.4781L95.86438 165.4781L95.86438 166.4156Q96.223755 165.75935 96.52063 165.55623Q96.83313 165.33748 97.20813 165.33748Q97.73938 165.33748 98.286255 165.6656L97.92688 166.64998Q97.536255 166.4156 97.161255 166.4156Q96.80188 166.4156 96.52063 166.63435Q96.255005 166.83748 96.14563 167.21248Q95.95813 167.77498 95.95813 168.43123L95.95813 171.69685L94.911255 171.69685ZM98.880005 174.08748L98.755005 173.1031Q99.098755 173.19685 99.36438 173.19685Q99.70813 173.19685 99.911255 173.07185Q100.130005 172.96248 100.27063 172.75935Q100.36438 172.58748 100.598755 171.96248Q100.61438 171.88435 100.692505 171.71248L98.317505 165.4781L99.45813 165.4781L100.755005 169.07185Q101.005005 169.75935 101.20813 170.52498Q101.39563 169.7906 101.64563 169.1031L102.973755 165.4781L104.02063 165.4781L101.661255 171.80623Q101.27063 172.82185 101.067505 173.21248Q100.786255 173.74373 100.411255 173.9781Q100.05188 174.2281 99.55188 174.2281Q99.255005 174.2281 98.880005 174.08748ZM107.223755 170.75935L107.380005 171.68123Q106.92688 171.77498 106.58313 171.77498Q106.005005 171.77498 105.692505 171.6031Q105.380005 171.4156 105.23938 171.11873Q105.11438 170.82185 105.11438 169.86873L105.11438 166.2906L104.348755 166.2906L104.348755 165.4781L105.11438 165.4781L105.11438 163.93123L106.161255 163.30623L106.161255 165.4781L107.223755 165.4781L107.223755 166.2906L106.161255 166.2906L106.161255 169.93123Q106.161255 170.38435 106.20813 170.50935Q106.27063 170.63435 106.39563 170.71248Q106.52063 170.7906 106.755005 170.7906Q106.942505 170.7906 107.223755 170.75935ZM107.92688 171.69685L107.92688 163.1031L108.973755 163.1031L108.973755 166.18123Q109.70813 165.33748 110.83313 165.33748Q111.536255 165.33748 112.036255 165.61873Q112.55188 165.88435 112.77063 166.36873Q112.98938 166.83748 112.98938 167.75935L112.98938 171.69685L111.942505 171.69685L111.942505 167.75935Q111.942505 166.96248 111.598755 166.6031Q111.255005 166.24373 110.630005 166.24373Q110.161255 166.24373 109.73938 166.49373Q109.33313 166.7281 109.14563 167.14998Q108.973755 167.55623 108.973755 168.2906L108.973755 171.69685L107.92688 171.69685ZM114.92688 164.32185L114.92688 163.1031L115.98938 163.1031L115.98938 164.32185L114.92688 164.32185ZM114.92688 171.69685L114.92688 165.4781L115.98938 165.4781L115.98938 171.69685L114.92688 171.69685ZM117.92688 171.69685L117.92688 165.4781L118.86438 165.4781L118.86438 166.3531Q119.55188 165.33748 120.848755 165.33748Q121.411255 165.33748 121.880005 165.5406Q122.36438 165.74373 122.598755 166.07185Q122.83313 166.39998 122.92688 166.83748Q122.973755 167.13435 122.973755 167.86873L122.973755 171.69685L121.92688 171.69685L121.92688 167.9156Q121.92688 167.25935 121.80188 166.94685Q121.67688 166.63435 121.36438 166.44685Q121.05188 166.24373 120.630005 166.24373Q119.95813 166.24373 119.45813 166.68123Q118.973755 167.1031 118.973755 168.2906L118.973755 171.69685L117.92688 171.69685ZM124.723755 172.21248L125.755005 172.36873Q125.817505 172.83748 126.11438 173.05623Q126.505005 173.3531 127.17688 173.3531Q127.911255 173.3531 128.30188 173.05623Q128.70813 172.75935 128.84875 172.24373Q128.9425 171.9156 128.92688 170.88435Q128.23938 171.69685 127.20813 171.69685Q125.92688 171.69685 125.223755 170.77498Q124.52063 169.83748 124.52063 168.55623Q124.52063 167.6656 124.83313 166.9156Q125.161255 166.14998 125.77063 165.74373Q126.380005 165.33748 127.20813 165.33748Q128.3175 165.33748 129.03625 166.2281L129.03625 165.4781L130.005 165.4781L130.005 170.8531Q130.005 172.30623 129.70813 172.9156Q129.41125 173.52498 128.77063 173.86873Q128.13 174.2281 127.192505 174.2281Q126.08313 174.2281 125.39563 173.7281Q124.70813 173.2281 124.723755 172.21248ZM125.598755 168.4781Q125.598755 169.69685 126.08313 170.25935Q126.567505 170.82185 127.30188 170.82185Q128.03625 170.82185 128.52063 170.25935Q129.02063 169.69685 129.02063 168.50935Q129.02063 167.36873 128.505 166.7906Q128.005 166.21248 127.286255 166.21248Q126.58313 166.21248 126.08313 166.7906Q125.598755 167.3531 125.598755 168.4781Z" fill-rule="nonzero"/><path fill="#000000" d="M25.88 188.08748L25.755 187.1031Q26.09875 187.19685 26.364374 187.19685Q26.708124 187.19685 26.91125 187.07185Q27.13 186.96248 27.270624 186.75935Q27.364374 186.58748 27.59875 185.96248Q27.614374 185.88435 27.6925 185.71248L25.3175 179.4781L26.458124 179.4781L27.755 183.07185Q28.005 183.75935 28.208124 184.52498Q28.395624 183.7906 28.645624 183.1031L29.97375 179.4781L31.020624 179.4781L28.66125 185.80623Q28.270624 186.82185 28.0675 187.21248Q27.78625 187.74373 27.41125 187.9781Q27.051874 188.2281 26.551874 188.2281Q26.255 188.2281 25.88 188.08748ZM31.53625 182.58748Q31.53625 180.8531 32.489372 180.02498Q33.286247 179.33748 34.442497 179.33748Q35.723747 179.33748 36.536247 180.18123Q37.364372 181.00935 37.364372 182.49373Q37.364372 183.69685 37.004997 184.38435Q36.645622 185.07185 35.942497 185.46248Q35.254997 185.83748 34.442497 185.83748Q33.145622 185.83748 32.333122 185.00935Q31.53625 184.1656 31.53625 182.58748ZM32.614372 182.58748Q32.614372 183.77498 33.129997 184.36873Q33.661247 184.96248 34.442497 184.96248Q35.239372 184.96248 35.754997 184.36873Q36.270622 183.77498 36.270622 182.55623Q36.270622 181.39998 35.739372 180.80623Q35.223747 180.21248 34.442497 180.21248Q33.661247 180.21248 33.129997 180.80623Q32.614372 181.38435 32.614372 182.58748ZM43.004997 185.69685L43.004997 184.77498Q42.270622 185.83748 41.020622 185.83748Q40.473747 185.83748 39.989372 185.63435Q39.520622 185.4156 39.286247 185.1031Q39.051872 184.77498 38.958122 184.30623Q38.895622 184.00935 38.895622 183.32185L38.895622 179.4781L39.958122 179.4781L39.958122 182.93123Q39.958122 183.74373 40.020622 184.0406Q40.114372 184.44685 40.426872 184.69685Q40.754997 184.93123 41.239372 184.93123Q41.708122 184.93123 42.114372 184.69685Q42.536247 184.44685 42.708122 184.02498Q42.895622 183.6031 42.895622 182.80623L42.895622 179.4781L43.942497 179.4781L43.942497 185.69685L43.004997 185.69685ZM52.989372 183.4156L54.020622 183.55623Q53.848747 184.61873 53.145622 185.2281Q52.442497 185.83748 51.426872 185.83748Q50.145622 185.83748 49.364372 185.00935Q48.598747 184.1656 48.598747 182.6031Q48.598747 181.6031 48.926872 180.8531Q49.270622 180.08748 49.942497 179.71248Q50.629997 179.33748 51.442497 179.33748Q52.442497 179.33748 53.083122 179.8531Q53.739372 180.3531 53.926872 181.30623L52.895622 181.46248Q52.754997 180.83748 52.379997 180.52498Q52.004997 180.19685 51.473747 180.19685Q50.676872 180.19685 50.176872 180.77498Q49.676872 181.33748 49.676872 182.57185Q49.676872 183.83748 50.161247 184.39998Q50.645622 184.96248 51.411247 184.96248Q52.036247 184.96248 52.442497 184.58748Q52.864372 184.21248 52.989372 183.4156ZM58.989372 184.93123Q58.395622 185.43123 57.848747 185.63435Q57.317497 185.83748 56.692497 185.83748Q55.661247 185.83748 55.114372 185.33748Q54.567497 184.83748 54.567497 184.05623Q54.567497 183.6031 54.770622 183.2281Q54.973747 182.83748 55.317497 182.61873Q55.661247 182.38435 56.083122 182.27498Q56.379997 182.18123 57.020622 182.1031Q58.286247 181.96248 58.895622 181.74373Q58.895622 181.52498 58.895622 181.4781Q58.895622 180.82185 58.598747 180.55623Q58.192497 180.21248 57.395622 180.21248Q56.661247 180.21248 56.301872 180.4781Q55.942497 180.7281 55.770622 181.38435L54.739372 181.24373Q54.879997 180.58748 55.208122 180.18123Q55.536247 179.77498 56.145622 179.55623Q56.754997 179.33748 57.551872 179.33748Q58.348747 179.33748 58.848747 179.52498Q59.348747 179.71248 59.583122 179.99373Q59.817497 180.27498 59.911247 180.71248Q59.958122 180.9781 59.958122 181.68123L59.958122 183.08748Q59.958122 184.55623 60.020622 184.94685Q60.098747 185.33748 60.301872 185.69685L59.192497 185.69685Q59.036247 185.36873 58.989372 184.93123ZM58.895622 182.57185Q58.317497 182.80623 57.176872 182.9781Q56.520622 183.07185 56.254997 183.19685Q55.989372 183.30623 55.833122 183.52498Q55.692497 183.74373 55.692497 184.02498Q55.692497 184.44685 56.004997 184.7281Q56.333122 185.00935 56.942497 185.00935Q57.551872 185.00935 58.020622 184.74373Q58.504997 184.4781 58.723747 184.00935Q58.895622 183.64998 58.895622 182.96248L58.895622 182.57185ZM61.926872 185.69685L61.926872 179.4781L62.864372 179.4781L62.864372 180.3531Q63.551872 179.33748 64.84875 179.33748Q65.41125 179.33748 65.88 179.5406Q66.36437 179.74373 66.59875 180.07185Q66.83312 180.39998 66.92687 180.83748Q66.97375 181.13435 66.97375 181.86873L66.97375 185.69685L65.92687 185.69685L65.92687 181.9156Q65.92687 181.25935 65.80187 180.94685Q65.67687 180.63435 65.36437 180.44685Q65.05187 180.24373 64.63 180.24373Q63.958122 180.24373 63.458122 180.68123Q62.973747 181.1031 62.973747 182.2906L62.973747 185.69685L61.926872 185.69685ZM74.22375 184.75935L74.38 185.68123Q73.92687 185.77498 73.58312 185.77498Q73.005 185.77498 72.6925 185.6031Q72.38 185.4156 72.23937 185.11873Q72.11437 184.82185 72.11437 183.86873L72.11437 180.2906L71.34875 180.2906L71.34875 179.4781L72.11437 179.4781L72.11437 177.93123L73.16125 177.30623L73.16125 179.4781L74.22375 179.4781L74.22375 180.2906L73.16125 180.2906L73.16125 183.93123Q73.16125 184.38435 73.20812 184.50935Q73.27062 184.63435 73.39562 184.71248Q73.52062 184.7906 73.755 184.7906Q73.9425 184.7906 74.22375 184.75935ZM74.53625 182.58748Q74.53625 180.8531 75.48937 180.02498Q76.28625 179.33748 77.4425 179.33748Q78.72375 179.33748 79.53625 180.18123Q80.36437 181.00935 80.36437 182.49373Q80.36437 183.69685 80.005 184.38435Q79.64562 185.07185 78.9425 185.46248Q78.255 185.83748 77.4425 185.83748Q76.14562 185.83748 75.33312 185.00935Q74.53625 184.1656 74.53625 182.58748ZM75.61437 182.58748Q75.61437 183.77498 76.13 184.36873Q76.66125 184.96248 77.4425 184.96248Q78.23937 184.96248 78.755 184.36873Q79.27062 183.77498 79.27062 182.55623Q79.27062 181.39998 78.73937 180.80623Q78.22375 180.21248 77.4425 180.21248Q76.66125 180.21248 76.13 180.80623Q75.61437 181.38435 75.61437 182.58748ZM84.92687 185.69685L84.92687 179.4781L85.86437 179.4781L85.86437 180.3531Q86.55187 179.33748 87.84875 179.33748Q88.41125 179.33748 88.88 179.5406Q89.36437 179.74373 89.59875 180.07185Q89.83312 180.39998 89.92687 180.83748Q89.97375 181.13435 89.97375 181.86873L89.97375 185.69685L88.92687 185.69685L88.92687 181.9156Q88.92687 181.25935 88.80187 180.94685Q88.67687 180.63435 88.36437 180.44685Q88.05187 180.24373 87.63 180.24373Q86.95812 180.24373 86.45812 180.68123Q85.97375 181.1031 85.97375 182.2906L85.97375 185.69685L84.92687 185.69685ZM91.53625 182.58748Q91.53625 180.8531 92.48937 180.02498Q93.28625 179.33748 94.4425 179.33748Q95.72375 179.33748 96.53625 180.18123Q97.36437 181.00935 97.36437 182.49373Q97.36437 183.69685 97.005 184.38435Q96.64562 185.07185 95.9425 185.46248Q95.255 185.83748 94.4425 185.83748Q93.14562 185.83748 92.33312 185.00935Q91.53625 184.1656 91.53625 182.58748ZM92.61437 182.58748Q92.61437 183.77498 93.13 184.36873Q93.66125 184.96248 94.4425 184.96248Q95.23937 184.96248 95.755 184.36873Q96.27062 183.77498 96.27062 182.55623Q96.27062 181.39998 95.73937 180.80623Q95.22375 180.21248 94.4425 180.21248Q93.66125 180.21248 93.13 180.80623Q92.61437 181.38435 92.61437 182.58748ZM101.22375 184.75935L101.38 185.68123Q100.92687 185.77498 100.58312 185.77498Q100.005 185.77498 99.6925 185.6031Q99.38 185.4156 99.23937 185.11873Q99.11437 184.82185 99.11437 183.86873L99.11437 180.2906L98.34875 180.2906L98.34875 179.4781L99.11437 179.4781L99.11437 177.93123L100.16125 177.30623L100.16125 179.4781L101.22375 179.4781L101.22375 180.2906L100.16125 180.2906L100.16125 183.93123Q100.16125 184.38435 100.20812 184.50935Q100.27062 184.63435 100.39562 184.71248Q100.52062 184.7906 100.755 184.7906Q100.9425 184.7906 101.22375 184.75935ZM104.72375 186.21248L105.755 186.36873Q105.8175 186.83748 106.11437 187.05623Q106.505 187.3531 107.17687 187.3531Q107.91125 187.3531 108.30187 187.05623Q108.70812 186.75935 108.84875 186.24373Q108.9425 185.9156 108.92687 184.88435Q108.23937 185.69685 107.20812 185.69685Q105.92687 185.69685 105.22375 184.77498Q104.52062 183.83748 104.52062 182.55623Q104.52062 181.6656 104.83312 180.9156Q105.16125 180.14998 105.77062 179.74373Q106.38 179.33748 107.20812 179.33748Q108.3175 179.33748 109.03625 180.2281L109.03625 179.4781L110.005 179.4781L110.005 184.8531Q110.005 186.30623 109.70812 186.9156Q109.41125 187.52498 108.77062 187.86873Q108.13 188.2281 107.1925 188.2281Q106.08312 188.2281 105.39562 187.7281Q104.70812 187.2281 104.72375 186.21248ZM105.59875 182.4781Q105.59875 183.69685 106.08312 184.25935Q106.5675 184.82185 107.30187 184.82185Q108.03625 184.82185 108.52062 184.25935Q109.02062 183.69685 109.02062 182.50935Q109.02062 181.36873 108.505 180.7906Q108.005 180.21248 107.28625 180.21248Q106.58312 180.21248 106.08312 180.7906Q105.59875 181.3531 105.59875 182.4781ZM116.17687 183.69685L117.27062 183.82185Q117.02062 184.77498 116.3175 185.30623Q115.61437 185.83748 114.53625 185.83748Q113.17687 185.83748 112.36437 184.99373Q111.5675 184.14998 111.5675 182.63435Q111.5675 181.07185 112.38 180.21248Q113.1925 179.33748 114.47375 179.33748Q115.72375 179.33748 116.505 180.18123Q117.30187 181.02498 117.30187 182.57185Q117.30187 182.6656 117.30187 182.8531L112.66125 182.8531Q112.72375 183.88435 113.23937 184.43123Q113.755 184.96248 114.53625 184.96248Q115.11437 184.96248 115.52062 184.6656Q115.9425 184.3531 116.17687 183.69685ZM112.72375 181.99373L116.1925 181.99373Q116.13 181.19685 115.80187 180.80623Q115.28625 180.19685 114.48937 180.19685Q113.755 180.19685 113.255 180.68123Q112.77062 181.1656 112.72375 181.99373ZM121.22375 184.75935L121.38 185.68123Q120.92687 185.77498 120.58312 185.77498Q120.005 185.77498 119.6925 185.6031Q119.38 185.4156 119.23937 185.11873Q119.11437 184.82185 119.11437 183.86873L119.11437 180.2906L118.34875 180.2906L118.34875 179.4781L119.11437 179.4781L119.11437 177.93123L120.16125 177.30623L120.16125 179.4781L121.22375 179.4781L121.22375 180.2906L120.16125 180.2906L120.16125 183.93123Q120.16125 184.38435 120.20812 184.50935Q120.27062 184.63435 120.39562 184.71248Q120.52062 184.7906 120.755 184.7906Q120.9425 184.7906 121.22375 184.75935ZM128.98938 184.93123Q128.39563 185.43123 127.84875 185.63435Q127.3175 185.83748 126.6925 185.83748Q125.66125 185.83748 125.11437 185.33748Q124.5675 184.83748 124.5675 184.05623Q124.5675 183.6031 124.77062 183.2281Q124.97375 182.83748 125.3175 182.61873Q125.66125 182.38435 126.08312 182.27498Q126.38 182.18123 127.02062 182.1031Q128.28625 181.96248 128.89563 181.74373Q128.89563 181.52498 128.89563 181.4781Q128.89563 180.82185 128.59875 180.55623Q128.1925 180.21248 127.39562 180.21248Q126.66125 180.21248 126.30187 180.4781Q125.9425 180.7281 125.77062 181.38435L124.73937 181.24373Q124.88 180.58748 125.20812 180.18123Q125.53625 179.77498 126.14562 179.55623Q126.755 179.33748 127.55187 179.33748Q128.34875 179.33748 128.84875 179.52498Q129.34875 179.71248 129.58313 179.99373Q129.8175 180.27498 129.91125 180.71248Q129.95813 180.9781 129.95813 181.68123L129.95813 183.08748Q129.95813 184.55623 130.02063 184.94685Q130.09875 185.33748 130.30188 185.69685L129.1925 185.69685Q129.03625 185.36873 128.98938 184.93123ZM128.89563 182.57185Q128.3175 182.80623 127.17687 182.9781Q126.52062 183.07185 126.255 183.19685Q125.98937 183.30623 125.83312 183.52498Q125.6925 183.74373 125.6925 184.02498Q125.6925 184.44685 126.005 184.7281Q126.33312 185.00935 126.9425 185.00935Q127.55187 185.00935 128.02063 184.74373Q128.505 184.4781 128.72375 184.00935Q128.89563 183.64998 128.89563 182.96248L128.89563 182.57185Z" fill-rule="nonzero"/><path fill="#000000" d="M121.22375 198.75935L121.38 199.68123Q120.92687 199.77498 120.58312 199.77498Q120.005 199.77498 119.6925 199.6031Q119.38 199.4156 119.23937 199.11873Q119.11437 198.82185 119.11437 197.86873L119.11437 194.2906L118.34875 194.2906L118.34875 193.4781L119.11437 193.4781L119.11437 191.93123L120.16125 191.30623L120.16125 193.4781L121.22375 193.4781L121.22375 194.2906L120.16125 194.2906L120.16125 197.93123Q120.16125 198.38435 120.20812 198.50935Q120.27062 198.63435 120.39562 198.71248Q120.52062 198.7906 120.755 198.7906Q120.9425 198.7906 121.22375 198.75935ZM125.98937 198.93123Q125.39562 199.43123 124.84875 199.63435Q124.3175 199.83748 123.6925 199.83748Q122.66125 199.83748 122.11437 199.33748Q121.5675 198.83748 121.5675 198.05623Q121.5675 197.6031 121.77062 197.2281Q121.97375 196.83748 122.3175 196.61873Q122.66125 196.38435 123.08312 196.27498Q123.38 196.18123 124.02062 196.1031Q125.28625 195.96248 125.89562 195.74373Q125.89562 195.52498 125.89562 195.4781Q125.89562 194.82185 125.59875 194.55623Q125.1925 194.21248 124.39562 194.21248Q123.66125 194.21248 123.30187 194.4781Q122.9425 194.7281 122.77062 195.38435L121.73937 195.24373Q121.88 194.58748 122.20812 194.18123Q122.53625 193.77498 123.14562 193.55623Q123.755 193.33748 124.55187 193.33748Q125.34875 193.33748 125.84875 193.52498Q126.34875 193.71248 126.58312 193.99373Q126.8175 194.27498 126.91125 194.71248Q126.95812 194.9781 126.95812 195.68123L126.95812 197.08748Q126.95812 198.55623 127.02062 198.94685Q127.09875 199.33748 127.30187 199.69685L126.1925 199.69685Q126.03625 199.36873 125.98937 198.93123ZM125.89562 196.57185Q125.3175 196.80623 124.17687 196.9781Q123.52062 197.07185 123.255 197.19685Q122.98937 197.30623 122.83312 197.52498Q122.6925 197.74373 122.6925 198.02498Q122.6925 198.44685 123.005 198.7281Q123.33312 199.00935 123.9425 199.00935Q124.55187 199.00935 125.02062 198.74373Q125.505 198.4781 125.72375 198.00935Q125.89562 197.64998 125.89562 196.96248L125.89562 196.57185ZM131.22375 198.75935L131.38 199.68123Q130.92688 199.77498 130.58313 199.77498Q130.005 199.77498 129.6925 199.6031Q129.38 199.4156 129.23938 199.11873Q129.11438 198.82185 129.11438 197.86873L129.11438 194.2906L128.34875 194.2906L128.34875 193.4781L129.11438 193.4781L129.11438 191.93123L130.16125 191.30623L130.16125 193.4781L131.22375 193.4781L131.22375 194.2906L130.16125 194.2906L130.16125 197.93123Q130.16125 198.38435 130.20813 198.50935Q130.27063 198.63435 130.39563 198.71248Q130.52063 198.7906 130.755 198.7906Q130.9425 198.7906 131.22375 198.75935Z" fill-rule="nonzero"/><path fill="#000000" d="M86.05187 230.09055L86.05187 221.4968L89.02062 221.4968Q90.02062 221.4968 90.55187 221.6218Q91.28625 221.79367 91.80187 222.23117Q92.48937 222.8093 92.8175 223.71555Q93.16125 224.60617 93.16125 225.7468Q93.16125 226.73117 92.92687 227.48117Q92.70812 228.23117 92.34875 228.73117Q91.98937 229.23117 91.55187 229.51242Q91.13 229.79367 90.53625 229.94992Q89.9425 230.09055 89.16125 230.09055L86.05187 230.09055ZM87.1925 229.07492L89.02062 229.07492Q89.88 229.07492 90.36437 228.91867Q90.84875 228.76242 91.13 228.46555Q91.53625 228.07492 91.755 227.38742Q91.98937 226.69992 91.98937 225.73117Q91.98937 224.38742 91.53625 223.66867Q91.09875 222.9343 90.47375 222.6843Q90.005 222.51242 89.005 222.51242L87.1925 222.51242L87.1925 229.07492ZM99.17687 228.09055L100.27062 228.21555Q100.02062 229.16867 99.3175 229.69992Q98.61437 230.23117 97.53625 230.23117Q96.17687 230.23117 95.36437 229.38742Q94.5675 228.54367 94.5675 227.02805Q94.5675 225.46555 95.38 224.60617Q96.1925 223.73117 97.47375 223.73117Q98.72375 223.73117 99.505 224.57492Q100.30187 225.41867 100.30187 226.96555Q100.30187 227.0593 100.30187 227.2468L95.66125 227.2468Q95.72375 228.27805 96.23937 228.82492Q96.755 229.35617 97.53625 229.35617Q98.11437 229.35617 98.52062 229.0593Q98.9425 228.7468 99.17687 228.09055ZM95.72375 226.38742L99.1925 226.38742Q99.13 225.59055 98.80187 225.19992Q98.28625 224.59055 97.48937 224.59055Q96.755 224.59055 96.255 225.07492Q95.77062 225.5593 95.72375 226.38742ZM102.17687 230.09055L102.17687 224.6843L101.23937 224.6843L101.23937 223.8718L102.17687 223.8718L102.17687 223.19992Q102.17687 222.57492 102.28625 222.27805Q102.4425 221.85617 102.8175 221.60617Q103.20812 221.35617 103.89562 221.35617Q104.34875 221.35617 104.88 221.46555L104.72375 222.3718Q104.39562 222.32492 104.09875 222.32492Q103.61437 222.32492 103.41125 222.52805Q103.22375 222.73117 103.22375 223.29367L103.22375 223.8718L104.4425 223.8718L104.4425 224.6843L103.22375 224.6843L103.22375 230.09055L102.17687 230.09055ZM109.17687 228.09055L110.27062 228.21555Q110.02062 229.16867 109.3175 229.69992Q108.61437 230.23117 107.53625 230.23117Q106.17687 230.23117 105.36437 229.38742Q104.5675 228.54367 104.5675 227.02805Q104.5675 225.46555 105.38 224.60617Q106.1925 223.73117 107.47375 223.73117Q108.72375 223.73117 109.505 224.57492Q110.30187 225.41867 110.30187 226.96555Q110.30187 227.0593 110.30187 227.2468L105.66125 227.2468Q105.72375 228.27805 106.23937 228.82492Q106.755 229.35617 107.53625 229.35617Q108.11437 229.35617 108.52062 229.0593Q108.9425 228.7468 109.17687 228.09055ZM105.72375 226.38742L109.1925 226.38742Q109.13 225.59055 108.80187 225.19992Q108.28625 224.59055 107.48937 224.59055Q106.755 224.59055 106.255 225.07492Q105.77062 225.5593 105.72375 226.38742ZM111.92687 230.09055L111.92687 223.8718L112.86437 223.8718L112.86437 224.7468Q113.55187 223.73117 114.84875 223.73117Q115.41125 223.73117 115.88 223.9343Q116.36437 224.13742 116.59875 224.46555Q116.83312 224.79367 116.92687 225.23117Q116.97375 225.52805 116.97375 226.26242L116.97375 230.09055L115.92687 230.09055L115.92687 226.3093Q115.92687 225.65305 115.80187 225.34055Q115.67687 225.02805 115.36437 224.84055Q115.05187 224.63742 114.63 224.63742Q113.95812 224.63742 113.45812 225.07492Q112.97375 225.4968 112.97375 226.6843L112.97375 230.09055L111.92687 230.09055ZM118.505 228.23117L119.53625 228.07492Q119.63 228.69992 120.02062 229.02805Q120.42687 229.35617 121.16125 229.35617Q121.88 229.35617 122.22375 229.07492Q122.58312 228.77805 122.58312 228.3718Q122.58312 228.01242 122.27062 227.8093Q122.05187 227.66867 121.1925 227.44992Q120.03625 227.15305 119.58312 226.94992Q119.14562 226.73117 118.91125 226.35617Q118.67687 225.98117 118.67687 225.51242Q118.67687 225.10617 118.86437 224.7468Q119.05187 224.38742 119.38 224.15305Q119.63 223.98117 120.05187 223.85617Q120.47375 223.73117 120.97375 223.73117Q121.6925 223.73117 122.23937 223.94992Q122.80187 224.15305 123.0675 224.51242Q123.33312 224.8718 123.42687 225.46555L122.39562 225.60617Q122.33312 225.13742 121.98937 224.8718Q121.66125 224.59055 121.03625 224.59055Q120.3175 224.59055 120.005 224.84055Q119.6925 225.07492 119.6925 225.40305Q119.6925 225.60617 119.8175 225.76242Q119.95812 225.9343 120.22375 226.04367Q120.38 226.10617 121.16125 226.3093Q122.28625 226.6218 122.72375 226.8093Q123.16125 226.9968 123.41125 227.35617Q123.66125 227.71555 123.66125 228.26242Q123.66125 228.79367 123.34875 229.26242Q123.05187 229.71555 122.47375 229.98117Q121.89562 230.23117 121.16125 230.23117Q119.9425 230.23117 119.30187 229.73117Q118.67687 229.21555 118.505 228.23117ZM129.17688 228.09055L130.27063 228.21555Q130.02063 229.16867 129.3175 229.69992Q128.61438 230.23117 127.53625 230.23117Q126.17687 230.23117 125.36437 229.38742Q124.5675 228.54367 124.5675 227.02805Q124.5675 225.46555 125.38 224.60617Q126.1925 223.73117 127.47375 223.73117Q128.72375 223.73117 129.505 224.57492Q130.30188 225.41867 130.30188 226.96555Q130.30188 227.0593 130.30188 227.2468L125.66125 227.2468Q125.72375 228.27805 126.23937 228.82492Q126.755 229.35617 127.53625 229.35617Q128.11438 229.35617 128.52063 229.0593Q128.9425 228.7468 129.17688 228.09055ZM125.72375 226.38742L129.1925 226.38742Q129.13 225.59055 128.80188 225.19992Q128.28625 224.59055 127.48937 224.59055Q126.755 224.59055 126.255 225.07492Q125.77062 225.5593 125.72375 226.38742Z" fill-rule="nonzero"/><path fill="#000000" d="M62.083126 271.10925L62.083126 270.10925L65.70813 270.09363L65.70813 273.28113Q64.880005 273.953 63.989376 274.29675Q63.09875 274.62488 62.16125 274.62488Q60.895626 274.62488 59.84875 274.09363Q58.8175 273.54675 58.28625 272.53113Q57.770626 271.49988 57.770626 270.23425Q57.770626 268.96863 58.28625 267.8905Q58.8175 266.79675 59.801876 266.28113Q60.78625 265.74988 62.0675 265.74988Q63.005 265.74988 63.755 266.04675Q64.505005 266.34363 64.92688 266.8905Q65.36438 267.42175 65.58313 268.29675L64.567505 268.578Q64.36438 267.92175 64.067505 267.54675Q63.78625 267.17175 63.255 266.953Q62.72375 266.71863 62.083126 266.71863Q61.301876 266.71863 60.72375 266.953Q60.16125 267.18738 59.801876 267.578Q59.458126 267.96863 59.270626 268.43738Q58.9425 269.23425 58.9425 270.15613Q58.9425 271.31238 59.333126 272.09363Q59.739376 272.85925 60.489376 273.23425Q61.239376 273.60925 62.09875 273.60925Q62.833126 273.60925 63.53625 273.328Q64.23938 273.03113 64.598755 272.71863L64.598755 271.10925L62.083126 271.10925ZM66.911255 274.48425L66.911255 268.2655L67.86438 268.2655L67.86438 269.203Q68.223755 268.54675 68.52063 268.34363Q68.83313 268.12488 69.20813 268.12488Q69.73938 268.12488 70.286255 268.453L69.92688 269.43738Q69.536255 269.203 69.161255 269.203Q68.80188 269.203 68.52063 269.42175Q68.255005 269.62488 68.14563 269.99988Q67.95813 270.56238 67.95813 271.21863L67.95813 274.48425L66.911255 274.48425ZM75.17688 272.48425L76.27063 272.60925Q76.02063 273.56238 75.317505 274.09363Q74.61438 274.62488 73.536255 274.62488Q72.17688 274.62488 71.36438 273.78113Q70.567505 272.93738 70.567505 271.42175Q70.567505 269.85925 71.380005 268.99988Q72.192505 268.12488 73.473755 268.12488Q74.723755 268.12488 75.505005 268.96863Q76.30188 269.81238 76.30188 271.35925Q76.30188 271.453 76.30188 271.6405L71.661255 271.6405Q71.723755 272.67175 72.23938 273.21863Q72.755005 273.74988 73.536255 273.74988Q74.11438 273.74988 74.52063 273.453Q74.942505 273.1405 75.17688 272.48425ZM71.723755 270.78113L75.192505 270.78113Q75.130005 269.98425 74.80188 269.59363Q74.286255 268.98425 73.48938 268.98425Q72.755005 268.98425 72.255005 269.46863Q71.77063 269.953 71.723755 270.78113ZM81.98938 273.71863Q81.39563 274.21863 80.848755 274.42175Q80.317505 274.62488 79.692505 274.62488Q78.661255 274.62488 78.11438 274.12488Q77.567505 273.62488 77.567505 272.84363Q77.567505 272.3905 77.77063 272.0155Q77.973755 271.62488 78.317505 271.40613Q78.661255 271.17175 79.08313 271.06238Q79.380005 270.96863 80.02063 270.8905Q81.286255 270.74988 81.89563 270.53113Q81.89563 270.31238 81.89563 270.2655Q81.89563 269.60925 81.598755 269.34363Q81.192505 268.99988 80.39563 268.99988Q79.661255 268.99988 79.30188 269.2655Q78.942505 269.5155 78.77063 270.17175L77.73938 270.03113Q77.880005 269.37488 78.20813 268.96863Q78.536255 268.56238 79.14563 268.34363Q79.755005 268.12488 80.55188 268.12488Q81.348755 268.12488 81.848755 268.31238Q82.348755 268.49988 82.58313 268.78113Q82.817505 269.06238 82.911255 269.49988Q82.95813 269.7655 82.95813 270.46863L82.95813 271.87488Q82.95813 273.34363 83.02063 273.73425Q83.098755 274.12488 83.30188 274.48425L82.192505 274.48425Q82.036255 274.15613 81.98938 273.71863ZM81.89563 271.35925Q81.317505 271.59363 80.17688 271.7655Q79.52063 271.85925 79.255005 271.98425Q78.98938 272.09363 78.83313 272.31238Q78.692505 272.53113 78.692505 272.81238Q78.692505 273.23425 79.005005 273.5155Q79.33313 273.79675 79.942505 273.79675Q80.55188 273.79675 81.02063 273.53113Q81.505005 273.2655 81.723755 272.79675Q81.89563 272.43738 81.89563 271.74988L81.89563 271.35925ZM87.223755 273.54675L87.380005 274.46863Q86.92688 274.56238 86.58313 274.56238Q86.005005 274.56238 85.692505 274.3905Q85.380005 274.203 85.23938 273.90613Q85.11438 273.60925 85.11438 272.65613L85.11438 269.078L84.348755 269.078L84.348755 268.2655L85.11438 268.2655L85.11438 266.71863L86.161255 266.09363L86.161255 268.2655L87.223755 268.2655L87.223755 269.078L86.161255 269.078L86.161255 272.71863Q86.161255 273.17175 86.20813 273.29675Q86.27063 273.42175 86.39563 273.49988Q86.52063 273.578 86.755005 273.578Q86.942505 273.578 87.223755 273.54675ZM94.95813 274.48425L94.95813 273.703Q94.36438 274.62488 93.223755 274.62488Q92.473755 274.62488 91.848755 274.21863Q91.223755 273.79675 90.880005 273.06238Q90.536255 272.328 90.536255 271.37488Q90.536255 270.453 90.848755 269.68738Q91.161255 268.92175 91.786255 268.53113Q92.411255 268.12488 93.17688 268.12488Q93.73938 268.12488 94.17688 268.35925Q94.61438 268.59363 94.89563 268.96863L94.89563 265.8905L95.942505 265.8905L95.942505 274.48425L94.95813 274.48425ZM91.630005 271.37488Q91.630005 272.578 92.130005 273.17175Q92.630005 273.74988 93.317505 273.74988Q94.005005 273.74988 94.48938 273.18738Q94.973755 272.62488 94.973755 271.46863Q94.973755 270.18738 94.473755 269.59363Q93.98938 268.99988 93.27063 268.99988Q92.567505 268.99988 92.098755 269.578Q91.630005 270.1405 91.630005 271.37488ZM97.911255 274.48425L97.911255 268.2655L98.86438 268.2655L98.86438 269.203Q99.223755 268.54675 99.52063 268.34363Q99.83313 268.12488 100.20813 268.12488Q100.73938 268.12488 101.286255 268.453L100.92688 269.43738Q100.536255 269.203 100.161255 269.203Q99.80188 269.203 99.52063 269.42175Q99.255005 269.62488 99.14563 269.99988Q98.95813 270.56238 98.95813 271.21863L98.95813 274.48425L97.911255 274.48425ZM105.98938 273.71863Q105.39563 274.21863 104.848755 274.42175Q104.317505 274.62488 103.692505 274.62488Q102.661255 274.62488 102.11438 274.12488Q101.567505 273.62488 101.567505 272.84363Q101.567505 272.3905 101.77063 272.0155Q101.973755 271.62488 102.317505 271.40613Q102.661255 271.17175 103.08313 271.06238Q103.380005 270.96863 104.02063 270.8905Q105.286255 270.74988 105.89563 270.53113Q105.89563 270.31238 105.89563 270.2655Q105.89563 269.60925 105.598755 269.34363Q105.192505 268.99988 104.39563 268.99988Q103.661255 268.99988 103.30188 269.2655Q102.942505 269.5155 102.77063 270.17175L101.73938 270.03113Q101.880005 269.37488 102.20813 268.96863Q102.536255 268.56238 103.14563 268.34363Q103.755005 268.12488 104.55188 268.12488Q105.348755 268.12488 105.848755 268.31238Q106.348755 268.49988 106.58313 268.78113Q106.817505 269.06238 106.911255 269.49988Q106.95813 269.7655 106.95813 270.46863L106.95813 271.87488Q106.95813 273.34363 107.02063 273.73425Q107.098755 274.12488 107.30188 274.48425L106.192505 274.48425Q106.036255 274.15613 105.98938 273.71863ZM105.89563 271.35925Q105.317505 271.59363 104.17688 271.7655Q103.52063 271.85925 103.255005 271.98425Q102.98938 272.09363 102.83313 272.31238Q102.692505 272.53113 102.692505 272.81238Q102.692505 273.23425 103.005005 273.5155Q103.33313 273.79675 103.942505 273.79675Q104.55188 273.79675 105.02063 273.53113Q105.505005 273.2655 105.723755 272.79675Q105.89563 272.43738 105.89563 271.74988L105.89563 271.35925ZM109.17688 274.48425L109.17688 269.078L108.23938 269.078L108.23938 268.2655L109.17688 268.2655L109.17688 267.59363Q109.17688 266.96863 109.286255 266.67175Q109.442505 266.24988 109.817505 265.99988Q110.20813 265.74988 110.89563 265.74988Q111.348755 265.74988 111.880005 265.85925L111.723755 266.7655Q111.39563 266.71863 111.098755 266.71863Q110.61438 266.71863 110.411255 266.92175Q110.223755 267.12488 110.223755 267.68738L110.223755 268.2655L111.442505 268.2655L111.442505 269.078L110.223755 269.078L110.223755 274.48425L109.17688 274.48425ZM114.223755 273.54675L114.380005 274.46863Q113.92688 274.56238 113.58313 274.56238Q113.005005 274.56238 112.692505 274.3905Q112.380005 274.203 112.23938 273.90613Q112.11438 273.60925 112.11438 272.65613L112.11438 269.078L111.348755 269.078L111.348755 268.2655L112.11438 268.2655L112.11438 266.71863L113.161255 266.09363L113.161255 268.2655L114.223755 268.2655L114.223755 269.078L113.161255 269.078L113.161255 272.71863Q113.161255 273.17175 113.20813 273.29675Q113.27063 273.42175 113.39563 273.49988Q113.52063 273.578 113.755005 273.578Q113.942505 273.578 114.223755 273.54675ZM114.92688 267.10925L114.92688 265.8905L115.98938 265.8905L115.98938 267.10925L114.92688 267.10925ZM114.92688 274.48425L114.92688 268.2655L115.98938 268.2655L115.98938 274.48425L114.92688 274.48425ZM117.92688 274.48425L117.92688 268.2655L118.86438 268.2655L118.86438 269.1405Q119.55188 268.12488 120.848755 268.12488Q121.411255 268.12488 121.880005 268.328Q122.36438 268.53113 122.598755 268.85925Q122.83313 269.18738 122.92688 269.62488Q122.973755 269.92175 122.973755 270.65613L122.973755 274.48425L121.92688 274.48425L121.92688 270.703Q121.92688 270.04675 121.80188 269.73425Q121.67688 269.42175 121.36438 269.23425Q121.05188 269.03113 120.630005 269.03113Q119.95813 269.03113 119.45813 269.46863Q118.973755 269.8905 118.973755 271.078L118.973755 274.48425L117.92688 274.48425ZM124.723755 274.99988L125.755005 275.15613Q125.817505 275.62488 126.11438 275.84363Q126.505005 276.1405 127.17688 276.1405Q127.911255 276.1405 128.30188 275.84363Q128.70813 275.54675 128.84875 275.03113Q128.9425 274.703 128.92688 273.67175Q128.23938 274.48425 127.20813 274.48425Q125.92688 274.48425 125.223755 273.56238Q124.52063 272.62488 124.52063 271.34363Q124.52063 270.453 124.83313 269.703Q125.161255 268.93738 125.77063 268.53113Q126.380005 268.12488 127.20813 268.12488Q128.3175 268.12488 129.03625 269.0155L129.03625 268.2655L130.005 268.2655L130.005 273.6405Q130.005 275.09363 129.70813 275.703Q129.41125 276.31238 128.77063 276.65613Q128.13 277.0155 127.192505 277.0155Q126.08313 277.0155 125.39563 276.5155Q124.70813 276.0155 124.723755 274.99988ZM125.598755 271.2655Q125.598755 272.48425 126.08313 273.04675Q126.567505 273.60925 127.30188 273.60925Q128.03625 273.60925 128.52063 273.04675Q129.02063 272.48425 129.02063 271.29675Q129.02063 270.15613 128.505 269.578Q128.005 268.99988 127.286255 268.99988Q126.58313 268.99988 126.08313 269.578Q125.598755 270.1405 125.598755 271.2655Z" fill-rule="nonzero"/><path fill="#000000" d="M134.13 313.21564Q134.13 311.6844 134.4425 310.7625Q134.755 309.825 135.36438 309.325Q135.98938 308.825 136.92688 308.825Q137.61438 308.825 138.13 309.10626Q138.66125 309.3875 139.005 309.91876Q139.34875 310.4344 139.53625 311.1844Q139.72375 311.9344 139.72375 313.21564Q139.72375 314.73126 139.41125 315.65314Q139.11438 316.575 138.48938 317.09064Q137.88 317.59064 136.92688 317.59064Q135.6925 317.59064 134.97375 316.7Q134.13 315.6375 134.13 313.21564ZM135.20813 313.21564Q135.20813 315.325 135.70813 316.02814Q136.20813 316.73126 136.92688 316.73126Q137.66125 316.73126 138.14563 316.02814Q138.64563 315.325 138.64563 313.21564Q138.64563 311.09064 138.14563 310.40314Q137.66125 309.7 136.91125 309.7Q136.1925 309.7 135.755 310.3094Q135.20813 311.09064 135.20813 313.21564Z" fill-rule="nonzero"/><path fill="#000000" d="M228.54088 316.4344L228.54088 317.45L222.85338 317.45Q222.85338 317.075 222.97838 316.71564Q223.19713 316.1375 223.66588 315.575Q224.15025 315.0125 225.0565 314.27814Q226.46275 313.1219 226.94713 312.45Q227.44713 311.77814 227.44713 311.1844Q227.44713 310.5594 226.994 310.1375Q226.54088 309.7 225.82213 309.7Q225.0565 309.7 224.60338 310.15314Q224.15025 310.60626 224.13463 311.41876L223.0565 311.3094Q223.16588 310.09064 223.88463 309.46564Q224.619 308.825 225.85338 308.825Q227.08775 308.825 227.8065 309.5125Q228.52525 310.2 228.52525 311.21564Q228.52525 311.73126 228.3065 312.23126Q228.10338 312.71564 227.60338 313.27814Q227.119 313.825 225.994 314.77814Q225.04088 315.575 224.75963 315.8719Q224.494 316.15314 224.32213 316.4344L228.54088 316.4344Z" fill-rule="nonzero"/><path fill="#000000" d="M315.233 317.45L315.233 315.3875L311.51425 315.3875L311.51425 314.41876L315.43613 308.85626L316.2955 308.85626L316.2955 314.41876L317.45175 314.41876L317.45175 315.3875L316.2955 315.3875L316.2955 317.45L315.233 317.45ZM315.233 314.41876L315.233 310.5594L312.5455 314.41876L315.233 314.41876Z" fill-rule="nonzero"/><path fill="#000000" d="M406.19073 310.96564L405.14386 311.04376Q405.00323 310.41876 404.75323 310.1375Q404.31573 309.6844 403.69073 309.6844Q403.19073 309.6844 402.8001 309.96564Q402.31573 310.34064 402.01886 311.04376Q401.7376 311.73126 401.722 313.0125Q402.097 312.4344 402.64386 312.15314Q403.20636 311.8719 403.81573 311.8719Q404.8626 311.8719 405.597 312.65314Q406.347 313.4344 406.347 314.65314Q406.347 315.46564 405.9876 316.16876Q405.64386 316.85626 405.0345 317.23126Q404.4251 317.59064 403.6595 317.59064Q402.33136 317.59064 401.50323 316.6219Q400.6751 315.65314 400.6751 313.4344Q400.6751 310.9344 401.597 309.8094Q402.39386 308.825 403.75323 308.825Q404.76886 308.825 405.4095 309.40314Q406.06573 309.96564 406.19073 310.96564ZM401.89386 314.66876Q401.89386 315.21564 402.1126 315.71564Q402.347 316.2 402.75323 316.46564Q403.1751 316.73126 403.64386 316.73126Q404.3001 316.73126 404.7845 316.2Q405.26886 315.65314 405.26886 314.73126Q405.26886 313.84064 404.7845 313.325Q404.31573 312.8094 403.597 312.8094Q402.87823 312.8094 402.37823 313.325Q401.89386 313.84064 401.89386 314.66876Z" fill-rule="nonzero"/><path fill="#000000" d="M491.211 312.79376Q490.55475 312.54376 490.22662 312.10626Q489.91412 311.65314 489.91412 311.04376Q489.91412 310.10626 490.586 309.46564Q491.2735 308.825 492.38287 308.825Q493.50787 308.825 494.19537 309.48126Q494.88287 310.1375 494.88287 311.075Q494.88287 311.66876 494.57037 312.10626Q494.25787 312.54376 493.61725 312.79376Q494.41412 313.04376 494.82037 313.6219Q495.22662 314.2 495.22662 314.9969Q495.22662 316.09064 494.44537 316.84064Q493.67975 317.59064 492.3985 317.59064Q491.13287 317.59064 490.35162 316.84064Q489.57037 316.09064 489.57037 314.96564Q489.57037 314.1219 489.99225 313.5594Q490.42975 312.9969 491.211 312.79376ZM490.99225 310.9969Q490.99225 311.60626 491.38287 311.9969Q491.78912 312.3875 492.41412 312.3875Q493.0235 312.3875 493.41412 312.0125Q493.80475 311.6219 493.80475 311.0594Q493.80475 310.48126 493.3985 310.09064Q492.99225 309.6844 492.3985 309.6844Q491.78912 309.6844 491.38287 310.075Q490.99225 310.46564 490.99225 310.9969ZM490.66412 314.96564Q490.66412 315.41876 490.86725 315.84064Q491.086 316.2625 491.50787 316.4969Q491.92975 316.73126 492.41412 316.73126Q493.16412 316.73126 493.6485 316.2469Q494.1485 315.7625 494.1485 315.0125Q494.1485 314.2469 493.6485 313.7469Q493.1485 313.2469 492.38287 313.2469Q491.63287 313.2469 491.1485 313.7469Q490.66412 314.23126 490.66412 314.96564Z" fill-rule="nonzero"/><path fill="#000000" d="M578.91876 317.45L577.8719 317.45L577.8719 310.73126Q577.48126 311.09064 576.85626 311.46564Q576.2469 311.825 575.7625 311.9969L575.7625 310.98126Q576.6375 310.5594 577.29376 309.98126Q577.96564 309.3875 578.2469 308.825L578.91876 308.825L578.91876 317.45ZM581.95 313.21564Q581.95 311.6844 582.2625 310.7625Q582.575 309.825 583.1844 309.325Q583.8094 308.825 584.7469 308.825Q585.4344 308.825 585.95 309.10626Q586.48126 309.3875 586.825 309.91876Q587.16876 310.4344 587.35626 311.1844Q587.54376 311.9344 587.54376 313.21564Q587.54376 314.73126 587.23126 315.65314Q586.9344 316.575 586.3094 317.09064Q585.7 317.59064 584.7469 317.59064Q583.5125 317.59064 582.79376 316.7Q581.95 315.6375 581.95 313.21564ZM583.02814 313.21564Q583.02814 315.325 583.52814 316.02814Q584.02814 316.73126 584.7469 316.73126Q585.48126 316.73126 585.96564 316.02814Q586.46564 315.325 586.46564 313.21564Q586.46564 311.09064 585.96564 310.40314Q585.48126 309.7 584.73126 309.7Q584.0125 309.7 583.575 310.3094Q583.02814 311.09064 583.02814 313.21564Z" fill-rule="nonzero"/></svg>