<svg version="1.1" viewBox="0.0 0.0 600.0 371.0" fill="none" stroke="none" stroke-linecap="square" stroke-miterlimit="10" width="600" height="371" xmlns:xlink="http://www.w3.org/1999/xlink" xmlns="http://www.w3.org/2000/svg"><path fill="#ffffff" d="M0 0L600.0 0L600.0 371.0L0 371.0L0 0Z" fill-rule="nonzero"/><path fill="#4285f4" d="M300.0 18.55C392.20395 18.55 466.95 93.29606 466.95 185.5L300.0 185.5Z" fill-rule="nonzero"/><path fill="#34a853" d="M133.05 185.5C133.05 93.29606 207.79607 18.55 300.0 18.55L300.0 185.5Z" fill-rule="nonzero"/><path fill="#fbbc04" d="M155.41705 268.975C140.76413 243.5954 133.05 214.80585 133.05 185.5L300.0 185.5Z" fill-rule="nonzero"/><path fill="#ea4335" d="M466.95 185.5C466.95 261.06253 416.19763 327.20428 343.20984 346.76132C270.22205 366.31833 193.19832 334.41406 155.41705 268.975L300.0 185.5Z" fill-rule="nonzero"/><path fill="#1a1a1a" d="M19.471874 68.8511L19.471874 60.257347L22.721874 60.257347Q23.565624 60.257347 24.01875 60.335472Q24.659374 60.444847 25.08125 60.741722Q25.51875 61.038597 25.76875 61.569847Q26.034374 62.101097 26.034374 62.741722Q26.034374 63.835472 25.33125 64.6011Q24.64375 65.3511 22.815624 65.3511L20.6125 65.3511L20.6125 68.8511L19.471874 68.8511ZM20.6125 64.3511L22.83125 64.3511Q23.940624 64.3511 24.39375 63.944847Q24.8625 63.522972 24.8625 62.772972Q24.8625 62.241722 24.58125 61.866722Q24.315624 61.476097 23.878124 61.351097Q23.58125 61.272972 22.815624 61.272972L20.6125 61.272972L20.6125 64.3511ZM27.33125 68.8511L27.33125 62.632347L28.284374 62.632347L28.284374 63.569847Q28.64375 62.913597 28.940624 62.710472Q29.253124 62.491722 29.628124 62.491722Q30.159374 62.491722 30.70625 62.819847L30.346874 63.804222Q29.95625 63.569847 29.58125 63.569847Q29.221874 63.569847 28.940624 63.788597Q28.675 63.991722 28.565624 64.36672Q28.378124 64.92922 28.378124 65.58547L28.378124 68.8511L27.33125 68.8511ZM30.95625 65.74172Q30.95625 64.00735 31.909374 63.179222Q32.70625 62.491722 33.8625 62.491722Q35.14375 62.491722 35.95625 63.335472Q36.784374 64.1636 36.784374 65.64797Q36.784374 66.8511 36.425 67.5386Q36.065624 68.2261 35.3625 68.61672Q34.675 68.99172 33.8625 68.99172Q32.565624 68.99172 31.753124 68.1636Q30.95625 67.31985 30.95625 65.74172ZM32.034374 65.74172Q32.034374 66.92922 32.55 67.52297Q33.08125 68.11672 33.8625 68.11672Q34.659374 68.11672 35.175 67.52297Q35.690624 66.92922 35.690624 65.71047Q35.690624 64.55422 35.159374 63.960472Q34.64375 63.366722 33.8625 63.366722Q33.08125 63.366722 32.55 63.960472Q32.034374 64.5386 32.034374 65.74172ZM38.346874 68.8511L38.346874 62.632347L39.284374 62.632347L39.284374 63.507347Q39.971874 62.491722 41.26875 62.491722Q41.83125 62.491722 42.3 62.694847Q42.784374 62.897972 43.01875 63.226097Q43.253124 63.554222 43.346874 63.991722Q43.39375 64.2886 43.39375 65.02297L43.39375 68.8511L42.346874 68.8511L42.346874 65.06985Q42.346874 64.4136 42.221874 64.1011Q42.096874 63.788597 41.784374 63.601097Q41.471874 63.397972 41.05 63.397972Q40.378124 63.397972 39.878124 63.835472Q39.39375 64.25735 39.39375 65.44485L39.39375 68.8511L38.346874 68.8511ZM45.14375 69.36672L46.175 69.52297Q46.2375 69.99172 46.534374 70.21047Q46.925 70.50735 47.596874 70.50735Q48.33125 70.50735 48.721874 70.21047Q49.128124 69.9136 49.26875 69.39797Q49.3625 69.06985 49.346874 68.0386Q48.659374 68.8511 47.628124 68.8511Q46.346874 68.8511 45.64375 67.92922Q44.940624 66.99172 44.940624 65.71047Q44.940624 64.81985 45.253124 64.06985Q45.58125 63.304222 46.190624 62.897972Q46.8 62.491722 47.628124 62.491722Q48.7375 62.491722 49.45625 63.382347L49.45625 62.632347L50.425 62.632347L50.425 68.00735Q50.425 69.46047 50.128124 70.06985Q49.83125 70.67922 49.190624 71.02297Q48.55 71.38235 47.6125 71.38235Q46.503124 71.38235 45.815624 70.88235Q45.128124 70.38235 45.14375 69.36672ZM46.01875 65.63235Q46.01875 66.8511 46.503124 67.4136Q46.9875 67.9761 47.721874 67.9761Q48.45625 67.9761 48.940624 67.4136Q49.440624 66.8511 49.440624 65.6636Q49.440624 64.52297 48.925 63.944847Q48.425 63.366722 47.70625 63.366722Q47.003124 63.366722 46.503124 63.944847Q46.01875 64.50735 46.01875 65.63235ZM52.346874 68.8511L52.346874 60.257347L53.39375 60.257347L53.39375 63.335472Q54.128124 62.491722 55.253124 62.491722Q55.95625 62.491722 56.45625 62.772972Q56.971874 63.038597 57.190624 63.522972Q57.409374 63.991722 57.409374 64.9136L57.409374 68.8511L56.3625 68.8511L56.3625 64.9136Q56.3625 64.11672 56.01875 63.757347Q55.675 63.397972 55.05 63.397972Q54.58125 63.397972 54.159374 63.647972Q53.753124 63.882347 53.565624 64.30422Q53.39375 64.71047 53.39375 65.44485L53.39375 68.8511L52.346874 68.8511ZM58.95625 65.74172Q58.95625 64.00735 59.909374 63.179222Q60.70625 62.491722 61.8625 62.491722Q63.14375 62.491722 63.95625 63.335472Q64.78438 64.1636 64.78438 65.64797Q64.78438 66.8511 64.425 67.5386Q64.06563 68.2261 63.3625 68.61672Q62.675 68.99172 61.8625 68.99172Q60.565624 68.99172 59.753124 68.1636Q58.95625 67.31985 58.95625 65.74172ZM60.034374 65.74172Q60.034374 66.92922 60.55 67.52297Q61.08125 68.11672 61.8625 68.11672Q62.659374 68.11672 63.175 67.52297Q63.690624 66.92922 63.690624 65.71047Q63.690624 64.55422 63.159374 63.960472Q62.64375 63.366722 61.8625 63.366722Q61.08125 63.366722 60.55 63.960472Q60.034374 64.5386 60.034374 65.74172ZM66.33125 68.8511L66.33125 62.632347L67.28438 62.632347L67.28438 63.569847Q67.64375 62.913597 67.94063 62.710472Q68.25313 62.491722 68.62813 62.491722Q69.15938 62.491722 69.70625 62.819847L69.34688 63.804222Q68.95625 63.569847 68.58125 63.569847Q68.22188 63.569847 67.94063 63.788597Q67.675 63.991722 67.56563 64.36672Q67.37813 64.92922 67.37813 65.58547L67.37813 68.8511L66.33125 68.8511ZM70.34688 68.8511L70.34688 62.632347L71.28438 62.632347L71.28438 63.507347Q71.97188 62.491722 73.26875 62.491722Q73.83125 62.491722 74.3 62.694847Q74.78438 62.897972 75.01875 63.226097Q75.25313 63.554222 75.34688 63.991722Q75.39375 64.2886 75.39375 65.02297L75.39375 68.8511L74.34688 68.8511L74.34688 65.06985Q74.34688 64.4136 74.22188 64.1011Q74.09688 63.788597 73.78438 63.601097Q73.47188 63.397972 73.05 63.397972Q72.37813 63.397972 71.87813 63.835472Q71.39375 64.25735 71.39375 65.44485L71.39375 68.8511L70.34688 68.8511Z" fill-rule="nonzero"/><path fill="#9e9e9e" d="M24.596874 84.83547L24.596874 85.8511L18.909374 85.8511Q18.909374 85.4761 19.034374 85.11672Q19.253124 84.5386 19.721874 83.9761Q20.20625 83.4136 21.1125 82.67922Q22.51875 81.52297 23.003124 80.8511Q23.503124 80.17922 23.503124 79.58547Q23.503124 78.96047 23.05 78.5386Q22.596874 78.1011 21.878124 78.1011Q21.1125 78.1011 20.659374 78.55422Q20.20625 79.00735 20.190624 79.81985L19.1125 79.71047Q19.221874 78.49172 19.940624 77.86672Q20.675 77.2261 21.909374 77.2261Q23.14375 77.2261 23.8625 77.9136Q24.58125 78.6011 24.58125 79.61672Q24.58125 80.13235 24.3625 80.63235Q24.159374 81.11672 23.659374 81.67922Q23.175 82.2261 22.05 83.17922Q21.096874 83.9761 20.815624 84.27297Q20.55 84.55422 20.378124 84.83547L24.596874 84.83547ZM26.05 83.6011L27.159374 83.50735Q27.284374 84.31985 27.721874 84.7261Q28.175 85.13235 28.815624 85.13235Q29.565624 85.13235 30.096874 84.55422Q30.628124 83.9761 30.628124 83.0386Q30.628124 82.13235 30.1125 81.61672Q29.6125 81.08547 28.784374 81.08547Q28.284374 81.08547 27.8625 81.31985Q27.45625 81.55422 27.221874 81.9136L26.2375 81.7886L27.065624 77.38235L31.346874 77.38235L31.346874 78.38235L27.909374 78.38235L27.45625 80.69485Q28.221874 80.14797 29.065624 80.14797Q30.190624 80.14797 30.95625 80.92922Q31.7375 81.71047 31.7375 82.94485Q31.7375 84.1011 31.065624 84.96047Q30.2375 85.99172 28.815624 85.99172Q27.64375 85.99172 26.89375 85.33547Q26.159374 84.67922 26.05 83.6011ZM33.64375 85.8511L33.64375 84.64797L34.846874 84.64797L34.846874 85.8511L33.64375 85.8511ZM36.05 81.61672Q36.05 80.08547 36.3625 79.1636Q36.675 78.2261 37.284374 77.7261Q37.909374 77.2261 38.846874 77.2261Q39.534374 77.2261 40.05 77.50735Q40.58125 77.7886 40.925 78.31985Q41.26875 78.83547 41.45625 79.58547Q41.64375 80.33547 41.64375 81.61672Q41.64375 83.13235 41.33125 84.05422Q41.034374 84.9761 40.409374 85.49172Q39.8 85.99172 38.846874 85.99172Q37.6125 85.99172 36.89375 85.1011Q36.05 84.0386 36.05 81.61672ZM37.128124 81.61672Q37.128124 83.7261 37.628124 84.42922Q38.128124 85.13235 38.846874 85.13235Q39.58125 85.13235 40.065624 84.42922Q40.565624 83.7261 40.565624 81.61672Q40.565624 79.49172 40.065624 78.80422Q39.58125 78.1011 38.83125 78.1011Q38.1125 78.1011 37.675 78.71047Q37.128124 79.49172 37.128124 81.61672ZM43.253124 79.31985Q43.253124 78.39797 43.70625 77.75735Q44.175 77.11672 45.05 77.11672Q45.8625 77.11672 46.39375 77.69485Q46.925 78.27297 46.925 79.38235Q46.925 80.4761 46.378124 81.06985Q45.846874 81.64797 45.065624 81.64797Q44.284374 81.64797 43.76875 81.06985Q43.253124 80.49172 43.253124 79.31985ZM45.08125 77.83547Q44.690624 77.83547 44.425 78.17922Q44.175 78.52297 44.175 79.42922Q44.175 80.25735 44.425 80.6011Q44.690624 80.92922 45.08125 80.92922Q45.4875 80.92922 45.7375 80.58547Q46.003124 80.24172 46.003124 79.3511Q46.003124 78.50735 45.7375 78.17922Q45.471874 77.83547 45.08125 77.83547ZM45.08125 86.1636L49.784374 77.11672L50.64375 77.11672L45.95625 86.1636L45.08125 86.1636ZM48.8 83.83547Q48.8 82.9136 49.253124 82.27297Q49.721874 81.63235 50.6125 81.63235Q51.425 81.63235 51.95625 82.21047Q52.4875 82.77297 52.4875 83.89797Q52.4875 84.99172 51.940624 85.58547Q51.409374 86.1636 50.6125 86.1636Q49.846874 86.1636 49.315624 85.58547Q48.8 85.00735 48.8 83.83547ZM50.64375 82.3511Q50.2375 82.3511 49.971874 82.69485Q49.721874 83.0386 49.721874 83.94485Q49.721874 84.75735 49.9875 85.1011Q50.253124 85.44485 50.64375 85.44485Q51.034374 85.44485 51.3 85.1011Q51.565624 84.75735 51.565624 83.8511Q51.565624 83.02297 51.3 82.69485Q51.034374 82.3511 50.64375 82.3511Z" fill-rule="nonzero"/><path stroke="#757575" stroke-width="1.0" stroke-linecap="butt" d="M18.55 73.3511L127.05 73.3511L187.85109 73.3511" fill-rule="nonzero"/><path fill="#9e9e9e" d="M189.85109 73.3511C189.85109 72.24653 188.95567 71.3511 187.85109 71.3511C186.74652 71.3511 185.85109 72.24653 185.85109 73.3511C185.85109 74.455666 186.74652 75.3511 187.85109 75.3511C188.95567 75.3511 189.85109 74.455666 189.85109 73.3511" fill-rule="nonzero"/><path fill="#1a1a1a" d="M19.471874 222.04935L19.471874 213.4556L22.721874 213.4556Q23.565624 213.4556 24.01875 213.53372Q24.659374 213.6431 25.08125 213.93997Q25.51875 214.23685 25.76875 214.7681Q26.034374 215.29935 26.034374 215.93997Q26.034374 217.03372 25.33125 217.79935Q24.64375 218.54935 22.815624 218.54935L20.6125 218.54935L20.6125 222.04935L19.471874 222.04935ZM20.6125 217.54935L22.83125 217.54935Q23.940624 217.54935 24.39375 217.1431Q24.8625 216.72122 24.8625 215.97122Q24.8625 215.43997 24.58125 215.06497Q24.315624 214.67435 23.878124 214.54935Q23.58125 214.47122 22.815624 214.47122L20.6125 214.47122L20.6125 217.54935ZM31.596874 220.04935L32.690624 220.17435Q32.440624 221.12747 31.7375 221.65872Q31.034374 222.18997 29.95625 222.18997Q28.596874 222.18997 27.784374 221.34622Q26.9875 220.50247 26.9875 218.98685Q26.9875 217.42435 27.8 216.56497Q28.6125 215.68997 29.89375 215.68997Q31.14375 215.68997 31.925 216.53372Q32.721874 217.37747 32.721874 218.92435Q32.721874 219.0181 32.721874 219.2056L28.08125 219.2056Q28.14375 220.23685 28.659374 220.78372Q29.175 221.31497 29.95625 221.31497Q30.534374 221.31497 30.940624 221.0181Q31.3625 220.7056 31.596874 220.04935ZM28.14375 218.34622L31.6125 218.34622Q31.55 217.54935 31.221874 217.15872Q30.70625 216.54935 29.909374 216.54935Q29.175 216.54935 28.675 217.03372Q28.190624 217.5181 28.14375 218.34622ZM34.33125 222.04935L34.33125 215.8306L35.284374 215.8306L35.284374 216.7681Q35.64375 216.11185 35.940624 215.90872Q36.253124 215.68997 36.628124 215.68997Q37.159374 215.68997 37.70625 216.0181L37.346874 217.00247Q36.95625 216.7681 36.58125 216.7681Q36.221874 216.7681 35.940624 216.98685Q35.675 217.18997 35.565624 217.56497Q35.378124 218.12747 35.378124 218.78372L35.378124 222.04935L34.33125 222.04935ZM42.596874 220.04935L43.690624 220.17435Q43.440624 221.12747 42.7375 221.65872Q42.034374 222.18997 40.95625 222.18997Q39.596874 222.18997 38.784374 221.34622Q37.9875 220.50247 37.9875 218.98685Q37.9875 217.42435 38.8 216.56497Q39.6125 215.68997 40.89375 215.68997Q42.14375 215.68997 42.925 216.53372Q43.721874 217.37747 43.721874 218.92435Q43.721874 219.0181 43.721874 219.2056L39.08125 219.2056Q39.14375 220.23685 39.659374 220.78372Q40.175 221.31497 40.95625 221.31497Q41.534374 221.31497 41.940624 221.0181Q42.3625 220.7056 42.596874 220.04935ZM39.14375 218.34622L42.6125 218.34622Q42.55 217.54935 42.221874 217.15872Q41.70625 216.54935 40.909374 216.54935Q40.175 216.54935 39.675 217.03372Q39.190624 217.5181 39.14375 218.34622ZM45.14375 222.56497L46.175 222.72122Q46.2375 223.18997 46.534374 223.40872Q46.925 223.7056 47.596874 223.7056Q48.33125 223.7056 48.721874 223.40872Q49.128124 223.11185 49.26875 222.59622Q49.3625 222.2681 49.346874 221.23685Q48.659374 222.04935 47.628124 222.04935Q46.346874 222.04935 45.64375 221.12747Q44.940624 220.18997 44.940624 218.90872Q44.940624 218.0181 45.253124 217.2681Q45.58125 216.50247 46.190624 216.09622Q46.8 215.68997 47.628124 215.68997Q48.7375 215.68997 49.45625 216.5806L49.45625 215.8306L50.425 215.8306L50.425 221.2056Q50.425 222.65872 50.128124 223.2681Q49.83125 223.87747 49.190624 224.22122Q48.55 224.5806 47.6125 224.5806Q46.503124 224.5806 45.815624 224.0806Q45.128124 223.5806 45.14375 222.56497ZM46.01875 218.8306Q46.01875 220.04935 46.503124 220.61185Q46.9875 221.17435 47.721874 221.17435Q48.45625 221.17435 48.940624 220.61185Q49.440624 220.04935 49.440624 218.86185Q49.440624 217.72122 48.925 217.1431Q48.425 216.56497 47.70625 216.56497Q47.003124 216.56497 46.503124 217.1431Q46.01875 217.7056 46.01875 218.8306ZM52.33125 222.04935L52.33125 215.8306L53.284374 215.8306L53.284374 216.7681Q53.64375 216.11185 53.940624 215.90872Q54.253124 215.68997 54.628124 215.68997Q55.159374 215.68997 55.70625 216.0181L55.346874 217.00247Q54.95625 216.7681 54.58125 216.7681Q54.221874 216.7681 53.940624 216.98685Q53.675 217.18997 53.565624 217.56497Q53.378124 218.12747 53.378124 218.78372L53.378124 222.04935L52.33125 222.04935ZM56.346874 214.67435L56.346874 213.4556L57.409374 213.4556L57.409374 214.67435L56.346874 214.67435ZM56.346874 222.04935L56.346874 215.8306L57.409374 215.8306L57.409374 222.04935L56.346874 222.04935ZM59.346874 222.04935L59.346874 215.8306L60.284374 215.8306L60.284374 216.7056Q60.971874 215.68997 62.26875 215.68997Q62.83125 215.68997 63.3 215.8931Q63.784374 216.09622 64.01875 216.42435Q64.25313 216.75247 64.34688 217.18997Q64.39375 217.48685 64.39375 218.22122L64.39375 222.04935L63.346874 222.04935L63.346874 218.2681Q63.346874 217.61185 63.221874 217.29935Q63.096874 216.98685 62.784374 216.79935Q62.471874 216.59622 62.05 216.59622Q61.378124 216.59622 60.878124 217.03372Q60.39375 217.4556 60.39375 218.6431L60.39375 222.04935L59.346874 222.04935ZM70.59688 220.04935L71.69063 220.17435Q71.44063 221.12747 70.7375 221.65872Q70.03438 222.18997 68.95625 222.18997Q67.59688 222.18997 66.78438 221.34622Q65.9875 220.50247 65.9875 218.98685Q65.9875 217.42435 66.8 216.56497Q67.6125 215.68997 68.89375 215.68997Q70.14375 215.68997 70.925 216.53372Q71.72188 217.37747 71.72188 218.92435Q71.72188 219.0181 71.72188 219.2056L67.08125 219.2056Q67.14375 220.23685 67.65938 220.78372Q68.175 221.31497 68.95625 221.31497Q69.53438 221.31497 69.94063 221.0181Q70.3625 220.7056 70.59688 220.04935ZM67.14375 218.34622L70.6125 218.34622Q70.55 217.54935 70.22188 217.15872Q69.70625 216.54935 68.90938 216.54935Q68.175 216.54935 67.675 217.03372Q67.19063 217.5181 67.14375 218.34622ZM76.53438 222.04935L76.53438 213.4556L82.33125 213.4556L82.33125 214.47122L77.675 214.47122L77.675 217.12747L81.70625 217.12747L81.70625 218.1431L77.675 218.1431L77.675 222.04935L76.53438 222.04935ZM87.40938 221.28372Q86.81563 221.78372 86.26875 221.98685Q85.7375 222.18997 85.1125 222.18997Q84.08125 222.18997 83.53438 221.68997Q82.9875 221.18997 82.9875 220.40872Q82.9875 219.9556 83.19063 219.5806Q83.39375 219.18997 83.7375 218.97122Q84.08125 218.73685 84.50313 218.62747Q84.8 218.53372 85.44063 218.4556Q86.70625 218.31497 87.31563 218.09622Q87.31563 217.87747 87.31563 217.8306Q87.31563 217.17435 87.01875 216.90872Q86.6125 216.56497 85.81563 216.56497Q85.08125 216.56497 84.72188 216.8306Q84.3625 217.0806 84.19063 217.73685L83.15938 217.59622Q83.3 216.93997 83.62813 216.53372Q83.95625 216.12747 84.56563 215.90872Q85.175 215.68997 85.97188 215.68997Q86.76875 215.68997 87.26875 215.87747Q87.76875 216.06497 88.00313 216.34622Q88.2375 216.62747 88.33125 217.06497Q88.37813 217.3306 88.37813 218.03372L88.37813 219.43997Q88.37813 220.90872 88.44063 221.29935Q88.51875 221.68997 88.72188 222.04935L87.6125 222.04935Q87.45625 221.72122 87.40938 221.28372ZM87.31563 218.92435Q86.7375 219.15872 85.59688 219.3306Q84.94063 219.42435 84.675 219.54935Q84.40938 219.65872 84.25313 219.87747Q84.1125 220.09622 84.1125 220.37747Q84.1125 220.79935 84.425 221.0806Q84.75313 221.36185 85.3625 221.36185Q85.97188 221.36185 86.44063 221.09622Q86.925 220.8306 87.14375 220.36185Q87.31563 220.00247 87.31563 219.31497L87.31563 218.92435ZM90.31563 222.04935L90.31563 213.4556L91.37813 213.4556L91.37813 222.04935L90.31563 222.04935ZM97.40938 219.7681L98.44063 219.90872Q98.26875 220.97122 97.56563 221.5806Q96.8625 222.18997 95.84688 222.18997Q94.56563 222.18997 93.78438 221.36185Q93.01875 220.5181 93.01875 218.9556Q93.01875 217.9556 93.34688 217.2056Q93.69063 216.43997 94.3625 216.06497Q95.05 215.68997 95.8625 215.68997Q96.8625 215.68997 97.50313 216.2056Q98.15938 216.7056 98.34688 217.65872L97.31563 217.81497Q97.175 217.18997 96.8 216.87747Q96.425 216.54935 95.89375 216.54935Q95.09688 216.54935 94.59688 217.12747Q94.09688 217.68997 94.09688 218.92435Q94.09688 220.18997 94.58125 220.75247Q95.06563 221.31497 95.83125 221.31497Q96.45625 221.31497 96.8625 220.93997Q97.28438 220.56497 97.40938 219.7681ZM98.95625 218.93997Q98.95625 217.2056 99.90938 216.37747Q100.70625 215.68997 101.8625 215.68997Q103.14375 215.68997 103.95625 216.53372Q104.78438 217.36185 104.78438 218.84622Q104.78438 220.04935 104.425 220.73685Q104.06563 221.42435 103.3625 221.81497Q102.675 222.18997 101.8625 222.18997Q100.56563 222.18997 99.75313 221.36185Q98.95625 220.5181 98.95625 218.93997ZM100.03438 218.93997Q100.03438 220.12747 100.55 220.72122Q101.08125 221.31497 101.8625 221.31497Q102.65938 221.31497 103.175 220.72122Q103.69063 220.12747 103.69063 218.90872Q103.69063 217.75247 103.15938 217.15872Q102.64375 216.56497 101.8625 216.56497Q101.08125 216.56497 100.55 217.15872Q100.03438 217.73685 100.03438 218.93997ZM106.34688 222.04935L106.34688 215.8306L107.28438 215.8306L107.28438 216.7056Q107.97188 215.68997 109.26875 215.68997Q109.83125 215.68997 110.3 215.8931Q110.78438 216.09622 111.01875 216.42435Q111.25313 216.75247 111.34688 217.18997Q111.39375 217.48685 111.39375 218.22122L111.39375 222.04935L110.34688 222.04935L110.34688 218.2681Q110.34688 217.61185 110.22188 217.29935Q110.09688 216.98685 109.78438 216.79935Q109.47188 216.59622 109.05 216.59622Q108.37813 216.59622 107.87813 217.03372Q107.39375 217.4556 107.39375 218.6431L107.39375 222.04935L106.34688 222.04935Z" fill-rule="nonzero"/><path fill="#9e9e9e" d="M20.675 234.3931Q20.01875 234.1431 19.690624 233.7056Q19.378124 233.25247 19.378124 232.6431Q19.378124 231.7056 20.05 231.06497Q20.7375 230.42435 21.846874 230.42435Q22.971874 230.42435 23.659374 231.0806Q24.346874 231.73685 24.346874 232.67435Q24.346874 233.2681 24.034374 233.7056Q23.721874 234.1431 23.08125 234.3931Q23.878124 234.6431 24.284374 235.22122Q24.690624 235.79935 24.690624 236.59622Q24.690624 237.68997 23.909374 238.43997Q23.14375 239.18997 21.8625 239.18997Q20.596874 239.18997 19.815624 238.43997Q19.034374 237.68997 19.034374 236.56497Q19.034374 235.72122 19.45625 235.15872Q19.89375 234.59622 20.675 234.3931ZM20.45625 232.59622Q20.45625 233.2056 20.846874 233.59622Q21.253124 233.98685 21.878124 233.98685Q22.4875 233.98685 22.878124 233.61185Q23.26875 233.22122 23.26875 232.65872Q23.26875 232.0806 22.8625 231.68997Q22.45625 231.28372 21.8625 231.28372Q21.253124 231.28372 20.846874 231.67435Q20.45625 232.06497 20.45625 232.59622ZM20.128124 236.56497Q20.128124 237.0181 20.33125 237.43997Q20.55 237.86185 20.971874 238.09622Q21.39375 238.3306 21.878124 238.3306Q22.628124 238.3306 23.1125 237.84622Q23.6125 237.36185 23.6125 236.61185Q23.6125 235.84622 23.1125 235.34622Q22.6125 234.84622 21.846874 234.84622Q21.096874 234.84622 20.6125 235.34622Q20.128124 235.8306 20.128124 236.56497ZM26.64375 239.04935L26.64375 237.84622L27.846874 237.84622L27.846874 239.04935L26.64375 239.04935ZM29.05 236.78372L30.1125 236.6431Q30.284374 237.53372 30.721874 237.93997Q31.159374 238.3306 31.784374 238.3306Q32.534374 238.3306 33.05 237.81497Q33.565624 237.29935 33.565624 236.53372Q33.565624 235.81497 33.08125 235.34622Q32.6125 234.86185 31.878124 234.86185Q31.58125 234.86185 31.128124 234.98685L31.253124 234.04935Q31.3625 234.06497 31.425 234.06497Q32.096874 234.06497 32.628124 233.72122Q33.175 233.36185 33.175 232.62747Q33.175 232.04935 32.784374 231.67435Q32.39375 231.28372 31.76875 231.28372Q31.159374 231.28372 30.7375 231.67435Q30.33125 232.06497 30.221874 232.8306L29.159374 232.6431Q29.346874 231.59622 30.034374 231.0181Q30.721874 230.42435 31.7375 230.42435Q32.440624 230.42435 33.034374 230.73685Q33.628124 231.03372 33.940624 231.54935Q34.253124 232.06497 34.253124 232.65872Q34.253124 233.2056 33.95625 233.67435Q33.659374 234.12747 33.08125 234.3931Q33.83125 234.56497 34.253124 235.12747Q34.675 235.67435 34.675 236.5181Q34.675 237.6431 33.846874 238.42435Q33.034374 239.2056 31.784374 239.2056Q30.659374 239.2056 29.909374 238.53372Q29.159374 237.84622 29.05 236.78372ZM36.253124 232.5181Q36.253124 231.59622 36.70625 230.9556Q37.175 230.31497 38.05 230.31497Q38.8625 230.31497 39.39375 230.8931Q39.925 231.47122 39.925 232.5806Q39.925 233.67435 39.378124 234.2681Q38.846874 234.84622 38.065624 234.84622Q37.284374 234.84622 36.76875 234.2681Q36.253124 233.68997 36.253124 232.5181ZM38.08125 231.03372Q37.690624 231.03372 37.425 231.37747Q37.175 231.72122 37.175 232.62747Q37.175 233.4556 37.425 233.79935Q37.690624 234.12747 38.08125 234.12747Q38.4875 234.12747 38.7375 233.78372Q39.003124 233.43997 39.003124 232.54935Q39.003124 231.7056 38.7375 231.37747Q38.471874 231.03372 38.08125 231.03372ZM38.08125 239.36185L42.784374 230.31497L43.64375 230.31497L38.95625 239.36185L38.08125 239.36185ZM41.8 237.03372Q41.8 236.11185 42.253124 235.47122Q42.721874 234.8306 43.6125 234.8306Q44.425 234.8306 44.95625 235.40872Q45.4875 235.97122 45.4875 237.09622Q45.4875 238.18997 44.940624 238.78372Q44.409374 239.36185 43.6125 239.36185Q42.846874 239.36185 42.315624 238.78372Q41.8 238.2056 41.8 237.03372ZM43.64375 235.54935Q43.2375 235.54935 42.971874 235.8931Q42.721874 236.23685 42.721874 237.1431Q42.721874 237.9556 42.9875 238.29935Q43.253124 238.6431 43.64375 238.6431Q44.034374 238.6431 44.3 238.29935Q44.565624 237.9556 44.565624 237.04935Q44.565624 236.22122 44.3 235.8931Q44.034374 235.54935 43.64375 235.54935Z" fill-rule="nonzero"/><path stroke="#757575" stroke-width="1.0" stroke-linecap="butt" d="M18.55 226.54935L127.05 226.54935L146.80174 226.54935" fill-rule="nonzero"/><path fill="#9e9e9e" d="M148.80174 226.54935C148.80174 225.44478 147.90631 224.54935 146.80174 224.54935C145.69717 224.54935 144.80174 225.44478 144.80174 226.54935C144.80174 227.65392 145.69717 228.54935 146.80174 228.54935C147.90631 228.54935 148.80174 227.65392 148.80174 226.54935" fill-rule="nonzero"/><path fill="#1a1a1a" d="M498.40314 68.8511L498.40314 60.257347L504.60626 60.257347L504.60626 61.272972L499.54376 61.272972L499.54376 63.897972L504.29376 63.897972L504.29376 64.9136L499.54376 64.9136L499.54376 67.83547L504.8094 67.83547L504.8094 68.8511L498.40314 68.8511ZM510.325 68.8511L510.325 67.92922Q509.59064 68.99172 508.34064 68.99172Q507.79376 68.99172 507.3094 68.7886Q506.84064 68.56985 506.60626 68.25735Q506.3719 67.92922 506.27814 67.46047Q506.21564 67.1636 506.21564 66.4761L506.21564 62.632347L507.27814 62.632347L507.27814 66.08547Q507.27814 66.89797 507.34064 67.19485Q507.4344 67.6011 507.7469 67.8511Q508.075 68.08547 508.5594 68.08547Q509.02814 68.08547 509.4344 67.8511Q509.85626 67.6011 510.02814 67.17922Q510.21564 66.75735 510.21564 65.96047L510.21564 62.632347L511.2625 62.632347L511.2625 68.8511L510.325 68.8511ZM513.23126 68.8511L513.23126 62.632347L514.1844 62.632347L514.1844 63.569847Q514.54376 62.913597 514.84064 62.710472Q515.15314 62.491722 515.52814 62.491722Q516.0594 62.491722 516.60626 62.819847L516.2469 63.804222Q515.85626 63.569847 515.48126 63.569847Q515.1219 63.569847 514.84064 63.788597Q514.575 63.991722 514.46564 64.36672Q514.27814 64.92922 514.27814 65.58547L514.27814 68.8511L513.23126 68.8511ZM516.85626 65.74172Q516.85626 64.00735 517.8094 63.179222Q518.60626 62.491722 519.7625 62.491722Q521.04376 62.491722 521.85626 63.335472Q522.6844 64.1636 522.6844 65.64797Q522.6844 66.8511 522.325 67.5386Q521.96564 68.2261 521.2625 68.61672Q520.575 68.99172 519.7625 68.99172Q518.46564 68.99172 517.65314 68.1636Q516.85626 67.31985 516.85626 65.74172ZM517.9344 65.74172Q517.9344 66.92922 518.45 67.52297Q518.98126 68.11672 519.7625 68.11672Q520.5594 68.11672 521.075 67.52297Q521.59064 66.92922 521.59064 65.71047Q521.59064 64.55422 521.0594 63.960472Q520.54376 63.366722 519.7625 63.366722Q518.98126 63.366722 518.45 63.960472Q517.9344 64.5386 517.9344 65.74172ZM524.2469 71.24172L524.2469 62.632347L525.2 62.632347L525.2 63.429222Q525.54376 62.960472 525.96564 62.726097Q526.40314 62.491722 527.0125 62.491722Q527.8094 62.491722 528.41876 62.897972Q529.02814 63.304222 529.325 64.05422Q529.6375 64.80422 529.6375 65.69485Q529.6375 66.64797 529.29376 67.4136Q528.96564 68.17922 528.3094 68.58547Q527.65314 68.99172 526.9344 68.99172Q526.40314 68.99172 525.98126 68.77297Q525.5594 68.5386 525.29376 68.21047L525.29376 71.24172L524.2469 71.24172ZM525.2 65.77297Q525.2 66.9761 525.6844 67.55422Q526.16876 68.11672 526.85626 68.11672Q527.5594 68.11672 528.0594 67.52297Q528.5594 66.92922 528.5594 65.67922Q528.5594 64.49172 528.075 63.913597Q527.59064 63.319847 526.90314 63.319847Q526.23126 63.319847 525.71564 63.944847Q525.2 64.56985 525.2 65.77297ZM535.4969 66.8511L536.59064 66.9761Q536.34064 67.92922 535.6375 68.46047Q534.9344 68.99172 533.85626 68.99172Q532.4969 68.99172 531.6844 68.14797Q530.8875 67.30422 530.8875 65.7886Q530.8875 64.2261 531.7 63.366722Q532.5125 62.491722 533.79376 62.491722Q535.04376 62.491722 535.825 63.335472Q536.6219 64.17922 536.6219 65.7261Q536.6219 65.81985 536.6219 66.00735L531.98126 66.00735Q532.04376 67.0386 532.5594 67.58547Q533.075 68.11672 533.85626 68.11672Q534.4344 68.11672 534.84064 67.81985Q535.2625 67.50735 535.4969 66.8511ZM532.04376 65.14797L535.5125 65.14797Q535.45 64.3511 535.1219 63.960472Q534.60626 63.351097 533.8094 63.351097Q533.075 63.351097 532.575 63.835472Q532.09064 64.31985 532.04376 65.14797ZM542.3094 68.08547Q541.71564 68.58547 541.16876 68.7886Q540.6375 68.99172 540.0125 68.99172Q538.98126 68.99172 538.4344 68.49172Q537.8875 67.99172 537.8875 67.21047Q537.8875 66.75735 538.09064 66.38235Q538.29376 65.99172 538.6375 65.77297Q538.98126 65.5386 539.40314 65.42922Q539.7 65.33547 540.34064 65.25735Q541.60626 65.11672 542.21564 64.89797Q542.21564 64.67922 542.21564 64.63235Q542.21564 63.976097 541.91876 63.710472Q541.5125 63.366722 540.71564 63.366722Q539.98126 63.366722 539.6219 63.632347Q539.2625 63.882347 539.09064 64.5386L538.0594 64.39797Q538.2 63.741722 538.52814 63.335472Q538.85626 62.929222 539.46564 62.710472Q540.075 62.491722 540.8719 62.491722Q541.66876 62.491722 542.16876 62.679222Q542.66876 62.866722 542.90314 63.147972Q543.1375 63.429222 543.23126 63.866722Q543.27814 64.13235 543.27814 64.83547L543.27814 66.24172Q543.27814 67.71047 543.34064 68.1011Q543.41876 68.49172 543.6219 68.8511L542.5125 68.8511Q542.35626 68.52297 542.3094 68.08547ZM542.21564 65.7261Q541.6375 65.96047 540.4969 66.13235Q539.84064 66.2261 539.575 66.3511Q539.3094 66.46047 539.15314 66.67922Q539.0125 66.89797 539.0125 67.17922Q539.0125 67.6011 539.325 67.88235Q539.65314 68.1636 540.2625 68.1636Q540.8719 68.1636 541.34064 67.89797Q541.825 67.63235 542.04376 67.1636Q542.21564 66.80422 542.21564 66.11672L542.21564 65.7261ZM545.2469 68.8511L545.2469 62.632347L546.1844 62.632347L546.1844 63.507347Q546.8719 62.491722 548.16876 62.491722Q548.73126 62.491722 549.2 62.694847Q549.6844 62.897972 549.91876 63.226097Q550.15314 63.554222 550.2469 63.991722Q550.29376 64.2886 550.29376 65.02297L550.29376 68.8511L549.2469 68.8511L549.2469 65.06985Q549.2469 64.4136 549.1219 64.1011Q548.9969 63.788597 548.6844 63.601097Q548.3719 63.397972 547.95 63.397972Q547.27814 63.397972 546.77814 63.835472Q546.29376 64.25735 546.29376 65.44485L546.29376 68.8511L545.2469 68.8511ZM555.41876 68.8511L555.41876 60.257347L556.54376 60.257347L556.54376 63.788597L561.0125 63.788597L561.0125 60.257347L562.15314 60.257347L562.15314 68.8511L561.0125 68.8511L561.0125 64.80422L556.54376 64.80422L556.54376 68.8511L555.41876 68.8511ZM568.3094 68.08547Q567.71564 68.58547 567.16876 68.7886Q566.6375 68.99172 566.0125 68.99172Q564.98126 68.99172 564.4344 68.49172Q563.8875 67.99172 563.8875 67.21047Q563.8875 66.75735 564.09064 66.38235Q564.29376 65.99172 564.6375 65.77297Q564.98126 65.5386 565.40314 65.42922Q565.7 65.33547 566.34064 65.25735Q567.60626 65.11672 568.21564 64.89797Q568.21564 64.67922 568.21564 64.63235Q568.21564 63.976097 567.91876 63.710472Q567.5125 63.366722 566.71564 63.366722Q565.98126 63.366722 565.6219 63.632347Q565.2625 63.882347 565.09064 64.5386L564.0594 64.39797Q564.2 63.741722 564.52814 63.335472Q564.85626 62.929222 565.46564 62.710472Q566.075 62.491722 566.8719 62.491722Q567.66876 62.491722 568.16876 62.679222Q568.66876 62.866722 568.90314 63.147972Q569.1375 63.429222 569.23126 63.866722Q569.27814 64.13235 569.27814 64.83547L569.27814 66.24172Q569.27814 67.71047 569.34064 68.1011Q569.41876 68.49172 569.6219 68.8511L568.5125 68.8511Q568.35626 68.52297 568.3094 68.08547ZM568.21564 65.7261Q567.6375 65.96047 566.4969 66.13235Q565.84064 66.2261 565.575 66.3511Q565.3094 66.46047 565.15314 66.67922Q565.0125 66.89797 565.0125 67.17922Q565.0125 67.6011 565.325 67.88235Q565.65314 68.1636 566.2625 68.1636Q566.8719 68.1636 567.34064 67.89797Q567.825 67.63235 568.04376 67.1636Q568.21564 66.80422 568.21564 66.11672L568.21564 65.7261ZM571.23126 68.8511L571.23126 62.632347L572.1844 62.632347L572.1844 63.569847Q572.54376 62.913597 572.84064 62.710472Q573.15314 62.491722 573.52814 62.491722Q574.0594 62.491722 574.60626 62.819847L574.2469 63.804222Q573.85626 63.569847 573.48126 63.569847Q573.1219 63.569847 572.84064 63.788597Q572.575 63.991722 572.46564 64.36672Q572.27814 64.92922 572.27814 65.58547L572.27814 68.8511L571.23126 68.8511ZM579.4969 66.8511L580.59064 66.9761Q580.34064 67.92922 579.6375 68.46047Q578.9344 68.99172 577.85626 68.99172Q576.4969 68.99172 575.6844 68.14797Q574.8875 67.30422 574.8875 65.7886Q574.8875 64.2261 575.7 63.366722Q576.5125 62.491722 577.79376 62.491722Q579.04376 62.491722 579.825 63.335472Q580.6219 64.17922 580.6219 65.7261Q580.6219 65.81985 580.6219 66.00735L575.98126 66.00735Q576.04376 67.0386 576.5594 67.58547Q577.075 68.11672 577.85626 68.11672Q578.4344 68.11672 578.84064 67.81985Q579.2625 67.50735 579.4969 66.8511ZM576.04376 65.14797L579.5125 65.14797Q579.45 64.3511 579.1219 63.960472Q578.60626 63.351097 577.8094 63.351097Q577.075 63.351097 576.575 63.835472Q576.09064 64.31985 576.04376 65.14797Z" fill-rule="nonzero"/><path fill="#9e9e9e" d="M552.4969 84.83547L552.4969 85.8511L546.8094 85.8511Q546.8094 85.4761 546.9344 85.11672Q547.15314 84.5386 547.6219 83.9761Q548.10626 83.4136 549.0125 82.67922Q550.41876 81.52297 550.90314 80.8511Q551.40314 80.17922 551.40314 79.58547Q551.40314 78.96047 550.95 78.5386Q550.4969 78.1011 549.77814 78.1011Q549.0125 78.1011 548.5594 78.55422Q548.10626 79.00735 548.09064 79.81985L547.0125 79.71047Q547.1219 78.49172 547.84064 77.86672Q548.575 77.2261 549.8094 77.2261Q551.04376 77.2261 551.7625 77.9136Q552.48126 78.6011 552.48126 79.61672Q552.48126 80.13235 552.2625 80.63235Q552.0594 81.11672 551.5594 81.67922Q551.075 82.2261 549.95 83.17922Q548.9969 83.9761 548.71564 84.27297Q548.45 84.55422 548.27814 84.83547L552.4969 84.83547ZM553.95 83.6011L555.0594 83.50735Q555.1844 84.31985 555.6219 84.7261Q556.075 85.13235 556.71564 85.13235Q557.46564 85.13235 557.9969 84.55422Q558.52814 83.9761 558.52814 83.0386Q558.52814 82.13235 558.0125 81.61672Q557.5125 81.08547 556.6844 81.08547Q556.1844 81.08547 555.7625 81.31985Q555.35626 81.55422 555.1219 81.9136L554.1375 81.7886L554.96564 77.38235L559.2469 77.38235L559.2469 78.38235L555.8094 78.38235L555.35626 80.69485Q556.1219 80.14797 556.96564 80.14797Q558.09064 80.14797 558.85626 80.92922Q559.6375 81.71047 559.6375 82.94485Q559.6375 84.1011 558.96564 84.96047Q558.1375 85.99172 556.71564 85.99172Q555.54376 85.99172 554.79376 85.33547Q554.0594 84.67922 553.95 83.6011ZM561.54376 85.8511L561.54376 84.64797L562.7469 84.64797L562.7469 85.8511L561.54376 85.8511ZM563.95 81.61672Q563.95 80.08547 564.2625 79.1636Q564.575 78.2261 565.1844 77.7261Q565.8094 77.2261 566.7469 77.2261Q567.4344 77.2261 567.95 77.50735Q568.48126 77.7886 568.825 78.31985Q569.16876 78.83547 569.35626 79.58547Q569.54376 80.33547 569.54376 81.61672Q569.54376 83.13235 569.23126 84.05422Q568.9344 84.9761 568.3094 85.49172Q567.7 85.99172 566.7469 85.99172Q565.5125 85.99172 564.79376 85.1011Q563.95 84.0386 563.95 81.61672ZM565.02814 81.61672Q565.02814 83.7261 565.52814 84.42922Q566.02814 85.13235 566.7469 85.13235Q567.48126 85.13235 567.96564 84.42922Q568.46564 83.7261 568.46564 81.61672Q568.46564 79.49172 567.96564 78.80422Q567.48126 78.1011 566.73126 78.1011Q566.0125 78.1011 565.575 78.71047Q565.02814 79.49172 565.02814 81.61672ZM571.15314 79.31985Q571.15314 78.39797 571.60626 77.75735Q572.075 77.11672 572.95 77.11672Q573.7625 77.11672 574.29376 77.69485Q574.825 78.27297 574.825 79.38235Q574.825 80.4761 574.27814 81.06985Q573.7469 81.64797 572.96564 81.64797Q572.1844 81.64797 571.66876 81.06985Q571.15314 80.49172 571.15314 79.31985ZM572.98126 77.83547Q572.59064 77.83547 572.325 78.17922Q572.075 78.52297 572.075 79.42922Q572.075 80.25735 572.325 80.6011Q572.59064 80.92922 572.98126 80.92922Q573.3875 80.92922 573.6375 80.58547Q573.90314 80.24172 573.90314 79.3511Q573.90314 78.50735 573.6375 78.17922Q573.3719 77.83547 572.98126 77.83547ZM572.98126 86.1636L577.6844 77.11672L578.54376 77.11672L573.85626 86.1636L572.98126 86.1636ZM576.7 83.83547Q576.7 82.9136 577.15314 82.27297Q577.6219 81.63235 578.5125 81.63235Q579.325 81.63235 579.85626 82.21047Q580.3875 82.77297 580.3875 83.89797Q580.3875 84.99172 579.84064 85.58547Q579.3094 86.1636 578.5125 86.1636Q577.7469 86.1636 577.21564 85.58547Q576.7 85.00735 576.7 83.83547ZM578.54376 82.3511Q578.1375 82.3511 577.8719 82.69485Q577.6219 83.0386 577.6219 83.94485Q577.6219 84.75735 577.8875 85.1011Q578.15314 85.44485 578.54376 85.44485Q578.9344 85.44485 579.2 85.1011Q579.46564 84.75735 579.46564 83.8511Q579.46564 83.02297 579.2 82.69485Q578.9344 82.3511 578.54376 82.3511Z" fill-rule="nonzero"/><path stroke="#757575" stroke-width="1.0" stroke-linecap="butt" d="M581.45 73.3511L472.95 73.3511L412.1489 73.3511" fill-rule="nonzero"/><path fill="#9e9e9e" d="M414.1489 73.3511C414.1489 72.24653 413.25348 71.3511 412.1489 71.3511C411.04434 71.3511 410.1489 72.24653 410.1489 73.3511C410.1489 74.455666 411.04434 75.3511 412.1489 75.3511C413.25348 75.3511 414.1489 74.455666 414.1489 73.3511" fill-rule="nonzero"/><path fill="#1a1a1a" d="M538.3719 332.45L538.3719 323.85626L541.34064 323.85626Q542.34064 323.85626 542.8719 323.98126Q543.60626 324.15314 544.1219 324.59064Q544.8094 325.16876 545.1375 326.075Q545.48126 326.96564 545.48126 328.10626Q545.48126 329.09064 545.2469 329.84064Q545.02814 330.59064 544.66876 331.09064Q544.3094 331.59064 543.8719 331.8719Q543.45 332.15314 542.85626 332.3094Q542.2625 332.45 541.48126 332.45L538.3719 332.45ZM539.5125 331.4344L541.34064 331.4344Q542.2 331.4344 542.6844 331.27814Q543.16876 331.1219 543.45 330.825Q543.85626 330.4344 544.075 329.7469Q544.3094 329.0594 544.3094 328.09064Q544.3094 326.7469 543.85626 326.02814Q543.41876 325.29376 542.79376 325.04376Q542.325 324.8719 541.325 324.8719L539.5125 324.8719L539.5125 331.4344ZM551.325 332.45L551.325 331.52814Q550.59064 332.59064 549.34064 332.59064Q548.79376 332.59064 548.3094 332.3875Q547.84064 332.16876 547.60626 331.85626Q547.3719 331.52814 547.27814 331.0594Q547.21564 330.7625 547.21564 330.075L547.21564 326.23126L548.27814 326.23126L548.27814 329.6844Q548.27814 330.4969 548.34064 330.79376Q548.4344 331.2 548.7469 331.45Q549.075 331.6844 549.5594 331.6844Q550.02814 331.6844 550.4344 331.45Q550.85626 331.2 551.02814 330.77814Q551.21564 330.35626 551.21564 329.5594L551.21564 326.23126L552.2625 326.23126L552.2625 332.45L551.325 332.45ZM554.04376 332.96564L555.075 333.1219Q555.1375 333.59064 555.4344 333.8094Q555.825 334.10626 556.4969 334.10626Q557.23126 334.10626 557.6219 333.8094Q558.02814 333.5125 558.16876 332.9969Q558.2625 332.66876 558.2469 331.6375Q557.5594 332.45 556.52814 332.45Q555.2469 332.45 554.54376 331.52814Q553.84064 330.59064 553.84064 329.3094Q553.84064 328.41876 554.15314 327.66876Q554.48126 326.90314 555.09064 326.4969Q555.7 326.09064 556.52814 326.09064Q557.6375 326.09064 558.35626 326.98126L558.35626 326.23126L559.325 326.23126L559.325 331.60626Q559.325 333.0594 559.02814 333.66876Q558.73126 334.27814 558.09064 334.6219Q557.45 334.98126 556.5125 334.98126Q555.40314 334.98126 554.71564 334.48126Q554.02814 333.98126 554.04376 332.96564ZM554.91876 329.23126Q554.91876 330.45 555.40314 331.0125Q555.8875 331.575 556.6219 331.575Q557.35626 331.575 557.84064 331.0125Q558.34064 330.45 558.34064 329.2625Q558.34064 328.1219 557.825 327.54376Q557.325 326.96564 556.60626 326.96564Q555.90314 326.96564 555.40314 327.54376Q554.91876 328.10626 554.91876 329.23126ZM560.85626 329.34064Q560.85626 327.60626 561.8094 326.77814Q562.60626 326.09064 563.7625 326.09064Q565.04376 326.09064 565.85626 326.9344Q566.6844 327.7625 566.6844 329.2469Q566.6844 330.45 566.325 331.1375Q565.96564 331.825 565.2625 332.21564Q564.575 332.59064 563.7625 332.59064Q562.46564 332.59064 561.65314 331.7625Q560.85626 330.91876 560.85626 329.34064ZM561.9344 329.34064Q561.9344 330.52814 562.45 331.1219Q562.98126 331.71564 563.7625 331.71564Q564.5594 331.71564 565.075 331.1219Q565.59064 330.52814 565.59064 329.3094Q565.59064 328.15314 565.0594 327.5594Q564.54376 326.96564 563.7625 326.96564Q562.98126 326.96564 562.45 327.5594Q561.9344 328.1375 561.9344 329.34064ZM568.2469 332.45L568.2469 326.23126L569.1844 326.23126L569.1844 327.10626Q569.8719 326.09064 571.16876 326.09064Q571.73126 326.09064 572.2 326.29376Q572.6844 326.4969 572.91876 326.825Q573.15314 327.15314 573.2469 327.59064Q573.29376 327.8875 573.29376 328.6219L573.29376 332.45L572.2469 332.45L572.2469 328.66876Q572.2469 328.0125 572.1219 327.7Q571.9969 327.3875 571.6844 327.2Q571.3719 326.9969 570.95 326.9969Q570.27814 326.9969 569.77814 327.4344Q569.29376 327.85626 569.29376 329.04376L569.29376 332.45L568.2469 332.45ZM575.04376 332.96564L576.075 333.1219Q576.1375 333.59064 576.4344 333.8094Q576.825 334.10626 577.4969 334.10626Q578.23126 334.10626 578.6219 333.8094Q579.02814 333.5125 579.16876 332.9969Q579.2625 332.66876 579.2469 331.6375Q578.5594 332.45 577.52814 332.45Q576.2469 332.45 575.54376 331.52814Q574.84064 330.59064 574.84064 329.3094Q574.84064 328.41876 575.15314 327.66876Q575.48126 326.90314 576.09064 326.4969Q576.7 326.09064 577.52814 326.09064Q578.6375 326.09064 579.35626 326.98126L579.35626 326.23126L580.325 326.23126L580.325 331.60626Q580.325 333.0594 580.02814 333.66876Q579.73126 334.27814 579.09064 334.6219Q578.45 334.98126 577.5125 334.98126Q576.40314 334.98126 575.71564 334.48126Q575.02814 333.98126 575.04376 332.96564ZM575.91876 329.23126Q575.91876 330.45 576.40314 331.0125Q576.8875 331.575 577.6219 331.575Q578.35626 331.575 578.84064 331.0125Q579.34064 330.45 579.34064 329.2625Q579.34064 328.1219 578.825 327.54376Q578.325 326.96564 577.60626 326.96564Q576.90314 326.96564 576.40314 327.54376Q575.91876 328.10626 575.91876 329.23126Z" fill-rule="nonzero"/><path fill="#9e9e9e" d="M550.325 349.45L550.325 347.3875L546.60626 347.3875L546.60626 346.41876L550.52814 340.85626L551.3875 340.85626L551.3875 346.41876L552.54376 346.41876L552.54376 347.3875L551.3875 347.3875L551.3875 349.45L550.325 349.45ZM550.325 346.41876L550.325 342.5594L547.6375 346.41876L550.325 346.41876ZM557.91876 349.45L556.8719 349.45L556.8719 342.73126Q556.48126 343.09064 555.85626 343.46564Q555.2469 343.825 554.7625 343.9969L554.7625 342.98126Q555.6375 342.5594 556.29376 341.98126Q556.96564 341.3875 557.2469 340.825L557.91876 340.825L557.91876 349.45ZM561.54376 349.45L561.54376 348.2469L562.7469 348.2469L562.7469 349.45L561.54376 349.45ZM564.0125 341.98126L564.0125 340.96564L569.575 340.96564L569.575 341.79376Q568.7625 342.66876 567.95 344.1219Q567.15314 345.5594 566.71564 347.09064Q566.3875 348.16876 566.3094 349.45L565.21564 349.45Q565.23126 348.4344 565.60626 346.9969Q565.9969 345.5594 566.7 344.23126Q567.41876 342.90314 568.23126 341.98126L564.0125 341.98126ZM571.15314 342.91876Q571.15314 341.9969 571.60626 341.35626Q572.075 340.71564 572.95 340.71564Q573.7625 340.71564 574.29376 341.29376Q574.825 341.8719 574.825 342.98126Q574.825 344.075 574.27814 344.66876Q573.7469 345.2469 572.96564 345.2469Q572.1844 345.2469 571.66876 344.66876Q571.15314 344.09064 571.15314 342.91876ZM572.98126 341.4344Q572.59064 341.4344 572.325 341.77814Q572.075 342.1219 572.075 343.02814Q572.075 343.85626 572.325 344.2Q572.59064 344.52814 572.98126 344.52814Q573.3875 344.52814 573.6375 344.1844Q573.90314 343.84064 573.90314 342.95Q573.90314 342.10626 573.6375 341.77814Q573.3719 341.4344 572.98126 341.4344ZM572.98126 349.7625L577.6844 340.71564L578.54376 340.71564L573.85626 349.7625L572.98126 349.7625ZM576.7 347.4344Q576.7 346.5125 577.15314 345.8719Q577.6219 345.23126 578.5125 345.23126Q579.325 345.23126 579.85626 345.8094Q580.3875 346.3719 580.3875 347.4969Q580.3875 348.59064 579.84064 349.1844Q579.3094 349.7625 578.5125 349.7625Q577.7469 349.7625 577.21564 349.1844Q576.7 348.60626 576.7 347.4344ZM578.54376 345.95Q578.1375 345.95 577.8719 346.29376Q577.6219 346.6375 577.6219 347.54376Q577.6219 348.35626 577.8875 348.7Q578.15314 349.04376 578.54376 349.04376Q578.9344 349.04376 579.2 348.7Q579.46564 348.35626 579.46564 347.45Q579.46564 346.6219 579.2 346.29376Q578.9344 345.95 578.54376 345.95Z" fill-rule="nonzero"/><path stroke="#757575" stroke-width="1.0" stroke-linecap="butt" d="M581.45 336.95L472.95 336.95L341.04935 338.69824" fill-rule="nonzero"/><path fill="#9e9e9e" d="M343.04935 338.69824C343.04935 337.5937 342.15393 336.69824 341.04935 336.69824C339.94476 336.69824 339.04935 337.5937 339.04935 338.69824C339.04935 339.80283 339.94476 340.69824 341.04935 340.69824C342.15393 340.69824 343.04935 339.80283 343.04935 338.69824" fill-rule="nonzero"/></svg>