<svg version="1.1" viewBox="0.0 0.0 600.0 371.0" fill="none" stroke="none" stroke-linecap="square" stroke-miterlimit="10" width="600" height="371" xmlns:xlink="http://www.w3.org/1999/xlink" xmlns="http://www.w3.org/2000/svg"><path fill="#ffffff" d="M0 0L600.0 0L600.0 371.0L0 371.0L0 0Z" fill-rule="nonzero"/><path fill="#4285f4" d="M300.0 18.55C359.64548 18.55 414.7602 50.37049 444.58295 102.025L300.0 185.5Z" fill-rule="nonzero"/><path fill="#ea4335" d="M444.58295 102.025C459.23587 127.40461 466.95 156.19415 466.95 185.5L300.0 185.5Z" fill-rule="nonzero"/><path fill="#fbbc04" d="M466.95 185.5C466.95 245.1455 435.12952 300.2602 383.475 330.08295L300.0 185.5Z" fill-rule="nonzero"/><path fill="#f07b72" d="M216.525 40.917057C241.9046 26.264135 270.69415 18.55 300.0 18.55L300.0 185.5Z" fill-rule="nonzero"/><path fill="#7baaf7" d="M155.41705 102.025C170.06998 76.64539 191.14539 55.56998 216.525 40.917057L300.0 185.5Z" fill-rule="nonzero"/><path fill="#46bdc6" d="M155.41705 268.975C125.594315 217.3205 125.594315 153.6795 155.41705 102.025L300.0 185.5Z" fill-rule="nonzero"/><path fill="#ff6d01" d="M216.525 330.08295C191.14539 315.43002 170.06998 294.3546 155.41705 268.975L300.0 185.5Z" fill-rule="nonzero"/><path fill="#34a853" d="M383.475 330.08295C331.8205 359.9057 268.1795 359.9057 216.525 330.08295L300.0 185.5Z" fill-rule="nonzero"/><path fill="#1a1a1a" d="M23.01875 29.55L21.971874 29.55L21.971874 22.83125Q21.58125 23.190624 20.95625 23.565624Q20.346874 23.925 19.8625 24.096874L19.8625 23.08125Q20.7375 22.659374 21.39375 22.08125Q22.065624 21.4875 22.346874 20.925L23.01875 20.925L23.01875 29.55ZM31.596874 28.534374L31.596874 29.55L25.909374 29.55Q25.909374 29.175 26.034374 28.815624Q26.253124 28.2375 26.721874 27.675Q27.20625 27.1125 28.1125 26.378124Q29.51875 25.221874 30.003124 24.55Q30.503124 23.878124 30.503124 23.284374Q30.503124 22.659374 30.05 22.2375Q29.596874 21.8 28.878124 21.8Q28.1125 21.8 27.659374 22.253124Q27.20625 22.70625 27.190624 23.51875L26.1125 23.409374Q26.221874 22.190624 26.940624 21.565624Q27.675 20.925 28.909374 20.925Q30.14375 20.925 30.8625 21.6125Q31.58125 22.3 31.58125 23.315624Q31.58125 23.83125 31.3625 24.33125Q31.159374 24.815624 30.659374 25.378124Q30.175 25.925 29.05 26.878124Q28.096874 27.675 27.815624 27.971874Q27.55 28.253124 27.378124 28.534374L31.596874 28.534374Z" fill-rule="nonzero"/><path fill="#9e9e9e" d="M20.675 41.89375Q20.01875 41.64375 19.690624 41.20625Q19.378124 40.753124 19.378124 40.14375Q19.378124 39.20625 20.05 38.565624Q20.7375 37.925 21.846874 37.925Q22.971874 37.925 23.659374 38.58125Q24.346874 39.2375 24.346874 40.175Q24.346874 40.76875 24.034374 41.20625Q23.721874 41.64375 23.08125 41.89375Q23.878124 42.14375 24.284374 42.721874Q24.690624 43.3 24.690624 44.096874Q24.690624 45.190624 23.909374 45.940624Q23.14375 46.690624 21.8625 46.690624Q20.596874 46.690624 19.815624 45.940624Q19.034374 45.190624 19.034374 44.065624Q19.034374 43.221874 19.45625 42.659374Q19.89375 42.096874 20.675 41.89375ZM20.45625 40.096874Q20.45625 40.70625 20.846874 41.096874Q21.253124 41.4875 21.878124 41.4875Q22.4875 41.4875 22.878124 41.1125Q23.26875 40.721874 23.26875 40.159374Q23.26875 39.58125 22.8625 39.190624Q22.45625 38.784374 21.8625 38.784374Q21.253124 38.784374 20.846874 39.175Q20.45625 39.565624 20.45625 40.096874ZM20.128124 44.065624Q20.128124 44.51875 20.33125 44.940624Q20.55 45.3625 20.971874 45.596874Q21.39375 45.83125 21.878124 45.83125Q22.628124 45.83125 23.1125 45.346874Q23.6125 44.8625 23.6125 44.1125Q23.6125 43.346874 23.1125 42.846874Q22.6125 42.346874 21.846874 42.346874Q21.096874 42.346874 20.6125 42.846874Q20.128124 43.33125 20.128124 44.065624ZM26.64375 46.55L26.64375 45.346874L27.846874 45.346874L27.846874 46.55L26.64375 46.55ZM29.05 44.284374L30.1125 44.14375Q30.284374 45.034374 30.721874 45.440624Q31.159374 45.83125 31.784374 45.83125Q32.534374 45.83125 33.05 45.315624Q33.565624 44.8 33.565624 44.034374Q33.565624 43.315624 33.08125 42.846874Q32.6125 42.3625 31.878124 42.3625Q31.58125 42.3625 31.128124 42.4875L31.253124 41.55Q31.3625 41.565624 31.425 41.565624Q32.096874 41.565624 32.628124 41.221874Q33.175 40.8625 33.175 40.128124Q33.175 39.55 32.784374 39.175Q32.39375 38.784374 31.76875 38.784374Q31.159374 38.784374 30.7375 39.175Q30.33125 39.565624 30.221874 40.33125L29.159374 40.14375Q29.346874 39.096874 30.034374 38.51875Q30.721874 37.925 31.7375 37.925Q32.440624 37.925 33.034374 38.2375Q33.628124 38.534374 33.940624 39.05Q34.253124 39.565624 34.253124 40.159374Q34.253124 40.70625 33.95625 41.175Q33.659374 41.628124 33.08125 41.89375Q33.83125 42.065624 34.253124 42.628124Q34.675 43.175 34.675 44.01875Q34.675 45.14375 33.846874 45.925Q33.034374 46.70625 31.784374 46.70625Q30.659374 46.70625 29.909374 46.034374Q29.159374 45.346874 29.05 44.284374ZM36.253124 40.01875Q36.253124 39.096874 36.70625 38.45625Q37.175 37.815624 38.05 37.815624Q38.8625 37.815624 39.39375 38.39375Q39.925 38.971874 39.925 40.08125Q39.925 41.175 39.378124 41.76875Q38.846874 42.346874 38.065624 42.346874Q37.284374 42.346874 36.76875 41.76875Q36.253124 41.190624 36.253124 40.01875ZM38.08125 38.534374Q37.690624 38.534374 37.425 38.878124Q37.175 39.221874 37.175 40.128124Q37.175 40.95625 37.425 41.3Q37.690624 41.628124 38.08125 41.628124Q38.4875 41.628124 38.7375 41.284374Q39.003124 40.940624 39.003124 40.05Q39.003124 39.20625 38.7375 38.878124Q38.471874 38.534374 38.08125 38.534374ZM38.08125 46.8625L42.784374 37.815624L43.64375 37.815624L38.95625 46.8625L38.08125 46.8625ZM41.8 44.534374Q41.8 43.6125 42.253124 42.971874Q42.721874 42.33125 43.6125 42.33125Q44.425 42.33125 44.95625 42.909374Q45.4875 43.471874 45.4875 44.596874Q45.4875 45.690624 44.940624 46.284374Q44.409374 46.8625 43.6125 46.8625Q42.846874 46.8625 42.315624 46.284374Q41.8 45.70625 41.8 44.534374ZM43.64375 43.05Q43.2375 43.05 42.971874 43.39375Q42.721874 43.7375 42.721874 44.64375Q42.721874 45.45625 42.9875 45.8Q43.253124 46.14375 43.64375 46.14375Q44.034374 46.14375 44.3 45.8Q44.565624 45.45625 44.565624 44.55Q44.565624 43.721874 44.3 43.39375Q44.034374 43.05 43.64375 43.05Z" fill-rule="nonzero"/><path stroke="#757575" stroke-width="1.0" stroke-linecap="butt" d="M18.55 34.05L127.05 34.05L258.95065 32.30175" fill-rule="nonzero"/><path fill="#9e9e9e" d="M260.95065 32.30175C260.95065 31.19718 260.05524 30.301748 258.95065 30.301748C257.84607 30.301748 256.95065 31.19718 256.95065 32.30175C256.95065 33.40632 257.84607 34.30175 258.95065 34.30175C260.05524 34.30175 260.95065 33.40632 260.95065 32.30175" fill-rule="nonzero"/><path fill="#1a1a1a" d="M23.01875 68.8511L21.971874 68.8511L21.971874 62.132347Q21.58125 62.491722 20.95625 62.866722Q20.346874 63.226097 19.8625 63.397972L19.8625 62.382347Q20.7375 61.960472 21.39375 61.382347Q22.065624 60.788597 22.346874 60.226097L23.01875 60.226097L23.01875 68.8511ZM30.01875 68.8511L28.971874 68.8511L28.971874 62.132347Q28.58125 62.491722 27.95625 62.866722Q27.346874 63.226097 26.8625 63.397972L26.8625 62.382347Q27.7375 61.960472 28.39375 61.382347Q29.065624 60.788597 29.346874 60.226097L30.01875 60.226097L30.01875 68.8511Z" fill-rule="nonzero"/><path fill="#9e9e9e" d="M20.675 81.19485Q20.01875 80.94485 19.690624 80.50735Q19.378124 80.05422 19.378124 79.44485Q19.378124 78.50735 20.05 77.86672Q20.7375 77.2261 21.846874 77.2261Q22.971874 77.2261 23.659374 77.88235Q24.346874 78.5386 24.346874 79.4761Q24.346874 80.06985 24.034374 80.50735Q23.721874 80.94485 23.08125 81.19485Q23.878124 81.44485 24.284374 82.02297Q24.690624 82.6011 24.690624 83.39797Q24.690624 84.49172 23.909374 85.24172Q23.14375 85.99172 21.8625 85.99172Q20.596874 85.99172 19.815624 85.24172Q19.034374 84.49172 19.034374 83.36672Q19.034374 82.52297 19.45625 81.96047Q19.89375 81.39797 20.675 81.19485ZM20.45625 79.39797Q20.45625 80.00735 20.846874 80.39797Q21.253124 80.7886 21.878124 80.7886Q22.4875 80.7886 22.878124 80.4136Q23.26875 80.02297 23.26875 79.46047Q23.26875 78.88235 22.8625 78.49172Q22.45625 78.08547 21.8625 78.08547Q21.253124 78.08547 20.846874 78.4761Q20.45625 78.86672 20.45625 79.39797ZM20.128124 83.36672Q20.128124 83.81985 20.33125 84.24172Q20.55 84.6636 20.971874 84.89797Q21.39375 85.13235 21.878124 85.13235Q22.628124 85.13235 23.1125 84.64797Q23.6125 84.1636 23.6125 83.4136Q23.6125 82.64797 23.1125 82.14797Q22.6125 81.64797 21.846874 81.64797Q21.096874 81.64797 20.6125 82.14797Q20.128124 82.63235 20.128124 83.36672ZM26.64375 85.8511L26.64375 84.64797L27.846874 84.64797L27.846874 85.8511L26.64375 85.8511ZM29.05 83.58547L30.1125 83.44485Q30.284374 84.33547 30.721874 84.74172Q31.159374 85.13235 31.784374 85.13235Q32.534374 85.13235 33.05 84.61672Q33.565624 84.1011 33.565624 83.33547Q33.565624 82.61672 33.08125 82.14797Q32.6125 81.6636 31.878124 81.6636Q31.58125 81.6636 31.128124 81.7886L31.253124 80.8511Q31.3625 80.86672 31.425 80.86672Q32.096874 80.86672 32.628124 80.52297Q33.175 80.1636 33.175 79.42922Q33.175 78.8511 32.784374 78.4761Q32.39375 78.08547 31.76875 78.08547Q31.159374 78.08547 30.7375 78.4761Q30.33125 78.86672 30.221874 79.63235L29.159374 79.44485Q29.346874 78.39797 30.034374 77.81985Q30.721874 77.2261 31.7375 77.2261Q32.440624 77.2261 33.034374 77.5386Q33.628124 77.83547 33.940624 78.3511Q34.253124 78.86672 34.253124 79.46047Q34.253124 80.00735 33.95625 80.4761Q33.659374 80.92922 33.08125 81.19485Q33.83125 81.36672 34.253124 81.92922Q34.675 82.4761 34.675 83.31985Q34.675 84.44485 33.846874 85.2261Q33.034374 86.00735 31.784374 86.00735Q30.659374 86.00735 29.909374 85.33547Q29.159374 84.64797 29.05 83.58547ZM36.253124 79.31985Q36.253124 78.39797 36.70625 77.75735Q37.175 77.11672 38.05 77.11672Q38.8625 77.11672 39.39375 77.69485Q39.925 78.27297 39.925 79.38235Q39.925 80.4761 39.378124 81.06985Q38.846874 81.64797 38.065624 81.64797Q37.284374 81.64797 36.76875 81.06985Q36.253124 80.49172 36.253124 79.31985ZM38.08125 77.83547Q37.690624 77.83547 37.425 78.17922Q37.175 78.52297 37.175 79.42922Q37.175 80.25735 37.425 80.6011Q37.690624 80.92922 38.08125 80.92922Q38.4875 80.92922 38.7375 80.58547Q39.003124 80.24172 39.003124 79.3511Q39.003124 78.50735 38.7375 78.17922Q38.471874 77.83547 38.08125 77.83547ZM38.08125 86.1636L42.784374 77.11672L43.64375 77.11672L38.95625 86.1636L38.08125 86.1636ZM41.8 83.83547Q41.8 82.9136 42.253124 82.27297Q42.721874 81.63235 43.6125 81.63235Q44.425 81.63235 44.95625 82.21047Q45.4875 82.77297 45.4875 83.89797Q45.4875 84.99172 44.940624 85.58547Q44.409374 86.1636 43.6125 86.1636Q42.846874 86.1636 42.315624 85.58547Q41.8 85.00735 41.8 83.83547ZM43.64375 82.3511Q43.2375 82.3511 42.971874 82.69485Q42.721874 83.0386 42.721874 83.94485Q42.721874 84.75735 42.9875 85.1011Q43.253124 85.44485 43.64375 85.44485Q44.034374 85.44485 44.3 85.1011Q44.565624 84.75735 44.565624 83.8511Q44.565624 83.02297 44.3 82.69485Q44.034374 82.3511 43.64375 82.3511Z" fill-rule="nonzero"/><path stroke="#757575" stroke-width="1.0" stroke-linecap="butt" d="M18.55 73.3511L127.05 73.3511L187.85109 73.3511" fill-rule="nonzero"/><path fill="#9e9e9e" d="M189.85109 73.3511C189.85109 72.24653 188.95567 71.3511 187.85109 71.3511C186.74652 71.3511 185.85109 72.24653 185.85109 73.3511C185.85109 74.455666 186.74652 75.3511 187.85109 75.3511C188.95567 75.3511 189.85109 74.455666 189.85109 73.3511" fill-rule="nonzero"/><path fill="#1a1a1a" d="M23.01875 181.0L21.971874 181.0L21.971874 174.28125Q21.58125 174.64062 20.95625 175.01562Q20.346874 175.375 19.8625 175.54688L19.8625 174.53125Q20.7375 174.10938 21.39375 173.53125Q22.065624 172.9375 22.346874 172.375L23.01875 172.375L23.01875 181.0ZM26.05 176.76562Q26.05 175.23438 26.3625 174.3125Q26.675 173.375 27.284374 172.875Q27.909374 172.375 28.846874 172.375Q29.534374 172.375 30.05 172.65625Q30.58125 172.9375 30.925 173.46875Q31.26875 173.98438 31.45625 174.73438Q31.64375 175.48438 31.64375 176.76562Q31.64375 178.28125 31.33125 179.20312Q31.034374 180.125 30.409374 180.64062Q29.8 181.14062 28.846874 181.14062Q27.6125 181.14062 26.89375 180.25Q26.05 179.1875 26.05 176.76562ZM27.128124 176.76562Q27.128124 178.875 27.628124 179.57812Q28.128124 180.28125 28.846874 180.28125Q29.58125 180.28125 30.065624 179.57812Q30.565624 178.875 30.565624 176.76562Q30.565624 174.64062 30.065624 173.95312Q29.58125 173.25 28.83125 173.25Q28.1125 173.25 27.675 173.85938Q27.128124 174.64062 27.128124 176.76562Z" fill-rule="nonzero"/><path fill="#9e9e9e" d="M23.01875 198.0L21.971874 198.0L21.971874 191.28125Q21.58125 191.64062 20.95625 192.01562Q20.346874 192.375 19.8625 192.54688L19.8625 191.53125Q20.7375 191.10938 21.39375 190.53125Q22.065624 189.9375 22.346874 189.375L23.01875 189.375L23.01875 198.0ZM31.51875 191.51562L30.471874 191.59375Q30.33125 190.96875 30.08125 190.6875Q29.64375 190.23438 29.01875 190.23438Q28.51875 190.23438 28.128124 190.51562Q27.64375 190.89062 27.346874 191.59375Q27.065624 192.28125 27.05 193.5625Q27.425 192.98438 27.971874 192.70312Q28.534374 192.42188 29.14375 192.42188Q30.190624 192.42188 30.925 193.20312Q31.675 193.98438 31.675 195.20312Q31.675 196.01562 31.315624 196.71875Q30.971874 197.40625 30.3625 197.78125Q29.753124 198.14062 28.9875 198.14062Q27.659374 198.14062 26.83125 197.17188Q26.003124 196.20312 26.003124 193.98438Q26.003124 191.48438 26.925 190.35938Q27.721874 189.375 29.08125 189.375Q30.096874 189.375 30.7375 189.95312Q31.39375 190.51562 31.51875 191.51562ZM27.221874 195.21875Q27.221874 195.76562 27.440624 196.26562Q27.675 196.75 28.08125 197.01562Q28.503124 197.28125 28.971874 197.28125Q29.628124 197.28125 30.1125 196.75Q30.596874 196.20312 30.596874 195.28125Q30.596874 194.39062 30.1125 193.875Q29.64375 193.35938 28.925 193.35938Q28.20625 193.35938 27.70625 193.875Q27.221874 194.39062 27.221874 195.21875ZM33.64375 198.0L33.64375 196.79688L34.846874 196.79688L34.846874 198.0L33.64375 198.0ZM36.1125 190.53125L36.1125 189.51562L41.675 189.51562L41.675 190.34375Q40.8625 191.21875 40.05 192.67188Q39.253124 194.10938 38.815624 195.64062Q38.4875 196.71875 38.409374 198.0L37.315624 198.0Q37.33125 196.98438 37.70625 195.54688Q38.096874 194.10938 38.8 192.78125Q39.51875 191.45312 40.33125 190.53125L36.1125 190.53125ZM43.253124 191.46875Q43.253124 190.54688 43.70625 189.90625Q44.175 189.26562 45.05 189.26562Q45.8625 189.26562 46.39375 189.84375Q46.925 190.42188 46.925 191.53125Q46.925 192.625 46.378124 193.21875Q45.846874 193.79688 45.065624 193.79688Q44.284374 193.79688 43.76875 193.21875Q43.253124 192.64062 43.253124 191.46875ZM45.08125 189.98438Q44.690624 189.98438 44.425 190.32812Q44.175 190.67188 44.175 191.57812Q44.175 192.40625 44.425 192.75Q44.690624 193.07812 45.08125 193.07812Q45.4875 193.07812 45.7375 192.73438Q46.003124 192.39062 46.003124 191.5Q46.003124 190.65625 45.7375 190.32812Q45.471874 189.98438 45.08125 189.98438ZM45.08125 198.3125L49.784374 189.26562L50.64375 189.26562L45.95625 198.3125L45.08125 198.3125ZM48.8 195.98438Q48.8 195.0625 49.253124 194.42188Q49.721874 193.78125 50.6125 193.78125Q51.425 193.78125 51.95625 194.35938Q52.4875 194.92188 52.4875 196.04688Q52.4875 197.14062 51.940624 197.73438Q51.409374 198.3125 50.6125 198.3125Q49.846874 198.3125 49.315624 197.73438Q48.8 197.15625 48.8 195.98438ZM50.64375 194.5Q50.2375 194.5 49.971874 194.84375Q49.721874 195.1875 49.721874 196.09375Q49.721874 196.90625 49.9875 197.25Q50.253124 197.59375 50.64375 197.59375Q51.034374 197.59375 51.3 197.25Q51.565624 196.90625 51.565624 196.0Q51.565624 195.17188 51.3 194.84375Q51.034374 194.5 50.64375 194.5Z" fill-rule="nonzero"/><path stroke="#757575" stroke-width="1.0" stroke-linecap="butt" d="M18.55 185.5L127.05 185.5L141.3975 185.5" fill-rule="nonzero"/><path fill="#9e9e9e" d="M143.3975 185.5C143.3975 184.39543 142.50208 183.5 141.3975 183.5C140.29292 183.5 139.3975 184.39543 139.3975 185.5C139.3975 186.60457 140.29292 187.5 141.3975 187.5C142.50208 187.5 143.3975 186.60457 143.3975 185.5" fill-rule="nonzero"/><path fill="#1a1a1a" d="M19.20625 291.16452L20.221874 291.07077Q20.346874 291.78952 20.70625 292.11765Q21.08125 292.43015 21.64375 292.43015Q22.128124 292.43015 22.4875 292.2114Q22.8625 291.97702 23.096874 291.61765Q23.33125 291.24265 23.4875 290.61765Q23.64375 289.97702 23.64375 289.32077Q23.64375 289.24265 23.64375 289.10202Q23.33125 289.60202 22.784374 289.93015Q22.2375 290.24265 21.596874 290.24265Q20.51875 290.24265 19.784374 289.47702Q19.05 288.69577 19.05 287.43015Q19.05 286.11765 19.815624 285.32077Q20.596874 284.5239 21.753124 284.5239Q22.58125 284.5239 23.26875 284.97702Q23.971874 285.43015 24.33125 286.2739Q24.690624 287.10202 24.690624 288.68015Q24.690624 290.32077 24.33125 291.30515Q23.9875 292.2739 23.26875 292.78952Q22.565624 293.28952 21.628124 293.28952Q20.6125 293.28952 19.971874 292.74265Q19.33125 292.18015 19.20625 291.16452ZM23.51875 287.36765Q23.51875 286.4614 23.034374 285.93015Q22.565624 285.3989 21.878124 285.3989Q21.175 285.3989 20.64375 285.97702Q20.128124 286.53952 20.128124 287.4614Q20.128124 288.2739 20.628124 288.78952Q21.128124 289.30515 21.846874 289.30515Q22.58125 289.30515 23.05 288.78952Q23.51875 288.2739 23.51875 287.36765Z" fill-rule="nonzero"/><path fill="#9e9e9e" d="M20.675 305.49265Q20.01875 305.24265 19.690624 304.80515Q19.378124 304.35202 19.378124 303.74265Q19.378124 302.80515 20.05 302.16452Q20.7375 301.5239 21.846874 301.5239Q22.971874 301.5239 23.659374 302.18015Q24.346874 302.8364 24.346874 303.7739Q24.346874 304.36765 24.034374 304.80515Q23.721874 305.24265 23.08125 305.49265Q23.878124 305.74265 24.284374 306.32077Q24.690624 306.8989 24.690624 307.69577Q24.690624 308.78952 23.909374 309.53952Q23.14375 310.28952 21.8625 310.28952Q20.596874 310.28952 19.815624 309.53952Q19.034374 308.78952 19.034374 307.66452Q19.034374 306.82077 19.45625 306.25827Q19.89375 305.69577 20.675 305.49265ZM20.45625 303.69577Q20.45625 304.30515 20.846874 304.69577Q21.253124 305.0864 21.878124 305.0864Q22.4875 305.0864 22.878124 304.7114Q23.26875 304.32077 23.26875 303.75827Q23.26875 303.18015 22.8625 302.78952Q22.45625 302.38327 21.8625 302.38327Q21.253124 302.38327 20.846874 302.7739Q20.45625 303.16452 20.45625 303.69577ZM20.128124 307.66452Q20.128124 308.11765 20.33125 308.53952Q20.55 308.9614 20.971874 309.19577Q21.39375 309.43015 21.878124 309.43015Q22.628124 309.43015 23.1125 308.94577Q23.6125 308.4614 23.6125 307.7114Q23.6125 306.94577 23.1125 306.44577Q22.6125 305.94577 21.846874 305.94577Q21.096874 305.94577 20.6125 306.44577Q20.128124 306.93015 20.128124 307.66452ZM26.64375 310.1489L26.64375 308.94577L27.846874 308.94577L27.846874 310.1489L26.64375 310.1489ZM29.05 307.88327L30.1125 307.74265Q30.284374 308.63327 30.721874 309.03952Q31.159374 309.43015 31.784374 309.43015Q32.534374 309.43015 33.05 308.91452Q33.565624 308.3989 33.565624 307.63327Q33.565624 306.91452 33.08125 306.44577Q32.6125 305.9614 31.878124 305.9614Q31.58125 305.9614 31.128124 306.0864L31.253124 305.1489Q31.3625 305.16452 31.425 305.16452Q32.096874 305.16452 32.628124 304.82077Q33.175 304.4614 33.175 303.72702Q33.175 303.1489 32.784374 302.7739Q32.39375 302.38327 31.76875 302.38327Q31.159374 302.38327 30.7375 302.7739Q30.33125 303.16452 30.221874 303.93015L29.159374 303.74265Q29.346874 302.69577 30.034374 302.11765Q30.721874 301.5239 31.7375 301.5239Q32.440624 301.5239 33.034374 301.8364Q33.628124 302.13327 33.940624 302.6489Q34.253124 303.16452 34.253124 303.75827Q34.253124 304.30515 33.95625 304.7739Q33.659374 305.22702 33.08125 305.49265Q33.83125 305.66452 34.253124 306.22702Q34.675 306.7739 34.675 307.61765Q34.675 308.74265 33.846874 309.5239Q33.034374 310.30515 31.784374 310.30515Q30.659374 310.30515 29.909374 309.63327Q29.159374 308.94577 29.05 307.88327ZM36.253124 303.61765Q36.253124 302.69577 36.70625 302.05515Q37.175 301.41452 38.05 301.41452Q38.8625 301.41452 39.39375 301.99265Q39.925 302.57077 39.925 303.68015Q39.925 304.7739 39.378124 305.36765Q38.846874 305.94577 38.065624 305.94577Q37.284374 305.94577 36.76875 305.36765Q36.253124 304.78952 36.253124 303.61765ZM38.08125 302.13327Q37.690624 302.13327 37.425 302.47702Q37.175 302.82077 37.175 303.72702Q37.175 304.55515 37.425 304.8989Q37.690624 305.22702 38.08125 305.22702Q38.4875 305.22702 38.7375 304.88327Q39.003124 304.53952 39.003124 303.6489Q39.003124 302.80515 38.7375 302.47702Q38.471874 302.13327 38.08125 302.13327ZM38.08125 310.4614L42.784374 301.41452L43.64375 301.41452L38.95625 310.4614L38.08125 310.4614ZM41.8 308.13327Q41.8 307.2114 42.253124 306.57077Q42.721874 305.93015 43.6125 305.93015Q44.425 305.93015 44.95625 306.50827Q45.4875 307.07077 45.4875 308.19577Q45.4875 309.28952 44.940624 309.88327Q44.409374 310.4614 43.6125 310.4614Q42.846874 310.4614 42.315624 309.88327Q41.8 309.30515 41.8 308.13327ZM43.64375 306.6489Q43.2375 306.6489 42.971874 306.99265Q42.721874 307.3364 42.721874 308.24265Q42.721874 309.05515 42.9875 309.3989Q43.253124 309.74265 43.64375 309.74265Q44.034374 309.74265 44.3 309.3989Q44.565624 309.05515 44.565624 308.1489Q44.565624 307.32077 44.3 306.99265Q44.034374 306.6489 43.64375 306.6489Z" fill-rule="nonzero"/><path stroke="#757575" stroke-width="1.0" stroke-linecap="butt" d="M18.55 297.6489L127.05 297.6489L187.85109 297.6489" fill-rule="nonzero"/><path fill="#9e9e9e" d="M189.85109 297.6489C189.85109 296.54434 188.95567 295.6489 187.85109 295.6489C186.74652 295.6489 185.85109 296.54434 185.85109 297.6489C185.85109 298.75348 186.74652 299.6489 187.85109 299.6489C188.95567 299.6489 189.85109 298.75348 189.85109 297.6489" fill-rule="nonzero"/><path fill="#1a1a1a" d="M578.91876 43.646206L577.8719 43.646206L577.8719 36.927456Q577.48126 37.28683 576.85626 37.66183Q576.2469 38.021206 575.7625 38.19308L575.7625 37.177456Q576.6375 36.75558 577.29376 36.177456Q577.96564 35.583706 578.2469 35.021206L578.91876 35.021206L578.91876 43.646206Z" fill-rule="nonzero"/><path fill="#9e9e9e" d="M550.91876 60.646206L549.8719 60.646206L549.8719 53.927456Q549.48126 54.28683 548.85626 54.66183Q548.2469 55.021206 547.7625 55.19308L547.7625 54.177456Q548.6375 53.75558 549.29376 53.177456Q549.96564 52.583706 550.2469 52.021206L550.91876 52.021206L550.91876 60.646206ZM559.41876 54.16183L558.3719 54.239956Q558.23126 53.614956 557.98126 53.333706Q557.54376 52.88058 556.91876 52.88058Q556.41876 52.88058 556.02814 53.16183Q555.54376 53.53683 555.2469 54.239956Q554.96564 54.927456 554.95 56.208706Q555.325 55.63058 555.8719 55.34933Q556.4344 55.06808 557.04376 55.06808Q558.09064 55.06808 558.825 55.84933Q559.575 56.63058 559.575 57.84933Q559.575 58.66183 559.21564 59.364956Q558.8719 60.052456 558.2625 60.427456Q557.65314 60.78683 556.8875 60.78683Q555.5594 60.78683 554.73126 59.81808Q553.90314 58.84933 553.90314 56.63058Q553.90314 54.13058 554.825 53.00558Q555.6219 52.021206 556.98126 52.021206Q557.9969 52.021206 558.6375 52.59933Q559.29376 53.16183 559.41876 54.16183ZM555.1219 57.864956Q555.1219 58.41183 555.34064 58.91183Q555.575 59.396206 555.98126 59.66183Q556.40314 59.927456 556.8719 59.927456Q557.52814 59.927456 558.0125 59.396206Q558.4969 58.84933 558.4969 57.927456Q558.4969 57.03683 558.0125 56.521206Q557.54376 56.00558 556.825 56.00558Q556.10626 56.00558 555.60626 56.521206Q555.1219 57.03683 555.1219 57.864956ZM561.54376 60.646206L561.54376 59.44308L562.7469 59.44308L562.7469 60.646206L561.54376 60.646206ZM564.0125 53.177456L564.0125 52.16183L569.575 52.16183L569.575 52.989956Q568.7625 53.864956 567.95 55.31808Q567.15314 56.75558 566.71564 58.28683Q566.3875 59.364956 566.3094 60.646206L565.21564 60.646206Q565.23126 59.63058 565.60626 58.19308Q565.9969 56.75558 566.7 55.427456Q567.41876 54.09933 568.23126 53.177456L564.0125 53.177456ZM571.15314 54.114956Q571.15314 53.19308 571.60626 52.552456Q572.075 51.91183 572.95 51.91183Q573.7625 51.91183 574.29376 52.489956Q574.825 53.06808 574.825 54.177456Q574.825 55.271206 574.27814 55.864956Q573.7469 56.44308 572.96564 56.44308Q572.1844 56.44308 571.66876 55.864956Q571.15314 55.28683 571.15314 54.114956ZM572.98126 52.63058Q572.59064 52.63058 572.325 52.97433Q572.075 53.31808 572.075 54.22433Q572.075 55.052456 572.325 55.396206Q572.59064 55.72433 572.98126 55.72433Q573.3875 55.72433 573.6375 55.38058Q573.90314 55.03683 573.90314 54.146206Q573.90314 53.302456 573.6375 52.97433Q573.3719 52.63058 572.98126 52.63058ZM572.98126 60.958706L577.6844 51.91183L578.54376 51.91183L573.85626 60.958706L572.98126 60.958706ZM576.7 58.63058Q576.7 57.708706 577.15314 57.06808Q577.6219 56.427456 578.5125 56.427456Q579.325 56.427456 579.85626 57.00558Q580.3875 57.56808 580.3875 58.69308Q580.3875 59.78683 579.84064 60.38058Q579.3094 60.958706 578.5125 60.958706Q577.7469 60.958706 577.21564 60.38058Q576.7 59.802456 576.7 58.63058ZM578.54376 57.146206Q578.1375 57.146206 577.8719 57.489956Q577.6219 57.833706 577.6219 58.739956Q577.6219 59.552456 577.8875 59.896206Q578.15314 60.239956 578.54376 60.239956Q578.9344 60.239956 579.2 59.896206Q579.46564 59.552456 579.46564 58.646206Q579.46564 57.81808 579.2 57.489956Q578.9344 57.146206 578.54376 57.146206Z" fill-rule="nonzero"/><path stroke="#757575" stroke-width="1.0" stroke-linecap="butt" d="M581.45 48.146206L472.95 48.146206L379.30124 48.146206" fill-rule="nonzero"/><path fill="#9e9e9e" d="M381.30124 48.146206C381.30124 47.041637 380.40582 46.146206 379.30124 46.146206C378.1967 46.146206 377.30124 47.041637 377.30124 48.146206C377.30124 49.250774 378.1967 50.146206 379.30124 50.146206C380.40582 50.146206 381.30124 49.250774 381.30124 48.146206" fill-rule="nonzero"/><path fill="#1a1a1a" d="M580.4969 138.93503L580.4969 139.95065L574.8094 139.95065Q574.8094 139.57565 574.9344 139.21628Q575.15314 138.63815 575.6219 138.07565Q576.10626 137.51315 577.0125 136.77878Q578.41876 135.62253 578.90314 134.95065Q579.40314 134.27878 579.40314 133.68503Q579.40314 133.06003 578.95 132.63815Q578.4969 132.20065 577.77814 132.20065Q577.0125 132.20065 576.5594 132.65378Q576.10626 133.1069 576.09064 133.9194L575.0125 133.81003Q575.1219 132.59128 575.84064 131.96628Q576.575 131.32565 577.8094 131.32565Q579.04376 131.32565 579.7625 132.01315Q580.48126 132.70065 580.48126 133.71628Q580.48126 134.2319 580.2625 134.7319Q580.0594 135.21628 579.5594 135.77878Q579.075 136.32565 577.95 137.27878Q576.9969 138.07565 576.71564 138.37253Q576.45 138.65378 576.27814 138.93503L580.4969 138.93503Z" fill-rule="nonzero"/><path fill="#9e9e9e" d="M555.575 152.2944Q554.91876 152.0444 554.59064 151.6069Q554.27814 151.15378 554.27814 150.5444Q554.27814 149.6069 554.95 148.96628Q555.6375 148.32565 556.7469 148.32565Q557.8719 148.32565 558.5594 148.9819Q559.2469 149.63815 559.2469 150.57565Q559.2469 151.1694 558.9344 151.6069Q558.6219 152.0444 557.98126 152.2944Q558.77814 152.5444 559.1844 153.12253Q559.59064 153.70065 559.59064 154.49753Q559.59064 155.59128 558.8094 156.34128Q558.04376 157.09128 556.7625 157.09128Q555.4969 157.09128 554.71564 156.34128Q553.9344 155.59128 553.9344 154.46628Q553.9344 153.62253 554.35626 153.06003Q554.79376 152.49753 555.575 152.2944ZM555.35626 150.49753Q555.35626 151.1069 555.7469 151.49753Q556.15314 151.88815 556.77814 151.88815Q557.3875 151.88815 557.77814 151.51315Q558.16876 151.12253 558.16876 150.56003Q558.16876 149.9819 557.7625 149.59128Q557.35626 149.18503 556.7625 149.18503Q556.15314 149.18503 555.7469 149.57565Q555.35626 149.96628 555.35626 150.49753ZM555.02814 154.46628Q555.02814 154.9194 555.23126 155.34128Q555.45 155.76315 555.8719 155.99753Q556.29376 156.2319 556.77814 156.2319Q557.52814 156.2319 558.0125 155.74753Q558.5125 155.26315 558.5125 154.51315Q558.5125 153.74753 558.0125 153.24753Q557.5125 152.74753 556.7469 152.74753Q555.9969 152.74753 555.5125 153.24753Q555.02814 153.7319 555.02814 154.46628ZM561.54376 156.95065L561.54376 155.74753L562.7469 155.74753L562.7469 156.95065L561.54376 156.95065ZM563.95 154.68503L565.0125 154.5444Q565.1844 155.43503 565.6219 155.84128Q566.0594 156.2319 566.6844 156.2319Q567.4344 156.2319 567.95 155.71628Q568.46564 155.20065 568.46564 154.43503Q568.46564 153.71628 567.98126 153.24753Q567.5125 152.76315 566.77814 152.76315Q566.48126 152.76315 566.02814 152.88815L566.15314 151.95065Q566.2625 151.96628 566.325 151.96628Q566.9969 151.96628 567.52814 151.62253Q568.075 151.26315 568.075 150.52878Q568.075 149.95065 567.6844 149.57565Q567.29376 149.18503 566.66876 149.18503Q566.0594 149.18503 565.6375 149.57565Q565.23126 149.96628 565.1219 150.7319L564.0594 150.5444Q564.2469 149.49753 564.9344 148.9194Q565.6219 148.32565 566.6375 148.32565Q567.34064 148.32565 567.9344 148.63815Q568.52814 148.93503 568.84064 149.45065Q569.15314 149.96628 569.15314 150.56003Q569.15314 151.1069 568.85626 151.57565Q568.5594 152.02878 567.98126 152.2944Q568.73126 152.46628 569.15314 153.02878Q569.575 153.57565 569.575 154.4194Q569.575 155.5444 568.7469 156.32565Q567.9344 157.1069 566.6844 157.1069Q565.5594 157.1069 564.8094 156.43503Q564.0594 155.74753 563.95 154.68503ZM571.15314 150.4194Q571.15314 149.49753 571.60626 148.8569Q572.075 148.21628 572.95 148.21628Q573.7625 148.21628 574.29376 148.7944Q574.825 149.37253 574.825 150.4819Q574.825 151.57565 574.27814 152.1694Q573.7469 152.74753 572.96564 152.74753Q572.1844 152.74753 571.66876 152.1694Q571.15314 151.59128 571.15314 150.4194ZM572.98126 148.93503Q572.59064 148.93503 572.325 149.27878Q572.075 149.62253 572.075 150.52878Q572.075 151.3569 572.325 151.70065Q572.59064 152.02878 572.98126 152.02878Q573.3875 152.02878 573.6375 151.68503Q573.90314 151.34128 573.90314 150.45065Q573.90314 149.6069 573.6375 149.27878Q573.3719 148.93503 572.98126 148.93503ZM572.98126 157.26315L577.6844 148.21628L578.54376 148.21628L573.85626 157.26315L572.98126 157.26315ZM576.7 154.93503Q576.7 154.01315 577.15314 153.37253Q577.6219 152.7319 578.5125 152.7319Q579.325 152.7319 579.85626 153.31003Q580.3875 153.87253 580.3875 154.99753Q580.3875 156.09128 579.84064 156.68503Q579.3094 157.26315 578.5125 157.26315Q577.7469 157.26315 577.21564 156.68503Q576.7 156.1069 576.7 154.93503ZM578.54376 153.45065Q578.1375 153.45065 577.8719 153.7944Q577.6219 154.13815 577.6219 155.0444Q577.6219 155.8569 577.8875 156.20065Q578.15314 156.5444 578.54376 156.5444Q578.9344 156.5444 579.2 156.20065Q579.46564 155.8569 579.46564 154.95065Q579.46564 154.12253 579.2 153.7944Q578.9344 153.45065 578.54376 153.45065Z" fill-rule="nonzero"/><path stroke="#757575" stroke-width="1.0" stroke-linecap="butt" d="M581.45 144.45065L472.95 144.45065L453.19824 144.45065" fill-rule="nonzero"/><path fill="#9e9e9e" d="M455.19824 144.45065C455.19824 143.34608 454.30283 142.45065 453.19824 142.45065C452.0937 142.45065 451.19824 143.34608 451.19824 144.45065C451.19824 145.55522 452.0937 146.45065 453.19824 146.45065C454.30283 146.45065 455.19824 145.55522 455.19824 144.45065" fill-rule="nonzero"/><path fill="#1a1a1a" d="M580.41876 253.81686L579.3719 253.89499Q579.23126 253.26999 578.98126 252.98874Q578.54376 252.53561 577.91876 252.53561Q577.41876 252.53561 577.02814 252.81686Q576.54376 253.19186 576.2469 253.89499Q575.96564 254.58249 575.95 255.86374Q576.325 255.28561 576.8719 255.00436Q577.4344 254.72311 578.04376 254.72311Q579.09064 254.72311 579.825 255.50436Q580.575 256.2856 580.575 257.50436Q580.575 258.31686 580.21564 259.02Q579.8719 259.7075 579.2625 260.0825Q578.65314 260.44186 577.8875 260.44186Q576.5594 260.44186 575.73126 259.4731Q574.90314 258.50436 574.90314 256.2856Q574.90314 253.78561 575.825 252.66061Q576.6219 251.67624 577.98126 251.67624Q578.9969 251.67624 579.6375 252.25436Q580.29376 252.81686 580.41876 253.81686ZM576.1219 257.52Q576.1219 258.06686 576.34064 258.56686Q576.575 259.05124 576.98126 259.31686Q577.40314 259.5825 577.8719 259.5825Q578.52814 259.5825 579.0125 259.05124Q579.4969 258.50436 579.4969 257.5825Q579.4969 256.69186 579.0125 256.17624Q578.54376 255.66061 577.825 255.66061Q577.10626 255.66061 576.60626 256.17624Q576.1219 256.69186 576.1219 257.52Z" fill-rule="nonzero"/><path fill="#9e9e9e" d="M550.91876 277.30124L549.8719 277.30124L549.8719 270.5825Q549.48126 270.94186 548.85626 271.31686Q548.2469 271.67624 547.7625 271.8481L547.7625 270.8325Q548.6375 270.4106 549.29376 269.8325Q549.96564 269.23874 550.2469 268.67624L550.91876 268.67624L550.91876 277.30124ZM559.41876 270.81686L558.3719 270.895Q558.23126 270.27 557.98126 269.98874Q557.54376 269.5356 556.91876 269.5356Q556.41876 269.5356 556.02814 269.81686Q555.54376 270.19186 555.2469 270.895Q554.96564 271.5825 554.95 272.86374Q555.325 272.2856 555.8719 272.00436Q556.4344 271.7231 557.04376 271.7231Q558.09064 271.7231 558.825 272.50436Q559.575 273.2856 559.575 274.50436Q559.575 275.31686 559.21564 276.02Q558.8719 276.7075 558.2625 277.0825Q557.65314 277.44186 556.8875 277.44186Q555.5594 277.44186 554.73126 276.4731Q553.90314 275.50436 553.90314 273.2856Q553.90314 270.7856 554.825 269.6606Q555.6219 268.67624 556.98126 268.67624Q557.9969 268.67624 558.6375 269.25436Q559.29376 269.81686 559.41876 270.81686ZM555.1219 274.52Q555.1219 275.06686 555.34064 275.56686Q555.575 276.05124 555.98126 276.31686Q556.40314 276.5825 556.8719 276.5825Q557.52814 276.5825 558.0125 276.05124Q558.4969 275.50436 558.4969 274.5825Q558.4969 273.69186 558.0125 273.17624Q557.54376 272.6606 556.825 272.6606Q556.10626 272.6606 555.60626 273.17624Q555.1219 273.69186 555.1219 274.52ZM561.54376 277.30124L561.54376 276.0981L562.7469 276.0981L562.7469 277.30124L561.54376 277.30124ZM564.0125 269.8325L564.0125 268.81686L569.575 268.81686L569.575 269.645Q568.7625 270.52 567.95 271.9731Q567.15314 273.4106 566.71564 274.94186Q566.3875 276.02 566.3094 277.30124L565.21564 277.30124Q565.23126 276.2856 565.60626 274.8481Q565.9969 273.4106 566.7 272.0825Q567.41876 270.75436 568.23126 269.8325L564.0125 269.8325ZM571.15314 270.77Q571.15314 269.8481 571.60626 269.2075Q572.075 268.56686 572.95 268.56686Q573.7625 268.56686 574.29376 269.145Q574.825 269.7231 574.825 270.8325Q574.825 271.92624 574.27814 272.52Q573.7469 273.0981 572.96564 273.0981Q572.1844 273.0981 571.66876 272.52Q571.15314 271.94186 571.15314 270.77ZM572.98126 269.2856Q572.59064 269.2856 572.325 269.62936Q572.075 269.9731 572.075 270.87936Q572.075 271.7075 572.325 272.05124Q572.59064 272.37936 572.98126 272.37936Q573.3875 272.37936 573.6375 272.0356Q573.90314 271.69186 573.90314 270.80124Q573.90314 269.9575 573.6375 269.62936Q573.3719 269.2856 572.98126 269.2856ZM572.98126 277.61374L577.6844 268.56686L578.54376 268.56686L573.85626 277.61374L572.98126 277.61374ZM576.7 275.2856Q576.7 274.36374 577.15314 273.7231Q577.6219 273.0825 578.5125 273.0825Q579.325 273.0825 579.85626 273.6606Q580.3875 274.2231 580.3875 275.3481Q580.3875 276.44186 579.84064 277.0356Q579.3094 277.61374 578.5125 277.61374Q577.7469 277.61374 577.21564 277.0356Q576.7 276.4575 576.7 275.2856ZM578.54376 273.80124Q578.1375 273.80124 577.8719 274.145Q577.6219 274.48874 577.6219 275.395Q577.6219 276.2075 577.8875 276.55124Q578.15314 276.895 578.54376 276.895Q578.9344 276.895 579.2 276.55124Q579.46564 276.2075 579.46564 275.30124Q579.46564 274.4731 579.2 274.145Q578.9344 273.80124 578.54376 273.80124Z" fill-rule="nonzero"/><path stroke="#757575" stroke-width="1.0" stroke-linecap="butt" d="M581.45 264.80124L472.95 264.80124L437.3538 264.80124" fill-rule="nonzero"/><path fill="#9e9e9e" d="M439.3538 264.80124C439.3538 263.6967 438.45837 262.80124 437.3538 262.80124C436.24924 262.80124 435.3538 263.6967 435.3538 264.80124C435.3538 265.90582 436.24924 266.80124 437.3538 266.80124C438.45837 266.80124 439.3538 265.90582 439.3538 264.80124" fill-rule="nonzero"/><path fill="#1a1a1a" d="M576.575 327.79376Q575.91876 327.54376 575.59064 327.10626Q575.27814 326.65314 575.27814 326.04376Q575.27814 325.10626 575.95 324.46564Q576.6375 323.825 577.7469 323.825Q578.8719 323.825 579.5594 324.48126Q580.2469 325.1375 580.2469 326.075Q580.2469 326.66876 579.9344 327.10626Q579.6219 327.54376 578.98126 327.79376Q579.77814 328.04376 580.1844 328.6219Q580.59064 329.2 580.59064 329.9969Q580.59064 331.09064 579.8094 331.84064Q579.04376 332.59064 577.7625 332.59064Q576.4969 332.59064 575.71564 331.84064Q574.9344 331.09064 574.9344 329.96564Q574.9344 329.1219 575.35626 328.5594Q575.79376 327.9969 576.575 327.79376ZM576.35626 325.9969Q576.35626 326.60626 576.7469 326.9969Q577.15314 327.3875 577.77814 327.3875Q578.3875 327.3875 578.77814 327.0125Q579.16876 326.6219 579.16876 326.0594Q579.16876 325.48126 578.7625 325.09064Q578.35626 324.6844 577.7625 324.6844Q577.15314 324.6844 576.7469 325.075Q576.35626 325.46564 576.35626 325.9969ZM576.02814 329.96564Q576.02814 330.41876 576.23126 330.84064Q576.45 331.2625 576.8719 331.4969Q577.29376 331.73126 577.77814 331.73126Q578.52814 331.73126 579.0125 331.2469Q579.5125 330.7625 579.5125 330.0125Q579.5125 329.2469 579.0125 328.7469Q578.5125 328.2469 577.7469 328.2469Q576.9969 328.2469 576.5125 328.7469Q576.02814 329.23126 576.02814 329.96564Z" fill-rule="nonzero"/><path fill="#9e9e9e" d="M550.91876 349.45L549.8719 349.45L549.8719 342.73126Q549.48126 343.09064 548.85626 343.46564Q548.2469 343.825 547.7625 343.9969L547.7625 342.98126Q548.6375 342.5594 549.29376 341.98126Q549.96564 341.3875 550.2469 340.825L550.91876 340.825L550.91876 349.45ZM559.41876 342.96564L558.3719 343.04376Q558.23126 342.41876 557.98126 342.1375Q557.54376 341.6844 556.91876 341.6844Q556.41876 341.6844 556.02814 341.96564Q555.54376 342.34064 555.2469 343.04376Q554.96564 343.73126 554.95 345.0125Q555.325 344.4344 555.8719 344.15314Q556.4344 343.8719 557.04376 343.8719Q558.09064 343.8719 558.825 344.65314Q559.575 345.4344 559.575 346.65314Q559.575 347.46564 559.21564 348.16876Q558.8719 348.85626 558.2625 349.23126Q557.65314 349.59064 556.8875 349.59064Q555.5594 349.59064 554.73126 348.6219Q553.90314 347.65314 553.90314 345.4344Q553.90314 342.9344 554.825 341.8094Q555.6219 340.825 556.98126 340.825Q557.9969 340.825 558.6375 341.40314Q559.29376 341.96564 559.41876 342.96564ZM555.1219 346.66876Q555.1219 347.21564 555.34064 347.71564Q555.575 348.2 555.98126 348.46564Q556.40314 348.73126 556.8719 348.73126Q557.52814 348.73126 558.0125 348.2Q558.4969 347.65314 558.4969 346.73126Q558.4969 345.84064 558.0125 345.325Q557.54376 344.8094 556.825 344.8094Q556.10626 344.8094 555.60626 345.325Q555.1219 345.84064 555.1219 346.66876ZM561.54376 349.45L561.54376 348.2469L562.7469 348.2469L562.7469 349.45L561.54376 349.45ZM564.0125 341.98126L564.0125 340.96564L569.575 340.96564L569.575 341.79376Q568.7625 342.66876 567.95 344.1219Q567.15314 345.5594 566.71564 347.09064Q566.3875 348.16876 566.3094 349.45L565.21564 349.45Q565.23126 348.4344 565.60626 346.9969Q565.9969 345.5594 566.7 344.23126Q567.41876 342.90314 568.23126 341.98126L564.0125 341.98126ZM571.15314 342.91876Q571.15314 341.9969 571.60626 341.35626Q572.075 340.71564 572.95 340.71564Q573.7625 340.71564 574.29376 341.29376Q574.825 341.8719 574.825 342.98126Q574.825 344.075 574.27814 344.66876Q573.7469 345.2469 572.96564 345.2469Q572.1844 345.2469 571.66876 344.66876Q571.15314 344.09064 571.15314 342.91876ZM572.98126 341.4344Q572.59064 341.4344 572.325 341.77814Q572.075 342.1219 572.075 343.02814Q572.075 343.85626 572.325 344.2Q572.59064 344.52814 572.98126 344.52814Q573.3875 344.52814 573.6375 344.1844Q573.90314 343.84064 573.90314 342.95Q573.90314 342.10626 573.6375 341.77814Q573.3719 341.4344 572.98126 341.4344ZM572.98126 349.7625L577.6844 340.71564L578.54376 340.71564L573.85626 349.7625L572.98126 349.7625ZM576.7 347.4344Q576.7 346.5125 577.15314 345.8719Q577.6219 345.23126 578.5125 345.23126Q579.325 345.23126 579.85626 345.8094Q580.3875 346.3719 580.3875 347.4969Q580.3875 348.59064 579.84064 349.1844Q579.3094 349.7625 578.5125 349.7625Q577.7469 349.7625 577.21564 349.1844Q576.7 348.60626 576.7 347.4344ZM578.54376 345.95Q578.1375 345.95 577.8719 346.29376Q577.6219 346.6375 577.6219 347.54376Q577.6219 348.35626 577.8875 348.7Q578.15314 349.04376 578.54376 349.04376Q578.9344 349.04376 579.2 348.7Q579.46564 348.35626 579.46564 347.45Q579.46564 346.6219 579.2 346.29376Q578.9344 345.95 578.54376 345.95Z" fill-rule="nonzero"/><path stroke="#757575" stroke-width="1.0" stroke-linecap="butt" d="M581.45 336.95L472.95 336.95L300.0 344.1025" fill-rule="nonzero"/><path fill="#9e9e9e" d="M302.0 344.1025C302.0 342.99792 301.10458 342.1025 300.0 342.1025C298.89542 342.1025 298.0 342.99792 298.0 344.1025C298.0 345.20706 298.89542 346.1025 300.0 346.1025C301.10458 346.1025 302.0 345.20706 302.0 344.1025" fill-rule="nonzero"/></svg>