<svg version="1.1" viewBox="0.0 0.0 600.0 371.0" fill="none" stroke="none" stroke-linecap="square" stroke-miterlimit="10" width="600" height="371" xmlns:xlink="http://www.w3.org/1999/xlink" xmlns="http://www.w3.org/2000/svg"><path fill="#ffffff" d="M0 0L600.0 0L600.0 371.0L0 371.0L0 0Z" fill-rule="nonzero"/><path fill="#4285f4" d="M300.0 18.55C359.64548 18.55 414.7602 50.37049 444.58295 102.025C474.4057 153.6795 474.4057 217.3205 444.58295 268.975L300.0 185.5Z" fill-rule="nonzero"/><path fill="#ea4335" d="M444.58295 268.975C404.07306 339.1402 319.03342 370.09207 242.89973 342.38168C166.76605 314.6713 121.51741 236.29834 135.58635 156.50943C149.65529 76.720535 218.98022 18.55 300.0 18.55L300.0 185.5Z" fill-rule="nonzero"/><path fill="#1a1a1a" d="M19.425 260.30124L19.425 251.70749L22.659374 251.70749Q23.64375 251.70749 24.2375 251.97311Q24.83125 252.23874 25.159374 252.78561Q25.503124 253.31686 25.503124 253.91061Q25.503124 254.45749 25.20625 254.94186Q24.909374 255.42624 24.3 255.72311Q25.08125 255.95749 25.4875 256.52Q25.909374 257.06686 25.909374 257.81686Q25.909374 258.4106 25.659374 258.94186Q25.409374 259.4575 25.034374 259.73874Q24.659374 260.02 24.08125 260.1606Q23.51875 260.30124 22.70625 260.30124L19.425 260.30124ZM20.565624 255.31686L22.425 255.31686Q23.175 255.31686 23.503124 255.22311Q23.940624 255.09811 24.159374 254.80124Q24.378124 254.48874 24.378124 254.03561Q24.378124 253.61374 24.175 253.28561Q23.971874 252.95749 23.58125 252.84811Q23.20625 252.72311 22.284374 252.72311L20.565624 252.72311L20.565624 255.31686ZM20.565624 259.2856L22.70625 259.2856Q23.253124 259.2856 23.471874 259.23874Q23.878124 259.17624 24.128124 259.02Q24.39375 258.8481 24.565624 258.5356Q24.7375 258.2231 24.7375 257.81686Q24.7375 257.3325 24.4875 256.9731Q24.253124 256.61374 23.815624 256.4731Q23.378124 256.3325 22.55 256.3325L20.565624 256.3325L20.565624 259.2856ZM27.33125 260.30124L27.33125 254.08249L28.284374 254.08249L28.284374 255.01999Q28.64375 254.36374 28.940624 254.16061Q29.253124 253.94186 29.628124 253.94186Q30.159374 253.94186 30.70625 254.26999L30.346874 255.25436Q29.95625 255.01999 29.58125 255.01999Q29.221874 255.01999 28.940624 255.23874Q28.675 255.44186 28.565624 255.81686Q28.378124 256.37936 28.378124 257.0356L28.378124 260.30124L27.33125 260.30124ZM35.596874 258.30124L36.690624 258.42624Q36.440624 259.37936 35.7375 259.9106Q35.034374 260.44186 33.95625 260.44186Q32.596874 260.44186 31.784374 259.5981Q30.9875 258.75436 30.9875 257.23874Q30.9875 255.67624 31.8 254.81686Q32.6125 253.94186 33.89375 253.94186Q35.14375 253.94186 35.925 254.78561Q36.721874 255.62936 36.721874 257.17624Q36.721874 257.27 36.721874 257.4575L32.08125 257.4575Q32.14375 258.48874 32.659374 259.0356Q33.175 259.56686 33.95625 259.56686Q34.534374 259.56686 34.940624 259.27Q35.3625 258.9575 35.596874 258.30124ZM32.14375 256.5981L35.6125 256.5981Q35.55 255.80124 35.221874 255.41061Q34.70625 254.80124 33.909374 254.80124Q33.175 254.80124 32.675 255.28561Q32.190624 255.76999 32.14375 256.5981ZM40.64375 259.36374L40.8 260.2856Q40.346874 260.37936 40.003124 260.37936Q39.425 260.37936 39.1125 260.2075Q38.8 260.02 38.659374 259.7231Q38.534374 259.42624 38.534374 258.4731L38.534374 254.89499L37.76875 254.89499L37.76875 254.08249L38.534374 254.08249L38.534374 252.53561L39.58125 251.91061L39.58125 254.08249L40.64375 254.08249L40.64375 254.89499L39.58125 254.89499L39.58125 258.5356Q39.58125 258.98874 39.628124 259.11374Q39.690624 259.23874 39.815624 259.31686Q39.940624 259.395 40.175 259.395Q40.3625 259.395 40.64375 259.36374ZM43.64375 259.36374L43.8 260.2856Q43.346874 260.37936 43.003124 260.37936Q42.425 260.37936 42.1125 260.2075Q41.8 260.02 41.659374 259.7231Q41.534374 259.42624 41.534374 258.4731L41.534374 254.89499L40.76875 254.89499L40.76875 254.08249L41.534374 254.08249L41.534374 252.53561L42.58125 251.91061L42.58125 254.08249L43.64375 254.08249L43.64375 254.89499L42.58125 254.89499L42.58125 258.5356Q42.58125 258.98874 42.628124 259.11374Q42.690624 259.23874 42.815624 259.31686Q42.940624 259.395 43.175 259.395Q43.3625 259.395 43.64375 259.36374ZM47.534374 260.30124L47.534374 251.70749L53.33125 251.70749L53.33125 252.72311L48.675 252.72311L48.675 255.37936L52.70625 255.37936L52.70625 256.395L48.675 256.395L48.675 260.30124L47.534374 260.30124ZM58.409374 259.5356Q57.815624 260.0356 57.26875 260.23874Q56.7375 260.44186 56.1125 260.44186Q55.08125 260.44186 54.534374 259.94186Q53.9875 259.44186 53.9875 258.6606Q53.9875 258.2075 54.190624 257.8325Q54.39375 257.44186 54.7375 257.2231Q55.08125 256.98874 55.503124 256.87936Q55.8 256.7856 56.440624 256.7075Q57.70625 256.56686 58.315624 256.3481Q58.315624 256.12936 58.315624 256.0825Q58.315624 255.42624 58.01875 255.16061Q57.6125 254.81686 56.815624 254.81686Q56.08125 254.81686 55.721874 255.08249Q55.3625 255.33249 55.190624 255.98874L54.159374 255.84811Q54.3 255.19186 54.628124 254.78561Q54.95625 254.37936 55.565624 254.16061Q56.175 253.94186 56.971874 253.94186Q57.76875 253.94186 58.26875 254.12936Q58.76875 254.31686 59.003124 254.59811Q59.2375 254.87936 59.33125 255.31686Q59.378124 255.58249 59.378124 256.2856L59.378124 257.69186Q59.378124 259.1606 59.440624 259.55124Q59.51875 259.94186 59.721874 260.30124L58.6125 260.30124Q58.45625 259.9731 58.409374 259.5356ZM58.315624 257.17624Q57.7375 257.4106 56.596874 257.5825Q55.940624 257.67624 55.675 257.80124Q55.409374 257.9106 55.253124 258.12936Q55.1125 258.3481 55.1125 258.62936Q55.1125 259.05124 55.425 259.3325Q55.753124 259.61374 56.3625 259.61374Q56.971874 259.61374 57.440624 259.3481Q57.925 259.0825 58.14375 258.61374Q58.315624 258.25436 58.315624 257.56686L58.315624 257.17624ZM63.065624 260.30124L60.70625 254.08249L61.815624 254.08249L63.159374 257.80124Q63.3625 258.4106 63.55 259.05124Q63.690624 258.56686 63.940624 257.87936L65.33125 254.08249L66.40938 254.08249L64.05 260.30124L63.065624 260.30124ZM67.33125 260.30124L67.33125 254.08249L68.28438 254.08249L68.28438 255.01999Q68.64375 254.36374 68.94063 254.16061Q69.25313 253.94186 69.62813 253.94186Q70.15938 253.94186 70.70625 254.26999L70.34688 255.25436Q69.95625 255.01999 69.58125 255.01999Q69.22188 255.01999 68.94063 255.23874Q68.675 255.44186 68.56563 255.81686Q68.37813 256.37936 68.37813 257.0356L68.37813 260.30124L67.33125 260.30124ZM75.59688 258.30124L76.69063 258.42624Q76.44063 259.37936 75.7375 259.9106Q75.03438 260.44186 73.95625 260.44186Q72.59688 260.44186 71.78438 259.5981Q70.9875 258.75436 70.9875 257.23874Q70.9875 255.67624 71.8 254.81686Q72.6125 253.94186 73.89375 253.94186Q75.14375 253.94186 75.925 254.78561Q76.72188 255.62936 76.72188 257.17624Q76.72188 257.27 76.72188 257.4575L72.08125 257.4575Q72.14375 258.48874 72.65938 259.0356Q73.175 259.56686 73.95625 259.56686Q74.53438 259.56686 74.94063 259.27Q75.3625 258.9575 75.59688 258.30124ZM72.14375 256.5981L75.6125 256.5981Q75.55 255.80124 75.22188 255.41061Q74.70625 254.80124 73.90938 254.80124Q73.175 254.80124 72.675 255.28561Q72.19063 255.76999 72.14375 256.5981Z" fill-rule="nonzero"/><path fill="#9e9e9e" d="M24.51875 270.81686L23.471874 270.895Q23.33125 270.27 23.08125 269.98874Q22.64375 269.5356 22.01875 269.5356Q21.51875 269.5356 21.128124 269.81686Q20.64375 270.19186 20.346874 270.895Q20.065624 271.5825 20.05 272.86374Q20.425 272.2856 20.971874 272.00436Q21.534374 271.7231 22.14375 271.7231Q23.190624 271.7231 23.925 272.50436Q24.675 273.2856 24.675 274.50436Q24.675 275.31686 24.315624 276.02Q23.971874 276.7075 23.3625 277.0825Q22.753124 277.44186 21.9875 277.44186Q20.659374 277.44186 19.83125 276.4731Q19.003124 275.50436 19.003124 273.2856Q19.003124 270.7856 19.925 269.6606Q20.721874 268.67624 22.08125 268.67624Q23.096874 268.67624 23.7375 269.25436Q24.39375 269.81686 24.51875 270.81686ZM20.221874 274.52Q20.221874 275.06686 20.440624 275.56686Q20.675 276.05124 21.08125 276.31686Q21.503124 276.5825 21.971874 276.5825Q22.628124 276.5825 23.1125 276.05124Q23.596874 275.50436 23.596874 274.5825Q23.596874 273.69186 23.1125 273.17624Q22.64375 272.6606 21.925 272.6606Q21.20625 272.6606 20.70625 273.17624Q20.221874 273.69186 20.221874 274.52ZM31.51875 270.81686L30.471874 270.895Q30.33125 270.27 30.08125 269.98874Q29.64375 269.5356 29.01875 269.5356Q28.51875 269.5356 28.128124 269.81686Q27.64375 270.19186 27.346874 270.895Q27.065624 271.5825 27.05 272.86374Q27.425 272.2856 27.971874 272.00436Q28.534374 271.7231 29.14375 271.7231Q30.190624 271.7231 30.925 272.50436Q31.675 273.2856 31.675 274.50436Q31.675 275.31686 31.315624 276.02Q30.971874 276.7075 30.3625 277.0825Q29.753124 277.44186 28.9875 277.44186Q27.659374 277.44186 26.83125 276.4731Q26.003124 275.50436 26.003124 273.2856Q26.003124 270.7856 26.925 269.6606Q27.721874 268.67624 29.08125 268.67624Q30.096874 268.67624 30.7375 269.25436Q31.39375 269.81686 31.51875 270.81686ZM27.221874 274.52Q27.221874 275.06686 27.440624 275.56686Q27.675 276.05124 28.08125 276.31686Q28.503124 276.5825 28.971874 276.5825Q29.628124 276.5825 30.1125 276.05124Q30.596874 275.50436 30.596874 274.5825Q30.596874 273.69186 30.1125 273.17624Q29.64375 272.6606 28.925 272.6606Q28.20625 272.6606 27.70625 273.17624Q27.221874 273.69186 27.221874 274.52ZM33.64375 277.30124L33.64375 276.0981L34.846874 276.0981L34.846874 277.30124L33.64375 277.30124ZM36.1125 269.8325L36.1125 268.81686L41.675 268.81686L41.675 269.645Q40.8625 270.52 40.05 271.9731Q39.253124 273.4106 38.815624 274.94186Q38.4875 276.02 38.409374 277.30124L37.315624 277.30124Q37.33125 276.2856 37.70625 274.8481Q38.096874 273.4106 38.8 272.0825Q39.51875 270.75436 40.33125 269.8325L36.1125 269.8325ZM43.253124 270.77Q43.253124 269.8481 43.70625 269.2075Q44.175 268.56686 45.05 268.56686Q45.8625 268.56686 46.39375 269.145Q46.925 269.7231 46.925 270.8325Q46.925 271.92624 46.378124 272.52Q45.846874 273.0981 45.065624 273.0981Q44.284374 273.0981 43.76875 272.52Q43.253124 271.94186 43.253124 270.77ZM45.08125 269.2856Q44.690624 269.2856 44.425 269.62936Q44.175 269.9731 44.175 270.87936Q44.175 271.7075 44.425 272.05124Q44.690624 272.37936 45.08125 272.37936Q45.4875 272.37936 45.7375 272.0356Q46.003124 271.69186 46.003124 270.80124Q46.003124 269.9575 45.7375 269.62936Q45.471874 269.2856 45.08125 269.2856ZM45.08125 277.61374L49.784374 268.56686L50.64375 268.56686L45.95625 277.61374L45.08125 277.61374ZM48.8 275.2856Q48.8 274.36374 49.253124 273.7231Q49.721874 273.0825 50.6125 273.0825Q51.425 273.0825 51.95625 273.6606Q52.4875 274.2231 52.4875 275.3481Q52.4875 276.44186 51.940624 277.0356Q51.409374 277.61374 50.6125 277.61374Q49.846874 277.61374 49.315624 277.0356Q48.8 276.4575 48.8 275.2856ZM50.64375 273.80124Q50.2375 273.80124 49.971874 274.145Q49.721874 274.48874 49.721874 275.395Q49.721874 276.2075 49.9875 276.55124Q50.253124 276.895 50.64375 276.895Q51.034374 276.895 51.3 276.55124Q51.565624 276.2075 51.565624 275.30124Q51.565624 274.4731 51.3 274.145Q51.034374 273.80124 50.64375 273.80124Z" fill-rule="nonzero"/><path stroke="#757575" stroke-width="1.0" stroke-linecap="butt" d="M18.55 264.80124L127.05 264.80124L162.64621 264.80124" fill-rule="nonzero"/><path fill="#9e9e9e" d="M164.64621 264.80124C164.64621 263.6967 163.75078 262.80124 162.64621 262.80124C161.54164 262.80124 160.64621 263.6967 160.64621 264.80124C160.64621 265.90582 161.54164 266.80124 162.64621 266.80124C163.75078 266.80124 164.64621 265.90582 164.64621 264.80124" fill-rule="nonzero"/><path fill="#1a1a1a" d="M498.4344 101.69875L501.73126 93.105L502.95 93.105L506.46564 101.69875L505.1844 101.69875L504.16876 99.08938L500.59064 99.08938L499.6375 101.69875L498.4344 101.69875ZM500.91876 98.1675L503.825 98.1675L502.9344 95.7925Q502.5125 94.71438 502.325 94.01125Q502.15314 94.83938 501.85626 95.65188L500.91876 98.1675ZM511.3094 100.93313Q510.71564 101.43313 510.16876 101.63625Q509.6375 101.83938 509.0125 101.83938Q507.98126 101.83938 507.4344 101.33938Q506.8875 100.83938 506.8875 100.05813Q506.8875 99.605 507.09064 99.23Q507.29376 98.83938 507.6375 98.62063Q507.98126 98.38625 508.40314 98.27688Q508.7 98.18313 509.34064 98.105Q510.60626 97.96438 511.21564 97.74563Q511.21564 97.52688 511.21564 97.48Q511.21564 96.82375 510.91876 96.55813Q510.5125 96.21438 509.71564 96.21438Q508.98126 96.21438 508.6219 96.48Q508.2625 96.73 508.09064 97.38625L507.0594 97.24563Q507.2 96.58938 507.52814 96.18313Q507.85626 95.77688 508.46564 95.55813Q509.075 95.33938 509.8719 95.33938Q510.66876 95.33938 511.16876 95.52688Q511.66876 95.71438 511.90314 95.99563Q512.1375 96.27688 512.23126 96.71438Q512.27814 96.98 512.27814 97.68313L512.27814 99.08938Q512.27814 100.55813 512.34064 100.94875Q512.41876 101.33938 512.6219 101.69875L511.5125 101.69875Q511.35626 101.37063 511.3094 100.93313ZM511.21564 98.57375Q510.6375 98.80813 509.4969 98.98Q508.84064 99.07375 508.575 99.19875Q508.3094 99.30813 508.15314 99.52688Q508.0125 99.74563 508.0125 100.02688Q508.0125 100.44875 508.325 100.73Q508.65314 101.01125 509.2625 101.01125Q509.8719 101.01125 510.34064 100.74563Q510.825 100.48 511.04376 100.01125Q511.21564 99.65188 511.21564 98.96438L511.21564 98.57375ZM514.23126 101.69875L514.23126 95.48L515.1844 95.48L515.1844 96.4175Q515.54376 95.76125 515.84064 95.55813Q516.15314 95.33938 516.52814 95.33938Q517.0594 95.33938 517.60626 95.6675L517.2469 96.65188Q516.85626 96.4175 516.48126 96.4175Q516.1219 96.4175 515.84064 96.63625Q515.575 96.83938 515.46564 97.21438Q515.27814 97.77688 515.27814 98.43313L515.27814 101.69875L514.23126 101.69875ZM517.85626 98.58938Q517.85626 96.855 518.8094 96.02688Q519.60626 95.33938 520.7625 95.33938Q522.04376 95.33938 522.85626 96.18313Q523.6844 97.01125 523.6844 98.49563Q523.6844 99.69875 523.325 100.38625Q522.96564 101.07375 522.2625 101.46438Q521.575 101.83938 520.7625 101.83938Q519.46564 101.83938 518.65314 101.01125Q517.85626 100.1675 517.85626 98.58938ZM518.9344 98.58938Q518.9344 99.77688 519.45 100.37063Q519.98126 100.96438 520.7625 100.96438Q521.5594 100.96438 522.075 100.37063Q522.59064 99.77688 522.59064 98.55813Q522.59064 97.40188 522.0594 96.80813Q521.54376 96.21438 520.7625 96.21438Q519.98126 96.21438 519.45 96.80813Q518.9344 97.38625 518.9344 98.58938ZM525.2469 101.69875L525.2469 95.48L526.1844 95.48L526.1844 96.355Q526.8719 95.33938 528.16876 95.33938Q528.73126 95.33938 529.2 95.5425Q529.6844 95.74563 529.91876 96.07375Q530.15314 96.40188 530.2469 96.83938Q530.29376 97.13625 530.29376 97.87063L530.29376 101.69875L529.2469 101.69875L529.2469 97.9175Q529.2469 97.26125 529.1219 96.94875Q528.9969 96.63625 528.6844 96.44875Q528.3719 96.24563 527.95 96.24563Q527.27814 96.24563 526.77814 96.68313Q526.29376 97.105 526.29376 98.2925L526.29376 101.69875L525.2469 101.69875ZM535.3875 101.69875L535.3875 93.105L539.2 93.105Q540.35626 93.105 540.95 93.33938Q541.54376 93.57375 541.90314 94.1675Q542.2625 94.74563 542.2625 95.44875Q542.2625 96.37063 541.66876 96.99563Q541.075 97.62063 539.84064 97.7925Q540.29376 98.01125 540.52814 98.21438Q541.02814 98.6675 541.46564 99.355L542.96564 101.69875L541.52814 101.69875L540.40314 99.9175Q539.90314 99.13625 539.575 98.73Q539.2625 98.32375 538.9969 98.1675Q538.7469 97.99563 538.48126 97.9175Q538.29376 97.88625 537.85626 97.88625L536.52814 97.88625L536.52814 101.69875L535.3875 101.69875ZM536.52814 96.90188L538.98126 96.90188Q539.7469 96.90188 540.1844 96.74563Q540.6375 96.57375 540.85626 96.23Q541.09064 95.87063 541.09064 95.44875Q541.09064 94.83938 540.6375 94.44875Q540.2 94.05813 539.2469 94.05813L536.52814 94.05813L536.52814 96.90188ZM543.85626 98.58938Q543.85626 96.855 544.8094 96.02688Q545.60626 95.33938 546.7625 95.33938Q548.04376 95.33938 548.85626 96.18313Q549.6844 97.01125 549.6844 98.49563Q549.6844 99.69875 549.325 100.38625Q548.96564 101.07375 548.2625 101.46438Q547.575 101.83938 546.7625 101.83938Q545.46564 101.83938 544.65314 101.01125Q543.85626 100.1675 543.85626 98.58938ZM544.9344 98.58938Q544.9344 99.77688 545.45 100.37063Q545.98126 100.96438 546.7625 100.96438Q547.5594 100.96438 548.075 100.37063Q548.59064 99.77688 548.59064 98.55813Q548.59064 97.40188 548.0594 96.80813Q547.54376 96.21438 546.7625 96.21438Q545.98126 96.21438 545.45 96.80813Q544.9344 97.38625 544.9344 98.58938ZM555.27814 101.69875L555.27814 100.9175Q554.6844 101.83938 553.54376 101.83938Q552.79376 101.83938 552.16876 101.43313Q551.54376 101.01125 551.2 100.27688Q550.85626 99.5425 550.85626 98.58938Q550.85626 97.6675 551.16876 96.90188Q551.48126 96.13625 552.10626 95.74563Q552.73126 95.33938 553.4969 95.33938Q554.0594 95.33938 554.4969 95.57375Q554.9344 95.80813 555.21564 96.18313L555.21564 93.105L556.2625 93.105L556.2625 101.69875L555.27814 101.69875ZM551.95 98.58938Q551.95 99.7925 552.45 100.38625Q552.95 100.96438 553.6375 100.96438Q554.325 100.96438 554.8094 100.40188Q555.29376 99.83938 555.29376 98.68313Q555.29376 97.40188 554.79376 96.80813Q554.3094 96.21438 553.59064 96.21438Q552.8875 96.21438 552.41876 96.7925Q551.95 97.355 551.95 98.58938ZM558.04376 102.21438L559.075 102.37063Q559.1375 102.83938 559.4344 103.05813Q559.825 103.355 560.4969 103.355Q561.23126 103.355 561.6219 103.05813Q562.02814 102.76125 562.16876 102.24563Q562.2625 101.9175 562.2469 100.88625Q561.5594 101.69875 560.52814 101.69875Q559.2469 101.69875 558.54376 100.77688Q557.84064 99.83938 557.84064 98.55813Q557.84064 97.6675 558.15314 96.9175Q558.48126 96.15188 559.09064 95.74563Q559.7 95.33938 560.52814 95.33938Q561.6375 95.33938 562.35626 96.23L562.35626 95.48L563.325 95.48L563.325 100.855Q563.325 102.30813 563.02814 102.9175Q562.73126 103.52688 562.09064 103.87063Q561.45 104.23 560.5125 104.23Q559.40314 104.23 558.71564 103.73Q558.02814 103.23 558.04376 102.21438ZM558.91876 98.48Q558.91876 99.69875 559.40314 100.26125Q559.8875 100.82375 560.6219 100.82375Q561.35626 100.82375 561.84064 100.26125Q562.34064 99.69875 562.34064 98.51125Q562.34064 97.37063 561.825 96.7925Q561.325 96.21438 560.60626 96.21438Q559.90314 96.21438 559.40314 96.7925Q558.91876 97.355 558.91876 98.48ZM569.4969 99.69875L570.59064 99.82375Q570.34064 100.77688 569.6375 101.30813Q568.9344 101.83938 567.85626 101.83938Q566.4969 101.83938 565.6844 100.99563Q564.8875 100.15188 564.8875 98.63625Q564.8875 97.07375 565.7 96.21438Q566.5125 95.33938 567.79376 95.33938Q569.04376 95.33938 569.825 96.18313Q570.6219 97.02688 570.6219 98.57375Q570.6219 98.6675 570.6219 98.855L565.98126 98.855Q566.04376 99.88625 566.5594 100.43313Q567.075 100.96438 567.85626 100.96438Q568.4344 100.96438 568.84064 100.6675Q569.2625 100.355 569.4969 99.69875ZM566.04376 97.99563L569.5125 97.99563Q569.45 97.19875 569.1219 96.80813Q568.60626 96.19875 567.8094 96.19875Q567.075 96.19875 566.575 96.68313Q566.09064 97.1675 566.04376 97.99563ZM572.23126 101.69875L572.23126 95.48L573.1844 95.48L573.1844 96.4175Q573.54376 95.76125 573.84064 95.55813Q574.15314 95.33938 574.52814 95.33938Q575.0594 95.33938 575.60626 95.6675L575.2469 96.65188Q574.85626 96.4175 574.48126 96.4175Q574.1219 96.4175 573.84064 96.63625Q573.575 96.83938 573.46564 97.21438Q573.27814 97.77688 573.27814 98.43313L573.27814 101.69875L572.23126 101.69875ZM575.825 99.83938L576.85626 99.68313Q576.95 100.30813 577.34064 100.63625Q577.7469 100.96438 578.48126 100.96438Q579.2 100.96438 579.54376 100.68313Q579.90314 100.38625 579.90314 99.98Q579.90314 99.62063 579.59064 99.4175Q579.3719 99.27688 578.5125 99.05813Q577.35626 98.76125 576.90314 98.55813Q576.46564 98.33938 576.23126 97.96438Q575.9969 97.58938 575.9969 97.12063Q575.9969 96.71438 576.1844 96.355Q576.3719 95.99563 576.7 95.76125Q576.95 95.58938 577.3719 95.46438Q577.79376 95.33938 578.29376 95.33938Q579.0125 95.33938 579.5594 95.55813Q580.1219 95.76125 580.3875 96.12063Q580.65314 96.48 580.7469 97.07375L579.71564 97.21438Q579.65314 96.74563 579.3094 96.48Q578.98126 96.19875 578.35626 96.19875Q577.6375 96.19875 577.325 96.44875Q577.0125 96.68313 577.0125 97.01125Q577.0125 97.21438 577.1375 97.37063Q577.27814 97.5425 577.54376 97.65188Q577.7 97.71438 578.48126 97.9175Q579.60626 98.23 580.04376 98.4175Q580.48126 98.605 580.73126 98.96438Q580.98126 99.32375 580.98126 99.87063Q580.98126 100.40188 580.66876 100.87063Q580.3719 101.32375 579.79376 101.58938Q579.21564 101.83938 578.48126 101.83938Q577.2625 101.83938 576.6219 101.33938Q575.9969 100.82375 575.825 99.83938Z" fill-rule="nonzero"/><path fill="#9e9e9e" d="M546.95 116.43313L548.0125 116.2925Q548.1844 117.18313 548.6219 117.58938Q549.0594 117.98 549.6844 117.98Q550.4344 117.98 550.95 117.46438Q551.46564 116.94875 551.46564 116.18313Q551.46564 115.46438 550.98126 114.99563Q550.5125 114.51125 549.77814 114.51125Q549.48126 114.51125 549.02814 114.63625L549.15314 113.69875Q549.2625 113.71438 549.325 113.71438Q549.9969 113.71438 550.52814 113.37063Q551.075 113.01125 551.075 112.27688Q551.075 111.69875 550.6844 111.32375Q550.29376 110.93313 549.66876 110.93313Q549.0594 110.93313 548.6375 111.32375Q548.23126 111.71438 548.1219 112.48L547.0594 112.2925Q547.2469 111.24563 547.9344 110.6675Q548.6219 110.07375 549.6375 110.07375Q550.34064 110.07375 550.9344 110.38625Q551.52814 110.68313 551.84064 111.19875Q552.15314 111.71438 552.15314 112.30813Q552.15314 112.855 551.85626 113.32375Q551.5594 113.77688 550.98126 114.0425Q551.73126 114.21438 552.15314 114.77688Q552.575 115.32375 552.575 116.1675Q552.575 117.2925 551.7469 118.07375Q550.9344 118.855 549.6844 118.855Q548.5594 118.855 547.8094 118.18313Q547.0594 117.49563 546.95 116.43313ZM553.95 116.43313L555.0125 116.2925Q555.1844 117.18313 555.6219 117.58938Q556.0594 117.98 556.6844 117.98Q557.4344 117.98 557.95 117.46438Q558.46564 116.94875 558.46564 116.18313Q558.46564 115.46438 557.98126 114.99563Q557.5125 114.51125 556.77814 114.51125Q556.48126 114.51125 556.02814 114.63625L556.15314 113.69875Q556.2625 113.71438 556.325 113.71438Q556.9969 113.71438 557.52814 113.37063Q558.075 113.01125 558.075 112.27688Q558.075 111.69875 557.6844 111.32375Q557.29376 110.93313 556.66876 110.93313Q556.0594 110.93313 555.6375 111.32375Q555.23126 111.71438 555.1219 112.48L554.0594 112.2925Q554.2469 111.24563 554.9344 110.6675Q555.6219 110.07375 556.6375 110.07375Q557.34064 110.07375 557.9344 110.38625Q558.52814 110.68313 558.84064 111.19875Q559.15314 111.71438 559.15314 112.30813Q559.15314 112.855 558.85626 113.32375Q558.5594 113.77688 557.98126 114.0425Q558.73126 114.21438 559.15314 114.77688Q559.575 115.32375 559.575 116.1675Q559.575 117.2925 558.7469 118.07375Q557.9344 118.855 556.6844 118.855Q555.5594 118.855 554.8094 118.18313Q554.0594 117.49563 553.95 116.43313ZM561.54376 118.69875L561.54376 117.49563L562.7469 117.49563L562.7469 118.69875L561.54376 118.69875ZM563.95 116.43313L565.0125 116.2925Q565.1844 117.18313 565.6219 117.58938Q566.0594 117.98 566.6844 117.98Q567.4344 117.98 567.95 117.46438Q568.46564 116.94875 568.46564 116.18313Q568.46564 115.46438 567.98126 114.99563Q567.5125 114.51125 566.77814 114.51125Q566.48126 114.51125 566.02814 114.63625L566.15314 113.69875Q566.2625 113.71438 566.325 113.71438Q566.9969 113.71438 567.52814 113.37063Q568.075 113.01125 568.075 112.27688Q568.075 111.69875 567.6844 111.32375Q567.29376 110.93313 566.66876 110.93313Q566.0594 110.93313 565.6375 111.32375Q565.23126 111.71438 565.1219 112.48L564.0594 112.2925Q564.2469 111.24563 564.9344 110.6675Q565.6219 110.07375 566.6375 110.07375Q567.34064 110.07375 567.9344 110.38625Q568.52814 110.68313 568.84064 111.19875Q569.15314 111.71438 569.15314 112.30813Q569.15314 112.855 568.85626 113.32375Q568.5594 113.77688 567.98126 114.0425Q568.73126 114.21438 569.15314 114.77688Q569.575 115.32375 569.575 116.1675Q569.575 117.2925 568.7469 118.07375Q567.9344 118.855 566.6844 118.855Q565.5594 118.855 564.8094 118.18313Q564.0594 117.49563 563.95 116.43313ZM571.15314 112.1675Q571.15314 111.24563 571.60626 110.605Q572.075 109.96438 572.95 109.96438Q573.7625 109.96438 574.29376 110.5425Q574.825 111.12063 574.825 112.23Q574.825 113.32375 574.27814 113.9175Q573.7469 114.49563 572.96564 114.49563Q572.1844 114.49563 571.66876 113.9175Q571.15314 113.33938 571.15314 112.1675ZM572.98126 110.68313Q572.59064 110.68313 572.325 111.02688Q572.075 111.37063 572.075 112.27688Q572.075 113.105 572.325 113.44875Q572.59064 113.77688 572.98126 113.77688Q573.3875 113.77688 573.6375 113.43313Q573.90314 113.08938 573.90314 112.19875Q573.90314 111.355 573.6375 111.02688Q573.3719 110.68313 572.98126 110.68313ZM572.98126 119.01125L577.6844 109.96438L578.54376 109.96438L573.85626 119.01125L572.98126 119.01125ZM576.7 116.68313Q576.7 115.76125 577.15314 115.12063Q577.6219 114.48 578.5125 114.48Q579.325 114.48 579.85626 115.05813Q580.3875 115.62063 580.3875 116.74563Q580.3875 117.83938 579.84064 118.43313Q579.3094 119.01125 578.5125 119.01125Q577.7469 119.01125 577.21564 118.43313Q576.7 117.855 576.7 116.68313ZM578.54376 115.19875Q578.1375 115.19875 577.8719 115.5425Q577.6219 115.88625 577.6219 116.7925Q577.6219 117.605 577.8875 117.94875Q578.15314 118.2925 578.54376 118.2925Q578.9344 118.2925 579.2 117.94875Q579.46564 117.605 579.46564 116.69875Q579.46564 115.87063 579.2 115.5425Q578.9344 115.19875 578.54376 115.19875Z" fill-rule="nonzero"/><path stroke="#757575" stroke-width="1.0" stroke-linecap="butt" d="M581.45 106.19875L472.95 106.19875L437.3538 106.19875" fill-rule="nonzero"/><path fill="#9e9e9e" d="M439.3538 106.19875C439.3538 105.09418 438.45837 104.19875 437.3538 104.19875C436.24924 104.19875 435.3538 105.09418 435.3538 106.19875C435.3538 107.30332 436.24924 108.19875 437.3538 108.19875C438.45837 108.19875 439.3538 107.30332 439.3538 106.19875" fill-rule="nonzero"/></svg>