<svg version="1.1" viewBox="0.0 0.0 600.0 371.0" fill="none" stroke="none" stroke-linecap="square" stroke-miterlimit="10" width="600" height="371" xmlns:xlink="http://www.w3.org/1999/xlink" xmlns="http://www.w3.org/2000/svg"><path fill="#ffffff" d="M0 0L600.0 0L600.0 371.0L0 371.0L0 0Z" fill-rule="nonzero"/><path fill="#4285f4" d="M300.0 18.55C392.20395 18.55 466.95 93.29606 466.95 185.5L300.0 185.5Z" fill-rule="nonzero"/><path fill="#ea4335" d="M466.95 185.5C466.95 214.80585 459.23587 243.5954 444.58295 268.975L300.0 185.5Z" fill-rule="nonzero"/><path fill="#fbbc04" d="M444.58295 268.975C414.7602 320.62952 359.64548 352.45 300.0 352.45L300.0 185.5Z" fill-rule="nonzero"/><path fill="#ff6d01" d="M155.41705 268.975C125.594315 217.3205 125.594315 153.6795 155.41705 102.025C185.2398 50.37049 240.3545 18.55 300.0 18.55L300.0 185.5Z" fill-rule="nonzero"/><path fill="#34a853" d="M300.0 352.45C240.3545 352.45 185.2398 320.62952 155.41705 268.975L300.0 185.5Z" fill-rule="nonzero"/><path fill="#1a1a1a" d="M19.534374 101.69875L19.534374 93.105L25.33125 93.105L25.33125 94.12063L20.675 94.12063L20.675 96.77688L24.70625 96.77688L24.70625 97.7925L20.675 97.7925L20.675 101.69875L19.534374 101.69875ZM30.409374 100.93313Q29.815624 101.43313 29.26875 101.63625Q28.7375 101.83938 28.1125 101.83938Q27.08125 101.83938 26.534374 101.33938Q25.9875 100.83938 25.9875 100.05813Q25.9875 99.605 26.190624 99.23Q26.39375 98.83938 26.7375 98.62063Q27.08125 98.38625 27.503124 98.27688Q27.8 98.18313 28.440624 98.105Q29.70625 97.96438 30.315624 97.74563Q30.315624 97.52688 30.315624 97.48Q30.315624 96.82375 30.01875 96.55813Q29.6125 96.21438 28.815624 96.21438Q28.08125 96.21438 27.721874 96.48Q27.3625 96.73 27.190624 97.38625L26.159374 97.24563Q26.3 96.58938 26.628124 96.18313Q26.95625 95.77688 27.565624 95.55813Q28.175 95.33938 28.971874 95.33938Q29.76875 95.33938 30.26875 95.52688Q30.76875 95.71438 31.003124 95.99563Q31.2375 96.27688 31.33125 96.71438Q31.378124 96.98 31.378124 97.68313L31.378124 99.08938Q31.378124 100.55813 31.440624 100.94875Q31.51875 101.33938 31.721874 101.69875L30.6125 101.69875Q30.45625 101.37063 30.409374 100.93313ZM30.315624 98.57375Q29.7375 98.80813 28.596874 98.98Q27.940624 99.07375 27.675 99.19875Q27.409374 99.30813 27.253124 99.52688Q27.1125 99.74563 27.1125 100.02688Q27.1125 100.44875 27.425 100.73Q27.753124 101.01125 28.3625 101.01125Q28.971874 101.01125 29.440624 100.74563Q29.925 100.48 30.14375 100.01125Q30.315624 99.65188 30.315624 98.96438L30.315624 98.57375ZM33.33125 94.33938L33.33125 93.105L34.39375 93.105L34.39375 94.33938L33.33125 94.33938ZM32.003124 104.12063L32.190624 103.21438Q32.51875 103.2925 32.690624 103.2925Q33.01875 103.2925 33.175 103.07375Q33.33125 102.87063 33.33125 102.01125L33.33125 95.48L34.39375 95.48L34.39375 102.0425Q34.39375 103.18313 34.096874 103.63625Q33.70625 104.23 32.83125 104.23Q32.39375 104.23 32.003124 104.12063ZM36.346874 94.32375L36.346874 93.105L37.409374 93.105L37.409374 94.32375L36.346874 94.32375ZM36.346874 101.69875L36.346874 95.48L37.409374 95.48L37.409374 101.69875L36.346874 101.69875ZM41.64375 100.76125L41.8 101.68313Q41.346874 101.77688 41.003124 101.77688Q40.425 101.77688 40.1125 101.605Q39.8 101.4175 39.659374 101.12063Q39.534374 100.82375 39.534374 99.87063L39.534374 96.2925L38.76875 96.2925L38.76875 95.48L39.534374 95.48L39.534374 93.93313L40.58125 93.30813L40.58125 95.48L41.64375 95.48L41.64375 96.2925L40.58125 96.2925L40.58125 99.93313Q40.58125 100.38625 40.628124 100.51125Q40.690624 100.63625 40.815624 100.71438Q40.940624 100.7925 41.175 100.7925Q41.3625 100.7925 41.64375 100.76125ZM46.409374 100.93313Q45.815624 101.43313 45.26875 101.63625Q44.7375 101.83938 44.1125 101.83938Q43.08125 101.83938 42.534374 101.33938Q41.9875 100.83938 41.9875 100.05813Q41.9875 99.605 42.190624 99.23Q42.39375 98.83938 42.7375 98.62063Q43.08125 98.38625 43.503124 98.27688Q43.8 98.18313 44.440624 98.105Q45.70625 97.96438 46.315624 97.74563Q46.315624 97.52688 46.315624 97.48Q46.315624 96.82375 46.01875 96.55813Q45.6125 96.21438 44.815624 96.21438Q44.08125 96.21438 43.721874 96.48Q43.3625 96.73 43.190624 97.38625L42.159374 97.24563Q42.3 96.58938 42.628124 96.18313Q42.95625 95.77688 43.565624 95.55813Q44.175 95.33938 44.971874 95.33938Q45.76875 95.33938 46.26875 95.52688Q46.76875 95.71438 47.003124 95.99563Q47.2375 96.27688 47.33125 96.71438Q47.378124 96.98 47.378124 97.68313L47.378124 99.08938Q47.378124 100.55813 47.440624 100.94875Q47.51875 101.33938 47.721874 101.69875L46.6125 101.69875Q46.45625 101.37063 46.409374 100.93313ZM46.315624 98.57375Q45.7375 98.80813 44.596874 98.98Q43.940624 99.07375 43.675 99.19875Q43.409374 99.30813 43.253124 99.52688Q43.1125 99.74563 43.1125 100.02688Q43.1125 100.44875 43.425 100.73Q43.753124 101.01125 44.3625 101.01125Q44.971874 101.01125 45.440624 100.74563Q45.925 100.48 46.14375 100.01125Q46.315624 99.65188 46.315624 98.96438L46.315624 98.57375ZM48.925 99.83938L49.95625 99.68313Q50.05 100.30813 50.440624 100.63625Q50.846874 100.96438 51.58125 100.96438Q52.3 100.96438 52.64375 100.68313Q53.003124 100.38625 53.003124 99.98Q53.003124 99.62063 52.690624 99.4175Q52.471874 99.27688 51.6125 99.05813Q50.45625 98.76125 50.003124 98.55813Q49.565624 98.33938 49.33125 97.96438Q49.096874 97.58938 49.096874 97.12063Q49.096874 96.71438 49.284374 96.355Q49.471874 95.99563 49.8 95.76125Q50.05 95.58938 50.471874 95.46438Q50.89375 95.33938 51.39375 95.33938Q52.1125 95.33938 52.659374 95.55813Q53.221874 95.76125 53.4875 96.12063Q53.753124 96.48 53.846874 97.07375L52.815624 97.21438Q52.753124 96.74563 52.409374 96.48Q52.08125 96.19875 51.45625 96.19875Q50.7375 96.19875 50.425 96.44875Q50.1125 96.68313 50.1125 97.01125Q50.1125 97.21438 50.2375 97.37063Q50.378124 97.5425 50.64375 97.65188Q50.8 97.71438 51.58125 97.9175Q52.70625 98.23 53.14375 98.4175Q53.58125 98.605 53.83125 98.96438Q54.08125 99.32375 54.08125 99.87063Q54.08125 100.40188 53.76875 100.87063Q53.471874 101.32375 52.89375 101.58938Q52.315624 101.83938 51.58125 101.83938Q50.3625 101.83938 49.721874 101.33938Q49.096874 100.82375 48.925 99.83938Z" fill-rule="nonzero"/><path fill="#9e9e9e" d="M19.05 116.43313L20.1125 116.2925Q20.284374 117.18313 20.721874 117.58938Q21.159374 117.98 21.784374 117.98Q22.534374 117.98 23.05 117.46438Q23.565624 116.94875 23.565624 116.18313Q23.565624 115.46438 23.08125 114.99563Q22.6125 114.51125 21.878124 114.51125Q21.58125 114.51125 21.128124 114.63625L21.253124 113.69875Q21.3625 113.71438 21.425 113.71438Q22.096874 113.71438 22.628124 113.37063Q23.175 113.01125 23.175 112.27688Q23.175 111.69875 22.784374 111.32375Q22.39375 110.93313 21.76875 110.93313Q21.159374 110.93313 20.7375 111.32375Q20.33125 111.71438 20.221874 112.48L19.159374 112.2925Q19.346874 111.24563 20.034374 110.6675Q20.721874 110.07375 21.7375 110.07375Q22.440624 110.07375 23.034374 110.38625Q23.628124 110.68313 23.940624 111.19875Q24.253124 111.71438 24.253124 112.30813Q24.253124 112.855 23.95625 113.32375Q23.659374 113.77688 23.08125 114.0425Q23.83125 114.21438 24.253124 114.77688Q24.675 115.32375 24.675 116.1675Q24.675 117.2925 23.846874 118.07375Q23.034374 118.855 21.784374 118.855Q20.659374 118.855 19.909374 118.18313Q19.159374 117.49563 19.05 116.43313ZM26.05 116.43313L27.1125 116.2925Q27.284374 117.18313 27.721874 117.58938Q28.159374 117.98 28.784374 117.98Q29.534374 117.98 30.05 117.46438Q30.565624 116.94875 30.565624 116.18313Q30.565624 115.46438 30.08125 114.99563Q29.6125 114.51125 28.878124 114.51125Q28.58125 114.51125 28.128124 114.63625L28.253124 113.69875Q28.3625 113.71438 28.425 113.71438Q29.096874 113.71438 29.628124 113.37063Q30.175 113.01125 30.175 112.27688Q30.175 111.69875 29.784374 111.32375Q29.39375 110.93313 28.76875 110.93313Q28.159374 110.93313 27.7375 111.32375Q27.33125 111.71438 27.221874 112.48L26.159374 112.2925Q26.346874 111.24563 27.034374 110.6675Q27.721874 110.07375 28.7375 110.07375Q29.440624 110.07375 30.034374 110.38625Q30.628124 110.68313 30.940624 111.19875Q31.253124 111.71438 31.253124 112.30813Q31.253124 112.855 30.95625 113.32375Q30.659374 113.77688 30.08125 114.0425Q30.83125 114.21438 31.253124 114.77688Q31.675 115.32375 31.675 116.1675Q31.675 117.2925 30.846874 118.07375Q30.034374 118.855 28.784374 118.855Q27.659374 118.855 26.909374 118.18313Q26.159374 117.49563 26.05 116.43313ZM33.64375 118.69875L33.64375 117.49563L34.846874 117.49563L34.846874 118.69875L33.64375 118.69875ZM36.05 116.43313L37.1125 116.2925Q37.284374 117.18313 37.721874 117.58938Q38.159374 117.98 38.784374 117.98Q39.534374 117.98 40.05 117.46438Q40.565624 116.94875 40.565624 116.18313Q40.565624 115.46438 40.08125 114.99563Q39.6125 114.51125 38.878124 114.51125Q38.58125 114.51125 38.128124 114.63625L38.253124 113.69875Q38.3625 113.71438 38.425 113.71438Q39.096874 113.71438 39.628124 113.37063Q40.175 113.01125 40.175 112.27688Q40.175 111.69875 39.784374 111.32375Q39.39375 110.93313 38.76875 110.93313Q38.159374 110.93313 37.7375 111.32375Q37.33125 111.71438 37.221874 112.48L36.159374 112.2925Q36.346874 111.24563 37.034374 110.6675Q37.721874 110.07375 38.7375 110.07375Q39.440624 110.07375 40.034374 110.38625Q40.628124 110.68313 40.940624 111.19875Q41.253124 111.71438 41.253124 112.30813Q41.253124 112.855 40.95625 113.32375Q40.659374 113.77688 40.08125 114.0425Q40.83125 114.21438 41.253124 114.77688Q41.675 115.32375 41.675 116.1675Q41.675 117.2925 40.846874 118.07375Q40.034374 118.855 38.784374 118.855Q37.659374 118.855 36.909374 118.18313Q36.159374 117.49563 36.05 116.43313ZM43.253124 112.1675Q43.253124 111.24563 43.70625 110.605Q44.175 109.96438 45.05 109.96438Q45.8625 109.96438 46.39375 110.5425Q46.925 111.12063 46.925 112.23Q46.925 113.32375 46.378124 113.9175Q45.846874 114.49563 45.065624 114.49563Q44.284374 114.49563 43.76875 113.9175Q43.253124 113.33938 43.253124 112.1675ZM45.08125 110.68313Q44.690624 110.68313 44.425 111.02688Q44.175 111.37063 44.175 112.27688Q44.175 113.105 44.425 113.44875Q44.690624 113.77688 45.08125 113.77688Q45.4875 113.77688 45.7375 113.43313Q46.003124 113.08938 46.003124 112.19875Q46.003124 111.355 45.7375 111.02688Q45.471874 110.68313 45.08125 110.68313ZM45.08125 119.01125L49.784374 109.96438L50.64375 109.96438L45.95625 119.01125L45.08125 119.01125ZM48.8 116.68313Q48.8 115.76125 49.253124 115.12063Q49.721874 114.48 50.6125 114.48Q51.425 114.48 51.95625 115.05813Q52.4875 115.62063 52.4875 116.74563Q52.4875 117.83938 51.940624 118.43313Q51.409374 119.01125 50.6125 119.01125Q49.846874 119.01125 49.315624 118.43313Q48.8 117.855 48.8 116.68313ZM50.64375 115.19875Q50.2375 115.19875 49.971874 115.5425Q49.721874 115.88625 49.721874 116.7925Q49.721874 117.605 49.9875 117.94875Q50.253124 118.2925 50.64375 118.2925Q51.034374 118.2925 51.3 117.94875Q51.565624 117.605 51.565624 116.69875Q51.565624 115.87063 51.3 115.5425Q51.034374 115.19875 50.64375 115.19875Z" fill-rule="nonzero"/><path stroke="#757575" stroke-width="1.0" stroke-linecap="butt" d="M18.55 106.19875L127.05 106.19875L162.64621 106.19875" fill-rule="nonzero"/><path fill="#9e9e9e" d="M164.64621 106.19875C164.64621 105.09418 163.75078 104.19875 162.64621 104.19875C161.54164 104.19875 160.64621 105.09418 160.64621 106.19875C160.64621 107.30332 161.54164 108.19875 162.64621 108.19875C163.75078 108.19875 164.64621 107.30332 164.64621 106.19875" fill-rule="nonzero"/><path fill="#1a1a1a" d="M19.503124 318.3538L19.503124 309.76004L25.70625 309.76004L25.70625 310.77567L20.64375 310.77567L20.64375 313.40067L25.39375 313.40067L25.39375 314.4163L20.64375 314.4163L20.64375 317.33817L25.909374 317.33817L25.909374 318.3538L19.503124 318.3538ZM27.346874 318.3538L27.346874 312.13504L28.284374 312.13504L28.284374 313.01004Q28.971874 311.99442 30.26875 311.99442Q30.83125 311.99442 31.3 312.19754Q31.784374 312.40067 32.01875 312.7288Q32.253124 313.05692 32.346874 313.49442Q32.39375 313.7913 32.39375 314.52567L32.39375 318.3538L31.346874 318.3538L31.346874 314.57254Q31.346874 313.9163 31.221874 313.6038Q31.096874 313.2913 30.784374 313.1038Q30.471874 312.90067 30.05 312.90067Q29.378124 312.90067 28.878124 313.33817Q28.39375 313.76004 28.39375 314.94754L28.39375 318.3538L27.346874 318.3538ZM38.409374 316.07254L39.440624 316.21317Q39.26875 317.27567 38.565624 317.88504Q37.8625 318.49442 36.846874 318.49442Q35.565624 318.49442 34.784374 317.6663Q34.01875 316.82254 34.01875 315.26004Q34.01875 314.26004 34.346874 313.51004Q34.690624 312.74442 35.3625 312.36942Q36.05 311.99442 36.8625 311.99442Q37.8625 311.99442 38.503124 312.51004Q39.159374 313.01004 39.346874 313.96317L38.315624 314.11942Q38.175 313.49442 37.8 313.18192Q37.425 312.8538 36.89375 312.8538Q36.096874 312.8538 35.596874 313.43192Q35.096874 313.99442 35.096874 315.2288Q35.096874 316.49442 35.58125 317.05692Q36.065624 317.61942 36.83125 317.61942Q37.45625 317.61942 37.8625 317.24442Q38.284374 316.86942 38.409374 316.07254ZM40.346874 318.3538L40.346874 309.76004L41.39375 309.76004L41.39375 312.83817Q42.128124 311.99442 43.253124 311.99442Q43.95625 311.99442 44.45625 312.27567Q44.971874 312.5413 45.190624 313.02567Q45.409374 313.49442 45.409374 314.4163L45.409374 318.3538L44.3625 318.3538L44.3625 314.4163Q44.3625 313.61942 44.01875 313.26004Q43.675 312.90067 43.05 312.90067Q42.58125 312.90067 42.159374 313.15067Q41.753124 313.38504 41.565624 313.80692Q41.39375 314.21317 41.39375 314.94754L41.39375 318.3538L40.346874 318.3538ZM47.346874 310.9788L47.346874 309.76004L48.409374 309.76004L48.409374 310.9788L47.346874 310.9788ZM47.346874 318.3538L47.346874 312.13504L48.409374 312.13504L48.409374 318.3538L47.346874 318.3538ZM50.315624 318.3538L50.315624 309.76004L51.378124 309.76004L51.378124 318.3538L50.315624 318.3538ZM57.409374 317.58817Q56.815624 318.08817 56.26875 318.2913Q55.7375 318.49442 55.1125 318.49442Q54.08125 318.49442 53.534374 317.99442Q52.9875 317.49442 52.9875 316.71317Q52.9875 316.26004 53.190624 315.88504Q53.39375 315.49442 53.7375 315.27567Q54.08125 315.0413 54.503124 314.93192Q54.8 314.83817 55.440624 314.76004Q56.70625 314.61942 57.315624 314.40067Q57.315624 314.18192 57.315624 314.13504Q57.315624 313.4788 57.01875 313.21317Q56.6125 312.86942 55.815624 312.86942Q55.08125 312.86942 54.721874 313.13504Q54.3625 313.38504 54.190624 314.0413L53.159374 313.90067Q53.3 313.24442 53.628124 312.83817Q53.95625 312.43192 54.565624 312.21317Q55.175 311.99442 55.971874 311.99442Q56.76875 311.99442 57.26875 312.18192Q57.76875 312.36942 58.003124 312.65067Q58.2375 312.93192 58.33125 313.36942Q58.378124 313.63504 58.378124 314.33817L58.378124 315.74442Q58.378124 317.21317 58.440624 317.6038Q58.51875 317.99442 58.721874 318.3538L57.6125 318.3538Q57.45625 318.02567 57.409374 317.58817ZM57.315624 315.2288Q56.7375 315.46317 55.596874 315.63504Q54.940624 315.7288 54.675 315.8538Q54.409374 315.96317 54.253124 316.18192Q54.1125 316.40067 54.1125 316.68192Q54.1125 317.1038 54.425 317.38504Q54.753124 317.6663 55.3625 317.6663Q55.971874 317.6663 56.440624 317.40067Q56.925 317.13504 57.14375 316.6663Q57.315624 316.30692 57.315624 315.61942L57.315624 315.2288ZM64.37813 318.3538L64.37813 317.57254Q63.784374 318.49442 62.64375 318.49442Q61.89375 318.49442 61.26875 318.08817Q60.64375 317.6663 60.3 316.93192Q59.95625 316.19754 59.95625 315.24442Q59.95625 314.32254 60.26875 313.55692Q60.58125 312.7913 61.20625 312.40067Q61.83125 311.99442 62.596874 311.99442Q63.159374 311.99442 63.596874 312.2288Q64.03438 312.46317 64.31563 312.83817L64.31563 309.76004L65.3625 309.76004L65.3625 318.3538L64.37813 318.3538ZM61.05 315.24442Q61.05 316.44754 61.55 317.0413Q62.05 317.61942 62.7375 317.61942Q63.425 317.61942 63.909374 317.05692Q64.39375 316.49442 64.39375 315.33817Q64.39375 314.05692 63.89375 313.46317Q63.409374 312.86942 62.690624 312.86942Q61.9875 312.86942 61.51875 313.44754Q61.05 314.01004 61.05 315.24442ZM71.40938 317.58817Q70.81563 318.08817 70.26875 318.2913Q69.7375 318.49442 69.1125 318.49442Q68.08125 318.49442 67.53438 317.99442Q66.9875 317.49442 66.9875 316.71317Q66.9875 316.26004 67.19063 315.88504Q67.39375 315.49442 67.7375 315.27567Q68.08125 315.0413 68.50313 314.93192Q68.8 314.83817 69.44063 314.76004Q70.70625 314.61942 71.31563 314.40067Q71.31563 314.18192 71.31563 314.13504Q71.31563 313.4788 71.01875 313.21317Q70.6125 312.86942 69.81563 312.86942Q69.08125 312.86942 68.72188 313.13504Q68.3625 313.38504 68.19063 314.0413L67.15938 313.90067Q67.3 313.24442 67.62813 312.83817Q67.95625 312.43192 68.56563 312.21317Q69.175 311.99442 69.97188 311.99442Q70.76875 311.99442 71.26875 312.18192Q71.76875 312.36942 72.00313 312.65067Q72.2375 312.93192 72.33125 313.36942Q72.37813 313.63504 72.37813 314.33817L72.37813 315.74442Q72.37813 317.21317 72.44063 317.6038Q72.51875 317.99442 72.72188 318.3538L71.6125 318.3538Q71.45625 318.02567 71.40938 317.58817ZM71.31563 315.2288Q70.7375 315.46317 69.59688 315.63504Q68.94063 315.7288 68.675 315.8538Q68.40938 315.96317 68.25313 316.18192Q68.1125 316.40067 68.1125 316.68192Q68.1125 317.1038 68.425 317.38504Q68.75313 317.6663 69.3625 317.6663Q69.97188 317.6663 70.44063 317.40067Q70.925 317.13504 71.14375 316.6663Q71.31563 316.30692 71.31563 315.61942L71.31563 315.2288ZM73.925 316.49442L74.95625 316.33817Q75.05 316.96317 75.44063 317.2913Q75.84688 317.61942 76.58125 317.61942Q77.3 317.61942 77.64375 317.33817Q78.00313 317.0413 78.00313 316.63504Q78.00313 316.27567 77.69063 316.07254Q77.47188 315.93192 76.6125 315.71317Q75.45625 315.4163 75.00313 315.21317Q74.56563 314.99442 74.33125 314.61942Q74.09688 314.24442 74.09688 313.77567Q74.09688 313.36942 74.28438 313.01004Q74.47188 312.65067 74.8 312.4163Q75.05 312.24442 75.47188 312.11942Q75.89375 311.99442 76.39375 311.99442Q77.1125 311.99442 77.65938 312.21317Q78.22188 312.4163 78.4875 312.77567Q78.75313 313.13504 78.84688 313.7288L77.81563 313.86942Q77.75313 313.40067 77.40938 313.13504Q77.08125 312.8538 76.45625 312.8538Q75.7375 312.8538 75.425 313.1038Q75.1125 313.33817 75.1125 313.6663Q75.1125 313.86942 75.2375 314.02567Q75.37813 314.19754 75.64375 314.30692Q75.8 314.36942 76.58125 314.57254Q77.70625 314.88504 78.14375 315.07254Q78.58125 315.26004 78.83125 315.61942Q79.08125 315.9788 79.08125 316.52567Q79.08125 317.05692 78.76875 317.52567Q78.47188 317.9788 77.89375 318.24442Q77.31563 318.49442 76.58125 318.49442Q75.3625 318.49442 74.72188 317.99442Q74.09688 317.4788 73.925 316.49442Z" fill-rule="nonzero"/><path fill="#9e9e9e" d="M23.01875 335.3538L21.971874 335.3538L21.971874 328.63504Q21.58125 328.99442 20.95625 329.36942Q20.346874 329.7288 19.8625 329.90067L19.8625 328.88504Q20.7375 328.46317 21.39375 327.88504Q22.065624 327.2913 22.346874 326.7288L23.01875 326.7288L23.01875 335.3538ZM31.51875 328.86942L30.471874 328.94754Q30.33125 328.32254 30.08125 328.0413Q29.64375 327.58817 29.01875 327.58817Q28.51875 327.58817 28.128124 327.86942Q27.64375 328.24442 27.346874 328.94754Q27.065624 329.63504 27.05 330.9163Q27.425 330.33817 27.971874 330.05692Q28.534374 329.77567 29.14375 329.77567Q30.190624 329.77567 30.925 330.55692Q31.675 331.33817 31.675 332.55692Q31.675 333.36942 31.315624 334.07254Q30.971874 334.76004 30.3625 335.13504Q29.753124 335.49442 28.9875 335.49442Q27.659374 335.49442 26.83125 334.52567Q26.003124 333.55692 26.003124 331.33817Q26.003124 328.83817 26.925 327.71317Q27.721874 326.7288 29.08125 326.7288Q30.096874 326.7288 30.7375 327.30692Q31.39375 327.86942 31.51875 328.86942ZM27.221874 332.57254Q27.221874 333.11942 27.440624 333.61942Q27.675 334.1038 28.08125 334.36942Q28.503124 334.63504 28.971874 334.63504Q29.628124 334.63504 30.1125 334.1038Q30.596874 333.55692 30.596874 332.63504Q30.596874 331.74442 30.1125 331.2288Q29.64375 330.71317 28.925 330.71317Q28.20625 330.71317 27.70625 331.2288Q27.221874 331.74442 27.221874 332.57254ZM33.64375 335.3538L33.64375 334.15067L34.846874 334.15067L34.846874 335.3538L33.64375 335.3538ZM36.1125 327.88504L36.1125 326.86942L41.675 326.86942L41.675 327.69754Q40.8625 328.57254 40.05 330.02567Q39.253124 331.46317 38.815624 332.99442Q38.4875 334.07254 38.409374 335.3538L37.315624 335.3538Q37.33125 334.33817 37.70625 332.90067Q38.096874 331.46317 38.8 330.13504Q39.51875 328.80692 40.33125 327.88504L36.1125 327.88504ZM43.253124 328.82254Q43.253124 327.90067 43.70625 327.26004Q44.175 326.61942 45.05 326.61942Q45.8625 326.61942 46.39375 327.19754Q46.925 327.77567 46.925 328.88504Q46.925 329.9788 46.378124 330.57254Q45.846874 331.15067 45.065624 331.15067Q44.284374 331.15067 43.76875 330.57254Q43.253124 329.99442 43.253124 328.82254ZM45.08125 327.33817Q44.690624 327.33817 44.425 327.68192Q44.175 328.02567 44.175 328.93192Q44.175 329.76004 44.425 330.1038Q44.690624 330.43192 45.08125 330.43192Q45.4875 330.43192 45.7375 330.08817Q46.003124 329.74442 46.003124 328.8538Q46.003124 328.01004 45.7375 327.68192Q45.471874 327.33817 45.08125 327.33817ZM45.08125 335.6663L49.784374 326.61942L50.64375 326.61942L45.95625 335.6663L45.08125 335.6663ZM48.8 333.33817Q48.8 332.4163 49.253124 331.77567Q49.721874 331.13504 50.6125 331.13504Q51.425 331.13504 51.95625 331.71317Q52.4875 332.27567 52.4875 333.40067Q52.4875 334.49442 51.940624 335.08817Q51.409374 335.6663 50.6125 335.6663Q49.846874 335.6663 49.315624 335.08817Q48.8 334.51004 48.8 333.33817ZM50.64375 331.8538Q50.2375 331.8538 49.971874 332.19754Q49.721874 332.5413 49.721874 333.44754Q49.721874 334.26004 49.9875 334.6038Q50.253124 334.94754 50.64375 334.94754Q51.034374 334.94754 51.3 334.6038Q51.565624 334.26004 51.565624 333.3538Q51.565624 332.52567 51.3 332.19754Q51.034374 331.8538 50.64375 331.8538Z" fill-rule="nonzero"/><path stroke="#757575" stroke-width="1.0" stroke-linecap="butt" d="M18.55 322.8538L127.05 322.8538L220.69875 322.8538" fill-rule="nonzero"/><path fill="#9e9e9e" d="M222.69875 322.8538C222.69875 321.74924 221.80331 320.8538 220.69875 320.8538C219.59418 320.8538 218.69875 321.74924 218.69875 322.8538C218.69875 323.95837 219.59418 324.8538 220.69875 324.8538C221.80331 324.8538 222.69875 323.95837 222.69875 322.8538" fill-rule="nonzero"/><path fill="#1a1a1a" d="M515.5125 65.83547L516.6375 66.13235Q516.27814 67.52297 515.35626 68.25735Q514.4344 68.99172 513.09064 68.99172Q511.7 68.99172 510.825 68.42922Q509.95 67.86672 509.4969 66.80422Q509.04376 65.7261 509.04376 64.49172Q509.04376 63.147972 509.5594 62.147972Q510.075 61.147972 511.0125 60.632347Q511.96564 60.116722 513.10626 60.116722Q514.3875 60.116722 515.2625 60.772972Q516.15314 61.429222 516.4969 62.616722L515.3719 62.882347Q515.075 61.944847 514.4969 61.522972Q513.9344 61.085472 513.075 61.085472Q512.09064 61.085472 511.41876 61.569847Q510.7625 62.038597 510.48126 62.835472Q510.21564 63.632347 510.21564 64.49172Q510.21564 65.58547 510.52814 66.39797Q510.85626 67.21047 511.52814 67.61672Q512.2 68.02297 512.9969 68.02297Q513.95 68.02297 514.60626 67.4761Q515.27814 66.92922 515.5125 65.83547ZM518.2469 68.8511L518.2469 60.257347L519.29376 60.257347L519.29376 63.335472Q520.02814 62.491722 521.15314 62.491722Q521.85626 62.491722 522.35626 62.772972Q522.8719 63.038597 523.09064 63.522972Q523.3094 63.991722 523.3094 64.9136L523.3094 68.8511L522.2625 68.8511L522.2625 64.9136Q522.2625 64.11672 521.91876 63.757347Q521.575 63.397972 520.95 63.397972Q520.48126 63.397972 520.0594 63.647972Q519.65314 63.882347 519.46564 64.30422Q519.29376 64.71047 519.29376 65.44485L519.29376 68.8511L518.2469 68.8511ZM525.2469 61.476097L525.2469 60.257347L526.3094 60.257347L526.3094 61.476097L525.2469 61.476097ZM525.2469 68.8511L525.2469 62.632347L526.3094 62.632347L526.3094 68.8511L525.2469 68.8511ZM528.2469 68.8511L528.2469 62.632347L529.1844 62.632347L529.1844 63.507347Q529.48126 63.038597 529.96564 62.772972Q530.45 62.491722 531.075 62.491722Q531.7625 62.491722 532.2 62.772972Q532.65314 63.054222 532.825 63.569847Q533.575 62.491722 534.7469 62.491722Q535.6844 62.491722 536.16876 63.007347Q536.66876 63.507347 536.66876 64.58547L536.66876 68.8511L535.6219 68.8511L535.6219 64.92922Q535.6219 64.30422 535.5125 64.02297Q535.41876 63.741722 535.15314 63.569847Q534.8875 63.397972 534.5125 63.397972Q533.85626 63.397972 533.41876 63.835472Q532.9969 64.27297 532.9969 65.24172L532.9969 68.8511L531.9344 68.8511L531.9344 64.80422Q531.9344 64.1011 531.66876 63.757347Q531.41876 63.397972 530.84064 63.397972Q530.3875 63.397972 530.0125 63.632347Q529.6375 63.866722 529.46564 64.31985Q529.29376 64.77297 529.29376 65.61672L529.29376 68.8511L528.2469 68.8511ZM538.2469 61.476097L538.2469 60.257347L539.3094 60.257347L539.3094 61.476097L538.2469 61.476097ZM538.2469 68.8511L538.2469 62.632347L539.3094 62.632347L539.3094 68.8511L538.2469 68.8511ZM545.3094 66.56985L546.34064 66.71047Q546.16876 67.77297 545.46564 68.38235Q544.7625 68.99172 543.7469 68.99172Q542.46564 68.99172 541.6844 68.1636Q540.91876 67.31985 540.91876 65.75735Q540.91876 64.75735 541.2469 64.00735Q541.59064 63.241722 542.2625 62.866722Q542.95 62.491722 543.7625 62.491722Q544.7625 62.491722 545.40314 63.007347Q546.0594 63.507347 546.2469 64.46047L545.21564 64.61672Q545.075 63.991722 544.7 63.679222Q544.325 63.351097 543.79376 63.351097Q542.9969 63.351097 542.4969 63.929222Q541.9969 64.49172 541.9969 65.7261Q541.9969 66.99172 542.48126 67.55422Q542.96564 68.11672 543.73126 68.11672Q544.35626 68.11672 544.7625 67.74172Q545.1844 67.36672 545.3094 66.56985ZM547.2469 68.8511L547.2469 60.257347L548.29376 60.257347L548.29376 63.335472Q549.02814 62.491722 550.15314 62.491722Q550.85626 62.491722 551.35626 62.772972Q551.8719 63.038597 552.09064 63.522972Q552.3094 63.991722 552.3094 64.9136L552.3094 68.8511L551.2625 68.8511L551.2625 64.9136Q551.2625 64.11672 550.91876 63.757347Q550.575 63.397972 549.95 63.397972Q549.48126 63.397972 549.0594 63.647972Q548.65314 63.882347 548.46564 64.30422Q548.29376 64.71047 548.29376 65.44485L548.29376 68.8511L547.2469 68.8511ZM558.3094 68.08547Q557.71564 68.58547 557.16876 68.7886Q556.6375 68.99172 556.0125 68.99172Q554.98126 68.99172 554.4344 68.49172Q553.8875 67.99172 553.8875 67.21047Q553.8875 66.75735 554.09064 66.38235Q554.29376 65.99172 554.6375 65.77297Q554.98126 65.5386 555.40314 65.42922Q555.7 65.33547 556.34064 65.25735Q557.60626 65.11672 558.21564 64.89797Q558.21564 64.67922 558.21564 64.63235Q558.21564 63.976097 557.91876 63.710472Q557.5125 63.366722 556.71564 63.366722Q555.98126 63.366722 555.6219 63.632347Q555.2625 63.882347 555.09064 64.5386L554.0594 64.39797Q554.2 63.741722 554.52814 63.335472Q554.85626 62.929222 555.46564 62.710472Q556.075 62.491722 556.8719 62.491722Q557.66876 62.491722 558.16876 62.679222Q558.66876 62.866722 558.90314 63.147972Q559.1375 63.429222 559.23126 63.866722Q559.27814 64.13235 559.27814 64.83547L559.27814 66.24172Q559.27814 67.71047 559.34064 68.1011Q559.41876 68.49172 559.6219 68.8511L558.5125 68.8511Q558.35626 68.52297 558.3094 68.08547ZM558.21564 65.7261Q557.6375 65.96047 556.4969 66.13235Q555.84064 66.2261 555.575 66.3511Q555.3094 66.46047 555.15314 66.67922Q555.0125 66.89797 555.0125 67.17922Q555.0125 67.6011 555.325 67.88235Q555.65314 68.1636 556.2625 68.1636Q556.8719 68.1636 557.34064 67.89797Q557.825 67.63235 558.04376 67.1636Q558.21564 66.80422 558.21564 66.11672L558.21564 65.7261ZM561.2469 68.8511L561.2469 62.632347L562.1844 62.632347L562.1844 63.507347Q562.8719 62.491722 564.16876 62.491722Q564.73126 62.491722 565.2 62.694847Q565.6844 62.897972 565.91876 63.226097Q566.15314 63.554222 566.2469 63.991722Q566.29376 64.2886 566.29376 65.02297L566.29376 68.8511L565.2469 68.8511L565.2469 65.06985Q565.2469 64.4136 565.1219 64.1011Q564.9969 63.788597 564.6844 63.601097Q564.3719 63.397972 563.95 63.397972Q563.27814 63.397972 562.77814 63.835472Q562.29376 64.25735 562.29376 65.44485L562.29376 68.8511L561.2469 68.8511ZM568.04376 69.36672L569.075 69.52297Q569.1375 69.99172 569.4344 70.21047Q569.825 70.50735 570.4969 70.50735Q571.23126 70.50735 571.6219 70.21047Q572.02814 69.9136 572.16876 69.39797Q572.2625 69.06985 572.2469 68.0386Q571.5594 68.8511 570.52814 68.8511Q569.2469 68.8511 568.54376 67.92922Q567.84064 66.99172 567.84064 65.71047Q567.84064 64.81985 568.15314 64.06985Q568.48126 63.304222 569.09064 62.897972Q569.7 62.491722 570.52814 62.491722Q571.6375 62.491722 572.35626 63.382347L572.35626 62.632347L573.325 62.632347L573.325 68.00735Q573.325 69.46047 573.02814 70.06985Q572.73126 70.67922 572.09064 71.02297Q571.45 71.38235 570.5125 71.38235Q569.40314 71.38235 568.71564 70.88235Q568.02814 70.38235 568.04376 69.36672ZM568.91876 65.63235Q568.91876 66.8511 569.40314 67.4136Q569.8875 67.9761 570.6219 67.9761Q571.35626 67.9761 571.84064 67.4136Q572.34064 66.8511 572.34064 65.6636Q572.34064 64.52297 571.825 63.944847Q571.325 63.366722 570.60626 63.366722Q569.90314 63.366722 569.40314 63.944847Q568.91876 64.50735 568.91876 65.63235ZM579.3094 68.08547Q578.71564 68.58547 578.16876 68.7886Q577.6375 68.99172 577.0125 68.99172Q575.98126 68.99172 575.4344 68.49172Q574.8875 67.99172 574.8875 67.21047Q574.8875 66.75735 575.09064 66.38235Q575.29376 65.99172 575.6375 65.77297Q575.98126 65.5386 576.40314 65.42922Q576.7 65.33547 577.34064 65.25735Q578.60626 65.11672 579.21564 64.89797Q579.21564 64.67922 579.21564 64.63235Q579.21564 63.976097 578.91876 63.710472Q578.5125 63.366722 577.71564 63.366722Q576.98126 63.366722 576.6219 63.632347Q576.2625 63.882347 576.09064 64.5386L575.0594 64.39797Q575.2 63.741722 575.52814 63.335472Q575.85626 62.929222 576.46564 62.710472Q577.075 62.491722 577.8719 62.491722Q578.66876 62.491722 579.16876 62.679222Q579.66876 62.866722 579.90314 63.147972Q580.1375 63.429222 580.23126 63.866722Q580.27814 64.13235 580.27814 64.83547L580.27814 66.24172Q580.27814 67.71047 580.34064 68.1011Q580.41876 68.49172 580.6219 68.8511L579.5125 68.8511Q579.35626 68.52297 579.3094 68.08547ZM579.21564 65.7261Q578.6375 65.96047 577.4969 66.13235Q576.84064 66.2261 576.575 66.3511Q576.3094 66.46047 576.15314 66.67922Q576.0125 66.89797 576.0125 67.17922Q576.0125 67.6011 576.325 67.88235Q576.65314 68.1636 577.2625 68.1636Q577.8719 68.1636 578.34064 67.89797Q578.825 67.63235 579.04376 67.1636Q579.21564 66.80422 579.21564 66.11672L579.21564 65.7261Z" fill-rule="nonzero"/><path fill="#9e9e9e" d="M552.4969 84.83547L552.4969 85.8511L546.8094 85.8511Q546.8094 85.4761 546.9344 85.11672Q547.15314 84.5386 547.6219 83.9761Q548.10626 83.4136 549.0125 82.67922Q550.41876 81.52297 550.90314 80.8511Q551.40314 80.17922 551.40314 79.58547Q551.40314 78.96047 550.95 78.5386Q550.4969 78.1011 549.77814 78.1011Q549.0125 78.1011 548.5594 78.55422Q548.10626 79.00735 548.09064 79.81985L547.0125 79.71047Q547.1219 78.49172 547.84064 77.86672Q548.575 77.2261 549.8094 77.2261Q551.04376 77.2261 551.7625 77.9136Q552.48126 78.6011 552.48126 79.61672Q552.48126 80.13235 552.2625 80.63235Q552.0594 81.11672 551.5594 81.67922Q551.075 82.2261 549.95 83.17922Q548.9969 83.9761 548.71564 84.27297Q548.45 84.55422 548.27814 84.83547L552.4969 84.83547ZM553.95 83.6011L555.0594 83.50735Q555.1844 84.31985 555.6219 84.7261Q556.075 85.13235 556.71564 85.13235Q557.46564 85.13235 557.9969 84.55422Q558.52814 83.9761 558.52814 83.0386Q558.52814 82.13235 558.0125 81.61672Q557.5125 81.08547 556.6844 81.08547Q556.1844 81.08547 555.7625 81.31985Q555.35626 81.55422 555.1219 81.9136L554.1375 81.7886L554.96564 77.38235L559.2469 77.38235L559.2469 78.38235L555.8094 78.38235L555.35626 80.69485Q556.1219 80.14797 556.96564 80.14797Q558.09064 80.14797 558.85626 80.92922Q559.6375 81.71047 559.6375 82.94485Q559.6375 84.1011 558.96564 84.96047Q558.1375 85.99172 556.71564 85.99172Q555.54376 85.99172 554.79376 85.33547Q554.0594 84.67922 553.95 83.6011ZM561.54376 85.8511L561.54376 84.64797L562.7469 84.64797L562.7469 85.8511L561.54376 85.8511ZM563.95 81.61672Q563.95 80.08547 564.2625 79.1636Q564.575 78.2261 565.1844 77.7261Q565.8094 77.2261 566.7469 77.2261Q567.4344 77.2261 567.95 77.50735Q568.48126 77.7886 568.825 78.31985Q569.16876 78.83547 569.35626 79.58547Q569.54376 80.33547 569.54376 81.61672Q569.54376 83.13235 569.23126 84.05422Q568.9344 84.9761 568.3094 85.49172Q567.7 85.99172 566.7469 85.99172Q565.5125 85.99172 564.79376 85.1011Q563.95 84.0386 563.95 81.61672ZM565.02814 81.61672Q565.02814 83.7261 565.52814 84.42922Q566.02814 85.13235 566.7469 85.13235Q567.48126 85.13235 567.96564 84.42922Q568.46564 83.7261 568.46564 81.61672Q568.46564 79.49172 567.96564 78.80422Q567.48126 78.1011 566.73126 78.1011Q566.0125 78.1011 565.575 78.71047Q565.02814 79.49172 565.02814 81.61672ZM571.15314 79.31985Q571.15314 78.39797 571.60626 77.75735Q572.075 77.11672 572.95 77.11672Q573.7625 77.11672 574.29376 77.69485Q574.825 78.27297 574.825 79.38235Q574.825 80.4761 574.27814 81.06985Q573.7469 81.64797 572.96564 81.64797Q572.1844 81.64797 571.66876 81.06985Q571.15314 80.49172 571.15314 79.31985ZM572.98126 77.83547Q572.59064 77.83547 572.325 78.17922Q572.075 78.52297 572.075 79.42922Q572.075 80.25735 572.325 80.6011Q572.59064 80.92922 572.98126 80.92922Q573.3875 80.92922 573.6375 80.58547Q573.90314 80.24172 573.90314 79.3511Q573.90314 78.50735 573.6375 78.17922Q573.3719 77.83547 572.98126 77.83547ZM572.98126 86.1636L577.6844 77.11672L578.54376 77.11672L573.85626 86.1636L572.98126 86.1636ZM576.7 83.83547Q576.7 82.9136 577.15314 82.27297Q577.6219 81.63235 578.5125 81.63235Q579.325 81.63235 579.85626 82.21047Q580.3875 82.77297 580.3875 83.89797Q580.3875 84.99172 579.84064 85.58547Q579.3094 86.1636 578.5125 86.1636Q577.7469 86.1636 577.21564 85.58547Q576.7 85.00735 576.7 83.83547ZM578.54376 82.3511Q578.1375 82.3511 577.8719 82.69485Q577.6219 83.0386 577.6219 83.94485Q577.6219 84.75735 577.8875 85.1011Q578.15314 85.44485 578.54376 85.44485Q578.9344 85.44485 579.2 85.1011Q579.46564 84.75735 579.46564 83.8511Q579.46564 83.02297 579.2 82.69485Q578.9344 82.3511 578.54376 82.3511Z" fill-rule="nonzero"/><path stroke="#757575" stroke-width="1.0" stroke-linecap="butt" d="M581.45 73.3511L472.95 73.3511L412.1489 73.3511" fill-rule="nonzero"/><path fill="#9e9e9e" d="M414.1489 73.3511C414.1489 72.24653 413.25348 71.3511 412.1489 71.3511C411.04434 71.3511 410.1489 72.24653 410.1489 73.3511C410.1489 74.455666 411.04434 75.3511 412.1489 75.3511C413.25348 75.3511 414.1489 74.455666 414.1489 73.3511" fill-rule="nonzero"/><path fill="#1a1a1a" d="M551.5594 222.04935L551.5594 214.47122L548.73126 214.47122L548.73126 213.4556L555.54376 213.4556L555.54376 214.47122L552.7 214.47122L552.7 222.04935L551.5594 222.04935ZM560.3094 221.28372Q559.71564 221.78372 559.16876 221.98685Q558.6375 222.18997 558.0125 222.18997Q556.98126 222.18997 556.4344 221.68997Q555.8875 221.18997 555.8875 220.40872Q555.8875 219.9556 556.09064 219.5806Q556.29376 219.18997 556.6375 218.97122Q556.98126 218.73685 557.40314 218.62747Q557.7 218.53372 558.34064 218.4556Q559.60626 218.31497 560.21564 218.09622Q560.21564 217.87747 560.21564 217.8306Q560.21564 217.17435 559.91876 216.90872Q559.5125 216.56497 558.71564 216.56497Q557.98126 216.56497 557.6219 216.8306Q557.2625 217.0806 557.09064 217.73685L556.0594 217.59622Q556.2 216.93997 556.52814 216.53372Q556.85626 216.12747 557.46564 215.90872Q558.075 215.68997 558.8719 215.68997Q559.66876 215.68997 560.16876 215.87747Q560.66876 216.06497 560.90314 216.34622Q561.1375 216.62747 561.23126 217.06497Q561.27814 217.3306 561.27814 218.03372L561.27814 219.43997Q561.27814 220.90872 561.34064 221.29935Q561.41876 221.68997 561.6219 222.04935L560.5125 222.04935Q560.35626 221.72122 560.3094 221.28372ZM560.21564 218.92435Q559.6375 219.15872 558.4969 219.3306Q557.84064 219.42435 557.575 219.54935Q557.3094 219.65872 557.15314 219.87747Q557.0125 220.09622 557.0125 220.37747Q557.0125 220.79935 557.325 221.0806Q557.65314 221.36185 558.2625 221.36185Q558.8719 221.36185 559.34064 221.09622Q559.825 220.8306 560.04376 220.36185Q560.21564 220.00247 560.21564 219.31497L560.21564 218.92435ZM567.3094 219.7681L568.34064 219.90872Q568.16876 220.97122 567.46564 221.5806Q566.7625 222.18997 565.7469 222.18997Q564.46564 222.18997 563.6844 221.36185Q562.91876 220.5181 562.91876 218.9556Q562.91876 217.9556 563.2469 217.2056Q563.59064 216.43997 564.2625 216.06497Q564.95 215.68997 565.7625 215.68997Q566.7625 215.68997 567.40314 216.2056Q568.0594 216.7056 568.2469 217.65872L567.21564 217.81497Q567.075 217.18997 566.7 216.87747Q566.325 216.54935 565.79376 216.54935Q564.9969 216.54935 564.4969 217.12747Q563.9969 217.68997 563.9969 218.92435Q563.9969 220.18997 564.48126 220.75247Q564.96564 221.31497 565.73126 221.31497Q566.35626 221.31497 566.7625 220.93997Q567.1844 220.56497 567.3094 219.7681ZM568.85626 218.93997Q568.85626 217.2056 569.8094 216.37747Q570.60626 215.68997 571.7625 215.68997Q573.04376 215.68997 573.85626 216.53372Q574.6844 217.36185 574.6844 218.84622Q574.6844 220.04935 574.325 220.73685Q573.96564 221.42435 573.2625 221.81497Q572.575 222.18997 571.7625 222.18997Q570.46564 222.18997 569.65314 221.36185Q568.85626 220.5181 568.85626 218.93997ZM569.9344 218.93997Q569.9344 220.12747 570.45 220.72122Q570.98126 221.31497 571.7625 221.31497Q572.5594 221.31497 573.075 220.72122Q573.59064 220.12747 573.59064 218.90872Q573.59064 217.75247 573.0594 217.15872Q572.54376 216.56497 571.7625 216.56497Q570.98126 216.56497 570.45 217.15872Q569.9344 217.73685 569.9344 218.93997ZM575.825 220.18997L576.85626 220.03372Q576.95 220.65872 577.34064 220.98685Q577.7469 221.31497 578.48126 221.31497Q579.2 221.31497 579.54376 221.03372Q579.90314 220.73685 579.90314 220.3306Q579.90314 219.97122 579.59064 219.7681Q579.3719 219.62747 578.5125 219.40872Q577.35626 219.11185 576.90314 218.90872Q576.46564 218.68997 576.23126 218.31497Q575.9969 217.93997 575.9969 217.47122Q575.9969 217.06497 576.1844 216.7056Q576.3719 216.34622 576.7 216.11185Q576.95 215.93997 577.3719 215.81497Q577.79376 215.68997 578.29376 215.68997Q579.0125 215.68997 579.5594 215.90872Q580.1219 216.11185 580.3875 216.47122Q580.65314 216.8306 580.7469 217.42435L579.71564 217.56497Q579.65314 217.09622 579.3094 216.8306Q578.98126 216.54935 578.35626 216.54935Q577.6375 216.54935 577.325 216.79935Q577.0125 217.03372 577.0125 217.36185Q577.0125 217.56497 577.1375 217.72122Q577.27814 217.8931 577.54376 218.00247Q577.7 218.06497 578.48126 218.2681Q579.60626 218.5806 580.04376 218.7681Q580.48126 218.9556 580.73126 219.31497Q580.98126 219.67435 580.98126 220.22122Q580.98126 220.75247 580.66876 221.22122Q580.3719 221.67435 579.79376 221.93997Q579.21564 222.18997 578.48126 222.18997Q577.2625 222.18997 576.6219 221.68997Q575.9969 221.17435 575.825 220.18997Z" fill-rule="nonzero"/><path fill="#9e9e9e" d="M555.575 234.3931Q554.91876 234.1431 554.59064 233.7056Q554.27814 233.25247 554.27814 232.6431Q554.27814 231.7056 554.95 231.06497Q555.6375 230.42435 556.7469 230.42435Q557.8719 230.42435 558.5594 231.0806Q559.2469 231.73685 559.2469 232.67435Q559.2469 233.2681 558.9344 233.7056Q558.6219 234.1431 557.98126 234.3931Q558.77814 234.6431 559.1844 235.22122Q559.59064 235.79935 559.59064 236.59622Q559.59064 237.68997 558.8094 238.43997Q558.04376 239.18997 556.7625 239.18997Q555.4969 239.18997 554.71564 238.43997Q553.9344 237.68997 553.9344 236.56497Q553.9344 235.72122 554.35626 235.15872Q554.79376 234.59622 555.575 234.3931ZM555.35626 232.59622Q555.35626 233.2056 555.7469 233.59622Q556.15314 233.98685 556.77814 233.98685Q557.3875 233.98685 557.77814 233.61185Q558.16876 233.22122 558.16876 232.65872Q558.16876 232.0806 557.7625 231.68997Q557.35626 231.28372 556.7625 231.28372Q556.15314 231.28372 555.7469 231.67435Q555.35626 232.06497 555.35626 232.59622ZM555.02814 236.56497Q555.02814 237.0181 555.23126 237.43997Q555.45 237.86185 555.8719 238.09622Q556.29376 238.3306 556.77814 238.3306Q557.52814 238.3306 558.0125 237.84622Q558.5125 237.36185 558.5125 236.61185Q558.5125 235.84622 558.0125 235.34622Q557.5125 234.84622 556.7469 234.84622Q555.9969 234.84622 555.5125 235.34622Q555.02814 235.8306 555.02814 236.56497ZM561.54376 239.04935L561.54376 237.84622L562.7469 237.84622L562.7469 239.04935L561.54376 239.04935ZM563.95 236.78372L565.0125 236.6431Q565.1844 237.53372 565.6219 237.93997Q566.0594 238.3306 566.6844 238.3306Q567.4344 238.3306 567.95 237.81497Q568.46564 237.29935 568.46564 236.53372Q568.46564 235.81497 567.98126 235.34622Q567.5125 234.86185 566.77814 234.86185Q566.48126 234.86185 566.02814 234.98685L566.15314 234.04935Q566.2625 234.06497 566.325 234.06497Q566.9969 234.06497 567.52814 233.72122Q568.075 233.36185 568.075 232.62747Q568.075 232.04935 567.6844 231.67435Q567.29376 231.28372 566.66876 231.28372Q566.0594 231.28372 565.6375 231.67435Q565.23126 232.06497 565.1219 232.8306L564.0594 232.6431Q564.2469 231.59622 564.9344 231.0181Q565.6219 230.42435 566.6375 230.42435Q567.34064 230.42435 567.9344 230.73685Q568.52814 231.03372 568.84064 231.54935Q569.15314 232.06497 569.15314 232.65872Q569.15314 233.2056 568.85626 233.67435Q568.5594 234.12747 567.98126 234.3931Q568.73126 234.56497 569.15314 235.12747Q569.575 235.67435 569.575 236.5181Q569.575 237.6431 568.7469 238.42435Q567.9344 239.2056 566.6844 239.2056Q565.5594 239.2056 564.8094 238.53372Q564.0594 237.84622 563.95 236.78372ZM571.15314 232.5181Q571.15314 231.59622 571.60626 230.9556Q572.075 230.31497 572.95 230.31497Q573.7625 230.31497 574.29376 230.8931Q574.825 231.47122 574.825 232.5806Q574.825 233.67435 574.27814 234.2681Q573.7469 234.84622 572.96564 234.84622Q572.1844 234.84622 571.66876 234.2681Q571.15314 233.68997 571.15314 232.5181ZM572.98126 231.03372Q572.59064 231.03372 572.325 231.37747Q572.075 231.72122 572.075 232.62747Q572.075 233.4556 572.325 233.79935Q572.59064 234.12747 572.98126 234.12747Q573.3875 234.12747 573.6375 233.78372Q573.90314 233.43997 573.90314 232.54935Q573.90314 231.7056 573.6375 231.37747Q573.3719 231.03372 572.98126 231.03372ZM572.98126 239.36185L577.6844 230.31497L578.54376 230.31497L573.85626 239.36185L572.98126 239.36185ZM576.7 237.03372Q576.7 236.11185 577.15314 235.47122Q577.6219 234.8306 578.5125 234.8306Q579.325 234.8306 579.85626 235.40872Q580.3875 235.97122 580.3875 237.09622Q580.3875 238.18997 579.84064 238.78372Q579.3094 239.36185 578.5125 239.36185Q577.7469 239.36185 577.21564 238.78372Q576.7 238.2056 576.7 237.03372ZM578.54376 235.54935Q578.1375 235.54935 577.8719 235.8931Q577.6219 236.23685 577.6219 237.1431Q577.6219 237.9556 577.8875 238.29935Q578.15314 238.6431 578.54376 238.6431Q578.9344 238.6431 579.2 238.29935Q579.46564 237.9556 579.46564 237.04935Q579.46564 236.22122 579.2 235.8931Q578.9344 235.54935 578.54376 235.54935Z" fill-rule="nonzero"/><path stroke="#757575" stroke-width="1.0" stroke-linecap="butt" d="M581.45 226.54935L472.95 226.54935L453.19824 226.54935" fill-rule="nonzero"/><path fill="#9e9e9e" d="M455.19824 226.54935C455.19824 225.44478 454.30283 224.54935 453.19824 224.54935C452.0937 224.54935 451.19824 225.44478 451.19824 226.54935C451.19824 227.65392 452.0937 228.54935 453.19824 228.54935C454.30283 228.54935 455.19824 227.65392 455.19824 226.54935" fill-rule="nonzero"/><path fill="#1a1a1a" d="M546.325 318.3538L546.325 309.76004L549.5594 309.76004Q550.54376 309.76004 551.1375 310.02567Q551.73126 310.2913 552.0594 310.83817Q552.40314 311.36942 552.40314 311.96317Q552.40314 312.51004 552.10626 312.99442Q551.8094 313.4788 551.2 313.77567Q551.98126 314.01004 552.3875 314.57254Q552.8094 315.11942 552.8094 315.86942Q552.8094 316.46317 552.5594 316.99442Q552.3094 317.51004 551.9344 317.7913Q551.5594 318.07254 550.98126 318.21317Q550.41876 318.3538 549.60626 318.3538L546.325 318.3538ZM547.46564 313.36942L549.325 313.36942Q550.075 313.36942 550.40314 313.27567Q550.84064 313.15067 551.0594 312.8538Q551.27814 312.5413 551.27814 312.08817Q551.27814 311.6663 551.075 311.33817Q550.8719 311.01004 550.48126 310.90067Q550.10626 310.77567 549.1844 310.77567L547.46564 310.77567L547.46564 313.36942ZM547.46564 317.33817L549.60626 317.33817Q550.15314 317.33817 550.3719 317.2913Q550.77814 317.2288 551.02814 317.07254Q551.29376 316.90067 551.46564 316.58817Q551.6375 316.27567 551.6375 315.86942Q551.6375 315.38504 551.3875 315.02567Q551.15314 314.6663 550.71564 314.52567Q550.27814 314.38504 549.45 314.38504L547.46564 314.38504L547.46564 317.33817ZM558.325 318.3538L558.325 317.43192Q557.59064 318.49442 556.34064 318.49442Q555.79376 318.49442 555.3094 318.2913Q554.84064 318.07254 554.60626 317.76004Q554.3719 317.43192 554.27814 316.96317Q554.21564 316.6663 554.21564 315.9788L554.21564 312.13504L555.27814 312.13504L555.27814 315.58817Q555.27814 316.40067 555.34064 316.69754Q555.4344 317.1038 555.7469 317.3538Q556.075 317.58817 556.5594 317.58817Q557.02814 317.58817 557.4344 317.3538Q557.85626 317.1038 558.02814 316.68192Q558.21564 316.26004 558.21564 315.46317L558.21564 312.13504L559.2625 312.13504L559.2625 318.3538L558.325 318.3538ZM561.23126 318.3538L561.23126 312.13504L562.1844 312.13504L562.1844 313.07254Q562.54376 312.4163 562.84064 312.21317Q563.15314 311.99442 563.52814 311.99442Q564.0594 311.99442 564.60626 312.32254L564.2469 313.30692Q563.85626 313.07254 563.48126 313.07254Q563.1219 313.07254 562.84064 313.2913Q562.575 313.49442 562.46564 313.86942Q562.27814 314.43192 562.27814 315.08817L562.27814 318.3538L561.23126 318.3538ZM565.23126 318.3538L565.23126 312.13504L566.1844 312.13504L566.1844 313.07254Q566.54376 312.4163 566.84064 312.21317Q567.15314 311.99442 567.52814 311.99442Q568.0594 311.99442 568.60626 312.32254L568.2469 313.30692Q567.85626 313.07254 567.48126 313.07254Q567.1219 313.07254 566.84064 313.2913Q566.575 313.49442 566.46564 313.86942Q566.27814 314.43192 566.27814 315.08817L566.27814 318.3538L565.23126 318.3538ZM569.2469 310.9788L569.2469 309.76004L570.3094 309.76004L570.3094 310.9788L569.2469 310.9788ZM569.2469 318.3538L569.2469 312.13504L570.3094 312.13504L570.3094 318.3538L569.2469 318.3538ZM574.54376 317.4163L574.7 318.33817Q574.2469 318.43192 573.90314 318.43192Q573.325 318.43192 573.0125 318.26004Q572.7 318.07254 572.5594 317.77567Q572.4344 317.4788 572.4344 316.52567L572.4344 312.94754L571.66876 312.94754L571.66876 312.13504L572.4344 312.13504L572.4344 310.58817L573.48126 309.96317L573.48126 312.13504L574.54376 312.13504L574.54376 312.94754L573.48126 312.94754L573.48126 316.58817Q573.48126 317.0413 573.52814 317.1663Q573.59064 317.2913 573.71564 317.36942Q573.84064 317.44754 574.075 317.44754Q574.2625 317.44754 574.54376 317.4163ZM574.85626 315.24442Q574.85626 313.51004 575.8094 312.68192Q576.60626 311.99442 577.7625 311.99442Q579.04376 311.99442 579.85626 312.83817Q580.6844 313.6663 580.6844 315.15067Q580.6844 316.3538 580.325 317.0413Q579.96564 317.7288 579.2625 318.11942Q578.575 318.49442 577.7625 318.49442Q576.46564 318.49442 575.65314 317.6663Q574.85626 316.82254 574.85626 315.24442ZM575.9344 315.24442Q575.9344 316.43192 576.45 317.02567Q576.98126 317.61942 577.7625 317.61942Q578.5594 317.61942 579.075 317.02567Q579.59064 316.43192 579.59064 315.21317Q579.59064 314.05692 579.0594 313.46317Q578.54376 312.86942 577.7625 312.86942Q576.98126 312.86942 576.45 313.46317Q575.9344 314.0413 575.9344 315.24442Z" fill-rule="nonzero"/><path fill="#9e9e9e" d="M550.91876 335.3538L549.8719 335.3538L549.8719 328.63504Q549.48126 328.99442 548.85626 329.36942Q548.2469 329.7288 547.7625 329.90067L547.7625 328.88504Q548.6375 328.46317 549.29376 327.88504Q549.96564 327.2913 550.2469 326.7288L550.91876 326.7288L550.91876 335.3538ZM559.41876 328.86942L558.3719 328.94754Q558.23126 328.32254 557.98126 328.0413Q557.54376 327.58817 556.91876 327.58817Q556.41876 327.58817 556.02814 327.86942Q555.54376 328.24442 555.2469 328.94754Q554.96564 329.63504 554.95 330.9163Q555.325 330.33817 555.8719 330.05692Q556.4344 329.77567 557.04376 329.77567Q558.09064 329.77567 558.825 330.55692Q559.575 331.33817 559.575 332.55692Q559.575 333.36942 559.21564 334.07254Q558.8719 334.76004 558.2625 335.13504Q557.65314 335.49442 556.8875 335.49442Q555.5594 335.49442 554.73126 334.52567Q553.90314 333.55692 553.90314 331.33817Q553.90314 328.83817 554.825 327.71317Q555.6219 326.7288 556.98126 326.7288Q557.9969 326.7288 558.6375 327.30692Q559.29376 327.86942 559.41876 328.86942ZM555.1219 332.57254Q555.1219 333.11942 555.34064 333.61942Q555.575 334.1038 555.98126 334.36942Q556.40314 334.63504 556.8719 334.63504Q557.52814 334.63504 558.0125 334.1038Q558.4969 333.55692 558.4969 332.63504Q558.4969 331.74442 558.0125 331.2288Q557.54376 330.71317 556.825 330.71317Q556.10626 330.71317 555.60626 331.2288Q555.1219 331.74442 555.1219 332.57254ZM561.54376 335.3538L561.54376 334.15067L562.7469 334.15067L562.7469 335.3538L561.54376 335.3538ZM564.0125 327.88504L564.0125 326.86942L569.575 326.86942L569.575 327.69754Q568.7625 328.57254 567.95 330.02567Q567.15314 331.46317 566.71564 332.99442Q566.3875 334.07254 566.3094 335.3538L565.21564 335.3538Q565.23126 334.33817 565.60626 332.90067Q565.9969 331.46317 566.7 330.13504Q567.41876 328.80692 568.23126 327.88504L564.0125 327.88504ZM571.15314 328.82254Q571.15314 327.90067 571.60626 327.26004Q572.075 326.61942 572.95 326.61942Q573.7625 326.61942 574.29376 327.19754Q574.825 327.77567 574.825 328.88504Q574.825 329.9788 574.27814 330.57254Q573.7469 331.15067 572.96564 331.15067Q572.1844 331.15067 571.66876 330.57254Q571.15314 329.99442 571.15314 328.82254ZM572.98126 327.33817Q572.59064 327.33817 572.325 327.68192Q572.075 328.02567 572.075 328.93192Q572.075 329.76004 572.325 330.1038Q572.59064 330.43192 572.98126 330.43192Q573.3875 330.43192 573.6375 330.08817Q573.90314 329.74442 573.90314 328.8538Q573.90314 328.01004 573.6375 327.68192Q573.3719 327.33817 572.98126 327.33817ZM572.98126 335.6663L577.6844 326.61942L578.54376 326.61942L573.85626 335.6663L572.98126 335.6663ZM576.7 333.33817Q576.7 332.4163 577.15314 331.77567Q577.6219 331.13504 578.5125 331.13504Q579.325 331.13504 579.85626 331.71317Q580.3875 332.27567 580.3875 333.40067Q580.3875 334.49442 579.84064 335.08817Q579.3094 335.6663 578.5125 335.6663Q577.7469 335.6663 577.21564 335.08817Q576.7 334.51004 576.7 333.33817ZM578.54376 331.8538Q578.1375 331.8538 577.8719 332.19754Q577.6219 332.5413 577.6219 333.44754Q577.6219 334.26004 577.8875 334.6038Q578.15314 334.94754 578.54376 334.94754Q578.9344 334.94754 579.2 334.6038Q579.46564 334.26004 579.46564 333.3538Q579.46564 332.52567 579.2 332.19754Q578.9344 331.8538 578.54376 331.8538Z" fill-rule="nonzero"/><path stroke="#757575" stroke-width="1.0" stroke-linecap="butt" d="M581.45 322.8538L472.95 322.8538L379.30124 322.8538" fill-rule="nonzero"/><path fill="#9e9e9e" d="M381.30124 322.8538C381.30124 321.74924 380.40582 320.8538 379.30124 320.8538C378.1967 320.8538 377.30124 321.74924 377.30124 322.8538C377.30124 323.95837 378.1967 324.8538 379.30124 324.8538C380.40582 324.8538 381.30124 323.95837 381.30124 322.8538" fill-rule="nonzero"/></svg>