<svg version="1.1" viewBox="0.0 0.0 600.0 371.0" fill="none" stroke="none" stroke-linecap="square" stroke-miterlimit="10" width="600" height="371" xmlns:xlink="http://www.w3.org/1999/xlink" xmlns="http://www.w3.org/2000/svg"><path fill="#ffffff" d="M0 0L600.0 0L600.0 371.0L0 371.0L0 0Z" fill-rule="nonzero"/><path fill="#4285f4" d="M300.0 18.55C329.30585 18.55 358.0954 26.264135 383.475 40.917057L300.0 185.5Z" fill-rule="nonzero"/><path fill="#fbbc04" d="M155.41705 102.025C185.2398 50.37049 240.3545 18.55 300.0 18.55L300.0 185.5Z" fill-rule="nonzero"/><path fill="#ea4335" d="M383.475 40.917057C463.32596 87.01903 490.6849 189.12405 444.58295 268.975C398.48096 348.82596 296.37595 376.1849 216.525 330.08295C136.67404 283.98096 109.31509 181.87595 155.41705 102.025L300.0 185.5Z" fill-rule="nonzero"/><path fill="#1a1a1a" d="M25.6125 40.63058L26.7375 40.927456Q26.378124 42.31808 25.45625 43.052456Q24.534374 43.78683 23.190624 43.78683Q21.8 43.78683 20.925 43.22433Q20.05 42.66183 19.596874 41.59933Q19.14375 40.521206 19.14375 39.28683Q19.14375 37.94308 19.659374 36.94308Q20.175 35.94308 21.1125 35.427456Q22.065624 34.91183 23.20625 34.91183Q24.4875 34.91183 25.3625 35.56808Q26.253124 36.22433 26.596874 37.41183L25.471874 37.677456Q25.175 36.739956 24.596874 36.31808Q24.034374 35.88058 23.175 35.88058Q22.190624 35.88058 21.51875 36.364956Q20.8625 36.833706 20.58125 37.63058Q20.315624 38.427456 20.315624 39.28683Q20.315624 40.38058 20.628124 41.19308Q20.95625 42.00558 21.628124 42.41183Q22.3 42.81808 23.096874 42.81808Q24.05 42.81808 24.70625 42.271206Q25.378124 41.72433 25.6125 40.63058ZM28.346874 43.646206L28.346874 35.052456L29.39375 35.052456L29.39375 38.13058Q30.128124 37.28683 31.253124 37.28683Q31.95625 37.28683 32.45625 37.56808Q32.971874 37.833706 33.190624 38.31808Q33.409374 38.78683 33.409374 39.708706L33.409374 43.646206L32.3625 43.646206L32.3625 39.708706Q32.3625 38.91183 32.01875 38.552456Q31.675 38.19308 31.05 38.19308Q30.58125 38.19308 30.159374 38.44308Q29.753124 38.677456 29.565624 39.09933Q29.39375 39.50558 29.39375 40.239956L29.39375 43.646206L28.346874 43.646206ZM35.33125 43.646206L35.33125 37.427456L36.284374 37.427456L36.284374 38.364956Q36.64375 37.708706 36.940624 37.50558Q37.253124 37.28683 37.628124 37.28683Q38.159374 37.28683 38.70625 37.614956L38.346874 38.59933Q37.95625 38.364956 37.58125 38.364956Q37.221874 38.364956 36.940624 38.583706Q36.675 38.78683 36.565624 39.16183Q36.378124 39.72433 36.378124 40.38058L36.378124 43.646206L35.33125 43.646206ZM39.346874 36.271206L39.346874 35.052456L40.409374 35.052456L40.409374 36.271206L39.346874 36.271206ZM39.346874 43.646206L39.346874 37.427456L40.409374 37.427456L40.409374 43.646206L39.346874 43.646206ZM41.925 41.78683L42.95625 41.63058Q43.05 42.25558 43.440624 42.583706Q43.846874 42.91183 44.58125 42.91183Q45.3 42.91183 45.64375 42.63058Q46.003124 42.333706 46.003124 41.927456Q46.003124 41.56808 45.690624 41.364956Q45.471874 41.22433 44.6125 41.00558Q43.45625 40.708706 43.003124 40.50558Q42.565624 40.28683 42.33125 39.91183Q42.096874 39.53683 42.096874 39.06808Q42.096874 38.66183 42.284374 38.302456Q42.471874 37.94308 42.8 37.708706Q43.05 37.53683 43.471874 37.41183Q43.89375 37.28683 44.39375 37.28683Q45.1125 37.28683 45.659374 37.50558Q46.221874 37.708706 46.4875 38.06808Q46.753124 38.427456 46.846874 39.021206L45.815624 39.16183Q45.753124 38.69308 45.409374 38.427456Q45.08125 38.146206 44.45625 38.146206Q43.7375 38.146206 43.425 38.396206Q43.1125 38.63058 43.1125 38.958706Q43.1125 39.16183 43.2375 39.31808Q43.378124 39.489956 43.64375 39.59933Q43.8 39.66183 44.58125 39.864956Q45.70625 40.177456 46.14375 40.364956Q46.58125 40.552456 46.83125 40.91183Q47.08125 41.271206 47.08125 41.81808Q47.08125 42.34933 46.76875 42.81808Q46.471874 43.271206 45.89375 43.53683Q45.315624 43.78683 44.58125 43.78683Q43.3625 43.78683 42.721874 43.28683Q42.096874 42.771206 41.925 41.78683ZM50.64375 42.708706L50.8 43.63058Q50.346874 43.72433 50.003124 43.72433Q49.425 43.72433 49.1125 43.552456Q48.8 43.364956 48.659374 43.06808Q48.534374 42.771206 48.534374 41.81808L48.534374 38.239956L47.76875 38.239956L47.76875 37.427456L48.534374 37.427456L48.534374 35.88058L49.58125 35.25558L49.58125 37.427456L50.64375 37.427456L50.64375 38.239956L49.58125 38.239956L49.58125 41.88058Q49.58125 42.333706 49.628124 42.458706Q49.690624 42.583706 49.815624 42.66183Q49.940624 42.739956 50.175 42.739956Q50.3625 42.739956 50.64375 42.708706ZM51.346874 36.271206L51.346874 35.052456L52.409374 35.052456L52.409374 36.271206L51.346874 36.271206ZM51.346874 43.646206L51.346874 37.427456L52.409374 37.427456L52.409374 43.646206L51.346874 43.646206ZM58.409374 42.88058Q57.815624 43.38058 57.26875 43.583706Q56.7375 43.78683 56.1125 43.78683Q55.08125 43.78683 54.534374 43.28683Q53.9875 42.78683 53.9875 42.00558Q53.9875 41.552456 54.190624 41.177456Q54.39375 40.78683 54.7375 40.56808Q55.08125 40.333706 55.503124 40.22433Q55.8 40.13058 56.440624 40.052456Q57.70625 39.91183 58.315624 39.69308Q58.315624 39.47433 58.315624 39.427456Q58.315624 38.771206 58.01875 38.50558Q57.6125 38.16183 56.815624 38.16183Q56.08125 38.16183 55.721874 38.427456Q55.3625 38.677456 55.190624 39.333706L54.159374 39.19308Q54.3 38.53683 54.628124 38.13058Q54.95625 37.72433 55.565624 37.50558Q56.175 37.28683 56.971874 37.28683Q57.76875 37.28683 58.26875 37.47433Q58.76875 37.66183 59.003124 37.94308Q59.2375 38.22433 59.33125 38.66183Q59.378124 38.927456 59.378124 39.63058L59.378124 41.03683Q59.378124 42.50558 59.440624 42.896206Q59.51875 43.28683 59.721874 43.646206L58.6125 43.646206Q58.45625 43.31808 58.409374 42.88058ZM58.315624 40.521206Q57.7375 40.75558 56.596874 40.927456Q55.940624 41.021206 55.675 41.146206Q55.409374 41.25558 55.253124 41.47433Q55.1125 41.69308 55.1125 41.97433Q55.1125 42.396206 55.425 42.677456Q55.753124 42.958706 56.3625 42.958706Q56.971874 42.958706 57.440624 42.69308Q57.925 42.427456 58.14375 41.958706Q58.315624 41.59933 58.315624 40.91183L58.315624 40.521206ZM61.346874 43.646206L61.346874 37.427456L62.284374 37.427456L62.284374 38.302456Q62.971874 37.28683 64.26875 37.28683Q64.83125 37.28683 65.3 37.489956Q65.78438 37.69308 66.01875 38.021206Q66.25313 38.34933 66.34688 38.78683Q66.39375 39.083706 66.39375 39.81808L66.39375 43.646206L65.34688 43.646206L65.34688 39.864956Q65.34688 39.208706 65.22188 38.896206Q65.09688 38.583706 64.78438 38.396206Q64.47188 38.19308 64.05 38.19308Q63.378124 38.19308 62.878124 38.63058Q62.39375 39.052456 62.39375 40.239956L62.39375 43.646206L61.346874 43.646206ZM71.44063 43.646206L71.44063 35.052456L73.15938 35.052456L75.19063 41.13058Q75.47188 41.989956 75.59688 42.41183Q75.7375 41.94308 76.05 41.03683L78.1125 35.052456L79.64375 35.052456L79.64375 43.646206L78.55 43.646206L78.55 36.458706L76.05 43.646206L75.01875 43.646206L72.53438 36.333706L72.53438 43.646206L71.44063 43.646206ZM85.40938 41.364956L86.44063 41.50558Q86.26875 42.56808 85.56563 43.177456Q84.8625 43.78683 83.84688 43.78683Q82.56563 43.78683 81.78438 42.958706Q81.01875 42.114956 81.01875 40.552456Q81.01875 39.552456 81.34688 38.802456Q81.69063 38.03683 82.3625 37.66183Q83.05 37.28683 83.8625 37.28683Q84.8625 37.28683 85.50313 37.802456Q86.15938 38.302456 86.34688 39.25558L85.31563 39.41183Q85.175 38.78683 84.8 38.47433Q84.425 38.146206 83.89375 38.146206Q83.09688 38.146206 82.59688 38.72433Q82.09688 39.28683 82.09688 40.521206Q82.09688 41.78683 82.58125 42.34933Q83.06563 42.91183 83.83125 42.91183Q84.45625 42.91183 84.8625 42.53683Q85.28438 42.16183 85.40938 41.364956ZM93.6125 40.63058L94.7375 40.927456Q94.37813 42.31808 93.45625 43.052456Q92.53438 43.78683 91.19063 43.78683Q89.8 43.78683 88.925 43.22433Q88.05 42.66183 87.59688 41.59933Q87.14375 40.521206 87.14375 39.28683Q87.14375 37.94308 87.65938 36.94308Q88.175 35.94308 89.1125 35.427456Q90.06563 34.91183 91.20625 34.91183Q92.4875 34.91183 93.3625 35.56808Q94.25313 36.22433 94.59688 37.41183L93.47188 37.677456Q93.175 36.739956 92.59688 36.31808Q92.03438 35.88058 91.175 35.88058Q90.19063 35.88058 89.51875 36.364956Q88.8625 36.833706 88.58125 37.63058Q88.31563 38.427456 88.31563 39.28683Q88.31563 40.38058 88.62813 41.19308Q88.95625 42.00558 89.62813 42.41183Q90.3 42.81808 91.09688 42.81808Q92.05 42.81808 92.70625 42.271206Q93.37813 41.72433 93.6125 40.63058ZM100.40938 42.88058Q99.81563 43.38058 99.26875 43.583706Q98.7375 43.78683 98.1125 43.78683Q97.08125 43.78683 96.53438 43.28683Q95.9875 42.78683 95.9875 42.00558Q95.9875 41.552456 96.19063 41.177456Q96.39375 40.78683 96.7375 40.56808Q97.08125 40.333706 97.50313 40.22433Q97.8 40.13058 98.44063 40.052456Q99.70625 39.91183 100.31563 39.69308Q100.31563 39.47433 100.31563 39.427456Q100.31563 38.771206 100.01875 38.50558Q99.6125 38.16183 98.81563 38.16183Q98.08125 38.16183 97.72188 38.427456Q97.3625 38.677456 97.19063 39.333706L96.15938 39.19308Q96.3 38.53683 96.62813 38.13058Q96.95625 37.72433 97.56563 37.50558Q98.175 37.28683 98.97188 37.28683Q99.76875 37.28683 100.26875 37.47433Q100.76875 37.66183 101.00313 37.94308Q101.2375 38.22433 101.33125 38.66183Q101.37813 38.927456 101.37813 39.63058L101.37813 41.03683Q101.37813 42.50558 101.44063 42.896206Q101.51875 43.28683 101.72188 43.646206L100.6125 43.646206Q100.45625 43.31808 100.40938 42.88058ZM100.31563 40.521206Q99.7375 40.75558 98.59688 40.927456Q97.94063 41.021206 97.675 41.146206Q97.40938 41.25558 97.25313 41.47433Q97.1125 41.69308 97.1125 41.97433Q97.1125 42.396206 97.425 42.677456Q97.75313 42.958706 98.3625 42.958706Q98.97188 42.958706 99.44063 42.69308Q99.925 42.427456 100.14375 41.958706Q100.31563 41.59933 100.31563 40.91183L100.31563 40.521206ZM103.59688 43.646206L103.59688 38.239956L102.65938 38.239956L102.65938 37.427456L103.59688 37.427456L103.59688 36.75558Q103.59688 36.13058 103.70625 35.833706Q103.8625 35.41183 104.2375 35.16183Q104.62813 34.91183 105.31563 34.91183Q105.76875 34.91183 106.3 35.021206L106.14375 35.927456Q105.81563 35.88058 105.51875 35.88058Q105.03438 35.88058 104.83125 36.083706Q104.64375 36.28683 104.64375 36.84933L104.64375 37.427456L105.8625 37.427456L105.8625 38.239956L104.64375 38.239956L104.64375 43.646206L103.59688 43.646206ZM106.59688 43.646206L106.59688 38.239956L105.65938 38.239956L105.65938 37.427456L106.59688 37.427456L106.59688 36.75558Q106.59688 36.13058 106.70625 35.833706Q106.8625 35.41183 107.2375 35.16183Q107.62813 34.91183 108.31563 34.91183Q108.76875 34.91183 109.3 35.021206L109.14375 35.927456Q108.81563 35.88058 108.51875 35.88058Q108.03438 35.88058 107.83125 36.083706Q107.64375 36.28683 107.64375 36.84933L107.64375 37.427456L108.8625 37.427456L108.8625 38.239956L107.64375 38.239956L107.64375 43.646206L106.59688 43.646206ZM109.33125 43.646206L109.33125 37.427456L110.28438 37.427456L110.28438 38.364956Q110.64375 37.708706 110.94063 37.50558Q111.25313 37.28683 111.62813 37.28683Q112.15938 37.28683 112.70625 37.614956L112.34688 38.59933Q111.95625 38.364956 111.58125 38.364956Q111.22188 38.364956 110.94063 38.583706Q110.675 38.78683 110.56563 39.16183Q110.37813 39.72433 110.37813 40.38058L110.37813 43.646206L109.33125 43.646206ZM117.59688 41.646206L118.69063 41.771206Q118.44063 42.72433 117.7375 43.25558Q117.03438 43.78683 115.95625 43.78683Q114.59688 43.78683 113.78438 42.94308Q112.9875 42.09933 112.9875 40.583706Q112.9875 39.021206 113.8 38.16183Q114.6125 37.28683 115.89375 37.28683Q117.14375 37.28683 117.925 38.13058Q118.72188 38.97433 118.72188 40.521206Q118.72188 40.614956 118.72188 40.802456L114.08125 40.802456Q114.14375 41.833706 114.65938 42.38058Q115.175 42.91183 115.95625 42.91183Q116.53438 42.91183 116.94063 42.614956Q117.3625 42.302456 117.59688 41.646206ZM114.14375 39.94308L117.6125 39.94308Q117.55 39.146206 117.22188 38.75558Q116.70625 38.146206 115.90938 38.146206Q115.175 38.146206 114.675 38.63058Q114.19063 39.114956 114.14375 39.94308ZM120.3 46.03683L120.175 45.052456Q120.51875 45.146206 120.78438 45.146206Q121.12813 45.146206 121.33125 45.021206Q121.55 44.91183 121.69063 44.708706Q121.78438 44.53683 122.01875 43.91183Q122.03438 43.833706 122.1125 43.66183L119.7375 37.427456L120.87813 37.427456L122.175 41.021206Q122.425 41.708706 122.62813 42.47433Q122.81563 41.739956 123.06563 41.052456L124.39375 37.427456L125.44063 37.427456L123.08125 43.75558Q122.69063 44.771206 122.4875 45.16183Q122.20625 45.69308 121.83125 45.927456Q121.47188 46.177456 120.97188 46.177456Q120.675 46.177456 120.3 46.03683Z" fill-rule="nonzero"/><path fill="#9e9e9e" d="M23.01875 60.646206L21.971874 60.646206L21.971874 53.927456Q21.58125 54.28683 20.95625 54.66183Q20.346874 55.021206 19.8625 55.19308L19.8625 54.177456Q20.7375 53.75558 21.39375 53.177456Q22.065624 52.583706 22.346874 52.021206L23.01875 52.021206L23.01875 60.646206ZM31.51875 54.16183L30.471874 54.239956Q30.33125 53.614956 30.08125 53.333706Q29.64375 52.88058 29.01875 52.88058Q28.51875 52.88058 28.128124 53.16183Q27.64375 53.53683 27.346874 54.239956Q27.065624 54.927456 27.05 56.208706Q27.425 55.63058 27.971874 55.34933Q28.534374 55.06808 29.14375 55.06808Q30.190624 55.06808 30.925 55.84933Q31.675 56.63058 31.675 57.84933Q31.675 58.66183 31.315624 59.364956Q30.971874 60.052456 30.3625 60.427456Q29.753124 60.78683 28.9875 60.78683Q27.659374 60.78683 26.83125 59.81808Q26.003124 58.84933 26.003124 56.63058Q26.003124 54.13058 26.925 53.00558Q27.721874 52.021206 29.08125 52.021206Q30.096874 52.021206 30.7375 52.59933Q31.39375 53.16183 31.51875 54.16183ZM27.221874 57.864956Q27.221874 58.41183 27.440624 58.91183Q27.675 59.396206 28.08125 59.66183Q28.503124 59.927456 28.971874 59.927456Q29.628124 59.927456 30.1125 59.396206Q30.596874 58.84933 30.596874 57.927456Q30.596874 57.03683 30.1125 56.521206Q29.64375 56.00558 28.925 56.00558Q28.20625 56.00558 27.70625 56.521206Q27.221874 57.03683 27.221874 57.864956ZM33.64375 60.646206L33.64375 59.44308L34.846874 59.44308L34.846874 60.646206L33.64375 60.646206ZM36.1125 53.177456L36.1125 52.16183L41.675 52.16183L41.675 52.989956Q40.8625 53.864956 40.05 55.31808Q39.253124 56.75558 38.815624 58.28683Q38.4875 59.364956 38.409374 60.646206L37.315624 60.646206Q37.33125 59.63058 37.70625 58.19308Q38.096874 56.75558 38.8 55.427456Q39.51875 54.09933 40.33125 53.177456L36.1125 53.177456ZM43.253124 54.114956Q43.253124 53.19308 43.70625 52.552456Q44.175 51.91183 45.05 51.91183Q45.8625 51.91183 46.39375 52.489956Q46.925 53.06808 46.925 54.177456Q46.925 55.271206 46.378124 55.864956Q45.846874 56.44308 45.065624 56.44308Q44.284374 56.44308 43.76875 55.864956Q43.253124 55.28683 43.253124 54.114956ZM45.08125 52.63058Q44.690624 52.63058 44.425 52.97433Q44.175 53.31808 44.175 54.22433Q44.175 55.052456 44.425 55.396206Q44.690624 55.72433 45.08125 55.72433Q45.4875 55.72433 45.7375 55.38058Q46.003124 55.03683 46.003124 54.146206Q46.003124 53.302456 45.7375 52.97433Q45.471874 52.63058 45.08125 52.63058ZM45.08125 60.958706L49.784374 51.91183L50.64375 51.91183L45.95625 60.958706L45.08125 60.958706ZM48.8 58.63058Q48.8 57.708706 49.253124 57.06808Q49.721874 56.427456 50.6125 56.427456Q51.425 56.427456 51.95625 57.00558Q52.4875 57.56808 52.4875 58.69308Q52.4875 59.78683 51.940624 60.38058Q51.409374 60.958706 50.6125 60.958706Q49.846874 60.958706 49.315624 60.38058Q48.8 59.802456 48.8 58.63058ZM50.64375 57.146206Q50.2375 57.146206 49.971874 57.489956Q49.721874 57.833706 49.721874 58.739956Q49.721874 59.552456 49.9875 59.896206Q50.253124 60.239956 50.64375 60.239956Q51.034374 60.239956 51.3 59.896206Q51.565624 59.552456 51.565624 58.646206Q51.565624 57.81808 51.3 57.489956Q51.034374 57.146206 50.64375 57.146206Z" fill-rule="nonzero"/><path stroke="#757575" stroke-width="1.0" stroke-linecap="butt" d="M18.55 48.146206L127.05 48.146206L220.69875 48.146206" fill-rule="nonzero"/><path fill="#9e9e9e" d="M222.69875 48.146206C222.69875 47.041637 221.80331 46.146206 220.69875 46.146206C219.59418 46.146206 218.69875 47.041637 218.69875 48.146206C218.69875 49.250774 219.59418 50.146206 220.69875 50.146206C221.80331 50.146206 222.69875 49.250774 222.69875 48.146206" fill-rule="nonzero"/><path fill="#1a1a1a" d="M512.40314 29.55L512.40314 20.95625L518.60626 20.95625L518.60626 21.971874L513.54376 21.971874L513.54376 24.596874L518.29376 24.596874L518.29376 25.6125L513.54376 25.6125L513.54376 28.534374L518.8094 28.534374L518.8094 29.55L512.40314 29.55ZM519.6844 29.55L519.6844 28.690624L523.65314 24.14375Q522.96564 24.175 522.45 24.175L519.91876 24.175L519.91876 23.33125L525.0125 23.33125L525.0125 24.01875L521.6375 27.971874L520.98126 28.690624Q521.7 28.64375 522.3094 28.64375L525.2 28.64375L525.2 29.55L519.6844 29.55ZM530.4969 27.55L531.59064 27.675Q531.34064 28.628124 530.6375 29.159374Q529.9344 29.690624 528.85626 29.690624Q527.4969 29.690624 526.6844 28.846874Q525.8875 28.003124 525.8875 26.4875Q525.8875 24.925 526.7 24.065624Q527.5125 23.190624 528.79376 23.190624Q530.04376 23.190624 530.825 24.034374Q531.6219 24.878124 531.6219 26.425Q531.6219 26.51875 531.6219 26.70625L526.98126 26.70625Q527.04376 27.7375 527.5594 28.284374Q528.075 28.815624 528.85626 28.815624Q529.4344 28.815624 529.84064 28.51875Q530.2625 28.20625 530.4969 27.55ZM527.04376 25.846874L530.5125 25.846874Q530.45 25.05 530.1219 24.659374Q529.60626 24.05 528.8094 24.05Q528.075 24.05 527.575 24.534374Q527.09064 25.01875 527.04376 25.846874ZM533.2469 29.55L533.2469 20.95625L534.3094 20.95625L534.3094 25.8625L536.79376 23.33125L538.16876 23.33125L535.77814 25.628124L538.40314 29.55L537.10626 29.55L535.04376 26.3625L534.3094 27.08125L534.3094 29.55L533.2469 29.55ZM539.2469 22.175L539.2469 20.95625L540.3094 20.95625L540.3094 22.175L539.2469 22.175ZM539.2469 29.55L539.2469 23.33125L540.3094 23.33125L540.3094 29.55L539.2469 29.55ZM546.4969 27.55L547.59064 27.675Q547.34064 28.628124 546.6375 29.159374Q545.9344 29.690624 544.85626 29.690624Q543.4969 29.690624 542.6844 28.846874Q541.8875 28.003124 541.8875 26.4875Q541.8875 24.925 542.7 24.065624Q543.5125 23.190624 544.79376 23.190624Q546.04376 23.190624 546.825 24.034374Q547.6219 24.878124 547.6219 26.425Q547.6219 26.51875 547.6219 26.70625L542.98126 26.70625Q543.04376 27.7375 543.5594 28.284374Q544.075 28.815624 544.85626 28.815624Q545.4344 28.815624 545.84064 28.51875Q546.2625 28.20625 546.4969 27.55ZM543.04376 25.846874L546.5125 25.846874Q546.45 25.05 546.1219 24.659374Q545.60626 24.05 544.8094 24.05Q544.075 24.05 543.575 24.534374Q543.09064 25.01875 543.04376 25.846874ZM549.21564 29.55L549.21564 20.95625L550.27814 20.95625L550.27814 29.55L549.21564 29.55ZM555.40314 29.55L555.40314 20.95625L561.60626 20.95625L561.60626 21.971874L556.54376 21.971874L556.54376 24.596874L561.29376 24.596874L561.29376 25.6125L556.54376 25.6125L556.54376 28.534374L561.8094 28.534374L561.8094 29.55L555.40314 29.55ZM563.21564 29.55L563.21564 20.95625L564.27814 20.95625L564.27814 29.55L563.21564 29.55ZM566.21564 29.55L566.21564 20.95625L567.27814 20.95625L567.27814 29.55L566.21564 29.55ZM569.2469 22.175L569.2469 20.95625L570.3094 20.95625L570.3094 22.175L569.2469 22.175ZM569.2469 29.55L569.2469 23.33125L570.3094 23.33125L570.3094 29.55L569.2469 29.55ZM571.85626 26.440624Q571.85626 24.70625 572.8094 23.878124Q573.60626 23.190624 574.7625 23.190624Q576.04376 23.190624 576.85626 24.034374Q577.6844 24.8625 577.6844 26.346874Q577.6844 27.55 577.325 28.2375Q576.96564 28.925 576.2625 29.315624Q575.575 29.690624 574.7625 29.690624Q573.46564 29.690624 572.65314 28.8625Q571.85626 28.01875 571.85626 26.440624ZM572.9344 26.440624Q572.9344 27.628124 573.45 28.221874Q573.98126 28.815624 574.7625 28.815624Q575.5594 28.815624 576.075 28.221874Q576.59064 27.628124 576.59064 26.409374Q576.59064 25.253124 576.0594 24.659374Q575.54376 24.065624 574.7625 24.065624Q573.98126 24.065624 573.45 24.659374Q572.9344 25.2375 572.9344 26.440624ZM581.54376 28.6125L581.7 29.534374Q581.2469 29.628124 580.90314 29.628124Q580.325 29.628124 580.0125 29.45625Q579.7 29.26875 579.5594 28.971874Q579.4344 28.675 579.4344 27.721874L579.4344 24.14375L578.66876 24.14375L578.66876 23.33125L579.4344 23.33125L579.4344 21.784374L580.48126 21.159374L580.48126 23.33125L581.54376 23.33125L581.54376 24.14375L580.48126 24.14375L580.48126 27.784374Q580.48126 28.2375 580.52814 28.3625Q580.59064 28.4875 580.71564 28.565624Q580.84064 28.64375 581.075 28.64375Q581.2625 28.64375 581.54376 28.6125Z" fill-rule="nonzero"/><path fill="#9e9e9e" d="M555.575 41.89375Q554.91876 41.64375 554.59064 41.20625Q554.27814 40.753124 554.27814 40.14375Q554.27814 39.20625 554.95 38.565624Q555.6375 37.925 556.7469 37.925Q557.8719 37.925 558.5594 38.58125Q559.2469 39.2375 559.2469 40.175Q559.2469 40.76875 558.9344 41.20625Q558.6219 41.64375 557.98126 41.89375Q558.77814 42.14375 559.1844 42.721874Q559.59064 43.3 559.59064 44.096874Q559.59064 45.190624 558.8094 45.940624Q558.04376 46.690624 556.7625 46.690624Q555.4969 46.690624 554.71564 45.940624Q553.9344 45.190624 553.9344 44.065624Q553.9344 43.221874 554.35626 42.659374Q554.79376 42.096874 555.575 41.89375ZM555.35626 40.096874Q555.35626 40.70625 555.7469 41.096874Q556.15314 41.4875 556.77814 41.4875Q557.3875 41.4875 557.77814 41.1125Q558.16876 40.721874 558.16876 40.159374Q558.16876 39.58125 557.7625 39.190624Q557.35626 38.784374 556.7625 38.784374Q556.15314 38.784374 555.7469 39.175Q555.35626 39.565624 555.35626 40.096874ZM555.02814 44.065624Q555.02814 44.51875 555.23126 44.940624Q555.45 45.3625 555.8719 45.596874Q556.29376 45.83125 556.77814 45.83125Q557.52814 45.83125 558.0125 45.346874Q558.5125 44.8625 558.5125 44.1125Q558.5125 43.346874 558.0125 42.846874Q557.5125 42.346874 556.7469 42.346874Q555.9969 42.346874 555.5125 42.846874Q555.02814 43.33125 555.02814 44.065624ZM561.54376 46.55L561.54376 45.346874L562.7469 45.346874L562.7469 46.55L561.54376 46.55ZM563.95 44.284374L565.0125 44.14375Q565.1844 45.034374 565.6219 45.440624Q566.0594 45.83125 566.6844 45.83125Q567.4344 45.83125 567.95 45.315624Q568.46564 44.8 568.46564 44.034374Q568.46564 43.315624 567.98126 42.846874Q567.5125 42.3625 566.77814 42.3625Q566.48126 42.3625 566.02814 42.4875L566.15314 41.55Q566.2625 41.565624 566.325 41.565624Q566.9969 41.565624 567.52814 41.221874Q568.075 40.8625 568.075 40.128124Q568.075 39.55 567.6844 39.175Q567.29376 38.784374 566.66876 38.784374Q566.0594 38.784374 565.6375 39.175Q565.23126 39.565624 565.1219 40.33125L564.0594 40.14375Q564.2469 39.096874 564.9344 38.51875Q565.6219 37.925 566.6375 37.925Q567.34064 37.925 567.9344 38.2375Q568.52814 38.534374 568.84064 39.05Q569.15314 39.565624 569.15314 40.159374Q569.15314 40.70625 568.85626 41.175Q568.5594 41.628124 567.98126 41.89375Q568.73126 42.065624 569.15314 42.628124Q569.575 43.175 569.575 44.01875Q569.575 45.14375 568.7469 45.925Q567.9344 46.70625 566.6844 46.70625Q565.5594 46.70625 564.8094 46.034374Q564.0594 45.346874 563.95 44.284374ZM571.15314 40.01875Q571.15314 39.096874 571.60626 38.45625Q572.075 37.815624 572.95 37.815624Q573.7625 37.815624 574.29376 38.39375Q574.825 38.971874 574.825 40.08125Q574.825 41.175 574.27814 41.76875Q573.7469 42.346874 572.96564 42.346874Q572.1844 42.346874 571.66876 41.76875Q571.15314 41.190624 571.15314 40.01875ZM572.98126 38.534374Q572.59064 38.534374 572.325 38.878124Q572.075 39.221874 572.075 40.128124Q572.075 40.95625 572.325 41.3Q572.59064 41.628124 572.98126 41.628124Q573.3875 41.628124 573.6375 41.284374Q573.90314 40.940624 573.90314 40.05Q573.90314 39.20625 573.6375 38.878124Q573.3719 38.534374 572.98126 38.534374ZM572.98126 46.8625L577.6844 37.815624L578.54376 37.815624L573.85626 46.8625L572.98126 46.8625ZM576.7 44.534374Q576.7 43.6125 577.15314 42.971874Q577.6219 42.33125 578.5125 42.33125Q579.325 42.33125 579.85626 42.909374Q580.3875 43.471874 580.3875 44.596874Q580.3875 45.690624 579.84064 46.284374Q579.3094 46.8625 578.5125 46.8625Q577.7469 46.8625 577.21564 46.284374Q576.7 45.70625 576.7 44.534374ZM578.54376 43.05Q578.1375 43.05 577.8719 43.39375Q577.6219 43.7375 577.6219 44.64375Q577.6219 45.45625 577.8875 45.8Q578.15314 46.14375 578.54376 46.14375Q578.9344 46.14375 579.2 45.8Q579.46564 45.45625 579.46564 44.55Q579.46564 43.721874 579.2 43.39375Q578.9344 43.05 578.54376 43.05Z" fill-rule="nonzero"/><path stroke="#757575" stroke-width="1.0" stroke-linecap="butt" d="M581.45 34.05L472.95 34.05L341.04935 32.30175" fill-rule="nonzero"/><path fill="#9e9e9e" d="M343.04935 32.30175C343.04935 31.19718 342.15393 30.301748 341.04935 30.301748C339.94476 30.301748 339.04935 31.19718 339.04935 32.30175C339.04935 33.40632 339.94476 34.30175 341.04935 34.30175C342.15393 34.30175 343.04935 33.40632 343.04935 32.30175" fill-rule="nonzero"/><path fill="#1a1a1a" d="M494.9969 329.6844L496.0594 329.59064Q496.1375 330.2469 496.41876 330.65314Q496.7 331.0594 497.27814 331.325Q497.8719 331.575 498.60626 331.575Q499.2469 331.575 499.7469 331.3875Q500.2469 331.1844 500.48126 330.85626Q500.73126 330.5125 500.73126 330.1219Q500.73126 329.71564 500.4969 329.41876Q500.2625 329.10626 499.73126 328.90314Q499.3719 328.7625 498.1844 328.48126Q497.0125 328.2 496.54376 327.95Q495.91876 327.6219 495.6219 327.15314Q495.325 326.66876 495.325 326.075Q495.325 325.4344 495.6844 324.8719Q496.0594 324.29376 496.7625 324.0125Q497.48126 323.71564 498.34064 323.71564Q499.29376 323.71564 500.02814 324.02814Q500.7625 324.325 501.15314 324.9344Q501.54376 325.52814 501.575 326.27814L500.48126 326.35626Q500.3875 325.54376 499.8719 325.1375Q499.3719 324.71564 498.3875 324.71564Q497.35626 324.71564 496.8875 325.09064Q496.41876 325.46564 496.41876 325.9969Q496.41876 326.46564 496.7469 326.7625Q497.075 327.0594 498.45 327.3719Q499.84064 327.6844 500.35626 327.91876Q501.10626 328.27814 501.46564 328.8094Q501.825 329.325 501.825 330.02814Q501.825 330.71564 501.4344 331.325Q501.04376 331.91876 500.3094 332.2625Q499.575 332.59064 498.65314 332.59064Q497.48126 332.59064 496.6844 332.2625Q495.90314 331.91876 495.45 331.23126Q495.0125 330.54376 494.9969 329.6844ZM507.3094 331.6844Q506.71564 332.1844 506.16876 332.3875Q505.6375 332.59064 505.0125 332.59064Q503.98126 332.59064 503.4344 332.09064Q502.8875 331.59064 502.8875 330.8094Q502.8875 330.35626 503.09064 329.98126Q503.29376 329.59064 503.6375 329.3719Q503.98126 329.1375 504.40314 329.02814Q504.7 328.9344 505.34064 328.85626Q506.60626 328.71564 507.21564 328.4969Q507.21564 328.27814 507.21564 328.23126Q507.21564 327.575 506.91876 327.3094Q506.5125 326.96564 505.71564 326.96564Q504.98126 326.96564 504.6219 327.23126Q504.2625 327.48126 504.09064 328.1375L503.0594 327.9969Q503.2 327.34064 503.52814 326.9344Q503.85626 326.52814 504.46564 326.3094Q505.075 326.09064 505.8719 326.09064Q506.66876 326.09064 507.16876 326.27814Q507.66876 326.46564 507.90314 326.7469Q508.1375 327.02814 508.23126 327.46564Q508.27814 327.73126 508.27814 328.4344L508.27814 329.84064Q508.27814 331.3094 508.34064 331.7Q508.41876 332.09064 508.6219 332.45L507.5125 332.45Q507.35626 332.1219 507.3094 331.6844ZM507.21564 329.325Q506.6375 329.5594 505.4969 329.73126Q504.84064 329.825 504.575 329.95Q504.3094 330.0594 504.15314 330.27814Q504.0125 330.4969 504.0125 330.77814Q504.0125 331.2 504.325 331.48126Q504.65314 331.7625 505.2625 331.7625Q505.8719 331.7625 506.34064 331.4969Q506.825 331.23126 507.04376 330.7625Q507.21564 330.40314 507.21564 329.71564L507.21564 329.325ZM514.21564 334.84064L514.21564 331.79376Q513.96564 332.1375 513.5125 332.3719Q513.075 332.59064 512.575 332.59064Q511.46564 332.59064 510.66876 331.71564Q509.8719 330.825 509.8719 329.27814Q509.8719 328.34064 510.2 327.60626Q510.52814 326.85626 511.1375 326.48126Q511.7625 326.09064 512.4969 326.09064Q513.65314 326.09064 514.3094 327.0594L514.3094 326.23126L515.2625 326.23126L515.2625 334.84064L514.21564 334.84064ZM510.95 329.325Q510.95 330.52814 511.45 331.1219Q511.96564 331.71564 512.66876 331.71564Q513.34064 331.71564 513.825 331.15314Q514.3094 330.575 514.3094 329.41876Q514.3094 328.16876 513.79376 327.54376Q513.29376 326.91876 512.59064 326.91876Q511.91876 326.91876 511.4344 327.5125Q510.95 328.09064 510.95 329.325ZM521.325 332.45L521.325 331.52814Q520.59064 332.59064 519.34064 332.59064Q518.79376 332.59064 518.3094 332.3875Q517.84064 332.16876 517.60626 331.85626Q517.3719 331.52814 517.27814 331.0594Q517.21564 330.7625 517.21564 330.075L517.21564 326.23126L518.27814 326.23126L518.27814 329.6844Q518.27814 330.4969 518.34064 330.79376Q518.4344 331.2 518.7469 331.45Q519.075 331.6844 519.5594 331.6844Q520.02814 331.6844 520.4344 331.45Q520.85626 331.2 521.02814 330.77814Q521.21564 330.35626 521.21564 329.5594L521.21564 326.23126L522.2625 326.23126L522.2625 332.45L521.325 332.45ZM523.85626 329.34064Q523.85626 327.60626 524.8094 326.77814Q525.60626 326.09064 526.7625 326.09064Q528.04376 326.09064 528.85626 326.9344Q529.6844 327.7625 529.6844 329.2469Q529.6844 330.45 529.325 331.1375Q528.96564 331.825 528.2625 332.21564Q527.575 332.59064 526.7625 332.59064Q525.46564 332.59064 524.65314 331.7625Q523.85626 330.91876 523.85626 329.34064ZM524.9344 329.34064Q524.9344 330.52814 525.45 331.1219Q525.98126 331.71564 526.7625 331.71564Q527.5594 331.71564 528.075 331.1219Q528.59064 330.52814 528.59064 329.3094Q528.59064 328.15314 528.0594 327.5594Q527.54376 326.96564 526.7625 326.96564Q525.98126 326.96564 525.45 327.5594Q524.9344 328.1375 524.9344 329.34064ZM531.2469 332.45L531.2469 326.23126L532.1844 326.23126L532.1844 327.10626Q532.8719 326.09064 534.16876 326.09064Q534.73126 326.09064 535.2 326.29376Q535.6844 326.4969 535.91876 326.825Q536.15314 327.15314 536.2469 327.59064Q536.29376 327.8875 536.29376 328.6219L536.29376 332.45L535.2469 332.45L535.2469 328.66876Q535.2469 328.0125 535.1219 327.7Q534.9969 327.3875 534.6844 327.2Q534.3719 326.9969 533.95 326.9969Q533.27814 326.9969 532.77814 327.4344Q532.29376 327.85626 532.29376 329.04376L532.29376 332.45L531.2469 332.45ZM541.325 332.45L541.325 323.85626L544.5594 323.85626Q545.54376 323.85626 546.1375 324.1219Q546.73126 324.3875 547.0594 324.9344Q547.40314 325.46564 547.40314 326.0594Q547.40314 326.60626 547.10626 327.09064Q546.8094 327.575 546.2 327.8719Q546.98126 328.10626 547.3875 328.66876Q547.8094 329.21564 547.8094 329.96564Q547.8094 330.5594 547.5594 331.09064Q547.3094 331.60626 546.9344 331.8875Q546.5594 332.16876 545.98126 332.3094Q545.41876 332.45 544.60626 332.45L541.325 332.45ZM542.46564 327.46564L544.325 327.46564Q545.075 327.46564 545.40314 327.3719Q545.84064 327.2469 546.0594 326.95Q546.27814 326.6375 546.27814 326.1844Q546.27814 325.7625 546.075 325.4344Q545.8719 325.10626 545.48126 324.9969Q545.10626 324.8719 544.1844 324.8719L542.46564 324.8719L542.46564 327.46564ZM542.46564 331.4344L544.60626 331.4344Q545.15314 331.4344 545.3719 331.3875Q545.77814 331.325 546.02814 331.16876Q546.29376 330.9969 546.46564 330.6844Q546.6375 330.3719 546.6375 329.96564Q546.6375 329.48126 546.3875 329.1219Q546.15314 328.7625 545.71564 328.6219Q545.27814 328.48126 544.45 328.48126L542.46564 328.48126L542.46564 331.4344ZM553.3094 331.6844Q552.71564 332.1844 552.16876 332.3875Q551.6375 332.59064 551.0125 332.59064Q549.98126 332.59064 549.4344 332.09064Q548.8875 331.59064 548.8875 330.8094Q548.8875 330.35626 549.09064 329.98126Q549.29376 329.59064 549.6375 329.3719Q549.98126 329.1375 550.40314 329.02814Q550.7 328.9344 551.34064 328.85626Q552.60626 328.71564 553.21564 328.4969Q553.21564 328.27814 553.21564 328.23126Q553.21564 327.575 552.91876 327.3094Q552.5125 326.96564 551.71564 326.96564Q550.98126 326.96564 550.6219 327.23126Q550.2625 327.48126 550.09064 328.1375L549.0594 327.9969Q549.2 327.34064 549.52814 326.9344Q549.85626 326.52814 550.46564 326.3094Q551.075 326.09064 551.8719 326.09064Q552.66876 326.09064 553.16876 326.27814Q553.66876 326.46564 553.90314 326.7469Q554.1375 327.02814 554.23126 327.46564Q554.27814 327.73126 554.27814 328.4344L554.27814 329.84064Q554.27814 331.3094 554.34064 331.7Q554.41876 332.09064 554.6219 332.45L553.5125 332.45Q553.35626 332.1219 553.3094 331.6844ZM553.21564 329.325Q552.6375 329.5594 551.4969 329.73126Q550.84064 329.825 550.575 329.95Q550.3094 330.0594 550.15314 330.27814Q550.0125 330.4969 550.0125 330.77814Q550.0125 331.2 550.325 331.48126Q550.65314 331.7625 551.2625 331.7625Q551.8719 331.7625 552.34064 331.4969Q552.825 331.23126 553.04376 330.7625Q553.21564 330.40314 553.21564 329.71564L553.21564 329.325ZM556.23126 332.45L556.23126 326.23126L557.1844 326.23126L557.1844 327.16876Q557.54376 326.5125 557.84064 326.3094Q558.15314 326.09064 558.52814 326.09064Q559.0594 326.09064 559.60626 326.41876L559.2469 327.40314Q558.85626 327.16876 558.48126 327.16876Q558.1219 327.16876 557.84064 327.3875Q557.575 327.59064 557.46564 327.96564Q557.27814 328.52814 557.27814 329.1844L557.27814 332.45L556.23126 332.45ZM560.2469 332.45L560.2469 323.85626L561.3094 323.85626L561.3094 328.7625L563.79376 326.23126L565.16876 326.23126L562.77814 328.52814L565.40314 332.45L564.10626 332.45L562.04376 329.2625L561.3094 329.98126L561.3094 332.45L560.2469 332.45ZM566.21564 332.45L566.21564 323.85626L567.27814 323.85626L567.27814 332.45L566.21564 332.45ZM573.4969 330.45L574.59064 330.575Q574.34064 331.52814 573.6375 332.0594Q572.9344 332.59064 571.85626 332.59064Q570.4969 332.59064 569.6844 331.7469Q568.8875 330.90314 568.8875 329.3875Q568.8875 327.825 569.7 326.96564Q570.5125 326.09064 571.79376 326.09064Q573.04376 326.09064 573.825 326.9344Q574.6219 327.77814 574.6219 329.325Q574.6219 329.41876 574.6219 329.60626L569.98126 329.60626Q570.04376 330.6375 570.5594 331.1844Q571.075 331.71564 571.85626 331.71564Q572.4344 331.71564 572.84064 331.41876Q573.2625 331.10626 573.4969 330.45ZM570.04376 328.7469L573.5125 328.7469Q573.45 327.95 573.1219 327.5594Q572.60626 326.95 571.8094 326.95Q571.075 326.95 570.575 327.4344Q570.09064 327.91876 570.04376 328.7469ZM576.2 334.84064L576.075 333.85626Q576.41876 333.95 576.6844 333.95Q577.02814 333.95 577.23126 333.825Q577.45 333.71564 577.59064 333.5125Q577.6844 333.34064 577.91876 332.71564Q577.9344 332.6375 578.0125 332.46564L575.6375 326.23126L576.77814 326.23126L578.075 329.825Q578.325 330.5125 578.52814 331.27814Q578.71564 330.54376 578.96564 329.85626L580.29376 326.23126L581.34064 326.23126L578.98126 332.5594Q578.59064 333.575 578.3875 333.96564Q578.10626 334.4969 577.73126 334.73126Q577.3719 334.98126 576.8719 334.98126Q576.575 334.98126 576.2 334.84064Z" fill-rule="nonzero"/><path fill="#9e9e9e" d="M547.0125 341.98126L547.0125 340.96564L552.575 340.96564L552.575 341.79376Q551.7625 342.66876 550.95 344.1219Q550.15314 345.5594 549.71564 347.09064Q549.3875 348.16876 549.3094 349.45L548.21564 349.45Q548.23126 348.4344 548.60626 346.9969Q548.9969 345.5594 549.7 344.23126Q550.41876 342.90314 551.23126 341.98126L547.0125 341.98126ZM553.95 347.2L555.0594 347.10626Q555.1844 347.91876 555.6219 348.325Q556.075 348.73126 556.71564 348.73126Q557.46564 348.73126 557.9969 348.15314Q558.52814 347.575 558.52814 346.6375Q558.52814 345.73126 558.0125 345.21564Q557.5125 344.6844 556.6844 344.6844Q556.1844 344.6844 555.7625 344.91876Q555.35626 345.15314 555.1219 345.5125L554.1375 345.3875L554.96564 340.98126L559.2469 340.98126L559.2469 341.98126L555.8094 341.98126L555.35626 344.29376Q556.1219 343.7469 556.96564 343.7469Q558.09064 343.7469 558.85626 344.52814Q559.6375 345.3094 559.6375 346.54376Q559.6375 347.7 558.96564 348.5594Q558.1375 349.59064 556.71564 349.59064Q555.54376 349.59064 554.79376 348.9344Q554.0594 348.27814 553.95 347.2ZM561.54376 349.45L561.54376 348.2469L562.7469 348.2469L562.7469 349.45L561.54376 349.45ZM563.95 345.21564Q563.95 343.6844 564.2625 342.7625Q564.575 341.825 565.1844 341.325Q565.8094 340.825 566.7469 340.825Q567.4344 340.825 567.95 341.10626Q568.48126 341.3875 568.825 341.91876Q569.16876 342.4344 569.35626 343.1844Q569.54376 343.9344 569.54376 345.21564Q569.54376 346.73126 569.23126 347.65314Q568.9344 348.575 568.3094 349.09064Q567.7 349.59064 566.7469 349.59064Q565.5125 349.59064 564.79376 348.7Q563.95 347.6375 563.95 345.21564ZM565.02814 345.21564Q565.02814 347.325 565.52814 348.02814Q566.02814 348.73126 566.7469 348.73126Q567.48126 348.73126 567.96564 348.02814Q568.46564 347.325 568.46564 345.21564Q568.46564 343.09064 567.96564 342.40314Q567.48126 341.7 566.73126 341.7Q566.0125 341.7 565.575 342.3094Q565.02814 343.09064 565.02814 345.21564ZM571.15314 342.91876Q571.15314 341.9969 571.60626 341.35626Q572.075 340.71564 572.95 340.71564Q573.7625 340.71564 574.29376 341.29376Q574.825 341.8719 574.825 342.98126Q574.825 344.075 574.27814 344.66876Q573.7469 345.2469 572.96564 345.2469Q572.1844 345.2469 571.66876 344.66876Q571.15314 344.09064 571.15314 342.91876ZM572.98126 341.4344Q572.59064 341.4344 572.325 341.77814Q572.075 342.1219 572.075 343.02814Q572.075 343.85626 572.325 344.2Q572.59064 344.52814 572.98126 344.52814Q573.3875 344.52814 573.6375 344.1844Q573.90314 343.84064 573.90314 342.95Q573.90314 342.10626 573.6375 341.77814Q573.3719 341.4344 572.98126 341.4344ZM572.98126 349.7625L577.6844 340.71564L578.54376 340.71564L573.85626 349.7625L572.98126 349.7625ZM576.7 347.4344Q576.7 346.5125 577.15314 345.8719Q577.6219 345.23126 578.5125 345.23126Q579.325 345.23126 579.85626 345.8094Q580.3875 346.3719 580.3875 347.4969Q580.3875 348.59064 579.84064 349.1844Q579.3094 349.7625 578.5125 349.7625Q577.7469 349.7625 577.21564 349.1844Q576.7 348.60626 576.7 347.4344ZM578.54376 345.95Q578.1375 345.95 577.8719 346.29376Q577.6219 346.6375 577.6219 347.54376Q577.6219 348.35626 577.8875 348.7Q578.15314 349.04376 578.54376 349.04376Q578.9344 349.04376 579.2 348.7Q579.46564 348.35626 579.46564 347.45Q579.46564 346.6219 579.2 346.29376Q578.9344 345.95 578.54376 345.95Z" fill-rule="nonzero"/><path stroke="#757575" stroke-width="1.0" stroke-linecap="butt" d="M581.45 336.95L472.95 336.95L341.04935 338.69824" fill-rule="nonzero"/><path fill="#9e9e9e" d="M343.04935 338.69824C343.04935 337.5937 342.15393 336.69824 341.04935 336.69824C339.94476 336.69824 339.04935 337.5937 339.04935 338.69824C339.04935 339.80283 339.94476 340.69824 341.04935 340.69824C342.15393 340.69824 343.04935 339.80283 343.04935 338.69824" fill-rule="nonzero"/></svg>